<svg class="main-svg" xmlns="http://www.w3.org/2000/svg" xmlns:xlink="http://www.w3.org/1999/xlink" width="600" height="300" viewBox="0 0 600 300"><rect x="0" y="0" width="600" height="300" style="fill: rgb(255, 255, 255); fill-opacity: 1;"/><defs id="defs-ed07b6"><g class="clips"><clipPath id="cliped07b6xyplot" class="plotclip"><rect width="520" height="218"/></clipPath><clipPath class="axesclip" id="cliped07b6x"><rect x="55" y="0" width="520" height="300"/></clipPath><clipPath class="axesclip" id="cliped07b6y"><rect x="0" y="25" width="600" height="218"/></clipPath><clipPath class="axesclip" id="cliped07b6xy"><rect x="55" y="25" width="520" height="218"/></clipPath></g><g class="gradients"/></defs><g class="bglayer"><rect class="bg" x="51" y="21" width="528" height="226" style="fill: rgb(229, 236, 246); fill-opacity: 1; stroke-width: 0;"/></g><g class="layer-below"><g class="imagelayer"/><g class="shapelayer"/></g><g class="cartesianlayer"><g class="subplot xy"><g class="layer-subplot"><g class="shapelayer"/><g class="imagelayer"/></g><g class="gridlayer"><g class="x"><path class="xgrid crisp" transform="translate(227.39,0)" d="M0,25v218" style="stroke: rgb(255, 255, 255); stroke-opacity: 1; stroke-width: 1px;"/><path class="xgrid crisp" transform="translate(400.25,0)" d="M0,25v218" style="stroke: rgb(255, 255, 255); stroke-opacity: 1; stroke-width: 1px;"/><path class="xgrid crisp" transform="translate(573.11,0)" d="M0,25v218" style="stroke: rgb(255, 255, 255); stroke-opacity: 1; stroke-width: 1px;"/></g><g class="y"><path class="ygrid crisp" transform="translate(0,222.52)" d="M55,0h520" style="stroke: rgb(255, 255, 255); stroke-opacity: 1; stroke-width: 1px;"/><path class="ygrid crisp" transform="translate(0,152.14)" d="M55,0h520" style="stroke: rgb(255, 255, 255); stroke-opacity: 1; stroke-width: 1px;"/><path class="ygrid crisp" transform="translate(0,81.77000000000001)" d="M55,0h520" style="stroke: rgb(255, 255, 255); stroke-opacity: 1; stroke-width: 1px;"/></g></g><g class="zerolinelayer"/><path class="xlines-below"/><path class="ylines-below"/><g class="overlines-below"/><g class="xaxislayer-below"/><g class="yaxislayer-below"/><g class="overaxes-below"/><g class="plot" transform="translate(55, 25)" clip-path="url('#cliped07b6xyplot')"><g class="scatterlayer mlayer"><g class="trace scatter trace4a4097" style="stroke-miterlimit: 2; opacity: 1;"><g class="fills"/><g class="errorbars"/><g class="lines"><path class="js-line" d="M0,22.09L4.26,21.34L4.74,19.39L5.68,20.74L6.16,20.89L8.52,19.16L9,21.54L9.47,21.61L9.95,20.89L11.37,20.13L11.84,21.87L12.79,21.59L13.26,22.93L15.15,21.45L15.63,20.48L16.1,19.39L16.58,20.03L17.05,20.25L18.47,21.57L18.94,21.65L19.42,22.32L19.89,21.66L20.84,19.48L21.31,20.17L22.26,21.03L22.73,21.71L23.68,21.54L24.15,20.26L24.63,19.31L25.1,19.94L25.57,19.98L26.52,18.39L26.99,19.66L27.94,19.14L28.42,19.45L29.84,20.73L30.31,20.72L30.78,19.85L31.26,21.25L31.73,22.24L32.2,21.48L32.68,19.79L33.15,21.79L34.1,20.68L34.57,21.58L35.05,22.56L35.52,20.64L35.99,21.22L36.47,19.46L36.94,20.09L37.41,22.31L38.83,21.15L39.31,22.19L40.73,26.03L41.2,25.63L41.68,24.21L42.15,24.37L42.62,25.66L44.04,25.92L44.52,24.2L47.36,23.58L47.83,22.45L49.25,22.4L49.73,22.82L52.09,19.04L52.57,19.34L53.04,18.07L53.52,18.29L53.99,17.8L54.94,15.86L55.41,16.37L55.88,17L56.36,15.64L57.78,15.29L58.25,15.57L60.15,17.69L60.62,17.44L62.51,20.47L62.99,20.33L63.46,20.62L63.93,19.78L67.72,23.86L68.2,23.24L69.62,21.57L70.09,22.7L70.56,24.05L71.04,23.43L71.51,23.51L71.99,23.86L72.46,22.63L74.35,20.98L74.83,20.03L76.25,19.54L76.72,18.16L77.67,16.57L78.14,17.29L79.09,15.6L79.56,16.36L81.46,17.91L81.93,18.56L84.3,17.18L84.77,18.11L85.72,19.29L86.19,18.75L86.67,19.06L87.61,19.04L88.09,18.27L89.03,16.68L89.51,17.19L89.98,17.94L90.93,19.34L91.4,18.62L92.35,17.71L92.82,17.32L93.3,19.24L93.77,18.64L94.24,18.77L94.72,18.1L95.19,18.58L95.66,19.75L97.09,19.81L97.56,19.66L98.51,20.65L98.98,20.85L100.4,20.86L100.87,20.8L102.3,21.44L102.77,20.05L103.72,19.24L104.19,18.76L104.66,18.59L105.14,16.72L105.61,17.2L106.08,15.7L107.03,15.84L107.5,15.99L109.4,14.97L109.87,16.22L111.29,16.99L111.77,16.6L113.19,20.26L113.66,21.19L116.98,15.96L117.45,16.42L118.4,16.27L118.87,16.58L119.34,14.26L119.82,15.57L120.29,15.18L121.24,12.74L121.71,13.96L122.66,13.52L123.13,15.32L123.61,14.9L124.08,15.46L124.55,15.15L125.03,13.65L125.5,13.91L125.97,13.57L126.92,13.98L127.4,13.46L128.82,17.02L129.29,18.84L129.76,18.1L130.24,18.89L132.13,20.49L132.6,19.17L133.08,18.98L133.55,20.33L134.5,20.16L134.97,19.39L135.45,19.46L135.92,18.27L137.81,15.75L138.29,15.05L140.18,17.49L140.66,16.71L141.13,16.55L141.6,17.48L143.5,18.06L143.97,18.25L146.34,18.87L146.81,20.28L147.76,18.85L148.23,18.72L149.18,20.04L149.65,19.18L151.07,18.53L151.55,19.61L152.97,21.83L153.44,21.05L153.92,19.76L154.39,21.55L155.34,20.79L155.81,19.18L156.28,19.06L156.76,20.93L157.7,20.25L158.18,21.19L159.6,17.43L160.07,16.89L161.02,18.99L161.49,18.9L161.97,17.88L162.44,18.53L162.91,18.44L164.34,16.27L164.81,17.23L165.28,16.43L165.76,17.64L167.18,19.61L167.65,18.8L168.12,19.31L168.6,18.66L169.54,20.67L170.02,20.42L170.49,20.27L172.86,19.94L173.33,19.14L174.75,17.13L175.23,15.32L176.65,12.92L177.12,13.85L177.6,12.68L178.07,14.23L178.54,14.07L179.02,12.59L179.96,13.41L180.44,12.4L180.91,12.13L181.38,13.67L181.86,13.48L182.33,14.39L182.81,16.57L183.28,16.2L183.75,16.19L184.23,15.3L184.7,16.44L185.65,13.72L186.12,14.6L188.96,16.87L189.44,16.98L191.33,16.5L191.8,16.53L192.75,17.58L193.22,17.4L194.64,17.1L195.12,16.07L196.07,13.98L196.54,14.83L197.01,14.56L197.49,15.18L198.91,13.76L199.38,14.11L200.8,14.34L201.28,14.41L202.22,14.89L202.7,13.87L203.64,14.86L204.12,13.81L205.06,14.05L205.54,15.74L206.48,15.97L206.96,14.86L207.43,15.67L207.91,14.8L208.85,15.6L209.33,16.62L209.8,18.02L210.27,17.72L210.75,16.18L211.69,18.05L212.17,17.52L212.64,16.73L213.59,16.25L214.06,17.43L215.48,16.18L215.96,16.22L216.9,15.9L217.38,16.84L218.32,18.26L218.8,17.48L220.69,20.28L221.17,19.32L221.64,19.34L222.11,20.59L222.59,21.26L223.06,19.39L223.53,18.2L224.01,19.04L225.43,17.83L225.9,16.94L227.8,15.34L228.27,16.01L229.22,16.64L229.69,15.99L230.64,17.23L231.11,16.69L231.58,16.09L232.06,16.99L232.53,15.37L233.01,15.93L233.48,15.45L234.43,15.6L234.9,14.25L237.27,13.16L237.74,14.34L240.58,16.83L241.06,15.98L242.48,19.36L242.95,18.9L243.9,20.11L244.37,21.64L246.27,19.35L246.74,20.43L247.21,19.36L247.69,19.62L248.16,19.6L248.63,20.83L249.11,19.66L250.53,18.24L251,16.34L252.42,15.26L252.9,15.76L253.84,15.32L254.32,17.06L255.74,15.36L256.21,15.98L256.68,14.84L257.16,15.97L257.63,16.37L258.11,18.14L259.05,17.76L259.53,17.5L260,18.76L260.47,18.4L260.95,17.89L262.37,16.44L262.84,16.24L263.79,18.06L264.26,17.46L264.74,17.65L265.21,16.92L266.63,19.53L267.1,17.54L269.47,20.85L269.95,20.99L270.42,20.41L270.89,21.56L271.84,20.59L272.31,20.95L274.68,19.16L275.15,19.97L276.1,16.63L276.58,16.85L277.05,16.57L278.94,13.89L279.42,13.52L280.36,14.06L280.84,14.98L281.79,16.48L282.26,15.61L284.63,15.61L285.1,15.3L286.52,15.96L286.99,14.68L288.42,12.6L288.89,13.55L289.84,14.43L290.31,14.83L293.15,17.99L293.62,18.21L295.05,16.15L295.52,17L297.41,13.45L297.89,13.51L298.83,12.2L299.31,12.71L300.73,12.01L301.2,14.18L302.62,15.04L303.1,16.15L303.57,14.45L304.04,16.23L304.52,18.04L304.99,17.69L305.46,16.74L305.94,18.48L306.41,17.66L306.89,18.26L308.78,18.79L309.25,18.59L312.09,15.25L312.57,17.54L313.52,15.29L313.99,15.68L314.94,16.58L315.41,15.19L316.36,15.68L316.83,14.52L317.3,14.7L317.78,16.32L318.72,17.04L319.2,17.73L319.67,16.83L320.15,17.55L321.09,17.57L321.57,17.18L322.99,17.56L323.46,16.59L324.41,17.3L324.88,16.45L327.25,13.19L327.72,14.27L329.14,13.21L329.62,13.31L331.04,14.54L331.51,13.59L331.99,13.49L332.46,14.8L333.88,14.06L334.35,14.88L335.77,15.79L336.25,15.04L336.72,15.59L337.19,12.55L337.67,13.41L338.14,12.05L339.09,13.42L339.56,12.39L340.51,12.48L340.98,13.93L343.35,16.11L343.83,15.42L344.3,18.08L344.77,17.89L345.25,18.32L345.72,19.11L346.19,18.81L346.67,18.94L347.61,20.77L348.09,20.11L348.56,19.19L350.46,14.78L350.93,15.41L351.88,14.58L352.35,15.34L352.82,13.73L353.3,14.38L353.77,14.89L355.19,14.45L355.66,15.92L356.14,15.67L356.61,17.46L357.56,17.62L358.03,16.53L358.98,15.7L359.45,16.06L361.35,18.06L361.82,16.34L362.3,16.5L362.77,15.48L363.24,16.59L363.72,16L364.19,15.53L365.14,16.4L365.61,17.46L367.5,15.31L367.98,14.27L369.87,11.43L370.35,11.43L372.24,11.19L372.71,10.9L377.45,17.84L377.92,18.91L378.87,18.76L379.34,17.7L379.82,17.66L380.29,16.85L380.77,16.27L381.24,16.83L381.71,17.03L382.66,16.01L383.13,16.55L384.08,17.38L384.55,15.86L385.03,14.51L385.5,15.16L385.97,16.87L387.4,19.7L387.87,18.92L388.82,17.53L389.29,18.28L390.24,18.29L390.71,17.61L391.66,16.99L392.13,18.03L392.6,18.39L393.08,17.07L393.55,17.28L394.03,16.64L394.97,16.13L395.45,16.78L395.92,17.98L396.39,17.43L396.87,18.11L398.29,20.69L398.76,22.33L400.18,21.91L400.66,22.04L401.13,22.08L401.6,21.23L402.55,22.75L403.02,21.35L403.5,21.17L403.97,19.73L404.92,19.05L405.39,17.7L406.34,18.27L406.81,16.81L408.23,17.47L408.71,19.24L409.65,16.94L410.13,18.06L412.02,20.13L412.5,20.49L413.44,19.68L413.92,21.16L414.86,21.17L415.34,21.07L415.81,21.38L416.28,22.85L416.76,23.03L417.23,24.91L418.65,26.38L419.13,26.23L421.02,23.37L421.49,25.02L422.44,23.45L422.91,21.18L423.86,19.53L424.34,16.72L425.76,15.15L426.23,14.58L426.7,16.02L427.18,15.54L427.65,15.71L428.12,16.35L428.6,14.99L429.07,14.39L429.54,14.82L430.02,15.75L432.39,18.12L432.86,18.18L433.81,17.95L434.28,18.79L434.75,20.01L435.23,19.46L435.7,19.31L437.6,21.18L438.07,20.16L439.02,21.95L439.49,21.14L440.91,20.87L441.38,20.13L441.86,19.45L442.33,20.68L443.75,23.59L444.23,23.12L445.17,23.01L445.65,20.67L447.07,18.87L447.54,18.9L448.49,19.69L448.96,19.6L449.44,19L449.91,16.42L451.33,14.42L451.8,15.32L452.28,14.72L452.75,16.44L453.7,17.59L454.17,19.94L454.64,20.23L455.12,19.64L456.07,19.98L456.54,19.69L457.96,22.96L458.43,23.51L458.91,23.99L459.38,25.85L461.28,23.58L461.75,24.26L463.64,22.03L464.12,22.1L465.06,20.64L465.54,21.44L466.01,21.65L466.48,20.76L467.43,21.77L467.91,21.61L469.33,23.12L469.8,23.71L470.27,25.26L470.75,25.05L471.22,24.27L471.69,25.93L472.17,25.73L472.64,23.2L474.06,21.59L474.54,21.75L475.96,22.78L476.43,22.34L477.38,21.02L477.85,22.38L478.8,22.63L479.27,22.85L480.69,26.65L481.17,26.09L481.64,26.6L482.11,25.84L483.53,23.41L484.01,23.7L484.48,23.82L484.95,22.17L485.9,22.77L486.38,24.04L487.8,21.84L488.27,22.67L489.22,21.87L489.69,22.75L491.58,21.86L492.06,22.96L493.48,19.2L493.95,19.46L494.9,20.56L495.37,19.79L496.79,18.83L497.27,19.33L498.21,20.4L498.69,20.14L499.16,20.48L499.64,22.21L501.06,25.32L501.53,26.33L502,26.01L502.48,26.78L503.9,28.94L504.37,29.26L505.32,26.38L505.79,26.85L506.27,27.1L506.74,26.14L507.21,24.74L507.69,24.91L508.16,24.35L509.58,21.98L510.05,20.95L511.48,20.56L511.95,21.82L512.9,23.64L513.37,23.43L513.84,24.31L514.79,24.73L515.26,24.56L515.74,25.68L516.21,25.31L516.68,25.68L520,25.68" style="vector-effect: non-scaling-stroke; fill: none; stroke: rgb(99, 110, 250); stroke-opacity: 1; stroke-width: 2px; opacity: 1;"/></g><g class="points"/><g class="text"/></g><g class="trace scatter traceba287c" style="stroke-miterlimit: 2; opacity: 1;"><g class="fills"/><g class="errorbars"/><g class="lines"><path class="js-line" d="M0,60.29L3.32,60.29L3.79,61.36L4.74,60.09L5.21,61.23L5.68,60.53L6.16,61.4L8.05,58.16L8.52,58.66L9,60.5L9.47,59.58L9.95,59.6L12.31,57.94L12.79,59.01L13.26,58.63L13.73,60.26L14.21,60.44L14.68,61.74L15.63,62.67L16.1,61.35L17.05,60.13L17.52,60.84L19.42,62.45L19.89,61.11L20.36,61.5L20.84,60.39L23.21,57.63L23.68,57.86L24.63,58.76L25.1,58.82L26.52,55.63L26.99,56.99L27.94,57.01L28.42,58.4L28.89,58.49L29.36,59.56L31.73,60.51L32.2,58.77L33.62,59.77L34.1,58.54L36.47,58.86L36.94,58.14L38.36,54.1L38.83,52.87L40.26,54.46L40.73,54.08L41.2,53.86L41.68,52.56L43.57,49.03L44.04,49.14L45.46,52.21L45.94,52.63L47.83,52.07L48.31,52.46L49.25,54.2L49.73,52.75L50.67,52.07L51.15,51.73L53.04,47.38L53.52,45.78L54.46,46.29L54.94,44.87L55.88,45.47L56.36,43.74L58.72,46.67L59.2,46.76L60.62,48.32L61.09,47.61L62.51,45.88L62.99,45.66L63.93,45.67L64.41,43.65L65.83,39.57L66.3,41.49L67.25,41.06L67.72,39.72L69.62,41.94L70.09,41.49L71.04,41.1L71.51,42.25L71.99,41.57L72.46,42L72.93,43.95L73.88,42.25L74.35,42.32L74.83,45.12L75.3,44.24L75.77,45.2L76.72,43.55L77.19,44.33L78.14,46.21L78.62,45.8L79.56,48L80.04,45.71L80.51,45.04L80.98,46.37L81.93,45.4L82.4,46L83.83,44.32L84.3,45.01L84.77,43.63L85.25,43.81L85.72,44.5L86.19,43.56L86.67,44.59L87.61,48.19L88.09,47.13L88.56,47.79L89.03,47L89.98,46.28L90.46,47.51L91.4,46.28L91.88,47.24L93.3,46.74L93.77,45.84L95.19,43.09L95.66,43.53L97.09,43.02L97.56,42.96L98.03,43.55L98.51,42.08L99.45,40.1L99.93,40.53L100.4,40.93L100.87,39.71L101.35,40.61L102.3,41.01L102.77,38.64L104.66,37.74L105.14,37.77L105.61,38.03L106.08,37.03L106.56,36.85L107.03,35.14L108.45,34.05L108.93,33.41L109.4,32.51L109.87,33.93L110.82,34.33L111.29,34.61L112.24,34.35L112.71,35.55L113.66,36.54L114.13,37.42L114.61,37.59L115.08,38.99L116.98,40.6L117.45,39.51L117.92,38.73L118.4,40.29L119.34,39.41L119.82,38.18L120.29,37.7L120.77,38.28L121.24,38.49L122.19,38.99L122.66,37.37L123.13,36.71L123.61,37.11L124.08,38.08L125.03,39.98L125.5,38.05L125.97,37.23L126.45,37.81L126.92,38.05L127.4,37.83L127.87,36.46L129.29,33.66L129.76,35.22L130.24,35.69L130.71,34.79L132.6,33.89L133.08,35.64L133.55,34.9L134.03,35.94L136.39,40.19L136.87,40.37L138.76,41.42L139.23,40.8L139.71,41.95L140.18,40.11L140.66,40.59L141.13,39.45L142.08,39.03L142.55,38.8L143.97,37.55L144.44,37.01L144.92,37.76L145.39,37.44L145.87,37.52L146.34,37.61L146.81,36.69L149.18,39.97L149.65,38.79L151.55,38.98L152.02,38.23L152.97,38.6L153.44,38.46L153.92,39.37L154.39,39.03L154.86,37.28L155.81,37.66L156.28,37.08L157.23,40.93L157.7,41.2L159.13,41.32L159.6,40.29L160.55,40.72L161.02,40.14L161.97,42.67L162.44,41.36L163.39,40.8L163.86,38.46L164.34,37.89L164.81,38.46L165.28,38.82L165.76,39.71L166.23,38.2L168.12,39.58L168.6,38.95L169.54,37.24L170.02,38.04L170.97,37.86L171.44,35.87L173.33,32.47L173.81,32.37L175.23,29.63L175.7,29.71L177.12,30.75L177.6,30.1L178.07,29.41L178.54,31.04L180.91,30.38L181.38,30.45L182.81,27.71L183.28,29.34L184.7,30.86L185.17,32.82L186.12,33.33L186.59,33.23L188.01,32.84L188.49,33.61L189.91,34.87L190.38,33.1L191.33,32.76L191.8,31.94L193.22,30.16L193.7,30.03L194.64,29.49L195.12,28.16L196.54,23.92L197.01,23.92L197.49,24.41L197.96,22.22L199.85,22.31L200.33,22.6L202.22,24.46L202.7,26.8L204.12,27.95L204.59,26.02L205.54,27.75L206.01,26.2L207.91,25.26L208.38,26.48L209.33,27.61L209.8,27.23L210.75,28.63L211.22,30.43L211.69,32.54L212.17,32.15L212.64,31.24L213.11,32.91L213.59,32.5L214.06,32.56L215.01,33.41L215.48,34.54L215.96,34.38L216.43,33.37L217.38,31.94L217.85,30.13L218.8,27.6L219.27,28.37L219.74,29.01L220.22,27.6L221.64,28.32L222.11,27.01L222.59,25.76L223.06,25.97L223.53,27.94L224.48,27.27L224.95,28.96L226.38,30.84L226.85,30.04L227.8,29.36L228.27,28.38L228.74,28.05L229.22,28.99L230.64,26.23L231.11,27.05L231.58,27.86L232.06,26.76L233.95,24.28L234.43,26.16L234.9,27.25L235.37,26.55L235.85,26.2L237.27,25.41L237.74,24.37L239.16,22.95L239.64,24.15L241.53,24.71L242,24.69L242.95,25.64L243.42,25L246.27,30.01L246.74,29.69L247.21,29.39L247.69,30.25L248.16,30.86L248.63,29.49L249.11,29.67L249.58,28.47L251.95,27.35L252.42,27.67L254.79,21.58L255.26,20.02L256.68,21.69L257.16,20.68L258.58,21.07L259.05,20.53L259.53,19.66L260,20.52L260.47,20.47L260.95,21.46L261.89,21.93L262.37,23.07L263.32,22.4L263.79,23.11L265.21,24.77L265.68,24.19L267.58,27.07L268.05,27.1L269,28.8L269.47,27.76L269.95,27.97L270.42,26.78L271.37,25.06L271.84,25.65L272.79,26.33L273.26,25.11L275.15,23.5L275.63,22.02L276.1,22.29L276.58,23.53L278,24.25L278.47,23.41L279.89,20.61L280.36,22.43L281.31,20.13L281.79,21.15L282.73,21.31L283.21,20.77L283.68,19.33L284.15,19.71L284.63,19.92L285.57,19.84L286.05,20.16L286.99,21.14L287.47,19.71L289.36,19.67L289.84,18.97L291.73,19.01L292.2,20.37L293.15,21.56L293.62,20.68L294.1,19.19L294.57,19.67L295.05,19.19L295.52,19.82L295.99,19.11L296.94,19.69L297.41,19.98L297.89,19.33L298.36,19.91L298.83,21.16L299.31,21.03L299.78,19.76L301.2,20.13L301.68,19.56L302.62,21.01L303.1,21.16L303.57,20.65L304.04,21.88L304.52,21.69L304.99,22.38L305.46,22.8L305.94,22.11L307.83,27.09L308.31,28.56L308.78,28.9L309.25,27.55L310.2,28.14L310.67,29.45L312.09,29.73L312.57,28.96L313.04,29.48L313.52,26.94L315.41,25.04L315.88,25.45L316.36,25.26L316.83,24.06L317.3,24.08L317.78,22.28L319.2,19.13L319.67,18.83L320.15,16.41L320.62,16.6L321.09,16.88L323.46,11.75L323.93,11.97L325.36,14.7L325.83,15.42L326.78,13.51L327.25,15.44L327.72,14.55L328.2,15.81L329.62,18.21L330.09,19.19L331.51,22.76L331.99,23.64L332.93,23.85L333.41,25.26L333.88,26.82L334.35,26.42L334.83,27.06L335.3,26.35L335.77,27.03L336.25,26.85L336.72,28.02L337.67,27.12L338.14,28.13L339.56,28.46L340.04,28.21L341.93,32.6L342.4,32.43L343.35,33.21L343.83,31.41L344.3,32.26L344.77,31.34L346.19,26.21L346.67,26.53L347.14,26.61L348.56,23.53L349.03,23.82L349.51,23.59L349.98,21.23L350.46,22.34L350.93,22.62L352.35,22.66L352.82,23.7L355.66,21.72L356.14,22.4L358.03,25.62L358.51,25.03L363.24,34.04L363.72,33.71L364.66,33.81L365.14,33.66L367.03,34.06L367.5,33.2L367.98,33.7L368.45,32.93L369.4,31.29L369.87,31.52L370.35,31.23L371.29,32.49L371.77,32.3L373.19,33.35L373.66,33.22L374.13,33.42L374.61,34.48L376.03,36.64L376.5,36.64L378.4,33.98L378.87,36.15L381.24,37.29L381.71,38.54L382.19,36.62L382.66,37.46L383.13,38.66L384.08,39.24L384.55,39.39L385.97,39.82L386.45,39.51L387.87,41.74L388.34,41.66L388.82,40.97L389.29,42.23L390.71,41.68L391.18,42.67L392.13,41.84L392.6,42.58L393.55,42.06L394.03,40.99L394.5,40.93L394.97,42.18L395.45,41.67L395.92,43.07L397.34,42.5L397.81,42.97L399.23,46.25L399.71,45.57L400.18,45.52L400.66,46.63L401.13,47.11L401.6,46.37L402.08,44.97L402.55,45.79L403.02,45.59L403.97,46.05L404.44,45.42L405.39,45.62L405.87,44.34L407.29,43.04L407.76,42.98L408.23,42.61L408.71,44.35L409.18,45.44L409.65,44.91L410.13,43.34L410.6,43.05L411.07,44.2L413.44,49.34L413.92,50.58L414.39,51.65L414.86,51.03L415.34,51.45L416.28,51.84L416.76,53.31L417.23,53.63L417.7,55.16L418.65,55.69L419.13,56.2L420.07,55.77L420.55,54.88L421.49,53.76L421.97,55.52L422.91,56.61L423.39,56.12L423.86,56.16L424.34,57.06L426.23,55.33L426.7,56.21L428.6,59.68L429.07,59.02L430.49,58.56L430.97,58.72L431.91,59.69L432.39,58.84L433.33,59.79L433.81,59.2L434.28,58.57L434.75,58.93L435.23,60.87L436.65,61.68L437.12,63.72L439.02,68.29L439.49,69.94L442.33,72.45L442.81,72.18L443.75,73.04L444.23,72.47L444.7,72.68L445.17,71.88L446.59,69.56L447.07,69.98L448.96,70.71L449.44,69.78L450.86,71.77L451.33,72.61L452.28,73.52L452.75,74.98L455.59,78.71L456.07,79.31L457.01,79.31L457.49,78.53L458.91,76.44L459.38,77.19L460.8,78.82L461.28,77.4L462.22,76.65L462.7,74.64L463.64,73.42L464.12,74.39L465.54,74.87L466.01,73.99L468.38,68.73L468.85,68.25L469.8,69.63L470.27,70.23L470.75,71.43L471.22,70.05L472.17,70.13L472.64,69.89L477.38,77.96L477.85,78.18L480.69,81L481.17,79.03L481.64,76.94L482.11,77.54L482.59,77.24L483.53,76.28L484.01,76.44L484.48,76.39L484.95,75.2L485.43,75.42L485.9,74.67L488.27,74.92L488.74,75.9L489.69,74.42L490.16,74.57L491.58,73.82L492.06,74.95L492.53,74.66L493.01,76.01L493.95,75.16L494.43,76.56L495.85,74.8L496.32,74.18L497.74,74.02L498.21,74.94L499.16,74.44L499.64,74.61L500.11,74.11L500.58,74.64L501.06,75.56L503.42,81.75L503.9,83.87L506.27,87.19L506.74,87.46L507.69,87.65L508.16,86.89L508.63,85.79L509.11,86.26L509.58,88.11L510.05,87.91L510.53,89.2L512.42,86.51L512.9,86.46L513.37,86.3L513.84,87.09L516.21,89.75L516.68,88.22L520,88.22" style="vector-effect: non-scaling-stroke; fill: none; stroke: rgb(239, 85, 59); stroke-opacity: 1; stroke-width: 2px; opacity: 1;"/></g><g class="points"/><g class="text"/></g><g class="trace scatter trace6ef97c" style="stroke-miterlimit: 2; opacity: 1;"><g class="fills"/><g class="errorbars"/><g class="lines"><path class="js-line" d="M0,98.02L4.74,97.41L5.21,97.18L6.16,97.23L6.63,96.31L7.1,96.45L7.58,95.79L8.52,97.25L9,99.38L10.42,97.71L10.89,97.92L11.84,96.42L12.31,97.76L13.73,101.22L14.21,100.88L14.68,100.86L16.1,97.54L16.58,98.78L17.05,100.54L17.52,100.13L18,99.69L19.42,100.58L19.89,99.16L20.36,100.09L20.84,98.57L22.26,99.77L22.73,100.36L24.15,97.74L24.63,98.82L25.57,99.6L26.05,99.82L26.52,98.53L26.99,99.37L27.47,98.69L29.36,97.6L29.84,98.33L31.26,100.03L31.73,98.05L32.2,96.85L32.68,97.07L33.15,97.45L34.1,98.13L34.57,97.04L35.05,97.67L35.52,96.7L35.99,97.47L36.47,96.02L38.36,89.55L38.83,90.39L39.78,89.98L40.26,88.91L42.15,84.28L42.62,84.03L43.1,82.4L43.57,83.96L44.04,83.94L44.52,85.75L45.46,86.62L45.94,85.34L46.41,86.58L46.89,86.2L47.36,85.62L48.78,88L49.25,88.14L50.2,88.42L50.67,87.62L51.15,88.46L51.62,86.4L52.57,85.8L53.04,86.42L54.94,84.03L55.41,83.89L57.3,82.87L57.78,81.48L58.25,80.73L58.72,81.63L60.62,78.27L61.09,78.95L61.57,79.75L62.04,78.83L62.51,77.88L62.99,79.11L63.46,79.79L63.93,79.27L64.41,79.38L66.78,83.37L67.25,82.99L68.67,82.67L69.14,83.55L69.62,84.8L70.09,83.21L70.56,83.33L71.04,85.11L71.51,84.68L71.99,86L72.93,84.73L73.41,85.5L73.88,85.31L74.35,86.43L76.25,87.21L76.72,86.47L77.67,86.04L78.14,85.46L79.56,86.07L80.04,87.68L80.98,86.67L81.46,87.48L81.93,87.56L82.4,86.48L83.35,85.98L83.83,86.71L84.77,88.58L85.25,88.3L87.14,87.94L87.61,87.19L88.09,87.07L88.56,84.55L89.51,84.11L89.98,84.63L90.93,82.08L91.4,79.89L92.82,78.88L93.3,77.86L94.24,76.28L94.72,76.68L95.19,76L95.66,77.02L96.14,77.36L96.61,76.57L97.09,75.62L97.56,76.48L98.51,77.8L98.98,77.36L99.45,77.25L100.4,74.18L100.87,74.95L101.35,74.24L101.82,73.45L102.3,74.12L105.14,71.55L105.61,72.05L106.56,72.32L107.03,72.86L107.98,74.35L108.45,74.47L108.93,74.88L109.4,74.17L110.35,73.97L110.82,75.39L113.19,72.66L113.66,71.71L114.13,73.11L114.61,72.23L115.08,71.16L116.5,72.83L116.98,72.03L117.92,71.79L118.4,72.8L119.82,73.35L120.29,74.56L120.77,75.17L121.24,73.96L122.19,74.69L122.66,74.2L123.61,73.98L124.08,74.23L125.03,73.87L125.5,72.71L127.4,69.18L127.87,69.13L129.29,71.34L129.76,71.43L130.71,70.89L131.18,71.7L132.13,70.83L132.6,72.02L134.5,74.73L134.97,75L135.92,73.51L136.39,72.4L137.34,74.77L137.81,74.11L138.29,73.77L138.76,76.22L140.18,79.24L140.66,77.93L141.6,76.53L142.08,78.12L142.55,77.11L143.02,78.64L143.5,78.65L143.97,76.62L144.44,76.05L144.92,76.61L145.39,76.65L146.81,73.64L147.29,72.66L147.76,72.91L148.23,75L148.71,75.72L149.18,74.43L150.13,75.62L150.6,75.19L151.07,75.73L151.55,76.81L152.02,76L152.5,76.27L152.97,77.48L154.39,77.97L154.86,79.05L155.34,79.25L155.81,78.6L157.23,77.47L157.7,78.4L158.65,78.05L159.13,78.2L161.49,77.8L161.97,77.25L162.44,76.9L162.91,77.49L163.39,78.34L163.86,77.41L164.81,76.7L165.28,76.79L166.7,78.38L167.18,78.25L167.65,78.95L168.12,78.21L170.97,75.1L171.44,75.4L172.39,72.3L172.86,70.88L175.7,63.32L176.17,63.59L177.12,61.73L177.6,62.51L178.54,62.16L179.02,61.68L180.44,62.34L180.91,62.45L181.38,62.66L181.86,64.79L183.28,64.91L183.75,64.69L184.7,65.66L185.17,65.93L185.65,66.19L186.12,67.34L187.54,69.81L188.01,69.31L189.44,67.77L189.91,68.24L190.38,68.6L190.86,70.24L191.8,69.15L192.28,68.61L193.22,69.09L193.7,68.51L194.17,67.83L194.64,68.41L195.12,68.62L196.54,69.11L197.01,67.69L197.49,68.07L197.96,65.75L199.38,64.33L199.85,62.33L200.33,61.61L200.8,62.57L201.28,63.09L201.75,62.32L202.22,63.19L202.7,62.9L203.17,61.17L205.06,60.02L205.54,60.66L206.96,63.74L207.43,62.71L208.38,60.54L208.85,61.04L209.33,60.55L212.17,64.82L212.64,64.81L213.59,64.86L214.06,63.8L215.48,67.7L215.96,67.26L216.43,67.55L217.85,68.74L218.32,68.96L218.8,68.73L219.27,69.71L220.22,70.29L220.69,70.62L221.17,72.13L221.64,70.89L222.11,71L222.59,69.42L223.06,69.22L223.53,69.92L224.48,67.45L224.95,67.81L225.43,67.48L227.32,63.53L227.8,63.17L229.22,61.26L229.69,61.7L230.16,62.37L230.64,61.08L231.11,61.69L231.58,60.96L232.53,59.68L233.01,60.65L233.95,61.52L234.43,60.98L234.9,61.05L235.37,62.07L236.79,64.08L237.27,62.87L238.21,63.4L238.69,65.57L239.64,68.39L240.11,68.13L240.58,66.56L241.06,66.06L241.53,66.87L242,68.42L242.48,67.92L242.95,68.42L244.37,66.61L244.85,66.68L245.32,66.95L245.79,65.65L246.27,65.76L246.74,64.86L247.21,65.1L247.69,66.76L248.16,67.74L248.63,65.83L249.11,63.61L249.58,64.32L250.05,64.2L250.53,64.2L251,62.65L251.48,62.89L251.95,61.89L252.9,61.1L253.37,60.86L255.26,61.28L255.74,62.67L256.21,63.68L256.68,62.13L257.16,59.98L257.63,60.18L258.11,62.04L258.58,62.42L259.05,64.68L259.53,64.36L260,65.08L260.47,64.18L260.95,64.48L261.42,65.42L262.84,61.63L263.32,60.99L264.26,62.98L264.74,62.67L265.21,62.34L265.68,61.69L266.16,59.32L267.58,60.75L268.05,59.52L268.52,59.23L269,60.56L271.37,64.08L271.84,63.38L272.31,63.07L272.79,65.19L273.73,66.94L274.21,66.36L275.15,64.8L275.63,63.59L277.05,58.63L277.52,59.68L278,58.97L278.47,56.9L278.94,58.5L279.42,58L279.89,56.18L281.79,52.87L282.26,53.98L282.73,53.3L283.21,54.87L284.15,55.13L284.63,54.18L285.57,54.95L286.05,54.07L288.89,56.66L289.36,56.43L291.26,56.29L291.73,56.75L292.2,55.27L292.68,55.91L293.15,55.91L293.62,55.43L294.1,56.06L295.52,53.78L295.99,54.56L297.41,56.16L297.89,55.8L298.83,54.51L299.31,55.04L300.73,55.29L301.2,53.68L302.15,55.11L302.62,57.06L303.57,56.97L304.04,58.13L304.99,59.58L305.46,61.13L306.89,61.99L307.36,62.74L308.78,64.39L309.25,64.35L309.73,64.25L310.2,64.99L312.09,64.3L312.57,63.35L313.52,64.22L313.99,63.26L314.46,64.06L314.94,62.62L315.41,62.25L315.88,60.2L316.36,60.93L316.83,59.53L319.67,52.52L320.15,52.86L321.57,51.02L322.04,51.8L322.99,53.48L323.46,51.83L324.41,51.58L324.88,52.77L325.36,52.81L325.83,54.39L326.78,57.13L327.25,54.29L328.67,55.08L329.14,54.02L331.99,58.54L332.46,58.86L333.41,57.46L333.88,58.55L334.83,62.36L335.3,62.16L335.77,61.44L336.25,63.13L336.72,62.74L337.19,62.79L337.67,63.67L338.14,61.46L339.56,64.17L340.04,65.1L342.4,62.23L342.88,62.6L343.83,61.98L344.3,62.98L344.77,61.6L345.25,62.77L346.67,59.09L347.14,58.11L348.09,59.28L348.56,59.42L349.98,60.19L350.46,59.47L350.93,60.22L351.4,59.62L351.88,59.39L352.35,58.92L352.82,59.62L354.72,58.08L355.19,59.29L355.66,58.56L356.14,59.62L357.56,62L358.03,61.9L358.51,62.28L358.98,63.8L363.24,75.62L363.72,75.51L367.03,75.06L367.5,75.01L369.87,74.13L370.35,74.75L372.24,75.41L372.71,76.36L373.19,75.24L373.66,75.59L374.13,75.79L375.08,75.24L375.56,76.08L377.45,73.94L377.92,73.56L378.4,72.39L378.87,72.8L379.34,72.67L379.82,71.89L380.29,72.86L380.77,72.15L381.24,73.42L381.71,74.23L382.19,73.95L382.66,72.84L384.08,75.7L384.55,75.2L386.92,80.48L387.4,79.7L387.87,80.57L388.34,80.17L388.82,80.14L390.71,81.78L391.18,80.93L392.13,80.81L392.6,80.42L393.08,80.53L393.55,82.79L394.5,82.03L394.97,82.64L398.76,86.73L399.23,88.7L399.71,89.6L400.18,88.7L400.66,87.24L401.13,87.57L401.6,88.62L403.02,89.5L403.5,89.15L405.39,88.6L405.87,89.47L406.34,88.52L406.81,89.04L407.29,89.09L408.71,90.6L409.18,89.92L410.13,89.75L410.6,90.35L412.02,92.72L412.5,91.42L413.92,89.3L414.39,90.53L415.34,88.85L415.81,89.21L416.28,90.01L417.7,90.56L418.18,89.44L420.07,91.6L420.55,92.38L422.44,95.22L422.91,94.69L423.86,93.38L424.34,93.81L425.76,92.2L426.23,91.8L427.18,92.55L427.65,92.17L428.12,91.89L428.6,92.52L430.02,93.44L430.49,94.62L433.33,100.93L433.81,100.39L434.75,102.65L435.23,103.28L435.7,102.33L436.17,102.77L436.65,103.63L438.54,104.58L439.02,104.53L439.49,106.47L439.96,105.65L440.44,106.14L440.91,107.58L441.38,107.41L441.86,107.42L442.81,106.68L443.28,107.07L443.75,106.5L444.23,107.49L445.17,108.06L445.65,108.85L446.59,109.84L447.07,109.64L448.01,109.6L448.49,111.3L448.96,111.32L449.44,112.69L450.38,115.64L450.86,115.45L451.33,114.95L453.7,116.48L454.17,117.18L455.12,117.13L455.59,115.95L457.01,116.92L457.49,116.01L458.91,119.39L459.38,118.26L459.85,116.92L460.33,118.22L461.75,117.82L462.22,117.03L462.7,117.34L463.17,115.74L463.64,115.74L464.12,114.39L466.01,111.12L466.48,111.46L466.96,111.92L467.43,110.4L468.85,108.8L469.33,110.1L470.75,110.65L471.22,110.32L472.17,111.55L472.64,111.71L473.59,111L474.06,111.37L476.9,115.25L477.38,115.38L477.85,115.37L478.32,116.14L478.8,115.84L479.27,116.47L479.74,115.66L480.22,116.52L481.17,116.8L481.64,115.19L484.01,113.55L484.48,114.12L485.43,114.73L485.9,114.67L486.85,114.33L487.32,114.49L488.74,114.77L489.22,113.91L490.64,113.35L491.11,112.24L491.58,112.94L492.06,112.53L492.53,111.67L494.9,110.89L495.37,109.95L498.21,113.05L498.69,112.56L499.16,112.06L499.64,111.3L500.11,112.03L502,114.85L502.48,116.46L502.95,116.7L503.42,119.02L503.9,118.41L504.37,119.14L505.79,120.16L506.27,121.7L507.21,123.44L507.69,123.25L508.16,124.28L508.63,123.82L509.11,123.89L511.48,124.95L511.95,124.08L513.37,124.78L513.84,126.14L515.26,126.66L515.74,127.53L517.16,128.69L517.63,128.69L520,128.69" style="vector-effect: non-scaling-stroke; fill: none; stroke: rgb(0, 204, 150); stroke-opacity: 1; stroke-width: 2px; opacity: 1;"/></g><g class="points"/><g class="text"/></g><g class="trace scatter trace8883a9" style="stroke-miterlimit: 2; opacity: 1;"><g class="fills"/><g class="errorbars"/><g class="lines"><path class="js-line" d="M0,137.11L3.79,136.5L4.26,135.69L4.74,135.12L5.21,135.93L7.1,136.29L7.58,135.17L8.52,135.85L9,135.99L9.95,136.96L10.42,135.94L11.37,136.18L11.84,136.61L12.79,136.63L13.26,137.4L14.21,137.49L14.68,138.75L15.63,138.18L16.1,138.46L18.47,141.24L18.94,140.72L19.42,141.39L19.89,140.34L21.79,136.91L22.26,138.02L25.1,133.57L25.57,133.29L28.89,136.99L29.36,135.12L29.84,136.05L30.31,135.62L30.78,135.12L31.73,133.12L32.2,134.67L33.62,135.93L34.1,134.75L34.57,135.08L35.05,134.26L37.89,132.7L38.36,132.19L38.83,132.7L39.31,130.43L41.2,124.95L41.68,124.06L42.15,124.12L42.62,122.83L44.04,121.08L44.52,121.3L45.94,120.2L46.41,120.98L47.36,120.62L47.83,120.98L49.25,120.65L49.73,119.55L50.67,118.54L51.15,118.8L52.09,119.02L52.57,120.01L53.52,120.07L53.99,120.19L55.88,117.16L56.36,117.92L57.3,118.55L57.78,118.13L59.2,117.43L59.67,117.09L61.09,115.86L61.57,116.8L62.99,117.52L63.46,116.66L65.36,117.54L65.83,118.59L66.78,119.39L67.25,118.54L67.72,117.89L68.2,120.55L70.09,123.41L70.56,123.58L72.93,126.65L73.41,126.01L73.88,124.41L74.35,124.93L74.83,126.4L76.25,124.25L76.72,123.72L79.56,122.19L80.04,121.02L81.46,122.72L81.93,122.01L83.35,121.36L83.83,122.17L84.3,122.47L84.77,121.8L85.25,122.26L85.72,121.15L86.67,120.65L87.14,121.58L89.03,122.09L89.51,121.31L89.98,121.37L90.46,120.64L91.88,120.21L92.35,119.36L93.3,120.49L93.77,119.35L95.66,116.13L96.14,115.85L97.56,116.12L98.03,115.47L98.98,113.37L99.45,114.82L99.93,114.46L100.4,113.09L101.82,113.04L102.3,113.06L103.72,114.82L104.19,114.67L105.14,113.01L105.61,114.97L106.08,115.42L106.56,113.32L107.5,114.03L107.98,113.97L110.82,108.78L111.29,108.52L112.24,108.89L112.71,108.12L114.13,106.32L114.61,106.48L115.08,105.88L115.56,106.74L117.45,106.26L117.92,106.85L118.87,107.26L119.34,107.08L122.19,111.64L122.66,110.26L123.13,111.17L123.61,110.51L124.08,110.65L124.55,110L125.03,110.67L125.97,111.59L126.45,111.5L127.87,109.71L128.34,109.06L129.29,107.99L129.76,109.01L130.24,109L130.71,110.13L131.66,112.5L132.13,111.91L132.6,111.22L133.08,112.61L134.5,115.08L134.97,115.53L137.34,119.32L137.81,119.14L138.29,118.31L138.76,119.24L139.71,119.69L140.18,118.75L141.6,117.79L142.08,117.74L143.02,115.87L143.5,115.41L143.97,115.51L144.44,114.81L145.39,117.27L145.87,116.6L146.34,115.94L147.76,116.23L148.23,115.66L151.55,118.96L152.02,117.53L152.97,115.56L153.44,117L154.86,114.68L155.34,115.33L155.81,116.06L156.28,114.51L157.23,113.85L157.7,112.66L158.65,111.34L159.13,112.3L160.07,112.82L160.55,111.02L161.49,110.58L161.97,111.13L162.91,110.04L163.39,111.38L164.34,111.23L164.81,111.88L167.65,113.24L168.12,114.17L168.6,115L169.07,113.83L170.49,111.17L170.97,111.42L171.44,111.62L171.91,110.13L175.7,103.1L176.17,103.73L176.65,103.99L177.12,102.85L178.07,101.48L178.54,100.98L179.49,102.78L179.96,102.05L180.44,102.19L180.91,103.66L181.86,102.63L182.33,103.06L183.75,102.79L184.23,103.93L186.12,105.02L186.59,103.3L187.54,104.52L188.01,102.89L188.49,102.8L188.96,103.89L190.38,103.17L190.86,103.64L191.8,102.56L192.28,103.25L193.22,101.63L193.7,102.59L194.17,100.93L194.64,101.4L195.12,102.17L195.59,102.88L196.07,102.53L196.54,101.38L198.43,99.39L198.91,99.77L199.38,98.42L199.85,99.01L200.33,100.06L200.8,100.15L201.28,101.73L202.7,99.76L203.17,99.82L204.12,99.76L204.59,98.96L205.54,99.4L206.01,97.65L207.43,98.89L207.91,98.16L208.38,98.01L208.85,99.49L209.33,99.78L209.8,99.17L210.27,98.57L210.75,99.29L213.11,104.54L213.59,105.71L215.96,101.9L216.43,102.79L217.38,104.14L217.85,103.72L218.32,102.42L219.27,101.81L219.74,101.84L221.17,100.69L221.64,101.29L222.11,101.6L222.59,103.42L223.06,103.45L223.53,102L224.95,102.19L225.43,102.48L226.38,102.36L226.85,101.92L228.27,103.82L228.74,103.52L229.22,103.77L229.69,102.82L231.11,100.34L231.58,100.14L232.06,99.29L232.53,99.88L233.01,99.51L233.95,99.67L234.43,98.45L235.37,96.89L235.85,97.43L236.32,97.38L236.79,98.65L238.69,101.75L239.16,102.25L240.11,100.81L240.58,99.65L243.9,103.4L244.37,103.16L245.79,102.3L246.27,102.56L248.63,105.94L249.11,105.15L251,100.42L251.48,100.48L252.9,98.47L253.37,98.83L254.79,97.95L255.26,97.74L256.68,96.06L257.16,95.31L258.11,96.55L258.58,95.95L259.53,95.74L260,97.47L261.42,95.56L261.89,96.19L263.32,96.61L263.79,97.42L265.21,95.96L265.68,95.59L266.63,96.85L267.1,96.33L268.05,96.52L268.52,96.85L269,96.33L269.47,96.94L270.42,96.79L270.89,96.48L271.37,97.56L271.84,97.19L272.31,96.94L273.73,98.61L274.21,99.64L274.68,100.07L275.15,98.73L276.1,98.75L276.58,97.27L277.52,97.31L278,96.62L278.47,95.29L278.94,95.9L279.42,95.71L281.79,89.93L282.26,90.29L282.73,90.39L285.1,90.19L285.57,91.25L287.94,94.78L288.42,95.63L288.89,96.5L289.36,96.02L289.84,94.96L290.31,94.39L290.78,95.01L291.26,95.58L291.73,94.71L292.2,95.32L292.68,94.15L295.05,89.43L295.52,88.52L297.41,89.78L297.89,89.78L298.36,89.45L298.83,90.66L299.78,91.19L300.26,92.02L300.73,91.49L301.2,92.58L301.68,92.63L302.15,93.61L302.62,94.02L303.1,93.33L304.52,96.69L304.99,96.15L308.78,102.76L309.25,102.14L311.62,103.15L312.09,104.29L315.41,99.79L315.88,100.69L317.3,97.86L317.78,97.47L319.67,94.94L320.15,95.34L321.57,93.37L322.04,92.6L322.99,90.48L323.46,91.67L323.93,91.64L324.41,90.78L325.83,87.52L326.3,86.22L327.25,88L327.72,87.68L328.2,87.28L328.67,89.36L329.62,90.6L330.09,91.7L332.93,98.08L333.41,98.67L335.3,101.87L335.77,100.68L336.72,102.32L337.19,101.91L338.62,99.75L339.09,100.23L340.51,100.34L340.98,98.81L341.93,98.35L342.4,96.9L342.88,97.49L343.35,96.76L343.83,95.88L344.3,96.47L344.77,97.36L346.67,96.43L347.14,95.61L349.03,95.32L349.51,96.63L350.46,95.15L350.93,95.9L351.4,96.45L351.88,95.94L352.35,94.91L355.66,99.22L356.14,101.83L356.61,102.06L357.09,103.69L358.51,103.3L358.98,104.49L359.93,106.14L360.4,106.56L360.87,106.63L361.35,108.25L361.82,107.62L362.3,108.35L362.77,108.18L363.24,106.56L363.72,106.79L364.19,105.88L365.61,107.43L366.08,106.76L366.56,107.06L367.03,108.41L367.98,108.97L368.45,108.08L371.29,113.21L371.77,113.46L373.19,114.21L373.66,113.57L375.08,112.9L375.56,113.69L376.03,113.82L376.5,112.66L377.45,113.84L377.92,112.36L378.87,110.93L379.34,111.26L380.29,111.33L380.77,111.24L381.24,110.14L381.71,110.88L382.19,112.01L383.61,115.09L384.08,114.77L384.55,114.1L385.5,117.04L385.97,116.84L386.45,117.28L387.4,117.13L387.87,117.85L388.34,117.7L388.82,116.48L390.71,114.12L391.18,115.18L394.03,112.2L394.5,112.91L397.81,117.12L398.29,116.81L399.71,117.95L400.18,119.39L400.66,119.42L401.13,120.89L402.08,119.81L402.55,121.11L403.02,122.11L403.5,121.75L403.97,121.62L404.44,121.97L404.92,121.34L405.39,120.32L405.87,121.89L406.34,123.23L406.81,122.46L407.29,122.15L408.23,122.49L408.71,124.44L409.18,125.8L409.65,125.56L410.13,125.37L410.6,126.33L411.07,125.81L411.55,126.43L412.5,129.05L412.97,128.33L413.44,127.04L414.39,129.62L414.86,129.04L415.34,129.3L416.76,128.84L417.23,128.73L418.18,129.67L418.65,128.89L421.02,131.25L421.49,130.87L422.44,132.29L422.91,131.75L423.39,131.71L424.81,134.46L425.28,134.27L425.76,135.28L426.23,134.9L426.7,135.13L429.07,136.61L429.54,135.89L431.91,137.27L432.39,138.83L433.33,138.74L433.81,139.59L436.17,139.93L436.65,141.49L438.54,143.9L439.02,143.55L439.96,143.89L440.44,144.39L441.38,143.04L441.86,144.3L443.28,146.85L443.75,146.82L444.23,147.12L444.7,146.25L445.17,146.38L445.65,145.62L447.54,146.2L448.01,147.23L448.49,148.74L448.96,148.27L449.44,147.81L451.33,148.09L451.8,148.77L452.28,148.73L452.75,149.56L454.17,151.3L454.64,152.63L456.07,151.86L456.54,152.95L457.01,153.43L457.49,155.02L458.43,154.17L458.91,154.77L460.8,154.83L461.28,153.8L462.7,152.37L463.17,152.43L466.01,147.84L466.48,148.54L466.96,148.49L467.43,146.98L467.91,146.7L468.38,147.4L469.33,147.74L469.8,148.08L470.27,147.94L470.75,146.48L472.17,148.45L472.64,148.19L474.06,147.44L474.54,149.21L476.9,150.85L477.38,150.87L478.8,154.25L479.27,154.42L480.22,154.95L480.69,153.93L481.64,154.99L482.11,154.24L482.59,154.5L483.06,155.84L483.53,154.69L484.01,155.55L487.32,153.72L487.8,154.15L490.16,150.59L490.64,151.86L492.06,150.78L492.53,150.31L493.48,149L493.95,149.65L495.85,150.42L496.32,151.7L497.74,153.95L498.21,154.17L499.16,153.8L499.64,154.76L501.53,158.22L502,158.3L503.42,159.9L503.9,159.5L504.85,159.22L505.32,159.77L506.74,160.98L507.21,160.73L509.58,164.12L510.05,163.46L511,163.54L511.48,163.68L512.9,163.27L513.37,163.88L514.32,166.98L514.79,166.05L515.74,168.03L516.21,167.34L518.11,167.07L518.58,167.07L520,167.07" style="vector-effect: non-scaling-stroke; fill: none; stroke: rgb(171, 99, 250); stroke-opacity: 1; stroke-width: 2px; opacity: 1;"/></g><g class="points"/><g class="text"/></g><g class="trace scatter trace365acd" style="stroke-miterlimit: 2; opacity: 1;"><g class="fills"/><g class="errorbars"/><g class="lines"><path class="js-line" d="M0,176.96L4.74,177.51L5.21,177.77L6.16,177.74L6.63,176.97L8.05,175.6L8.52,175.82L9.47,174.44L9.95,174.04L10.89,174.69L11.37,174.17L12.31,172.5L12.79,173.38L14.21,174.63L14.68,174.66L16.1,173.74L16.58,175.03L17.05,174.71L17.52,172.94L18,173.29L18.47,174.63L20.84,176.42L21.31,175.64L23.68,177.48L24.15,176.9L25.57,177.38L26.05,177.68L27.47,176.66L27.94,176.06L28.42,175.28L28.89,175.95L29.36,175.81L29.84,176.66L30.78,175.34L31.26,177.01L32.2,176.95L32.68,175.34L34.1,174.3L34.57,173.14L35.52,175.12L35.99,172.9L40.73,162.5L41.2,162.07L41.68,162.42L42.15,161.1L42.62,159.75L43.1,160.21L43.57,160.97L44.52,160.68L44.99,161.29L45.94,161.59L46.41,162.23L47.83,161.2L48.31,161.04L48.78,161.2L49.25,159.44L49.73,160.39L50.2,159.69L50.67,158.43L51.62,158.52L52.09,158.23L53.04,157.13L53.52,157.09L54.46,155.38L54.94,154.22L55.88,153.36L56.36,154.62L56.83,153.37L57.3,154.34L57.78,154.69L58.25,153.71L58.72,154.36L59.2,153.3L61.09,154.64L61.57,156.29L62.51,158.36L62.99,157.49L63.46,157.65L63.93,158.88L64.41,158.28L64.88,159.47L65.36,160.06L65.83,159.35L66.78,161.72L67.25,160.01L68.67,158.28L69.14,159.24L71.04,157.88L71.51,158.66L72.46,159.21L72.93,160.31L73.88,160.09L74.35,161.47L75.3,161.5L75.77,160.93L76.72,159.38L77.19,160.27L77.67,160.96L78.14,160.23L79.09,158.51L79.56,158.59L80.51,156.97L80.98,157.52L81.46,157.39L83.83,160.38L84.3,160.41L85.25,159.75L85.72,159.86L86.67,159.12L87.14,158.89L87.61,159.06L88.09,158.13L89.51,156.53L89.98,157.31L90.46,157.26L90.93,156.09L92.35,153.37L92.82,153.43L94.72,150.34L95.19,150.75L95.66,150.89L96.61,149.5L97.09,149.43L97.56,149.4L98.03,150.53L98.98,149.98L99.45,150.59L101.82,152.09L102.3,151.49L103.24,151.01L103.72,151.62L105.14,146.65L105.61,147.43L106.08,148.27L106.56,147.05L107.5,145.61L107.98,146.09L108.45,144.91L108.93,145.43L109.4,145.5L110.82,145.55L111.29,147.12L112.71,149.9L113.19,148.89L113.66,148.73L114.13,149.5L115.08,148.29L115.56,148.9L116.03,148.86L116.5,147.85L117.45,148.58L117.92,148.21L118.87,146.89L119.34,146.88L120.77,147.3L121.24,147.15L122.19,147.42L122.66,146.76L124.55,147.3L125.03,146.58L125.97,147.09L126.45,146.26L127.4,144.88L127.87,146.55L129.29,144.26L129.76,145.18L131.18,145.23L131.66,146.33L132.6,148.25L133.08,147.77L134.03,147.92L134.5,150L134.97,148.84L135.45,149.48L135.92,150.36L138.29,154.15L138.76,152.73L139.23,150.83L139.71,151.51L140.18,151.81L141.13,153.05L141.6,152.04L142.08,153.11L142.55,152.45L143.02,151.79L144.44,149.53L144.92,148.12L145.87,146.59L146.34,147.88L146.81,147.84L147.29,148.6L148.71,149.49L149.18,148.65L150.6,150.46L151.07,150.46L152.97,153.55L153.44,152.65L154.86,151.79L155.34,151.72L156.76,151.34L157.23,151.89L159.13,152.72L159.6,152.69L160.07,152.08L160.55,152.93L161.02,153.57L161.49,151.73L162.44,151.49L162.91,151.83L163.86,151.94L164.34,151.28L165.76,152.58L166.23,151.99L166.7,152.9L167.18,152.56L167.65,151.28L168.12,150.43L168.6,151.27L170.97,147.2L171.44,147.1L172.39,144.24L172.86,143.03L173.33,143.13L173.81,140.59L176.17,138.27L176.65,138.75L179.02,136.7L179.49,137.13L180.44,136.85L180.91,139.34L184.23,143.81L184.7,142.59L185.17,143.25L185.65,142.84L186.12,142.72L187.54,143.56L188.01,142.81L189.91,140.34L190.38,139.98L191.33,138.8L191.8,140.16L193.22,140.64L193.7,139.2L194.17,140.09L194.64,139.57L195.12,137.85L196.07,137.94L196.54,137.65L197.49,135.9L197.96,136.33L198.43,136.87L199.85,134.8L200.33,135.14L201.75,136.77L202.22,136.99L203.17,138.16L203.64,138.1L204.12,137.56L204.59,139.44L205.06,138.52L205.54,139.14L206.01,138.65L206.48,139.06L206.96,137.97L208.85,135.36L209.33,135.58L210.27,134.3L210.75,134.47L211.22,135.25L211.69,134.5L212.17,135.23L212.64,134.18L214.06,136.94L214.54,136.94L215.01,138.42L215.48,138.24L215.96,137.96L217.38,138.54L217.85,138.45L219.27,137.92L219.74,139.67L220.69,137.37L221.17,137.39L221.64,138.31L222.11,137.5L223.06,137.27L223.53,137.82L224.95,136.09L225.43,136.54L225.9,135.72L226.38,136.63L226.85,135.25L227.32,135.86L227.8,136.1L228.27,135.84L228.74,136.74L229.69,138.62L230.16,137.77L231.11,137.32L231.58,137.65L232.06,138.27L232.53,137.67L233.01,137.31L233.95,136.78L234.43,137.7L235.85,136.5L236.32,136.29L236.79,135.13L237.27,135.84L237.74,135.71L238.21,135.84L238.69,136.91L241.06,138.64L241.53,137.93L242.95,137.77L243.42,136.52L245.32,138.23L245.79,136.97L247.21,135.77L247.69,135.53L249.11,137.19L249.58,137.68L251,139.18L251.48,138.47L255.74,137.41L256.21,135.95L257.16,133.75L257.63,134.32L258.11,134.85L260.47,133.91L260.95,131.94L261.42,132.14L261.89,131.25L262.37,131.37L262.84,130.24L264.26,132.21L264.74,131.92L265.21,130.89L265.68,131.17L266.16,130.63L268.52,132.97L269,134.29L270.42,135.42L270.89,135.15L271.84,133.6L272.31,134.09L272.79,134.19L274.68,136.94L275.15,136.55L275.63,137.38L276.1,135.76L277.52,133.35L278,133.69L278.47,133.02L278.94,133.88L281.79,127.56L282.26,128.39L283.68,127.96L284.15,128.66L284.63,128.45L285.1,127.26L285.57,127.04L286.05,125.9L286.99,125.78L287.47,127.18L288.42,126.53L288.89,126.77L289.84,126.87L290.31,127.76L291.26,127.46L291.73,127.35L293.15,129.67L293.62,128.41L294.1,128.56L294.57,127.46L295.05,128.05L295.52,127.04L296.47,126.27L296.94,125.5L298.83,126.47L299.31,125.69L300.26,124.22L300.73,125.78L301.2,125.49L301.68,126.77L302.15,127.25L302.62,128.84L304.04,131.12L304.52,130.27L304.99,131.37L305.46,130.87L305.94,130.9L308.31,134.96L308.78,134.24L310.2,134.28L310.67,134.1L311.15,133.39L311.62,135.02L313.52,136.79L313.99,136.8L314.46,137.6L314.94,136.9L315.88,134.76L316.36,135.01L316.83,134.05L318.25,133.37L318.72,132.56L321.57,126.5L322.04,126.78L323.46,125.49L323.93,126.03L327.25,121.72L327.72,121.79L328.2,122.09L328.67,123.56L331.51,126.88L331.99,128.94L335.3,139.25L335.77,137.89L336.25,137.76L336.72,139.94L338.62,141.96L339.09,140.05L339.56,140.71L340.04,138.97L342.4,135.48L342.88,136.09L344.3,134.49L344.77,135.48L345.72,134.28L346.19,135.44L346.67,134.66L347.14,135.79L348.56,136.43L349.03,135.47L350.46,136.42L350.93,135.61L353.3,131.45L353.77,132.2L354.24,130.84L354.72,131.33L355.19,132.56L356.14,134.58L356.61,133.54L359.93,139.3L360.4,142.05L361.82,144.1L362.3,143.13L363.24,143.12L363.72,144.81L365.14,144.15L365.61,144.11L366.56,146.7L367.03,146.04L368.93,145.11L369.4,145.91L370.82,147.03L371.29,148.65L372.71,149.73L373.19,148.65L374.61,146.23L375.08,145.95L376.03,145.66L376.5,146.05L377.92,146.29L378.4,146.1L380.77,147.96L381.24,149.23L381.71,149.6L382.19,148.91L383.13,151.04L383.61,149.51L385.03,148.98L385.5,149.63L385.97,148.81L386.45,149.2L386.92,148.96L387.4,148.45L387.87,149.82L388.34,149.19L388.82,149.6L389.29,151.5L390.24,151.18L390.71,152.37L392.13,153.51L392.6,152.1L393.55,153.13L394.03,154.8L395.45,156.95L395.92,157.25L396.39,157.19L396.87,157.95L398.29,157.89L398.76,159.03L399.23,159.01L399.71,159.96L400.18,160.23L400.66,159.35L401.13,159.35L401.6,160.49L402.55,160.3L403.02,159.35L405.39,161.63L405.87,161.14L406.34,160.35L406.81,161.51L408.23,164.12L408.71,164.28L410.13,166.27L410.6,165.52L412.02,164.99L412.5,166.07L413.44,168.52L413.92,167.99L414.39,166.92L416.28,163.54L416.76,163.11L418.65,165.15L419.13,165.11L420.55,163.78L421.02,164.39L421.49,165.05L421.97,167.21L422.44,167.59L422.91,169.39L423.39,169.05L423.86,170.09L425.76,170.13L426.23,171.81L427.18,173.52L427.65,172.86L429.07,171.39L429.54,171.87L430.02,171.5L430.49,172.59L431.44,173.27L431.91,173.92L432.86,173.94L433.33,172.52L433.81,172.49L434.28,173.88L436.17,177.67L436.65,178.12L439.96,183.36L440.44,185.8L441.86,187.55L442.33,187.76L442.81,188.24L443.28,187.76L443.75,187.93L444.7,186.37L445.17,186.4L445.65,186.77L446.12,188.29L447.54,186.01L448.01,186.44L448.49,186.86L449.44,188.26L449.91,187.58L451.8,192.41L452.28,192.4L453.22,191.79L453.7,193.19L455.12,195.15L455.59,195.14L456.07,194.68L456.54,195.59L457.01,196.86L457.49,196.44L457.96,195.51L458.43,194.36L458.91,194.67L459.38,194.31L460.33,193.9L460.8,192.95L461.28,192.88L461.75,191.04L465.06,185.65L465.54,185.5L466.96,184.7L467.43,184.25L468.38,183.7L468.85,184.55L470.75,184.19L471.22,184.85L472.64,185.87L473.11,186L473.59,185.12L474.06,185.57L474.54,185.61L477.38,191.68L477.85,191.41L478.32,191.52L478.8,190.79L479.27,192.15L479.74,191.98L480.22,192.51L482.11,194.25L482.59,193.34L483.53,194.18L484.01,193.3L484.95,193.46L485.43,193.76L486.85,192.27L487.32,190.93L487.8,191.28L488.27,190.52L488.74,190.22L489.22,188.95L492.53,186.51L493.01,187.87L493.95,188.08L494.43,188.79L495.85,188.81L496.32,189.04L496.79,189.34L497.27,188.15L498.69,187.18L499.16,188.06L499.64,188.53L500.11,186.69L500.58,187.29L501.06,189.16L503.9,195.43L504.37,197.51L504.85,197.73L505.32,199.45L506.27,202.38L506.74,202.51L507.21,204.53L507.69,204.08L508.16,203.88L509.11,204.4L509.58,204.7L510.53,204.57L511,203.71L511.95,204.85L512.42,203.81L512.9,202.4L513.37,202.83L513.84,203.93L516.68,206.89L517.16,206.89L520,206.89" style="vector-effect: non-scaling-stroke; fill: none; stroke: rgb(255, 161, 90); stroke-opacity: 1; stroke-width: 2px; opacity: 1;"/></g><g class="points"/><g class="text"/></g></g></g><g class="overplot"/><path class="xlines-above crisp" d="M0,0" style="fill: none;"/><path class="ylines-above crisp" d="M0,0" style="fill: none;"/><g class="overlines-above"/><g class="xaxislayer-above"><g class="xtick"><text text-anchor="middle" x="0" y="260" transform="translate(55,0)" style="font-family: 'Open Sans', verdana, arial, sans-serif; font-size: 12px; fill: rgb(42, 63, 95); fill-opacity: 1; white-space: pre;">2014</text></g><g class="xtick"><text text-anchor="middle" x="0" y="260" transform="translate(227.39,0)" style="font-family: 'Open Sans', verdana, arial, sans-serif; font-size: 12px; fill: rgb(42, 63, 95); fill-opacity: 1; white-space: pre;">2015</text></g><g class="xtick"><text text-anchor="middle" x="0" y="260" transform="translate(400.25,0)" style="font-family: 'Open Sans', verdana, arial, sans-serif; font-size: 12px; fill: rgb(42, 63, 95); fill-opacity: 1; white-space: pre;">2016</text></g><g class="xtick"><text text-anchor="middle" x="0" y="260" transform="translate(573.11,0)" style="font-family: 'Open Sans', verdana, arial, sans-serif; font-size: 12px; fill: rgb(42, 63, 95); fill-opacity: 1; white-space: pre;">2017</text></g></g><g class="yaxislayer-above"><g class="ytick"><text text-anchor="end" x="50" y="4.199999999999999" transform="translate(0,222.52)" style="font-family: 'Open Sans', verdana, arial, sans-serif; font-size: 12px; fill: rgb(42, 63, 95); fill-opacity: 1; white-space: pre;">45</text></g><g class="ytick"><text text-anchor="end" x="50" y="4.199999999999999" transform="translate(0,152.14)" style="font-family: 'Open Sans', verdana, arial, sans-serif; font-size: 12px; fill: rgb(42, 63, 95); fill-opacity: 1; white-space: pre;">50</text></g><g class="ytick"><text text-anchor="end" x="50" y="4.199999999999999" transform="translate(0,81.77000000000001)" style="font-family: 'Open Sans', verdana, arial, sans-serif; font-size: 12px; fill: rgb(42, 63, 95); fill-opacity: 1; white-space: pre;">55</text></g></g><g class="overaxes-above"/></g></g><g class="polarlayer"/><g class="ternarylayer"/><g class="geolayer"/><g class="funnelarealayer"/><g class="pielayer"/><g class="treemaplayer"/><g class="sunburstlayer"/><g class="glimages"/><defs id="topdefs-ed07b6"><g class="clips"/><clipPath id="legended07b6"><rect width="116" height="105" x="0" y="0"/></clipPath></defs><g class="layer-above"><g class="imagelayer"/><g class="shapelayer"/></g><g class="infolayer"><g class="legend" pointer-events="all" transform="translate(60.2, 27.180000000000003)"><rect class="bg" shape-rendering="crispEdges" width="116" height="105" x="0" y="0" style="stroke: rgb(68, 68, 68); stroke-opacity: 1; fill: rgb(255, 255, 255); fill-opacity: 1; stroke-width: 0px;"/><g class="scrollbox" transform="translate(0, 0)" clip-path="url('#legended07b6')"><g class="groups"><g class="traces" transform="translate(0, 14.5)" style="opacity: 1;"><text class="legendtext user-select-none" text-anchor="start" x="40" y="4.680000000000001" style="font-family: 'Open Sans', verdana, arial, sans-serif; font-size: 12px; fill: rgb(42, 63, 95); fill-opacity: 1; white-space: pre;">Sem taxação</text><g class="layers" style="opacity: 1;"><g class="legendfill"/><g class="legendlines"><path class="js-line" d="M5,0h30" style="fill: none; stroke: rgb(99, 110, 250); stroke-opacity: 1; stroke-width: 2px;"/></g><g class="legendsymbols"><g class="legendpoints"/></g></g><rect class="legendtoggle" pointer-events="all" x="0" y="-9.5" width="110.359375" height="19" style="cursor: pointer; fill: rgb(0, 0, 0); fill-opacity: 0;"/></g><g class="traces" transform="translate(0, 33.5)" style="opacity: 1;"><text class="legendtext user-select-none" text-anchor="start" x="40" y="4.680000000000001" style="font-family: 'Open Sans', verdana, arial, sans-serif; font-size: 12px; fill: rgb(42, 63, 95); fill-opacity: 1; white-space: pre;">Taxa 1.05</text><g class="layers" style="opacity: 1;"><g class="legendfill"/><g class="legendlines"><path class="js-line" d="M5,0h30" style="fill: none; stroke: rgb(239, 85, 59); stroke-opacity: 1; stroke-width: 2px;"/></g><g class="legendsymbols"><g class="legendpoints"/></g></g><rect class="legendtoggle" pointer-events="all" x="0" y="-9.5" width="110.359375" height="19" style="cursor: pointer; fill: rgb(0, 0, 0); fill-opacity: 0;"/></g><g class="traces" transform="translate(0, 52.5)" style="opacity: 1;"><text class="legendtext user-select-none" text-anchor="start" x="40" y="4.680000000000001" style="font-family: 'Open Sans', verdana, arial, sans-serif; font-size: 12px; fill: rgb(42, 63, 95); fill-opacity: 1; white-space: pre;">Taxa 1.10</text><g class="layers" style="opacity: 1;"><g class="legendfill"/><g class="legendlines"><path class="js-line" d="M5,0h30" style="fill: none; stroke: rgb(0, 204, 150); stroke-opacity: 1; stroke-width: 2px;"/></g><g class="legendsymbols"><g class="legendpoints"/></g></g><rect class="legendtoggle" pointer-events="all" x="0" y="-9.5" width="110.359375" height="19" style="cursor: pointer; fill: rgb(0, 0, 0); fill-opacity: 0;"/></g><g class="traces" transform="translate(0, 71.5)" style="opacity: 1;"><text class="legendtext user-select-none" text-anchor="start" x="40" y="4.680000000000001" style="font-family: 'Open Sans', verdana, arial, sans-serif; font-size: 12px; fill: rgb(42, 63, 95); fill-opacity: 1; white-space: pre;">Taxa 1.15</text><g class="layers" style="opacity: 1;"><g class="legendfill"/><g class="legendlines"><path class="js-line" d="M5,0h30" style="fill: none; stroke: rgb(171, 99, 250); stroke-opacity: 1; stroke-width: 2px;"/></g><g class="legendsymbols"><g class="legendpoints"/></g></g><rect class="legendtoggle" pointer-events="all" x="0" y="-9.5" width="110.359375" height="19" style="cursor: pointer; fill: rgb(0, 0, 0); fill-opacity: 0;"/></g><g class="traces" transform="translate(0, 90.5)" style="opacity: 1;"><text class="legendtext user-select-none" text-anchor="start" x="40" y="4.680000000000001" style="font-family: 'Open Sans', verdana, arial, sans-serif; font-size: 12px; fill: rgb(42, 63, 95); fill-opacity: 1; white-space: pre;">Taxa 1.20</text><g class="layers" style="opacity: 1;"><g class="legendfill"/><g class="legendlines"><path class="js-line" d="M5,0h30" style="fill: none; stroke: rgb(255, 161, 90); stroke-opacity: 1; stroke-width: 2px;"/></g><g class="legendsymbols"><g class="legendpoints"/></g></g><rect class="legendtoggle" pointer-events="all" x="0" y="-9.5" width="110.359375" height="19" style="cursor: pointer; fill: rgb(0, 0, 0); fill-opacity: 0;"/></g></g></g><rect class="scrollbar" rx="20" ry="3" width="0" height="0" x="0" y="0" style="fill: rgb(128, 139, 164); fill-opacity: 1;"/></g><g class="g-gtitle"><text class="gtitle" x="30" y="12.5" text-anchor="start" dy="0em" style="font-family: 'Open Sans', verdana, arial, sans-serif; font-size: 17px; fill: rgb(42, 63, 95); opacity: 1; font-weight: normal; white-space: pre;">Quantidade media de carne consumida por agente</text></g><g class="g-xtitle"><text class="xtitle" x="315" y="287.8" text-anchor="middle" style="font-family: 'Open Sans', verdana, arial, sans-serif; font-size: 14px; fill: rgb(42, 63, 95); opacity: 1; font-weight: normal; white-space: pre;">Tempo (dia)</text></g><g class="g-ytitle" transform="translate(1.1591796875,0)"><text class="ytitle" transform="rotate(-90,11.840625000000003,134)" x="11.840625000000003" y="134" text-anchor="middle" style="font-family: 'Open Sans', verdana, arial, sans-serif; font-size: 14px; fill: rgb(42, 63, 95); opacity: 1; font-weight: normal; white-space: pre;">Quantidade de carne(g)</text></g></g></svg>