<svg class="main-svg" xmlns="http://www.w3.org/2000/svg" xmlns:xlink="http://www.w3.org/1999/xlink" width="600" height="300" viewBox="0 0 600 300"><rect x="0" y="0" width="600" height="300" style="fill: rgb(255, 255, 255); fill-opacity: 1;"/><defs id="defs-8765f3"><g class="clips"><clipPath id="clip8765f3xyplot" class="plotclip"><rect width="520" height="218"/></clipPath><clipPath class="axesclip" id="clip8765f3x"><rect x="55" y="0" width="520" height="300"/></clipPath><clipPath class="axesclip" id="clip8765f3y"><rect x="0" y="25" width="600" height="218"/></clipPath><clipPath class="axesclip" id="clip8765f3xy"><rect x="55" y="25" width="520" height="218"/></clipPath></g><g class="gradients"/></defs><g class="bglayer"><rect class="bg" x="51" y="21" width="528" height="226" style="fill: rgb(229, 236, 246); fill-opacity: 1; stroke-width: 0;"/></g><g class="layer-below"><g class="imagelayer"/><g class="shapelayer"/></g><g class="cartesianlayer"><g class="subplot xy"><g class="layer-subplot"><g class="shapelayer"/><g class="imagelayer"/></g><g class="gridlayer"><g class="x"><path class="xgrid crisp" transform="translate(227.39,0)" d="M0,25v218" style="stroke: rgb(255, 255, 255); stroke-opacity: 1; stroke-width: 1px;"/><path class="xgrid crisp" transform="translate(400.25,0)" d="M0,25v218" style="stroke: rgb(255, 255, 255); stroke-opacity: 1; stroke-width: 1px;"/><path class="xgrid crisp" transform="translate(573.11,0)" d="M0,25v218" style="stroke: rgb(255, 255, 255); stroke-opacity: 1; stroke-width: 1px;"/></g><g class="y"><path class="ygrid crisp" transform="translate(0,173.56)" d="M55,0h520" style="stroke: rgb(255, 255, 255); stroke-opacity: 1; stroke-width: 1px;"/><path class="ygrid crisp" transform="translate(0,93.8)" d="M55,0h520" style="stroke: rgb(255, 255, 255); stroke-opacity: 1; stroke-width: 1px;"/></g></g><g class="zerolinelayer"/><path class="xlines-below"/><path class="ylines-below"/><g class="overlines-below"/><g class="xaxislayer-below"/><g class="yaxislayer-below"/><g class="overaxes-below"/><g class="plot" transform="translate(55, 25)" clip-path="url('#clip8765f3xyplot')"><g class="scatterlayer mlayer"><g class="trace scatter trace024ce9" style="stroke-miterlimit: 2; opacity: 1;"><g class="fills"/><g class="errorbars"/><g class="lines"><path class="js-line" d="M0,28.57L3.32,28.57L3.79,29.87L5.21,33.48L5.68,29.35L6.63,26.54L7.1,25.18L9,34.01L9.47,33.34L9.95,30.03L10.42,30.84L10.89,28.99L11.37,31.96L11.84,30.77L12.31,31.41L13.26,37.18L13.73,37.7L14.21,39.67L14.68,38.74L15.15,36.69L16.58,33.57L17.05,34.22L17.52,34.47L18.47,33.07L18.94,33.55L19.42,35.03L19.89,33.39L21.31,30.55L21.79,30.65L22.26,32.47L22.73,30.28L23.21,30.06L23.68,28.05L24.15,31.95L24.63,31L25.1,33.55L25.57,33.92L26.05,30.16L26.52,29.84L26.99,31.15L27.94,31.72L28.42,35.68L28.89,35.53L29.36,36.48L29.84,40.2L30.31,39.77L30.78,40.67L32.2,36.04L32.68,33.19L33.15,36.45L33.62,35.53L34.1,35.48L34.57,33.54L35.05,36.46L36.47,32.06L36.94,31.45L39.31,31.29L39.78,30.18L41.68,34.48L42.15,33.88L43.1,28.85L43.57,30.83L45.46,24.2L45.94,24.06L47.83,30.51L48.31,28.9L48.78,27.41L49.25,28.13L49.73,30.94L50.2,31.81L50.67,29.36L51.15,32.74L51.62,31.69L52.09,32.59L53.52,38.84L53.99,39.14L54.94,34.03L55.41,34.97L55.88,37.17L56.36,35.17L56.83,34.08L57.3,35.55L57.78,37.02L58.25,34.47L59.67,37.42L60.15,34.79L61.09,31.5L61.57,33.36L62.99,30.52L63.46,26.49L64.41,24.71L64.88,25.8L65.83,27.81L66.3,25.98L67.25,26.23L67.72,27.57L68.2,27.27L68.67,24.37L69.14,26.33L69.62,25.53L70.09,26.58L71.51,33.37L71.99,33.9L72.46,35.53L72.93,33.82L73.41,35.45L73.88,32.34L74.35,30.86L74.83,33.22L75.3,32.83L75.77,33.84L76.72,32.84L77.19,34.26L77.67,33.85L78.14,32.19L79.56,28.97L80.04,30.8L80.51,29.05L80.98,34.49L81.46,34.6L81.93,32.06L82.88,32.11L83.35,32.29L83.83,31.92L84.3,26.61L84.77,26.17L85.25,27.39L86.67,30.69L87.14,28.57L87.61,30.07L88.09,26.2L88.56,24.06L89.03,25.54L91.88,35.77L92.35,34.86L92.82,33.58L93.3,34.51L93.77,30.23L94.24,33.62L94.72,30.92L95.19,32.76L96.14,38.66L96.61,35.45L97.56,34.14L98.03,35.05L99.45,29.42L99.93,31.3L100.4,29.53L100.87,31.04L101.82,34.87L102.3,33.07L103.24,27.51L103.72,31.14L104.66,31.04L105.14,29.02L106.56,34.45L107.03,32.6L107.5,33.38L107.98,32L108.93,28.91L109.4,29.14L109.87,30.73L110.35,30.06L110.82,29.44L111.29,30.08L111.77,27.3L112.71,30L113.19,30.03L115.56,30.13L116.03,27.21L116.5,26.7L116.98,24.72L117.45,25.65L117.92,23.41L119.34,19.67L119.82,19.77L120.29,19.84L120.77,19.04L121.24,17.45L121.71,18.08L122.19,19.24L122.66,18.84L123.13,23.06L123.61,23.79L124.08,26.44L124.55,27.55L125.03,24.54L125.5,25.55L125.97,28.42L126.92,27.96L127.4,25.51L128.34,30.89L128.82,30.29L129.29,29.58L129.76,30.79L130.24,28.91L131.18,30.76L131.66,28.4L132.6,30.61L133.08,26.14L133.55,29.67L134.03,28.64L134.5,30L135.92,26.44L136.39,26.47L137.34,26.75L137.81,23.3L138.29,22.48L138.76,25.68L140.18,27.79L140.66,27.09L142.55,28.57L143.02,27.33L143.97,23.68L144.44,24.98L145.39,27.49L145.87,25.33L146.81,27.98L147.29,30.15L147.76,28.23L148.23,29.75L149.18,31.85L149.65,30.93L151.55,36.85L152.02,36.47L152.5,36.08L152.97,37.95L153.44,37.43L153.92,37.87L154.86,39.15L155.34,34.73L156.28,29.75L156.76,30.81L158.18,33.75L158.65,31.76L159.13,32.2L159.6,29.54L161.02,25.94L161.49,26.47L161.97,25.67L162.44,29.06L163.86,31.98L164.34,31.38L165.28,30.88L165.76,31.04L168.12,39.19L168.6,39.33L169.54,40.14L170.02,40.23L170.49,41.77L170.97,38.75L171.44,38.12L171.91,40.38L172.39,37.12L172.86,38.2L173.33,38.21L174.28,33.33L174.75,34.46L176.17,29.83L176.65,29.91L177.12,28.88L177.6,30.52L178.07,32.45L178.54,30.36L179.02,25.71L179.49,27.77L179.96,26.03L182.81,30.11L183.28,27.97L184.23,27.92L184.7,23.88L185.65,24.94L186.12,27.72L186.59,26.68L187.07,27.69L187.54,24.67L188.01,26.36L188.49,24.65L189.44,26.45L189.91,25.36L190.86,25.13L191.33,25.16L191.8,26.26L192.28,24.75L193.7,28.06L194.17,26.13L195.12,25.6L195.59,28.13L196.07,25.89L196.54,26.95L197.01,25.63L197.96,27.96L198.43,28.56L198.91,28.13L199.38,29.85L199.85,31.07L200.33,29.32L200.8,28.92L201.28,29.75L202.22,28.67L202.7,26.07L203.17,25.58L203.64,22.89L204.12,24.31L204.59,23.99L205.06,22.28L206.01,25.16L206.48,22.54L206.96,19.92L207.43,21.54L207.91,20.68L208.38,20.98L208.85,22.3L209.8,24.51L210.27,26.35L212.17,34.4L212.64,31.81L213.11,31.44L213.59,33.79L214.06,37.75L214.54,33.95L215.96,35.91L216.43,35.29L217.38,31.79L217.85,31.33L218.32,34.44L218.8,32.87L219.27,31.27L220.69,32.97L221.17,30.36L221.64,31.97L222.11,30.15L222.59,31.31L223.06,28.51L223.53,28.94L224.01,31.78L225.43,31.23L225.9,32.71L226.38,30.85L226.85,31.68L227.32,30.74L227.8,28.84L228.27,29.39L228.74,30.98L230.64,36.99L231.11,36.47L231.58,34.18L232.53,31.81L233.01,29.83L233.95,32.05L234.43,32.91L234.9,33.91L235.37,31.82L236.32,36.04L236.79,34.11L237.27,33.15L237.74,29.83L238.21,29.02L238.69,31.12L239.16,33L239.64,32.29L240.11,32.47L241.53,31.8L242,29.67L242.48,31.3L242.95,27.6L243.42,25.25L243.9,26.12L244.37,27.07L245.32,29.66L245.79,27.89L246.27,27.73L246.74,29.23L247.69,24.02L248.16,24.99L250.05,30.95L250.53,30.1L251.95,24.57L252.42,27.55L252.9,28.14L253.37,25.81L253.84,24.71L254.32,27.85L255.74,19.43L256.21,20.72L256.68,20.22L257.63,20.24L258.11,22.09L259.05,27.97L259.53,26.28L260.95,33.54L261.42,33.19L262.84,38.46L263.32,35.81L264.74,38.74L265.21,38.21L265.68,37L267.1,30.2L267.58,32.17L268.05,30.24L268.52,31.31L269,31.31L269.95,29.64L270.42,32.53L270.89,33.49L271.37,30.82L271.84,29.79L272.31,31.79L273.26,33.97L273.73,33.67L274.21,33.67L274.68,28.57L275.15,30.63L275.63,27.86L276.1,28.97L276.58,27.77L277.05,29.19L277.52,28.79L278,26.68L278.94,29.14L279.42,27.04L279.89,23.72L280.36,27.17L280.84,28.97L281.31,28.65L281.79,27.07L282.26,25.28L282.73,28.39L283.21,24.03L283.68,26.19L284.15,25.64L284.63,24.13L285.1,24.91L285.57,26.07L286.05,27.48L286.52,25.95L286.99,25.44L287.47,22.15L289.36,28.04L289.84,26.93L290.31,28.97L290.78,27.78L291.26,22.89L293.62,14.55L294.1,15.51L294.57,15.61L295.05,13.93L296.47,18.17L296.94,19.23L297.89,18.87L298.36,21.65L300.26,29.66L300.73,32.77L301.2,33.58L301.68,31.81L302.15,32.24L302.62,27.77L303.57,23.9L304.04,24.27L304.52,24.35L304.99,25.08L305.46,23.72L305.94,22.68L306.41,24.12L307.83,17.96L308.31,18.14L308.78,19.04L309.25,20.02L309.73,25.24L310.2,25.06L310.67,26.73L311.15,26.23L311.62,28.93L312.09,28.7L312.57,32.39L313.04,34L313.52,30.99L313.99,30.94L314.46,31.65L315.88,35.35L316.36,32.53L316.83,30.24L317.3,30.41L317.78,30.62L318.25,29.01L318.72,24.64L319.2,24.85L319.67,23.71L320.62,22.26L321.09,24.05L322.51,26.26L322.99,25.58L323.93,23.85L324.41,25.3L324.88,24.15L325.36,26.97L326.78,33.51L327.25,35.64L327.72,37.89L328.2,34.56L330.09,27.37L330.56,30.25L331.04,33L331.51,28.57L331.99,28.5L332.46,30.81L333.41,30.03L333.88,27.01L334.83,27.4L335.3,29.6L335.77,32.05L336.25,30.23L336.72,31.44L337.19,30.9L337.67,30.62L338.14,26.86L338.62,31.26L339.09,30.67L339.56,25.64L340.04,24.32L340.51,24.58L340.98,30.53L341.93,26.56L342.4,26.92L342.88,25.84L343.35,26.45L343.83,26.17L344.3,30.82L344.77,30.31L345.25,31.2L346.19,29.84L346.67,30.56L347.61,32.04L348.09,27.25L348.56,28.46L349.03,25.37L349.51,22.03L349.98,23.79L350.46,23.77L350.93,24.94L351.4,22.63L352.35,28.48L352.82,28.09L353.3,30.18L354.24,32.03L354.72,30.82L355.19,31.21L355.66,36.06L356.61,45.23L357.09,45.15L357.56,43.6L358.03,43.64L358.51,44.85L359.93,37.84L360.4,37.57L360.87,40.04L361.35,37.16L361.82,37.89L362.3,36.89L363.72,26.08L364.19,24.44L364.66,26.03L365.14,25.19L365.61,23.35L366.08,21.1L366.56,22.81L367.5,25.78L367.98,22.39L369.4,23.79L369.87,26.12L370.35,24.09L370.82,26.61L371.77,29.59L372.24,29.37L372.71,29.24L373.66,32.76L374.13,30.86L374.61,27.82L375.08,28.72L375.56,26.85L376.5,28.6L376.98,27.22L377.92,26.14L378.4,28.04L379.34,23.54L379.82,23.67L380.29,24.99L380.77,21.37L381.24,22.66L381.71,25.23L382.19,24.13L382.66,26.56L383.61,25.3L384.08,28.18L384.55,30.37L385.03,27.41L385.5,26.4L385.97,28.41L386.92,32.48L387.4,31.03L387.87,33.49L388.34,33.26L388.82,32.1L389.76,34.71L390.24,32.71L390.71,32.48L391.18,34.22L391.66,32.18L392.13,33.95L392.6,34.68L393.08,32.4L394.97,28.97L395.45,26.18L395.92,29.25L396.39,29.03L396.87,30.13L397.81,31.86L398.29,28.83L399.23,31.25L399.71,30.29L400.66,32.22L401.13,30.2L402.08,29.07L402.55,31.7L404.92,21.9L405.39,22.33L405.87,20.82L406.34,21.6L406.81,21.24L407.76,21.62L408.23,24.11L410.6,30.11L411.07,32.46L412.97,42.54L413.44,41.06L413.92,42.42L414.39,38.86L416.28,45.78L416.76,43.24L417.7,40.85L418.18,42.81L420.55,31.35L421.02,30.86L421.49,31.85L421.97,30.21L422.44,29.09L422.91,24.82L423.39,22.17L423.86,23.15L424.34,21.45L425.28,17.81L425.76,18.69L426.23,18.28L426.7,21.87L427.18,22.1L427.65,24.83L428.12,23.52L428.6,25.81L429.07,24.24L429.54,26.96L432.39,42.94L432.86,44.32L433.33,44.24L433.81,40.62L434.75,41.06L435.23,41.73L436.65,37.5L437.12,36.01L437.6,35.99L438.07,30.22L438.54,25.34L439.02,26.36L439.49,25.48L439.96,24.29L440.44,25.98L441.38,29.25L441.86,27.29L442.33,26.42L442.81,29.98L444.23,31.11L444.7,34.35L445.65,34.17L446.12,31.72L447.07,29.09L447.54,27.65L449.91,22.16L450.38,22.96L450.86,19.03L451.33,23.44L451.8,22.12L452.28,23.29L453.22,29.27L453.7,29.18L454.64,35.08L455.12,33.49L455.59,31.98L456.07,34.97L457.01,35.01L457.49,33.61L457.96,32.25L458.43,32.67L458.91,33.63L459.85,34.54L460.33,32.78L460.8,33.27L461.28,29.57L461.75,28.88L462.22,30.73L463.64,34.12L464.12,32.46L464.59,31.02L465.06,33.51L466.96,25.67L467.43,26.89L469.33,27.4L469.8,28.85L470.27,28.61L470.75,26.86L472.17,33.21L472.64,33.43L473.11,32.82L473.59,34.61L474.06,34.53L474.54,32.96L476.43,35.44L476.9,34.76L477.38,34.06L477.85,35.09L479.74,29.58L480.22,30.6L481.17,29.18L481.64,33.62L482.11,32.84L482.59,33.43L483.06,31.18L484.48,27.91L484.95,27.21L485.9,26.29L486.38,29.07L487.32,21.8L487.8,24.42L488.27,26.73L488.74,23.64L489.69,19.99L490.16,22.53L491.11,25.71L491.58,22.51L492.53,21.31L493.01,23.29L493.48,23.54L493.95,29.28L494.9,29L495.37,26.08L495.85,25.57L496.32,27.48L496.79,28.03L497.27,26.02L498.21,26.62L498.69,26.82L499.64,31.19L500.11,30.12L500.58,31.8L501.06,31.73L501.53,33.77L502.95,35.3L503.42,37.95L503.9,39.21L504.37,38.77L504.85,36.29L505.32,32.14L505.79,32.93L506.27,32.69L507.21,31.21L507.69,26.58L509.11,20.03L509.58,21.76L511.48,10.9L511.95,14.06L514.32,24.51L514.79,26.16L515.74,27.63L516.21,29.07L517.16,27.74L517.63,27.74L520,27.74" style="vector-effect: non-scaling-stroke; fill: none; stroke: rgb(99, 110, 250); stroke-opacity: 1; stroke-width: 2px; opacity: 1;"/></g><g class="points"/><g class="text"/></g><g class="trace scatter trace950621" style="stroke-miterlimit: 2; opacity: 1;"><g class="fills"/><g class="errorbars"/><g class="lines"><path class="js-line" d="M0,66.02L3.32,66.02L3.79,65.08L4.74,62.47L5.21,65.95L5.68,64.42L6.16,66.65L6.63,68.57L7.1,68.2L7.58,67.22L8.05,66.68L8.52,68.94L9.47,70.37L9.95,68.75L11.84,74.37L12.31,72.76L12.79,73.27L13.26,71.2L14.21,68.19L14.68,71.56L15.15,71.99L15.63,69.88L17.05,64.64L17.52,64.03L18,61.86L18.47,62.99L18.94,65.87L19.42,68.68L19.89,67.2L20.36,67.77L20.84,67.83L21.31,69.78L22.26,65.18L22.73,66.49L25.57,78.02L26.05,74.03L26.52,70.53L26.99,71.59L27.47,73.06L28.42,72.46L28.89,73.65L29.36,75L29.84,72.86L31.26,67.33L31.73,64.74L32.68,59.75L33.15,61.17L33.62,61.42L34.1,60.59L34.57,58.55L35.05,60.49L35.52,59.85L35.99,56.29L36.47,55.13L36.94,56.51L37.41,55.74L37.89,56.85L39.31,64.55L39.78,63.38L40.26,63.25L40.73,63.48L41.2,61.97L42.15,57.2L42.62,58.37L43.57,60.97L44.04,60.22L44.99,57.37L45.46,54.51L45.94,54.16L46.41,51.8L46.89,51.57L47.36,50.46L47.83,50.13L48.31,52.72L48.78,57.08L49.25,56.51L49.73,55.37L51.15,53.69L51.62,55.08L52.57,54.21L53.04,55.01L53.99,51.39L54.46,54.32L55.41,52.18L55.88,52.17L57.3,46.24L57.78,46.23L60.15,51.64L60.62,56.12L61.09,57.73L61.57,55.2L62.04,59.27L62.51,57.98L62.99,58.14L63.46,58.85L63.93,61.36L64.88,61.61L65.36,63.11L66.3,60.61L66.78,60.65L67.25,60.86L67.72,57.21L69.62,52.25L70.09,52.99L70.56,57.32L71.04,56.03L71.51,58.56L72.46,54.96L72.93,58.13L73.41,58.73L73.88,57.17L74.35,56.43L74.83,59.72L75.3,59.38L75.77,61.86L77.19,57.71L77.67,58.08L78.14,58.17L78.62,56.88L79.09,57.78L79.56,56.38L80.51,51.07L80.98,54.36L81.46,54.79L81.93,53.03L82.4,54.43L82.88,51.92L83.35,51.82L83.83,49.04L84.3,50.27L84.77,49.3L85.25,48.07L85.72,49.88L86.19,49.89L86.67,51.82L87.61,56.34L88.09,53L89.03,51.06L89.51,51.28L89.98,50.8L90.46,54.25L91.4,57.49L91.88,56.91L92.35,57.76L92.82,54.87L94.24,51.21L94.72,52.26L96.61,59.43L97.09,59.7L98.51,56.65L98.98,56.43L99.45,54.54L99.93,55.97L101.35,60.83L101.82,60.5L102.77,55.78L103.24,56.18L103.72,56.79L104.66,59.91L105.14,57.51L106.56,52.13L107.03,49.86L108.93,40.6L109.4,42.14L110.35,45.11L110.82,43.16L111.77,40.54L112.24,41.76L113.66,51.3L114.13,54.32L116.03,58.99L116.5,55.7L116.98,55.59L117.45,53.2L117.92,52.45L118.4,54.72L118.87,53.95L119.34,55.07L120.77,47.04L121.24,43.99L121.71,45.62L122.19,41.92L122.66,40.78L123.13,41.3L123.61,43.3L124.08,40.49L124.55,41.05L125.03,40.67L125.97,38.59L126.45,39.53L128.34,44.25L128.82,41.78L129.29,42.79L129.76,45.96L130.24,46.68L130.71,45.72L131.66,47.02L132.13,44.15L132.6,45.99L133.08,45.86L133.55,44.67L134.03,43.22L134.5,45L135.45,41.65L135.92,42.32L136.39,44.61L136.87,43.87L137.34,42.03L138.29,44.57L138.76,43.9L139.23,46.36L139.71,44.85L140.18,44.33L140.66,44.88L141.13,45.6L143.02,50.42L143.5,48.54L143.97,46.29L144.44,46.47L144.92,47.19L145.39,46.45L145.87,49.04L146.34,49.17L146.81,47.36L147.29,48.42L147.76,46.69L148.23,48.36L148.71,45.95L149.65,44.57L150.13,45.55L150.6,45.54L151.07,46.36L153.44,43.49L153.92,48.88L154.86,48.01L155.34,46.67L156.28,46.04L156.76,48.68L157.23,46.23L157.7,47.33L158.18,46.48L159.13,46.9L159.6,48.51L160.55,51.51L161.02,47.09L161.97,48.92L162.44,47.25L162.91,48.07L163.39,52.07L163.86,48.59L164.34,49.03L164.81,50.64L165.76,54.09L166.23,50.74L166.7,51.91L167.18,51.54L167.65,49.12L168.12,49.88L168.6,47.54L169.07,46.82L169.54,47.45L170.02,48.03L171.44,45.2L171.91,39.74L172.39,36.99L172.86,37.81L173.33,39.81L174.75,32.96L175.23,34.48L176.65,37.59L177.12,35.28L177.6,34.97L178.07,36.63L178.54,38.83L179.02,37.27L180.91,35.98L181.38,37.68L182.33,36.82L182.81,37.89L184.23,42.89L184.7,41.25L185.17,39.5L185.65,40.34L186.12,43.38L186.59,43.77L187.07,42.54L187.54,42.99L188.01,40.88L188.96,42.1L189.44,40.81L191.33,30.03L191.8,34.18L193.22,37.98L193.7,38.12L195.12,40.12L195.59,38.16L196.07,39.29L196.54,36.99L197.49,40.25L197.96,38.65L198.43,42.82L198.91,40.15L199.38,39.27L199.85,40.93L200.33,41.14L200.8,43.47L201.75,39.57L202.22,41.91L203.64,46.34L204.12,45.65L204.59,43.7L205.54,47.13L206.01,45.62L207.91,40.09L208.38,45.25L208.85,50.72L209.33,49.48L209.8,47.62L210.75,44.51L211.22,45.97L211.69,48.47L212.17,47.2L212.64,45.5L213.59,47.07L214.06,47.11L215.01,49.01L215.48,48.2L216.9,44.83L217.38,44.54L217.85,44.02L218.32,41.3L219.27,38.27L219.74,39.89L220.69,38L221.17,37.83L222.11,33.76L222.59,32.23L223.06,29.72L223.53,30.18L224.01,29.68L225.43,34.43L225.9,35.54L226.38,38.38L226.85,36.55L228.74,32.77L229.22,37.92L230.16,34.49L230.64,36.75L231.11,40.56L231.58,39.49L232.06,36.21L233.01,38.28L233.48,36.01L234.9,36.83L235.37,38.32L235.85,39.32L236.32,36.6L237.27,36.03L237.74,33.28L238.21,31.64L238.69,32.66L239.16,31.71L239.64,30.63L240.11,31.3L240.58,31.42L241.53,35.01L242,33.2L243.42,31.17L243.9,35.77L244.85,41.83L245.32,41.52L245.79,42.57L246.27,45.11L246.74,43.9L247.21,40.49L247.69,41.89L248.16,39.45L249.58,32.81L250.05,33.55L250.53,36.18L251,33.15L251.95,27.85L252.42,29.12L253.84,28.18L254.32,30.05L254.79,27.36L255.26,27.7L255.74,29.31L256.68,34.75L257.16,32.79L257.63,31.19L258.11,32.16L258.58,33.65L260,29L260.47,29.59L261.89,35.03L262.37,37.1L262.84,37.34L263.32,38.47L263.79,39.21L264.26,41.42L264.74,42.63L265.21,41.81L265.68,42.91L266.16,42.46L266.63,44.82L267.58,44.63L268.05,42.83L269,45.76L269.47,43.79L270.42,43.31L270.89,40.69L271.37,38.43L271.84,38.55L272.31,39.04L272.79,38.84L273.26,39.89L274.21,40.2L274.68,38.64L275.15,38.44L275.63,36.04L276.1,35.57L276.58,38.4L277.05,38.67L277.52,37.34L278,37.54L278.47,35.62L279.89,30.69L280.36,34.04L281.31,29.94L281.79,29.43L283.21,25.44L283.68,22.7L284.15,22.3L284.63,22.9L285.1,23.44L285.57,29.64L286.05,28.75L286.52,32.58L286.99,35.48L287.47,32.35L288.89,40.1L289.36,39.1L289.84,37.67L291.26,39.78L291.73,35.84L292.2,36.88L292.68,34.16L293.15,36.16L293.62,32.16L295.99,18.75L296.47,19.71L297.41,24.55L297.89,23.48L298.83,27.08L299.31,25.51L300.26,25.5L300.73,24.81L301.68,24.55L302.15,28.79L303.57,33.07L304.04,32.03L304.52,32.74L304.99,36.76L305.46,34.38L305.94,35.09L306.41,39.05L307.36,35.32L307.83,38.33L308.31,41.02L308.78,40.05L309.25,35.55L310.2,34.26L310.67,35.03L311.15,35.44L311.62,31.97L312.09,29.53L312.57,31.5L313.04,35.03L313.52,30.68L314.94,32.23L315.41,33.23L316.83,37.38L317.3,36.34L318.25,36.37L318.72,37.78L319.67,36.84L320.15,30.04L321.57,32.01L322.04,27.05L322.99,21.08L323.46,21.68L323.93,23.57L324.88,25.41L325.36,25.07L326.78,20.8L327.25,22.7L327.72,22.98L328.2,24.27L328.67,24.13L329.14,25.12L330.09,27.2L330.56,28.22L331.99,30.89L332.46,28.34L334.83,38.04L335.3,36.9L335.77,35.95L336.25,38.46L337.67,39.48L338.14,39.49L339.56,41.67L340.04,38.84L340.98,36.39L341.46,38.55L341.93,35.72L342.4,36.06L342.88,35.74L344.3,37.02L344.77,34L345.72,25.75L346.19,27.21L346.67,28.71L347.61,30.81L348.09,30.08L349.03,32.41L349.51,32.09L349.98,30.52L350.93,27.15L351.4,28.89L351.88,29.09L352.35,32.35L352.82,35.73L353.3,32.48L354.24,33.12L354.72,30.99L355.66,27.15L356.14,28.8L356.61,30.28L357.09,35L357.56,35.41L358.03,37.16L359.45,31.43L359.93,31.42L361.35,31.55L361.82,31.54L363.24,35.5L363.72,32.66L364.19,31.23L364.66,33.62L365.14,32.85L365.61,34.2L366.56,41.31L367.03,39.11L367.98,39.31L368.45,42.87L369.4,44.46L369.87,43.28L370.35,43.04L370.82,46.84L371.29,48L371.77,45.69L372.71,46.41L373.19,43.76L374.13,41.7L374.61,42.53L375.08,43.11L375.56,41.46L376.98,44.84L377.45,43.19L377.92,41.37L378.4,42.42L378.87,43.4L379.82,43.37L380.29,44.79L381.71,48.32L382.19,47.54L382.66,48.65L383.13,47.26L384.08,47.03L384.55,49.01L385.03,49.72L385.5,48.53L385.97,48.47L386.45,49.24L386.92,49.64L387.4,51.17L387.87,50.91L388.34,52L388.82,50.63L389.29,52.11L390.71,45.39L391.18,45.44L392.6,43.67L393.08,44.71L393.55,45.42L394.03,44.75L395.45,40.53L395.92,41.24L396.87,39.51L397.34,42.2L397.81,43.05L398.29,46.07L398.76,46.49L399.23,48.28L401.13,45.05L401.6,46.16L402.08,44.92L402.55,49.89L403.5,49.26L403.97,51.95L404.44,50.89L404.92,51.79L405.39,50.72L405.87,52.09L406.34,51.91L406.81,54.68L408.23,55.35L408.71,55.02L409.18,56.52L409.65,52.4L411.55,58.66L412.02,58.93L412.5,58.78L412.97,60.14L413.44,60.1L413.92,59.26L414.39,57.89L414.86,60.28L416.28,61.32L416.76,63.77L417.23,63.55L417.7,65.91L418.65,63.29L419.13,64L419.6,64.6L420.07,61.28L421.49,64.77L421.97,64.34L422.91,70.01L423.39,66.81L425.28,68.17L425.76,64.57L426.7,62.41L427.18,63.79L427.65,62.88L428.12,63.94L429.07,65.95L429.54,65.69L430.02,61.79L430.49,62.34L430.97,60.75L432.39,59.87L432.86,63.42L433.33,66.56L433.81,66.48L434.28,66.63L435.23,65.53L435.7,65.54L436.17,65.69L436.65,63.95L438.07,70.81L438.54,70.29L439.02,71.5L439.49,76.59L439.96,73.8L440.44,75.59L440.91,75.81L441.38,77.29L442.81,79.14L443.28,81.11L443.75,83.54L444.23,81.31L445.65,80.65L446.12,81.52L446.59,78.68L447.07,81.36L447.54,79.99L448.01,80.38L448.49,80.94L450.38,74.96L450.86,72.62L452.75,80.25L453.22,77.91L453.7,76.87L454.17,79.05L454.64,78.59L455.12,80.45L455.59,78.51L456.07,81.5L458.43,77.84L458.91,77.72L459.38,77.77L459.85,75.86L461.28,78.28L461.75,76.24L463.17,71.37L463.64,73.91L465.06,80.15L465.54,79.84L466.01,79.72L466.48,78.31L467.43,74.13L467.91,75.03L468.38,72.33L468.85,74.62L469.33,73.14L469.8,76.08L470.75,79.31L471.22,76.46L471.69,77.22L472.17,74.83L473.11,74.36L473.59,75.91L474.54,78.43L475.01,76.32L475.96,77.32L476.43,80.54L477.38,77.62L477.85,79.55L478.32,81.08L478.8,78.6L479.74,78.41L480.22,76.61L481.17,76.58L481.64,74.18L482.11,75.79L482.59,74.54L483.06,75.64L483.53,72.92L484.01,73.95L484.48,73.16L484.95,71.2L485.43,72.29L485.9,71.89L486.38,72.86L486.85,75.57L487.32,74.49L487.8,76.25L489.69,81.92L490.16,79.43L490.64,78.79L491.11,76.51L491.58,78.98L492.06,76.11L492.53,74.09L493.01,75.64L493.95,73.9L494.43,77.77L496.32,71.33L496.79,71.65L497.27,71.93L499.64,76.94L500.11,77.07L501.06,80.99L501.53,80.84L502,80.92L502.95,81.35L503.42,81.06L505.32,85.82L505.79,85.67L506.27,86.46L506.74,90.42L507.69,90.17L508.16,88.52L508.63,89.71L509.11,88.18L510.05,94.1L510.53,97.89L512.42,94.29L512.9,95.72L513.84,95.25L514.32,96.07L514.79,98.91L515.26,97.54L515.74,98.95L516.68,100.99L517.16,100.99L520,100.99" style="vector-effect: non-scaling-stroke; fill: none; stroke: rgb(239, 85, 59); stroke-opacity: 1; stroke-width: 2px; opacity: 1;"/></g><g class="points"/><g class="text"/></g><g class="trace scatter tracea9b5ab" style="stroke-miterlimit: 2; opacity: 1;"><g class="fills"/><g class="errorbars"/><g class="lines"><path class="js-line" d="M0,99.58L3.32,99.58L3.79,98.66L4.26,95.91L4.74,96.22L5.21,96.75L5.68,96.86L6.16,94.68L6.63,97.98L7.1,97.46L7.58,99.21L8.05,99.45L8.52,100.82L9,101.24L9.47,100.04L9.95,99.3L10.42,100.77L11.37,103.8L11.84,103.56L13.26,107.39L13.73,107.13L15.63,102.94L16.1,105.07L16.58,104.85L17.05,103.46L17.52,105.19L18,103.35L19.42,105.5L19.89,107.18L20.36,107.96L20.84,106.9L21.79,104.25L22.26,106.56L23.21,106.85L23.68,106.58L24.15,108.59L24.63,106.34L25.1,106.35L25.57,107.76L27.94,103.03L28.42,105.08L28.89,106.19L29.36,101.6L30.31,104.48L30.78,100.32L31.26,99.86L31.73,97.72L32.2,97.43L32.68,95.2L33.15,95.52L33.62,97.63L35.52,95.41L35.99,95.55L36.47,95.9L36.94,93.09L37.41,89.82L37.89,91.33L38.36,90.11L38.83,91.29L39.31,91.09L39.78,91.62L41.2,86.84L41.68,91.37L42.15,92.44L42.62,89.57L43.1,88L43.57,89.98L44.04,89.06L44.52,91.73L45.46,94.47L45.94,93.78L46.41,94.48L46.89,94.12L47.36,92.51L47.83,92.91L48.31,91.92L49.25,85.64L49.73,85.96L50.2,86.96L50.67,85.39L51.15,86.59L51.62,84.56L52.09,86.32L52.57,84.85L53.52,84.91L53.99,84.56L55.41,88.3L55.88,88.25L57.3,95.1L57.78,93.26L58.25,90.09L58.72,90.29L59.2,89.64L59.67,89.72L60.15,88.45L60.62,87.18L61.09,88.18L61.57,87.67L62.04,84.75L63.93,80.68L64.41,80.13L65.36,84.6L65.83,82.6L66.78,82.67L67.25,81.63L67.72,82.61L68.2,78.72L70.56,85.55L71.04,85.16L71.99,86.57L72.46,85.83L73.41,89.27L73.88,87.5L75.3,94.5L75.77,91.64L76.25,92.56L76.72,92.27L77.19,89.19L78.14,87.46L78.62,88.87L79.09,90.37L79.56,90.09L80.04,89.09L80.51,87.14L80.98,88.65L81.46,89.54L81.93,87.6L82.88,88.97L83.35,85.52L83.83,85.78L84.3,87.64L84.77,86.82L85.25,88.46L86.67,85.24L87.14,87.6L88.09,87.92L88.56,84.95L89.03,86.76L89.51,84.45L89.98,83.74L90.46,87.86L92.82,80.44L93.3,80.25L93.77,79.68L94.24,77.41L95.19,76.61L95.66,80.09L96.61,76.71L97.09,79.23L97.56,75.9L98.03,76.87L98.51,79.49L100.4,75.18L100.87,77.28L101.35,76.82L101.82,79.12L102.77,75.36L103.24,76.85L104.19,72.84L104.66,75.49L105.14,75.14L105.61,76.8L106.08,77.21L106.56,75.91L107.03,75.39L107.5,76.2L108.93,71.32L109.4,72.9L109.87,72.21L110.35,69.8L111.29,73.57L111.77,71.75L112.24,72.17L112.71,70.31L115.08,78.97L115.56,78.88L116.03,78.46L116.5,80.5L116.98,79.84L117.45,82.16L118.87,81.82L119.34,79.3L120.77,79.85L121.24,77.27L121.71,77.23L122.19,76.21L123.61,71.78L124.08,73.49L124.55,73.67L125.03,72.79L125.97,72.71L126.45,72.7L126.92,72.81L127.4,71.29L127.87,68.93L128.34,70.03L128.82,71.97L130.71,78.55L131.18,78.04L131.66,76.85L132.13,77.92L132.6,77L133.08,77.5L133.55,81.28L134.5,79.79L134.97,81.9L135.45,82.87L135.92,80.26L136.39,79.35L136.87,82.74L137.34,83.36L137.81,80.74L138.29,80.5L138.76,81.9L139.23,80.81L139.71,85.56L140.18,85.52L140.66,80.32L141.13,81.13L141.6,79.77L142.08,79.69L142.55,78.56L143.5,81.17L143.97,78.36L144.92,73.28L145.39,74.45L145.87,73.55L146.34,74.17L146.81,70.83L147.76,71.42L148.23,73.9L150.13,80.01L150.6,79.5L152.02,83.3L152.5,84.35L152.97,84.03L153.44,84.97L153.92,85.16L154.39,84.43L155.34,87.57L155.81,86.39L156.28,86.86L156.76,86.1L157.23,85.38L157.7,86.98L158.18,87.06L158.65,89.56L159.13,90.81L159.6,90.39L160.07,90.46L161.02,89.18L161.49,89.15L161.97,90.53L162.44,89.46L162.91,90.92L163.39,88.85L163.86,90.9L164.34,88.55L165.76,87.71L166.23,85.45L166.7,84.44L167.18,85.34L168.6,89.57L169.07,87.71L170.49,84.54L170.97,82.23L171.91,83.31L172.39,80.6L173.33,79.86L173.81,76.18L176.17,64.42L176.65,65.61L178.07,63.8L178.54,63.37L179.02,63.75L179.49,65.69L180.91,66.43L181.38,69.72L182.81,74.52L183.28,74.23L183.75,72.46L184.23,72.35L184.7,73.02L185.17,73.39L185.65,75.78L187.07,73.06L187.54,72.96L188.01,75.44L188.49,71.91L188.96,71.93L189.44,68.59L189.91,68.65L190.38,67.77L191.33,70.12L191.8,68L192.75,70.58L193.22,70.12L193.7,71.46L194.17,69.78L194.64,70.64L195.12,68.86L196.07,69.96L196.54,71.52L197.01,71.39L197.49,73.25L197.96,70.54L198.43,72.46L198.91,73.67L199.38,69.11L199.85,63.81L200.33,64.08L200.8,62.59L202.7,67.41L203.17,64.24L203.64,62.67L204.12,63.67L204.59,64L205.06,62.4L205.54,62.59L206.01,61.85L206.96,66.31L207.43,64.53L207.91,67.93L208.38,64.7L208.85,64.39L209.33,62.79L209.8,62.48L210.27,63.71L210.75,65.9L211.22,64.8L211.69,66.52L212.64,66.77L213.11,70.02L213.59,69.78L214.06,70.54L214.54,71.89L215.01,68.28L215.48,71.71L215.96,67.97L216.9,69.67L217.38,72.36L217.85,73.85L218.32,73.06L218.8,71.29L219.27,75.7L219.74,72.78L220.69,69.46L221.17,71L221.64,68.81L222.11,72.67L222.59,72.75L223.06,77.4L223.53,78.89L224.01,78.27L224.48,78.14L224.95,77.48L225.43,74.96L225.9,73.89L226.38,70.12L228.74,77.44L229.22,76.45L232.06,63.33L232.53,66.33L233.48,69.55L233.95,66.78L234.9,60.56L235.37,61.65L235.85,61.53L237.27,68L237.74,64.28L238.69,66.65L239.16,70.81L239.64,72.67L240.11,70.27L240.58,70.01L241.06,73.67L241.53,74.59L242,77.18L242.48,76.41L242.95,77.41L244.37,68.23L244.85,72.43L245.32,73.36L245.79,72.36L247.21,68.59L247.69,71.86L248.16,72.99L248.63,72.18L249.11,69.81L249.58,69.72L250.05,67.92L250.53,66.82L251,68.51L251.48,72.35L251.95,71.74L252.42,68.44L253.37,71.14L253.84,70.15L254.79,68.3L255.26,65.33L255.74,65.8L256.21,63.78L256.68,59.92L257.16,61.3L257.63,64.01L258.58,59.66L259.05,62.56L260,63.47L260.47,63L260.95,63.36L261.42,65.7L262.37,62.82L262.84,64.63L264.26,72.31L264.74,70.01L265.68,70.39L266.16,64.99L266.63,64.68L267.1,66.37L267.58,66.63L268.05,65.59L269,63.71L269.47,67.3L269.95,68.55L270.42,64.56L270.89,62.95L271.37,63.5L271.84,64.77L272.31,65.34L272.79,67.64L274.21,74.71L274.68,74.12L276.58,71.23L277.05,67.13L278,71.13L278.47,69.56L279.89,65.79L280.36,66.09L281.79,57.5L282.26,59.39L282.73,58.48L283.21,60.51L283.68,59.94L284.15,62.23L286.05,58.33L286.52,58.4L287.47,55.54L287.94,56.51L288.42,59.41L288.89,56.98L289.36,55.27L289.84,58.04L290.31,57.37L290.78,54.91L291.26,54.13L291.73,56.92L294.1,58.01L294.57,59.64L295.52,55.42L295.99,58.58L296.47,60.64L296.94,59.25L297.41,60.37L297.89,64.52L298.83,64.9L299.31,63.24L300.73,67.44L301.2,64.43L301.68,63.35L302.15,66.9L304.04,71.36L304.52,69.35L304.99,69.64L305.46,73.25L306.41,71.12L306.89,71.73L307.36,72.78L307.83,71.47L309.25,75.58L309.73,76.67L310.2,73.58L310.67,74.08L311.15,74.18L311.62,76.37L312.09,72.19L312.57,69.87L313.04,72.93L313.52,74.5L313.99,73.84L314.46,72.61L314.94,72.59L315.41,71.38L316.36,68.01L316.83,67.05L318.72,57.18L319.2,59.27L319.67,60.27L320.15,58.85L321.09,55.27L321.57,56.24L322.51,56.74L322.99,58.06L323.93,57.44L324.41,60.21L325.36,65L325.83,62.99L326.3,65.4L326.78,63.53L327.72,61.32L328.2,65.1L329.14,65.18L329.62,67.58L330.09,66.73L330.56,68.27L331.04,69.94L331.51,68.96L331.99,68.35L332.93,72.57L333.41,70.84L333.88,72.29L334.35,70.91L334.83,73.26L335.3,70.42L335.77,70.63L336.25,72.46L336.72,67.9L337.19,72.52L337.67,72.23L338.14,70.42L338.62,71.25L339.09,70.22L339.56,70.58L340.04,68.69L340.98,66.33L341.46,70.05L342.4,68.65L342.88,66.76L343.35,64.5L343.83,67.04L345.25,63.54L345.72,64.17L346.19,67.57L346.67,64.62L347.14,65.95L347.61,65.2L348.09,64.78L349.03,63.52L349.51,66.1L350.93,69.47L351.4,69.45L351.88,67.2L352.35,67.67L352.82,66.75L353.77,62.85L354.24,63.12L354.72,66.37L356.61,72.02L357.09,69.18L357.56,73.65L358.03,71.32L358.51,67.89L361.35,82.44L361.82,82.41L362.77,82.81L363.24,82.49L364.19,85.71L364.66,83.48L366.08,89.26L366.56,87.32L367.03,86.12L367.5,82.77L367.98,80.13L368.45,80.39L368.93,80.18L369.87,76.91L370.35,78.5L370.82,77.19L371.29,80.18L372.24,79.49L372.71,83.45L373.19,80.58L373.66,82.79L374.13,85.05L374.61,84.79L375.08,85.42L375.56,86.45L376.03,83.4L376.98,85.6L377.45,81.88L377.92,82.07L378.4,79.26L378.87,78.47L379.34,79.12L379.82,75.09L380.29,78.08L380.77,77.62L381.24,77.39L381.71,78.94L382.19,78.12L382.66,77.47L384.55,84.23L385.03,82.25L385.5,81.93L385.97,84.67L386.92,83.23L387.4,77.59L389.76,83.97L390.24,82.71L391.18,80.31L391.66,81.82L392.6,83.61L393.08,80.52L394.5,90.98L394.97,88.55L395.45,87.62L395.92,89.12L396.87,89.08L397.34,91.22L398.29,93.22L398.76,91.68L400.18,99.12L400.66,93.88L401.13,95.41L401.6,93.1L402.08,95.56L402.55,93.2L403.97,90.44L404.44,90.61L405.39,89.16L405.87,90.5L407.29,85.06L407.76,87.69L408.23,86.75L408.71,88.41L409.18,88.76L409.65,90.14L411.07,92.97L411.55,90.49L412.5,90.67L412.97,92.12L413.44,90.51L413.92,94.35L414.39,93.52L414.86,94.04L415.34,95.44L416.76,99.95L417.23,98.61L417.7,99.18L418.18,95.75L419.13,97.39L419.6,97.65L420.07,96.39L420.55,98.88L421.02,93.85L421.49,96.61L421.97,97.04L424.81,91.07L425.28,91.52L425.76,91.83L426.23,93.2L426.7,93.23L427.18,94.51L427.65,94.55L428.12,97.2L429.07,97.74L429.54,95.57L430.49,98.41L430.97,97.59L431.91,100.1L432.39,104.29L432.86,106.9L433.33,106.33L433.81,107.42L434.75,102.37L435.23,103.99L435.7,101.65L436.17,102.54L436.65,107.31L437.12,104.88L437.6,107.06L438.07,107.57L438.54,109.45L439.96,107.45L440.44,108.14L440.91,107.51L441.38,109.41L442.33,111.27L442.81,111.52L443.28,110.28L443.75,111.41L445.17,117.44L445.65,118.46L446.12,117.53L446.59,118.27L447.07,118.43L447.54,119.55L448.01,121.4L448.49,121.06L448.96,121.09L449.91,126.81L450.38,130.01L450.86,128.56L451.33,128.91L451.8,129.36L452.28,128.7L452.75,129.06L453.22,131.83L454.64,128.93L455.12,128.13L455.59,127.85L456.07,129.87L459.85,113.87L460.33,114.85L461.75,115.27L462.22,112.92L462.7,113.99L463.17,110.42L463.64,110.35L464.12,108.4L464.59,104.82L465.06,106.24L465.54,103.94L466.96,106.99L467.43,102.87L468.38,102.88L468.85,103.41L469.33,104.38L469.8,102.47L471.69,109L472.17,108.34L472.64,111.92L473.11,110.63L473.59,109.68L474.06,109.76L474.54,114.21L475.01,115.39L475.48,114.32L476.43,114.55L476.9,113.84L477.38,112.98L477.85,114.94L478.32,114.21L478.8,116.81L479.74,110.48L480.22,111.92L481.17,111.97L481.64,108.5L482.11,108.02L482.59,109.06L483.06,106.27L483.53,108.19L484.48,111.39L484.95,110.74L485.9,108.2L486.38,108.77L486.85,111.78L487.8,112.22L488.27,113.32L490.16,116.38L490.64,115.64L491.11,115.26L491.58,116.28L493.01,117.72L493.48,120.64L493.95,120.77L494.43,119.63L494.9,118.9L495.37,116.63L495.85,115.2L496.32,116.3L496.79,113.6L497.27,117.36L498.21,119.14L498.69,117.58L500.58,114.22L501.06,116.18L502,115.45L502.48,117.11L503.42,118.68L503.9,117.8L505.32,111.23L505.79,111.32L506.27,113.21L506.74,118.41L507.69,120.37L508.16,120.83L508.63,121.11L509.11,123.28L510.53,118.62L511,121.38L511.48,125.06L511.95,123.37L512.42,124.34L512.9,126.97L513.37,126.5L513.84,124.17L514.32,124.16L514.79,125.51L515.26,123.06L515.74,126.26L516.21,126.89L516.68,129.42L520,129.42" style="vector-effect: non-scaling-stroke; fill: none; stroke: rgb(0, 204, 150); stroke-opacity: 1; stroke-width: 2px; opacity: 1;"/></g><g class="points"/><g class="text"/></g><g class="trace scatter traceb08997" style="stroke-miterlimit: 2; opacity: 1;"><g class="fills"/><g class="errorbars"/><g class="lines"><path class="js-line" d="M0,145.03L3.79,144.76L4.26,141.36L5.21,143.5L5.68,142.68L6.16,142.04L6.63,144.21L7.58,141.1L8.05,141.63L8.52,142.63L9,142.06L9.47,143.11L11.37,137.49L11.84,137.91L13.73,136.33L14.21,137.24L14.68,138.91L15.15,136.53L16.1,135.99L16.58,136.77L17.05,139.12L17.52,138.55L18,138.72L18.47,139.6L18.94,139.17L19.42,141.78L20.36,140.31L20.84,140.23L22.26,139.32L22.73,139.3L23.21,140.98L23.68,138.72L25.1,134.93L25.57,135.73L26.52,136.1L26.99,137.88L27.47,138.05L27.94,135.96L28.89,136.54L29.36,136.05L29.84,135.57L30.31,133.15L31.73,130.55L32.2,131.27L33.15,132.24L33.62,134.2L34.1,133.01L34.57,133.51L35.05,134.15L36.94,132.26L37.41,134.37L37.89,136.19L38.36,134.76L38.83,136.95L39.31,136.83L39.78,135.23L40.26,134.79L40.73,131.99L42.62,125.69L43.1,122.7L43.57,123.36L44.04,122.37L44.52,122.21L44.99,120.12L47.83,112.29L48.31,111.93L48.78,111.99L49.25,113.19L50.2,116.4L50.67,114.28L51.15,114.24L51.62,112.04L53.52,119.2L53.99,118.21L54.46,118.69L54.94,116.99L55.88,119.01L56.36,118.61L57.3,113.82L57.78,113.93L58.25,114.64L59.2,112.02L59.67,112.3L60.15,114.91L60.62,111.49L61.09,112.27L61.57,112.47L62.04,112.67L62.51,110.42L64.41,112.88L64.88,115.74L65.36,114.32L65.83,115.93L67.25,111.06L67.72,112.92L69.14,119.13L69.62,119.79L73.41,130.45L73.88,128.29L74.83,130.43L75.3,127.91L76.25,125.48L76.72,126.17L77.19,123.95L77.67,124.84L78.14,124.79L78.62,124.97L79.09,123.79L79.56,126.51L80.04,122.41L80.98,124.11L81.46,123.39L82.4,118.62L82.88,118.93L83.35,116.69L83.83,118.04L84.3,117.96L85.25,115.75L85.72,116.25L86.67,111.54L87.14,114.05L87.61,113.25L88.09,113.62L88.56,115.86L89.98,121.57L90.46,122.24L90.93,119.23L91.4,123.3L91.88,123.36L92.35,121.38L92.82,119.79L93.3,121.51L93.77,122.68L94.24,122.07L94.72,120.85L95.19,120.4L95.66,118.59L96.61,115.84L97.09,117.51L98.03,120.78L98.51,115.39L99.93,117.04L100.4,115.47L101.35,113.47L101.82,115.06L103.24,119.26L103.72,120.15L104.19,118.95L104.66,115.59L105.14,116L105.61,119.52L107.98,121.76L108.45,123.92L108.93,124.12L109.4,120.51L111.29,112.92L111.77,115.52L113.19,109.69L113.66,111.4L114.61,108.31L115.08,108.84L115.56,108.11L116.03,107.71L116.5,110.23L118.4,114.36L118.87,112.21L119.34,111.32L119.82,112.87L120.29,113.49L120.77,112.31L121.71,118.64L122.19,116.67L123.61,112.94L124.08,110.88L126.45,117.43L126.92,116.13L127.4,116.89L127.87,115.8L128.34,116.73L128.82,112.63L130.24,110.96L130.71,111.44L131.18,112.96L131.66,110.52L132.6,108.54L133.08,109.16L133.55,109.41L134.03,108.71L134.97,110.04L135.45,108.85L135.92,109.83L136.39,112.95L136.87,113.53L137.34,116.22L137.81,114.92L138.29,116.52L139.23,118.7L139.71,118.22L140.18,114.56L140.66,116.12L141.13,116.62L141.6,115.41L142.08,116.55L143.5,111.51L143.97,112.64L144.44,112.38L144.92,115.17L146.81,116.34L147.29,119.34L147.76,117.09L148.23,117.5L148.71,119.63L149.18,116.92L149.65,117.43L150.13,118.65L150.6,119.39L151.07,118.3L152.5,113.34L152.97,114.41L154.39,111.53L154.86,112.53L155.34,112.87L155.81,111.87L156.76,114L157.23,112.78L157.7,112.45L158.18,109.97L158.65,112.9L159.13,111.98L159.6,111.11L160.55,110.16L161.02,109.92L161.49,109.83L161.97,107.58L162.44,107.58L162.91,108.74L164.34,112.63L164.81,112.58L165.28,116.09L165.76,115.67L166.23,116.69L166.7,117.22L167.18,116.23L168.6,117.09L169.07,116.85L173.81,99.9L174.28,100.68L174.75,101.63L175.23,99.72L175.7,100.1L176.17,100.9L177.6,99.02L178.07,100.49L179.49,95.13L179.96,94.82L180.44,96.26L180.91,102.47L182.33,104.9L182.81,103.28L183.75,107.1L184.23,106.82L184.7,110.89L185.17,108.94L185.65,111.61L187.07,117.98L187.54,116.19L188.96,107.67L189.44,106.77L190.38,108.84L190.86,107.32L191.8,106.18L192.28,106.64L192.75,107.12L193.22,104.52L193.7,106.67L194.17,102.2L195.59,106.28L196.07,105.33L197.96,101.59L198.43,103.73L199.85,99.27L200.33,103.49L200.8,103.77L201.28,106.43L201.75,104.34L202.22,104.66L202.7,105.76L203.64,108.5L204.12,107.69L205.54,102.42L206.01,104.04L206.48,100.42L206.96,103.56L208.38,99.8L208.85,100.73L209.8,101.51L210.27,99.83L211.22,102.57L211.69,104.87L212.17,106.04L212.64,104.49L213.11,101.67L213.59,107.62L214.06,106.86L214.54,104.55L215.96,101.88L216.43,103.29L216.9,102.16L217.38,102.97L218.32,102.3L218.8,103.6L219.74,108.17L220.22,107.42L220.69,105.68L221.17,103.93L221.64,106.39L222.11,106.16L222.59,108.29L224.01,103.97L224.48,103.75L224.95,105.62L225.43,102.35L225.9,103.14L226.38,100.47L226.85,99.36L227.32,102.47L227.8,102.28L228.27,103.05L229.69,101.07L230.16,101.23L232.06,97L232.53,98.13L233.48,99.42L233.95,99.04L234.9,97.79L235.37,96.1L235.85,98.1L236.32,96.63L238.69,107.25L239.16,107.21L239.64,109.34L240.11,108.46L240.58,109.17L242,107.89L242.48,108.84L242.95,106.52L243.42,107.2L243.9,105.87L244.37,106.54L244.85,106.14L245.32,103.39L246.74,99.02L247.21,98.64L247.69,97.28L248.16,99.57L248.63,99.4L249.11,98.09L249.58,96.89L250.05,98.36L250.53,99.73L251,98.21L251.95,97.75L252.42,96.9L253.84,96.74L254.32,94.76L254.79,97.63L255.26,95.92L255.74,97.06L256.21,97.76L256.68,100.67L257.16,100.42L257.63,97.89L258.11,99.25L258.58,98.09L260,103.82L260.47,102.53L261.42,104.04L261.89,100.89L262.37,99.89L262.84,101.1L263.32,101.01L263.79,98.78L264.26,97.54L264.74,97.77L265.21,99.56L266.16,100.36L266.63,96.83L267.1,97.06L267.58,98.45L268.05,96.81L268.52,98.52L269,97.65L269.47,101.51L269.95,98.22L270.42,100.6L270.89,100.44L271.37,103.19L271.84,104.56L272.31,102.93L272.79,103.51L273.26,101.71L273.73,104.82L274.21,103.36L274.68,102.71L275.15,103.48L275.63,101.16L276.1,103.26L276.58,98.8L277.05,102.95L277.52,102.34L278,99.74L279.42,92.91L279.89,89.48L280.36,89.77L280.84,88.77L281.31,89.62L281.79,88.59L282.26,87.93L282.73,89.58L283.21,89.06L283.68,90.7L284.63,87.32L285.1,89.94L285.57,93.77L286.05,91.5L286.52,91.51L286.99,94.57L287.94,97.03L288.42,95.98L289.36,98.18L289.84,97.72L290.78,97.63L291.26,97.25L292.2,98.64L292.68,96.59L293.62,96.14L294.1,97.19L296.47,93.25L296.94,94.24L298.83,99.95L299.31,97.48L300.73,98.89L301.2,98.07L302.15,96.84L302.62,99.26L303.1,100.14L303.57,104.08L304.04,101.83L304.52,102.22L304.99,101.09L305.94,98.8L306.41,101.91L306.89,102.69L307.36,105.12L308.78,109.24L309.25,109.7L309.73,109.01L310.2,109.96L310.67,106.47L311.15,109.56L312.57,105.38L313.04,106.15L313.52,105.33L313.99,106.98L314.94,101.91L315.41,101.33L315.88,101.54L316.36,98.08L316.83,100.18L317.3,99.6L317.78,100.71L318.72,100.98L319.2,103.01L319.67,105.24L320.15,103.08L321.09,98.03L321.57,100.21L322.04,101.35L322.51,98.96L322.99,97.63L323.46,99.76L323.93,98.91L324.41,96.02L325.83,93.43L326.3,90.49L326.78,89.48L327.25,90.78L327.72,90.58L328.2,92.75L329.62,97.13L330.09,96.83L330.56,99.77L331.04,97.86L331.51,100.99L331.99,99.51L332.46,99.62L333.41,100.1L333.88,102.62L334.83,108.04L335.3,104.81L335.77,104.94L336.25,102.1L337.19,106.15L337.67,100.6L338.14,100.29L338.62,97.66L340.04,100.59L340.51,100.65L341.93,97.7L342.4,98.09L342.88,96.39L343.35,99.51L344.3,98.63L344.77,100.7L346.19,102.97L346.67,101.33L347.61,101.37L348.09,102.62L349.03,99.89L349.51,102.44L349.98,101.03L350.46,96.97L350.93,96.58L351.4,97.26L351.88,97.42L352.35,96.71L353.77,102.58L354.24,101.51L354.72,102.36L355.19,99.06L358.03,110.72L358.51,110.37L359.45,111.83L359.93,111.39L360.4,111.27L360.87,108.6L361.35,110.31L361.82,109.26L362.3,112.17L363.72,107.82L364.19,107.1L365.14,107L365.61,105.1L368.45,108.32L368.93,111.06L370.35,117.76L370.82,120.78L371.77,120.71L372.24,119.07L373.66,123.34L374.13,121.57L375.08,121.6L375.56,118.43L379.34,103.79L379.82,107.42L381.24,101.15L381.71,102.84L383.13,107.95L383.61,108L386.45,116.39L386.92,114L388.34,121.39L388.82,119.26L389.76,116.92L390.24,117.62L390.71,120.24L391.18,119.95L391.66,117.73L392.13,116.74L392.6,117.26L393.08,117.38L394.5,114.56L394.97,117.27L395.92,115.99L396.39,117.97L396.87,118.17L397.34,119.36L398.29,116.78L398.76,118.58L401.13,125.13L401.6,123.43L402.08,119.29L402.55,120.22L403.02,122.8L404.44,118.8L404.92,119.29L406.34,116.33L406.81,116.36L407.76,118.17L408.23,116.94L411.07,128.05L411.55,127.02L412.02,126.34L412.5,127.43L413.44,134.46L413.92,134.54L414.39,135.99L414.86,134.44L415.34,133.67L415.81,135.11L416.28,133.56L416.76,135.76L417.7,129.87L418.18,131.13L419.6,136.04L420.07,133.77L420.55,133.89L421.02,134.83L421.49,133.72L421.97,134.32L422.44,135.2L423.86,130.18L424.34,131.69L426.7,132.68L427.18,134.03L428.12,130.33L428.6,131.72L429.54,129.73L430.02,130.63L431.44,137.99L431.91,136.74L432.86,136.76L433.33,135.58L435.23,141.69L435.7,139.65L436.65,141.3L437.12,140.66L437.6,142.75L438.07,141.76L438.54,141.3L440.44,145.97L440.91,145.97L441.86,142.09L442.33,143.26L442.81,146.15L443.28,144.89L443.75,146L444.23,148.81L444.7,148.2L445.17,146.63L445.65,145.48L446.12,146.43L446.59,146.91L447.07,144.62L448.01,140.58L448.49,142.2L448.96,142.19L449.44,140.46L449.91,138.64L450.38,139.55L450.86,139.33L451.8,138.92L452.28,139.93L452.75,141.08L453.22,140.15L454.17,139.7L454.64,141.58L455.12,142.38L455.59,140.75L457.96,149.7L458.43,148.66L458.91,149.02L459.38,150.45L459.85,150.74L460.33,153.09L461.75,155.53L462.22,157.4L462.7,158.59L463.17,157.98L463.64,156.32L464.12,155.93L464.59,153.76L465.06,151.8L465.54,152.34L466.01,151.88L466.48,151.23L466.96,148.77L467.43,143.5L467.91,143.88L468.38,146.22L470.27,141.51L470.75,141.95L472.64,147.18L473.11,146.5L473.59,145.35L475.01,151.18L475.48,149.91L476.9,153.85L477.38,154.24L477.85,155.56L478.32,155.17L478.8,154.64L479.27,153.89L479.74,149.88L480.69,150.41L481.17,153.53L481.64,155.55L482.11,153.11L483.06,155.43L483.53,154.14L484.95,150.48L485.43,147.46L486.38,150.87L486.85,153.37L487.32,154.61L487.8,154.1L488.27,150.79L489.22,147.41L489.69,147.06L490.16,146.09L490.64,146.93L492.06,145.92L492.53,147.08L493.01,148.38L493.48,144.87L494.43,141.9L494.9,143.36L495.37,142.59L495.85,143.5L496.32,144.45L496.79,143.97L497.27,143.63L498.21,145.57L498.69,146.06L499.64,147.95L500.11,145.48L501.06,149.96L501.53,148.16L502,146.11L502.48,150.61L503.42,151.16L503.9,153.24L504.37,153.15L504.85,154.41L505.32,153.32L505.79,155.03L506.74,159.24L507.21,162.34L509.11,167.97L509.58,168.03L510.53,166.49L511,163.72L511.95,164.33L512.42,168.19L512.9,168.47L513.37,166.47L514.32,167.05L514.79,165.47L515.74,166.72L516.21,165.88L517.16,164.6L517.63,164.6L520,164.6" style="vector-effect: non-scaling-stroke; fill: none; stroke: rgb(171, 99, 250); stroke-opacity: 1; stroke-width: 2px; opacity: 1;"/></g><g class="points"/><g class="text"/></g><g class="trace scatter trace9bf07a" style="stroke-miterlimit: 2; opacity: 1;"><g class="fills"/><g class="errorbars"/><g class="lines"><path class="js-line" d="M0,172.53L3.32,172.53L3.79,174.2L4.74,171.97L5.21,173.36L5.68,175.23L6.16,170.91L7.1,169L7.58,170.85L9,174.77L9.47,171.9L10.89,169.39L11.37,170.1L12.31,170.45L12.79,170.12L13.73,173.41L14.21,173.88L16.1,167.91L16.58,169.62L17.05,169.8L17.52,167.42L18.47,170.74L18.94,170.68L19.89,169.22L20.36,170.85L22.26,167.73L22.73,167.81L23.21,168.55L23.68,167.41L24.15,166.1L24.63,167.86L25.1,164.72L25.57,164.86L26.05,166.57L26.52,165.6L26.99,166.85L27.47,164.31L27.94,164.44L28.42,163.92L29.84,168.87L30.31,166.05L31.26,168.48L31.73,167.41L32.2,170.7L32.68,168.75L33.15,166.96L33.62,168.05L34.1,167.65L34.57,168.12L35.05,169.95L35.52,170.38L35.99,169.42L36.94,166.51L37.41,168.86L37.89,168.57L38.36,166.75L39.31,163.61L39.78,166.25L40.26,166.86L40.73,164.88L41.68,164.5L42.15,162.75L44.52,155.62L44.99,156.24L45.46,155.89L45.94,157.21L46.41,157.99L46.89,157.14L47.36,157.91L47.83,156.86L48.31,157.2L48.78,156.14L49.25,153.56L49.73,156.98L50.67,155.31L51.15,156.85L51.62,158.4L52.09,156.99L52.57,157.72L53.04,157.06L54.94,153.51L55.41,150.26L55.88,151.78L56.36,150.7L56.83,149.13L57.3,151.56L57.78,151.98L58.25,149.06L59.2,150.11L59.67,151.72L60.62,153.12L61.09,151.01L62.04,151.6L62.51,153.84L62.99,152.21L63.46,155.88L63.93,155.69L64.41,156.72L64.88,156.61L65.36,160.22L65.83,159.66L66.3,160.32L67.72,154.69L68.2,155.88L68.67,154.06L69.14,157.63L69.62,158.67L70.09,157.25L71.51,150.41L71.99,151.65L73.41,152.38L73.88,152.73L74.83,152.82L75.3,153.11L75.77,154.92L76.25,151.6L76.72,149.87L77.19,153.3L78.14,156.11L78.62,154.42L80.04,152.87L80.51,153.28L80.98,153.56L81.46,155.03L82.4,157.11L82.88,156.09L83.83,157.19L84.3,156.28L85.25,155.5L85.72,156.48L87.61,153.02L88.09,151.74L88.56,149.9L89.03,151.56L89.51,148.42L89.98,149.03L90.46,149.66L90.93,149.32L91.4,148.02L91.88,147.04L92.35,148.53L93.3,148.7L93.77,147.08L94.72,147.06L95.19,146.18L97.09,150.27L97.56,150.11L98.98,154.08L99.45,152.24L100.87,155.33L101.35,155.29L101.82,152.48L102.3,155.12L104.66,151.87L105.14,146.78L105.61,149.54L106.08,147.72L106.56,147.19L107.03,142.96L108.93,148.24L109.4,145.85L109.87,144.38L110.35,145.49L110.82,145.93L111.29,145.15L111.77,145.47L112.24,148.75L112.71,147.25L113.19,148.75L113.66,148.25L114.13,150.87L115.56,143.54L116.03,143.5L116.98,146.29L117.45,145.37L118.87,147.79L119.34,146.06L120.29,145.02L120.77,145.7L121.24,144.94L121.71,148.17L122.19,147.19L122.66,148.6L124.08,150.1L124.55,149.04L125.5,146.14L125.97,145.41L126.92,148.41L127.4,147.81L128.34,148.49L128.82,146.19L131.18,139.63L131.66,140.61L132.6,143.8L133.08,142.52L134.03,139.8L134.5,141.88L135.45,143.74L135.92,143.78L137.34,148.97L137.81,150.22L138.76,153.33L139.23,150.02L139.71,149.04L140.18,150.8L140.66,151.13L141.13,152.41L141.6,152.81L142.08,150.96L142.55,149.37L143.02,151.05L143.5,150.45L143.97,152.03L144.92,155.66L145.39,152.36L145.87,152.37L146.34,155.68L146.81,156.02L147.29,154.96L148.23,155.65L148.71,152.05L149.65,153.02L150.13,155.34L150.6,155.21L151.07,153.08L152.02,151.96L152.5,154.09L152.97,154.97L153.44,152.44L153.92,151.14L154.39,152.89L155.81,156.22L156.28,156.92L156.76,157.06L157.23,153.47L157.7,153.87L158.18,153.04L158.65,153L159.13,151.59L160.07,149.11L160.55,150.39L161.02,149.53L161.49,147.07L163.86,139.44L164.34,140.06L166.23,141.25L166.7,143.46L167.65,141.37L168.12,141.99L168.6,142L169.07,142.04L169.54,141.31L170.02,142.02L170.49,141.18L170.97,142.33L171.44,140.98L173.81,133.05L174.28,134.2L175.7,135.04L176.17,136.89L176.65,137.64L177.12,137.23L177.6,140.58L178.07,138.57L178.54,141.21L179.96,144.37L180.44,143.75L181.38,146.67L181.86,146.55L182.81,146.99L183.28,144.6L183.75,144.53L184.23,145.68L184.7,145.1L185.17,146.82L186.12,142.87L186.59,143.46L187.07,146.04L187.54,145.39L188.01,146.19L188.49,141.61L188.96,142.71L189.44,142.09L190.86,143.46L191.33,144.15L192.75,143.03L193.22,146.04L195.12,139.14L195.59,140.68L197.01,135.58L197.49,134.27L197.96,134.01L198.43,135.73L199.38,132.18L199.85,134.48L200.33,133.74L200.8,135.39L201.28,133.62L201.75,134.82L202.7,135.51L203.17,137.4L203.64,138.89L204.12,135.34L204.59,138.61L205.06,138.02L205.54,135.65L206.01,136.75L206.48,135.93L207.43,131.08L207.91,131.69L208.38,132.45L208.85,132.36L209.33,131.45L210.27,130.09L210.75,129.7L211.22,133.13L211.69,131L212.17,132.4L212.64,130.97L213.59,132.5L214.06,131.29L215.01,131.42L215.48,130.67L216.43,130.72L216.9,132.68L217.85,134.37L218.32,133.07L218.8,133.83L219.27,130.5L219.74,134.77L220.22,132.75L220.69,130.39L221.17,132.25L221.64,131.58L222.11,129.07L223.06,130.43L223.53,130.55L224.95,127.02L225.43,126.27L226.38,129.47L226.85,127.87L227.8,133.25L228.27,130.84L229.22,138.75L229.69,138.57L230.16,136.82L232.53,140.95L233.01,140.35L233.48,143.19L233.95,139.48L234.43,138.1L234.9,138.73L235.37,141.26L237.27,134.5L237.74,134.15L238.21,134.77L238.69,134.09L240.11,133.83L240.58,131.39L241.53,134.95L242,134.09L242.95,135.57L243.42,133.53L244.85,136.65L245.32,134.31L245.79,133.72L246.27,131.24L246.74,127.62L247.21,127.89L247.69,126.91L248.63,125.2L249.11,126.25L249.58,125.02L250.05,125.54L250.53,127.36L251,127.37L251.48,128.83L251.95,128.82L252.42,130.76L253.37,134.4L253.84,138.78L254.79,141.45L255.26,144.9L255.74,144.86L256.21,142.02L256.68,142.85L257.16,141.33L257.63,142.88L258.11,142.7L258.58,141.3L259.53,141.37L260,142.81L262.84,130.86L263.32,130.81L265.21,133.11L265.68,133.28L266.16,132.17L266.63,132.71L267.1,132.82L267.58,134.23L268.05,133.55L268.52,133.55L269,135.83L269.47,134.78L269.95,134.98L270.89,136.7L271.37,135.49L271.84,132.3L272.31,133.57L272.79,133.72L273.26,136.89L273.73,136.75L274.21,137.35L275.15,136.74L275.63,139.5L276.58,135.22L277.05,137.12L278,133.96L278.47,137.42L278.94,138.78L279.42,136.82L279.89,137.32L280.36,136.34L281.31,130.95L281.79,132.43L282.26,132.28L282.73,130.24L284.15,132.89L284.63,133.22L286.05,129.38L286.52,129.36L286.99,128.98L287.47,127.27L288.89,127.42L289.36,129.99L290.78,128.92L291.26,129.23L291.73,128.63L292.2,129.59L294.1,126.56L294.57,126.63L295.99,123.25L296.47,119.38L296.94,119.39L297.41,120.96L298.36,117.58L298.83,120.12L299.31,119.93L299.78,118.86L300.26,119.52L300.73,121.48L301.2,120.91L301.68,124.33L303.1,131.9L303.57,132.45L304.04,132.83L304.52,130L305.94,134.14L306.41,135.25L307.36,135.55L307.83,135.37L308.31,137.57L308.78,131.99L310.2,128.03L310.67,129.28L311.62,135.77L312.09,134.65L312.57,134.07L313.04,135.12L313.52,134.11L313.99,133.71L314.46,134.61L315.41,131.46L315.88,134.44L316.36,136.51L316.83,134.95L317.78,134.4L318.25,131.97L320.62,121.96L321.09,123.88L322.04,128.8L322.51,126.37L322.99,126.89L323.46,122.77L324.41,127.05L324.88,125.71L325.36,123.22L325.83,123.57L326.3,124.56L327.72,130.04L328.2,129.43L329.14,127.51L329.62,129.19L330.09,128.56L330.56,130.99L331.04,129.12L331.51,131.58L333.88,142.3L334.35,141.38L335.3,138.37L335.77,134.86L336.25,134.26L336.72,135.32L338.14,135.02L338.62,132.46L340.98,124.45L341.46,127.37L341.93,127.75L342.4,130.73L343.83,132.98L344.3,133.53L344.77,136.27L345.25,136.15L345.72,136.55L346.19,136.45L346.67,137.2L348.09,138.51L348.56,135.43L349.03,135.82L349.51,134.12L349.98,135.49L350.46,132.39L350.93,133.23L351.4,131.31L352.35,127.72L352.82,128.27L353.3,129.54L353.77,130.1L354.24,129.36L354.72,130.98L355.19,128.73L356.14,133.29L356.61,131.54L357.09,130.04L357.56,132.89L358.03,134.11L358.51,133.64L358.98,134.11L361.35,137.41L361.82,136.06L362.3,137.17L362.77,136.46L363.24,134.37L364.19,137.33L364.66,137.32L365.14,136.56L365.61,138.14L367.5,143.05L367.98,142.81L368.93,140.53L369.4,142.46L369.87,143.36L370.35,146.07L370.82,145.82L371.29,148.52L372.24,149L372.71,148.2L375.08,145.51L375.56,147.35L376.03,149.51L376.5,148.55L376.98,148.17L377.45,146.71L377.92,149.04L379.34,144.35L379.82,145.62L381.24,142.14L381.71,143.26L382.66,143.02L383.13,141.85L383.61,141.16L384.08,141.88L384.55,141.08L385.03,136.78L386.45,140.81L386.92,139.13L387.4,138.46L387.87,139.78L388.82,137.88L389.29,138.85L390.71,141.61L391.18,140.86L391.66,141.27L392.13,145.84L393.08,142.59L393.55,143.56L394.5,148.02L394.97,147.84L395.45,149.03L395.92,149.61L396.39,147.79L396.87,147.76L397.34,149.21L397.81,148.68L398.29,149.57L398.76,149.27L399.23,148.08L399.71,148.74L400.18,151.86L400.66,149.96L401.13,150.65L401.6,150.21L402.55,152.28L403.02,148.87L403.5,153.37L403.97,151.3L404.44,151.38L405.39,151.13L405.87,152.97L406.34,152.27L406.81,153.74L407.76,159.23L408.23,157.69L410.13,163.33L410.6,160.88L412.5,165.28L412.97,166.05L413.44,167.18L413.92,164.53L415.34,158.92L415.81,157.18L416.76,156.1L417.23,155.97L418.65,160.74L419.13,158.39L420.07,159.35L420.55,157.68L421.02,158.06L421.49,160.08L423.39,171.78L423.86,171.24L424.34,173.52L425.76,168.19L426.23,170.65L426.7,171.22L427.18,170.09L428.12,173.78L428.6,170.88L430.02,166.36L430.49,165.28L432.86,170.19L433.33,169.57L433.81,168.67L434.28,171.92L434.75,169.04L435.23,169.82L435.7,174.09L436.65,176.73L437.12,175.07L437.6,174.21L438.07,175.68L439.02,175.51L439.49,174.27L440.91,184.36L441.38,183.16L441.86,186.75L442.33,185.22L442.81,184.63L443.28,183.25L443.75,184.31L444.7,186.67L445.17,185.18L445.65,185.8L446.12,184.47L446.59,185.55L447.07,184.72L448.01,181.82L448.49,182.81L448.96,184.61L449.44,184.33L449.91,183.32L451.33,186.41L451.8,185.88L452.28,187.12L452.75,185.76L454.17,189.96L454.64,189.96L455.12,189.44L455.59,187.62L456.07,184.59L456.54,187.48L457.01,188.09L457.49,190.01L458.43,186.56L458.91,187.95L459.85,188.85L460.33,187.7L462.22,181.63L462.7,182.39L463.17,183.64L463.64,181.5L464.12,182.68L464.59,180.51L466.01,183.49L466.48,182.42L466.96,181.22L467.43,182.26L468.38,182.19L468.85,184.99L469.33,186.66L469.8,186.27L470.27,186.78L471.22,185.39L471.69,188.04L473.11,183.84L473.59,183.01L474.06,183.77L474.54,182.61L475.48,184.29L475.96,183.35L476.43,182.82L476.9,184.59L477.38,184.51L477.85,187.61L478.8,184.11L479.27,185.47L479.74,184.45L480.22,187.02L480.69,188.19L481.17,187.73L481.64,187.39L482.59,187.62L483.06,186.45L483.53,186.37L484.01,185.39L484.48,185.1L484.95,182.34L485.9,182.2L486.38,180.79L486.85,179.76L487.32,180.2L487.8,182.9L488.74,186.42L489.22,186.04L491.11,192.04L491.58,192.22L492.53,189.59L493.01,190.95L493.95,196.55L494.43,193.72L495.85,187.8L496.32,190.05L497.74,181.3L498.21,180.38L498.69,179.83L499.16,180.35L499.64,183.03L500.58,180.48L501.06,181.37L502.95,184.92L503.42,183.44L504.37,189.91L504.85,188.69L505.32,190.88L507.21,197.22L507.69,195.68L509.11,196.98L509.58,200.37L510.53,201.01L511,198.89L511.95,201.68L512.42,201.44L512.9,201.15L514.79,205.6L515.26,204.62L516.21,207.1L516.68,205.47L520,205.47" style="vector-effect: non-scaling-stroke; fill: none; stroke: rgb(255, 161, 90); stroke-opacity: 1; stroke-width: 2px; opacity: 1;"/></g><g class="points"/><g class="text"/></g></g></g><g class="overplot"/><path class="xlines-above crisp" d="M0,0" style="fill: none;"/><path class="ylines-above crisp" d="M0,0" style="fill: none;"/><g class="overlines-above"/><g class="xaxislayer-above"><g class="xtick"><text text-anchor="middle" x="0" y="260" transform="translate(55,0)" style="font-family: 'Open Sans', verdana, arial, sans-serif; font-size: 12px; fill: rgb(42, 63, 95); fill-opacity: 1; white-space: pre;">2014</text></g><g class="xtick"><text text-anchor="middle" x="0" y="260" transform="translate(227.39,0)" style="font-family: 'Open Sans', verdana, arial, sans-serif; font-size: 12px; fill: rgb(42, 63, 95); fill-opacity: 1; white-space: pre;">2015</text></g><g class="xtick"><text text-anchor="middle" x="0" y="260" transform="translate(400.25,0)" style="font-family: 'Open Sans', verdana, arial, sans-serif; font-size: 12px; fill: rgb(42, 63, 95); fill-opacity: 1; white-space: pre;">2016</text></g><g class="xtick"><text text-anchor="middle" x="0" y="260" transform="translate(573.11,0)" style="font-family: 'Open Sans', verdana, arial, sans-serif; font-size: 12px; fill: rgb(42, 63, 95); fill-opacity: 1; white-space: pre;">2017</text></g></g><g class="yaxislayer-above"><g class="ytick"><text text-anchor="end" x="50" y="4.199999999999999" transform="translate(0,173.56)" style="font-family: 'Open Sans', verdana, arial, sans-serif; font-size: 12px; fill: rgb(42, 63, 95); fill-opacity: 1; white-space: pre;">40</text></g><g class="ytick"><text text-anchor="end" x="50" y="4.199999999999999" transform="translate(0,93.8)" style="font-family: 'Open Sans', verdana, arial, sans-serif; font-size: 12px; fill: rgb(42, 63, 95); fill-opacity: 1; white-space: pre;">45</text></g></g><g class="overaxes-above"/></g></g><g class="polarlayer"/><g class="ternarylayer"/><g class="geolayer"/><g class="funnelarealayer"/><g class="pielayer"/><g class="treemaplayer"/><g class="sunburstlayer"/><g class="glimages"/><defs id="topdefs-8765f3"><g class="clips"/><clipPath id="legend8765f3"><rect width="116" height="105" x="0" y="0"/></clipPath></defs><g class="layer-above"><g class="imagelayer"/><g class="shapelayer"/></g><g class="infolayer"><g class="legend" pointer-events="all" transform="translate(60.2, 27.180000000000003)"><rect class="bg" shape-rendering="crispEdges" width="116" height="105" x="0" y="0" style="stroke: rgb(68, 68, 68); stroke-opacity: 1; fill: rgb(255, 255, 255); fill-opacity: 1; stroke-width: 0px;"/><g class="scrollbox" transform="translate(0, 0)" clip-path="url('#legend8765f3')"><g class="groups"><g class="traces" transform="translate(0, 14.5)" style="opacity: 1;"><text class="legendtext user-select-none" text-anchor="start" x="40" y="4.680000000000001" style="font-family: 'Open Sans', verdana, arial, sans-serif; font-size: 12px; fill: rgb(42, 63, 95); fill-opacity: 1; white-space: pre;">Sem taxao</text><g class="layers" style="opacity: 1;"><g class="legendfill"/><g class="legendlines"><path class="js-line" d="M5,0h30" style="fill: none; stroke: rgb(99, 110, 250); stroke-opacity: 1; stroke-width: 2px;"/></g><g class="legendsymbols"><g class="legendpoints"/></g></g><rect class="legendtoggle" pointer-events="all" x="0" y="-9.5" width="110.359375" height="19" style="cursor: pointer; fill: rgb(0, 0, 0); fill-opacity: 0;"/></g><g class="traces" transform="translate(0, 33.5)" style="opacity: 1;"><text class="legendtext user-select-none" text-anchor="start" x="40" y="4.680000000000001" style="font-family: 'Open Sans', verdana, arial, sans-serif; font-size: 12px; fill: rgb(42, 63, 95); fill-opacity: 1; white-space: pre;">Taxa 1.05</text><g class="layers" style="opacity: 1;"><g class="legendfill"/><g class="legendlines"><path class="js-line" d="M5,0h30" style="fill: none; stroke: rgb(239, 85, 59); stroke-opacity: 1; stroke-width: 2px;"/></g><g class="legendsymbols"><g class="legendpoints"/></g></g><rect class="legendtoggle" pointer-events="all" x="0" y="-9.5" width="110.359375" height="19" style="cursor: pointer; fill: rgb(0, 0, 0); fill-opacity: 0;"/></g><g class="traces" transform="translate(0, 52.5)" style="opacity: 1;"><text class="legendtext user-select-none" text-anchor="start" x="40" y="4.680000000000001" style="font-family: 'Open Sans', verdana, arial, sans-serif; font-size: 12px; fill: rgb(42, 63, 95); fill-opacity: 1; white-space: pre;">Taxa 1.10</text><g class="layers" style="opacity: 1;"><g class="legendfill"/><g class="legendlines"><path class="js-line" d="M5,0h30" style="fill: none; stroke: rgb(0, 204, 150); stroke-opacity: 1; stroke-width: 2px;"/></g><g class="legendsymbols"><g class="legendpoints"/></g></g><rect class="legendtoggle" pointer-events="all" x="0" y="-9.5" width="110.359375" height="19" style="cursor: pointer; fill: rgb(0, 0, 0); fill-opacity: 0;"/></g><g class="traces" transform="translate(0, 71.5)" style="opacity: 1;"><text class="legendtext user-select-none" text-anchor="start" x="40" y="4.680000000000001" style="font-family: 'Open Sans', verdana, arial, sans-serif; font-size: 12px; fill: rgb(42, 63, 95); fill-opacity: 1; white-space: pre;">Taxa 1.15</text><g class="layers" style="opacity: 1;"><g class="legendfill"/><g class="legendlines"><path class="js-line" d="M5,0h30" style="fill: none; stroke: rgb(171, 99, 250); stroke-opacity: 1; stroke-width: 2px;"/></g><g class="legendsymbols"><g class="legendpoints"/></g></g><rect class="legendtoggle" pointer-events="all" x="0" y="-9.5" width="110.359375" height="19" style="cursor: pointer; fill: rgb(0, 0, 0); fill-opacity: 0;"/></g><g class="traces" transform="translate(0, 90.5)" style="opacity: 1;"><text class="legendtext user-select-none" text-anchor="start" x="40" y="4.680000000000001" style="font-family: 'Open Sans', verdana, arial, sans-serif; font-size: 12px; fill: rgb(42, 63, 95); fill-opacity: 1; white-space: pre;">Taxa 1.20</text><g class="layers" style="opacity: 1;"><g class="legendfill"/><g class="legendlines"><path class="js-line" d="M5,0h30" style="fill: none; stroke: rgb(255, 161, 90); stroke-opacity: 1; stroke-width: 2px;"/></g><g class="legendsymbols"><g class="legendpoints"/></g></g><rect class="legendtoggle" pointer-events="all" x="0" y="-9.5" width="110.359375" height="19" style="cursor: pointer; fill: rgb(0, 0, 0); fill-opacity: 0;"/></g></g></g><rect class="scrollbar" rx="20" ry="3" width="0" height="0" x="0" y="0" style="fill: rgb(128, 139, 164); fill-opacity: 1;"/></g><g class="g-gtitle"><text class="gtitle" x="30" y="12.5" text-anchor="start" dy="0em" style="font-family: 'Open Sans', verdana, arial, sans-serif; font-size: 17px; fill: rgb(42, 63, 95); opacity: 1; font-weight: normal; white-space: pre;">Quantidade media de carne consumida por agentes com idade entre 18 e 30 anos</text></g><g class="g-xtitle"><text class="xtitle" x="315" y="287.8" text-anchor="middle" style="font-family: 'Open Sans', verdana, arial, sans-serif; font-size: 14px; fill: rgb(42, 63, 95); opacity: 1; font-weight: normal; white-space: pre;">Tempo (dia)</text></g><g class="g-ytitle" transform="translate(1.1591796875,0)"><text class="ytitle" transform="rotate(-90,11.840625000000003,134)" x="11.840625000000003" y="134" text-anchor="middle" style="font-family: 'Open Sans', verdana, arial, sans-serif; font-size: 14px; fill: rgb(42, 63, 95); opacity: 1; font-weight: normal; white-space: pre;">Quantidade de carne(g)</text></g></g></svg>