<svg class="main-svg" xmlns="http://www.w3.org/2000/svg" xmlns:xlink="http://www.w3.org/1999/xlink" width="600" height="300" viewBox="0 0 600 300"><rect x="0" y="0" width="600" height="300" style="fill: rgb(255, 255, 255); fill-opacity: 1;"/><defs id="defs-c503dd"><g class="clips"><clipPath id="clipc503ddxyplot" class="plotclip"><rect width="520" height="218"/></clipPath><clipPath class="axesclip" id="clipc503ddx"><rect x="55" y="0" width="520" height="300"/></clipPath><clipPath class="axesclip" id="clipc503ddy"><rect x="0" y="25" width="600" height="218"/></clipPath><clipPath class="axesclip" id="clipc503ddxy"><rect x="55" y="25" width="520" height="218"/></clipPath></g><g class="gradients"/></defs><g class="bglayer"><rect class="bg" x="51" y="21" width="528" height="226" style="fill: rgb(229, 236, 246); fill-opacity: 1; stroke-width: 0;"/></g><g class="layer-below"><g class="imagelayer"/><g class="shapelayer"/></g><g class="cartesianlayer"><g class="subplot xy"><g class="layer-subplot"><g class="shapelayer"/><g class="imagelayer"/></g><g class="gridlayer"><g class="x"><path class="xgrid crisp" transform="translate(227.39,0)" d="M0,25v218" style="stroke: rgb(255, 255, 255); stroke-opacity: 1; stroke-width: 1px;"/><path class="xgrid crisp" transform="translate(400.25,0)" d="M0,25v218" style="stroke: rgb(255, 255, 255); stroke-opacity: 1; stroke-width: 1px;"/><path class="xgrid crisp" transform="translate(573.11,0)" d="M0,25v218" style="stroke: rgb(255, 255, 255); stroke-opacity: 1; stroke-width: 1px;"/></g><g class="y"><path class="ygrid crisp" transform="translate(0,208.15)" d="M55,0h520" style="stroke: rgb(255, 255, 255); stroke-opacity: 1; stroke-width: 1px;"/><path class="ygrid crisp" transform="translate(0,135.81)" d="M55,0h520" style="stroke: rgb(255, 255, 255); stroke-opacity: 1; stroke-width: 1px;"/><path class="ygrid crisp" transform="translate(0,63.47)" d="M55,0h520" style="stroke: rgb(255, 255, 255); stroke-opacity: 1; stroke-width: 1px;"/></g></g><g class="zerolinelayer"/><path class="xlines-below"/><path class="ylines-below"/><g class="overlines-below"/><g class="xaxislayer-below"/><g class="yaxislayer-below"/><g class="overaxes-below"/><g class="plot" transform="translate(55, 25)" clip-path="url('#clipc503ddxyplot')"><g class="scatterlayer mlayer"><g class="trace scatter trace884fc4" style="stroke-miterlimit: 2; opacity: 1;"><g class="fills"/><g class="errorbars"/><g class="lines"><path class="js-line" d="M0,24.85L3.79,24.62L4.26,23.34L4.74,20.89L5.21,21.97L5.68,21.18L6.63,23.15L7.1,21.89L8.52,20.41L9,22.56L10.89,20.14L11.37,20.18L12.31,22.44L12.79,23.02L13.26,24.02L13.73,23.64L14.21,23.59L15.63,22.15L16.1,20.47L17.05,22.91L17.52,22.22L18.94,24.12L19.42,24.01L20.84,20.14L21.31,21.62L22.73,22.89L23.21,22.47L23.68,21.83L24.15,19.62L25.1,20.77L25.57,20.02L26.52,18.86L26.99,19.61L28.89,19.38L29.36,19.84L30.31,20.8L30.78,19.98L31.73,23.43L32.2,21.63L32.68,20.54L33.15,22.15L33.62,22.03L34.1,22.7L35.05,24.74L35.52,22.35L35.99,22.84L36.47,21.52L36.94,21.91L37.41,24.31L38.83,22.57L39.31,24.38L39.78,26.04L40.26,24.61L40.73,27.4L41.2,26.62L41.68,24.99L42.15,25.47L42.62,27.64L43.57,28.77L44.04,28.67L44.52,26.95L44.99,27.09L45.46,27.19L45.94,27.63L46.41,26.71L47.36,26.65L47.83,24.7L48.78,26.34L49.25,25.96L49.73,26.34L51.62,21.03L52.09,21.25L52.57,21.25L53.04,20L53.52,19.95L53.99,18.89L55.41,17.35L55.88,17.17L56.83,15.34L57.3,15.84L57.78,15.9L58.25,17.52L59.2,19.85L59.67,19.44L60.15,18.91L60.62,19.03L61.09,20.1L62.04,22.46L62.51,22.05L62.99,21.56L63.46,23.65L63.93,22.05L64.41,22.95L64.88,23.69L65.83,23.99L66.3,23.7L67.72,24.68L68.2,24.4L69.62,22.24L70.09,23.13L71.51,23.89L71.99,23.51L72.46,21.42L72.93,21.84L73.41,22.39L73.88,23.18L74.35,22.77L74.83,21.91L75.3,21.5L75.77,22.42L76.25,22.66L76.72,21.77L77.19,21.87L77.67,20.84L78.14,21.45L78.62,19.22L79.09,18.8L79.56,20.36L80.98,19.42L81.46,19.74L81.93,20.76L82.4,19.48L82.88,18.33L83.35,19.22L83.83,19.37L84.3,18.73L85.25,19.54L85.72,21.05L86.67,19.59L87.14,21.04L89.03,17.86L89.51,19.27L89.98,20.42L90.46,19.87L90.93,20.13L92.82,18.29L93.3,21.56L95.19,20.56L95.66,21.45L97.56,18.02L98.03,19.45L99.45,21.95L99.93,21.09L101.35,19.16L101.82,19.49L103.24,21.49L103.72,20.36L104.19,20.43L104.66,21.28L106.08,18.06L106.56,17.81L108.45,21L108.93,20L109.4,18.57L109.87,18.77L110.35,19.21L111.77,18.19L112.24,19.02L112.71,17.29L113.19,19.96L113.66,21.09L114.13,20.51L114.61,19.22L115.56,16.03L116.03,17.06L118.87,20.35L119.34,18.98L119.82,20.55L120.29,19.32L121.24,16.42L121.71,18.26L122.19,17.51L122.66,18.1L123.13,18.61L125.03,14.75L125.5,14.52L126.45,13.22L126.92,13.29L127.4,13L127.87,15.15L128.82,16.4L129.29,18.49L129.76,17.16L130.24,17.86L130.71,17.48L131.66,19.04L132.13,19.05L132.6,18.04L133.08,19.23L134.03,21.37L134.5,21.15L134.97,20.43L135.45,21.23L137.34,17.08L137.81,18.44L138.29,17.62L138.76,18.37L139.23,18.64L139.71,19.85L142.08,19.93L142.55,18.96L143.97,21.36L144.44,21.27L145.87,19.65L146.34,20.5L146.81,21.01L147.29,19.35L148.23,17.72L148.71,19.24L149.18,19.72L149.65,18.59L150.6,16.79L151.07,16.75L152.02,19.27L152.5,20.96L152.97,22.12L153.44,21L153.92,19.4L154.39,21.65L155.34,22.3L155.81,21.09L156.28,21.5L156.76,24.33L157.7,23.12L158.18,23.14L160.07,19.2L160.55,20.97L161.02,20.94L161.49,19.73L162.44,18.82L162.91,19.09L163.39,18.61L163.86,16.65L164.81,17.99L165.28,17.07L165.76,17.24L166.23,18.97L167.18,18.43L167.65,18.08L169.54,20.81L170.02,19.82L171.44,17.64L171.91,18.54L172.86,18.53L173.33,17.71L176.65,14L177.12,15.78L177.6,15.02L178.07,17.38L178.54,18.14L179.02,16.77L179.96,17.44L180.44,15.17L182.33,15.22L182.81,17.06L183.75,16.91L184.23,14.9L184.7,16.34L185.17,13.39L185.65,13.02L186.12,13.72L187.07,14.47L187.54,16.12L189.44,18.86L189.91,18.93L190.86,18.43L191.33,18.77L192.75,19.33L193.22,18.83L194.17,19.54L194.64,18.46L196.07,14.73L196.54,15.73L197.49,15.88L197.96,14.81L198.91,13.19L199.38,14.49L200.33,14.49L200.8,14.06L201.28,14.43L201.75,16.06L202.7,14.86L203.17,15.67L203.64,17.08L204.12,14.56L204.59,13.77L205.06,14.75L206.01,17.04L206.48,16.82L206.96,15.88L207.43,17.79L208.85,17.79L209.33,20.05L209.8,22.14L210.27,21.6L210.75,18.88L211.69,21.89L212.17,21.1L213.11,18.78L213.59,18.58L214.06,19.4L214.54,17.78L215.48,17.43L215.96,17.83L216.9,15.3L217.38,16.8L219.27,17.98L219.74,19.31L220.69,21.07L221.17,19.8L221.64,20L222.11,22.39L222.59,22.23L223.06,19.18L223.53,19.15L224.01,20.44L224.48,20.02L224.95,20.61L226.38,19.3L226.85,20.43L227.8,18.14L228.27,19.79L228.74,19.66L229.22,18.48L229.69,17.1L230.16,18.03L230.64,18.38L231.58,17.26L232.06,17.94L232.53,17.02L233.01,17.78L233.95,15.29L234.43,15.79L235.37,14.03L235.85,14.46L236.32,13.57L236.79,14.85L237.27,15.01L237.74,16.74L238.69,18.36L239.16,17.42L240.58,18.76L241.06,17.85L242.95,20.87L243.42,21.48L244.37,23.68L244.85,21.95L245.79,19.91L246.27,20.14L246.74,21.5L247.21,22.31L247.69,21.43L248.16,21.44L248.63,22.22L250.53,20.29L251,17.84L252.42,15.39L252.9,16.21L255.26,18.21L255.74,17.47L257.16,16.35L257.63,16.81L258.11,19.02L258.58,17.7L259.05,17.28L260,19.01L260.47,18.55L261.42,16.94L261.89,17.59L262.84,15.86L263.32,18.29L264.26,18.87L264.74,19.02L265.21,18.68L265.68,20.5L266.63,22.5L267.1,21.11L268.05,20.99L268.52,21.73L269.95,24.17L270.42,22.54L271.37,24.47L271.84,23.69L272.31,23.32L272.79,21.6L274.21,20.78L274.68,21.35L275.15,22.5L275.63,20.58L276.1,19.71L276.58,20.62L278.47,17.49L278.94,17.53L279.42,17.31L279.89,19.61L280.84,20.55L281.31,22.63L283.68,18.6L284.15,19.33L285.1,17.45L285.57,17.32L286.05,17.09L286.52,17.71L286.99,16.17L287.47,16.92L287.94,16.16L288.42,14.66L288.89,15.74L289.84,16.94L290.31,18.12L292.2,23.7L292.68,23.48L293.62,24.17L294.1,22.82L295.05,21.14L295.52,21.33L295.99,19.02L296.47,19.81L296.94,18.84L298.36,14.6L298.83,14.22L299.78,15.16L300.26,14.59L300.73,13.86L301.2,16.13L303.1,20.53L303.57,19.57L304.52,22.45L304.99,21.86L305.46,20.94L305.94,22.26L306.41,21.08L307.36,20.7L307.83,21.38L309.25,20.32L309.73,19.17L311.15,16.73L311.62,15.87L312.09,15.11L312.57,17.88L313.52,14.86L313.99,15.75L314.46,15.85L314.94,15.15L315.41,13.47L315.88,13.63L316.36,13.5L317.3,11.64L317.78,13.39L318.25,13.31L318.72,14.48L319.2,15.48L319.67,13.51L320.62,14.81L321.09,14.62L322.04,16.15L322.51,17.97L323.46,17.69L323.93,19.26L324.41,19.7L324.88,18.56L326.3,15.67L326.78,16.23L327.25,15.34L327.72,16.41L329.14,16.64L329.62,17.22L330.09,18.67L330.56,18.14L331.04,17.71L331.99,17.21L332.46,18.11L333.41,19.16L333.88,18.37L335.3,20.09L335.77,18.93L336.72,17.74L337.19,14.24L339.56,16.36L340.04,16.12L340.51,15.28L340.98,15.79L341.46,15.6L342.4,15.34L342.88,18.11L343.83,17.23L344.3,19.29L345.72,21.27L346.19,20.59L346.67,20.71L347.14,22.54L348.56,24.38L349.03,22.26L349.98,19.4L350.46,19.74L350.93,19.82L351.4,19.82L351.88,18.88L352.35,18.98L352.82,16.64L353.77,16.92L354.24,16.09L355.19,16.95L355.66,17.28L357.09,18.31L357.56,17.59L358.51,15.06L358.98,15.53L359.45,15.95L359.93,17.59L361.35,20.31L361.82,18.07L362.3,17.65L362.77,18.42L363.24,18.64L363.72,20.02L364.19,19.94L364.66,20.79L365.61,23.51L366.08,22.55L367.03,20.37L367.5,18.49L368.45,15.14L368.93,16.21L369.87,13.03L370.35,13.66L371.77,10.9L372.24,11.44L372.71,11.16L375.56,17.16L376.03,17.28L377.92,21.07L378.4,20.92L378.87,20.9L379.34,19.04L379.82,19.58L380.29,18.11L380.77,17.51L381.24,18.62L382.66,18.13L383.13,18.76L383.61,19.84L384.08,19.08L384.55,17.51L385.03,17L385.5,17.99L387.4,22.46L387.87,21.12L388.34,19.54L388.82,19.73L389.29,20.13L390.71,20.76L391.18,19.77L391.66,19.08L392.13,19.74L392.6,20.56L393.08,19.7L394.03,21.35L394.5,20.15L395.92,22.96L396.39,21.56L398.29,23.93L398.76,26.24L400.18,24.19L400.66,23.29L402.08,22.63L402.55,23L404.44,22.14L404.92,21.58L405.87,21.75L406.34,21.71L406.81,20.7L407.29,21.6L408.23,21.54L408.71,23.57L409.65,21.35L410.13,21.78L410.6,22.79L411.07,23.48L411.55,22.5L412.02,23.99L412.5,22.95L412.97,21.21L413.44,22.67L413.92,23.76L414.39,23.28L414.86,23.13L416.76,23.58L417.23,25.92L417.7,26.26L418.18,23.56L418.65,24.88L419.13,23.91L419.6,23.96L420.07,24.78L421.02,21.37L421.49,23.17L421.97,23.62L422.44,22.22L424.81,16.1L425.28,18.23L426.23,17.83L426.7,18.94L427.18,18.31L427.65,18.91L428.12,20.48L429.54,17.28L430.02,16.68L430.49,18.18L430.97,17.87L431.44,18.65L432.86,16.02L433.33,16.52L435.23,17.48L435.7,17.14L439.02,23.77L439.49,23.71L440.44,24.52L440.91,22.42L442.33,23.72L442.81,26.11L443.28,25.18L443.75,25.65L444.23,25.46L445.17,24.91L445.65,22.71L446.59,22.44L447.07,20.73L447.54,20.97L448.01,22.62L449.44,21.28L449.91,17.81L450.38,18.21L450.86,16.73L452.28,15.66L452.75,16.96L453.22,16.36L453.7,17.32L454.64,19.96L455.12,20.29L455.59,21.46L456.07,21.15L456.54,20.95L458.91,26.42L459.38,27.84L461.28,27.31L461.75,28.22L463.64,24.59L464.12,26.36L464.59,23.85L465.06,24.02L465.54,25.35L466.48,24.98L466.96,27.09L467.43,28.05L467.91,27.47L468.38,28.2L468.85,27.93L469.33,29.32L469.8,29.63L470.27,32.03L470.75,32.26L471.22,30.13L472.17,31.6L472.64,28.89L475.48,24.99L475.96,25.11L477.38,23.05L477.85,23.95L479.27,25.49L479.74,27.85L480.22,28.18L480.69,29.88L482.11,29.85L482.59,28.85L483.06,27.82L483.53,28.3L484.01,27.58L484.48,27.39L484.95,26.22L486.38,26.97L486.85,26.49L489.22,23.85L489.69,25.23L491.11,23.61L491.58,24.06L492.06,24.62L492.53,22.86L493.95,19.83L494.43,20.5L495.37,22.48L495.85,22.11L496.32,22.82L496.79,20.99L498.21,23.85L498.69,23.33L499.64,24.8L500.11,27.3L501.06,28.23L501.53,29.74L502,28.28L502.48,29.31L503.9,31.7L504.37,32.66L505.32,31.03L505.79,32.1L506.74,32.78L507.21,31.12L508.16,32.15L508.63,29.88L509.11,30.83L509.58,28.98L510.05,28.14L510.53,29.04L511.48,28.14L511.95,28.81L512.42,29.2L512.9,28.47L513.84,27.67L514.32,28.33L515.26,27.34L515.74,29.11L516.21,27.64L516.68,28.82L520,28.82" style="vector-effect: non-scaling-stroke; fill: none; stroke: rgb(99, 110, 250); stroke-opacity: 1; stroke-width: 2px; opacity: 1;"/></g><g class="points"/><g class="text"/></g><g class="trace scatter trace57165b" style="stroke-miterlimit: 2; opacity: 1;"><g class="fills"/><g class="errorbars"/><g class="lines"><path class="js-line" d="M0,62.21L3.32,62.21L3.79,64.18L4.26,63.45L4.74,64.08L5.21,64.96L6.63,64.6L7.1,62.62L7.58,61.27L8.05,61.48L8.52,61.65L9,63.47L9.47,62.13L12.31,60.65L12.79,61.38L13.26,60.63L13.73,62.73L14.21,63.3L14.68,65.19L15.15,64.73L15.63,66.23L17.52,63.86L18,65.01L18.47,66.04L18.94,65.54L19.42,65.42L20.84,63.16L21.31,61.58L22.26,60.62L22.73,57.83L23.68,57.27L24.15,57.82L24.63,58.81L25.1,57.47L26.52,54.16L26.99,54.92L27.47,55.09L27.94,56.59L29.84,63.27L30.31,63.87L31.73,64.87L32.2,63.78L33.62,65.21L34.1,63.56L35.52,62.08L35.99,62.75L36.47,62.48L36.94,60.78L38.83,53.59L39.31,54.74L39.78,54.61L40.26,55.4L40.73,54.67L41.2,55.22L41.68,55.05L44.04,50.14L44.52,52.22L44.99,52.64L45.46,54.69L47.83,55.25L48.31,54.77L48.78,54.38L49.25,56.33L50.2,55.82L50.67,55.59L51.15,55.88L51.62,55.11L52.09,54.42L52.57,52.3L53.52,50.39L53.99,50.72L54.46,50.22L55.41,49.52L55.88,50.45L56.36,48.47L56.83,48.79L57.3,49.18L57.78,50.28L58.25,49.42L59.2,50.65L59.67,50.01L60.15,51.41L60.62,51L61.09,49.93L62.99,46.62L63.46,46.05L64.41,44.59L64.88,42.81L65.36,41.83L65.83,38.86L67.25,42.33L67.72,40.98L68.67,42.44L69.14,44.16L70.09,43.86L70.56,43.29L71.51,44.33L71.99,43.27L72.93,46.87L73.41,44.7L74.35,43.24L74.83,46.07L75.77,46.53L76.25,45.88L76.72,45.81L77.19,47.45L77.67,50.1L78.14,49.77L78.62,49.35L79.56,52.78L80.04,50.25L80.51,49.83L80.98,51.56L81.93,51.25L82.4,50.17L84.3,50.17L84.77,48.65L85.72,50.34L86.19,48.89L87.61,52.58L88.09,51.62L89.51,52.49L89.98,51.75L90.46,51.74L90.93,50.31L91.4,48.16L91.88,48.37L92.35,48.29L93.3,48.85L93.77,47.55L94.24,47.17L94.72,45.79L95.66,45.41L96.14,43.93L97.09,43.17L97.56,44.4L98.03,45.04L98.51,43.96L98.98,43.92L99.45,42.4L100.87,40.23L101.35,41.59L101.82,41.81L102.3,41.13L103.24,38.17L103.72,38.69L104.66,36.1L105.14,36.48L105.61,37.78L106.08,36.41L106.56,36.23L107.03,34.38L109.4,32.26L109.87,33.23L111.29,36.5L111.77,35.59L112.24,36.56L112.71,36.14L113.19,36.67L114.13,38.34L114.61,37.88L115.56,38.93L116.03,38.33L116.98,39.46L117.45,38.52L117.92,36.67L118.4,37.77L118.87,38.21L119.82,35.07L120.29,34.89L120.77,34.48L121.24,36.06L122.19,37.82L122.66,36.4L123.13,36.65L123.61,37.78L125.03,41.22L125.5,39.45L125.97,39.39L126.45,40.4L127.4,39.66L127.87,37.45L129.29,34.03L129.76,35.23L130.71,35.08L131.18,34.02L132.13,35.57L132.6,34.29L135.92,44.1L136.39,43.77L137.81,44.84L138.29,44.88L138.76,46.41L139.23,44.61L139.71,46.93L140.18,44.68L140.66,44.5L141.13,42.12L141.6,42.93L142.08,40.85L143.5,41.73L143.97,41.1L144.44,40.22L144.92,40.67L145.39,41.39L146.81,39.8L147.29,40.41L149.18,45.25L149.65,43.96L150.13,43.47L150.6,44.06L151.07,43.89L152.97,42.55L153.44,43.25L154.39,43.38L154.86,40.85L155.81,40.67L156.28,40.66L157.7,45.01L158.18,44.79L158.65,44.59L159.13,45.48L159.6,43.58L160.07,43.96L160.55,42.88L161.02,42.61L161.49,43.84L161.97,46.04L162.44,45.28L162.91,43.34L164.81,37.66L165.28,37.49L165.76,38.58L166.23,37.36L168.12,38.61L168.6,38.11L169.54,37.34L170.02,38.07L170.97,39.08L171.44,37.09L172.39,37.73L172.86,36.21L174.28,34.48L174.75,34.76L176.65,32.37L177.12,32.95L178.07,31.42L178.54,33.31L179.96,32.27L180.44,33.09L182.33,31.01L182.81,29.11L183.75,32.07L184.23,31.61L185.65,34.52L186.12,33.74L187.07,34.07L187.54,34.59L189.44,35.62L189.91,36.46L190.38,34.36L190.86,34.73L191.33,34.95L192.75,30.96L193.22,30.66L195.12,26.68L195.59,24.13L196.07,23.9L196.54,22.79L197.49,23.22L197.96,20.89L198.43,20.56L198.91,21.94L199.38,21.35L199.85,22.69L200.33,22.58L200.8,23.31L201.28,22.21L201.75,23.7L202.22,24.65L202.7,27.9L203.64,28.96L204.12,29.07L204.59,27.73L205.06,28.32L205.54,29.08L206.48,27.29L206.96,27.56L207.91,27.54L208.38,28.9L209.8,27.47L210.27,28.56L212.17,34.49L212.64,33.87L213.11,35.74L213.59,35.54L214.06,34.79L215.96,38.32L216.43,37.98L216.9,37.71L217.38,35.11L218.8,31.39L219.27,31.61L219.74,31.49L220.69,30.22L221.17,30.91L221.64,31.08L222.11,29.42L222.59,27.5L223.06,27.9L223.53,29.28L224.01,28.83L224.48,29.74L226.85,33.12L227.32,32.5L228.74,30.17L229.22,30.34L230.64,28.8L231.11,29.68L232.06,30.23L232.53,28.13L233.95,26.11L234.43,28.24L234.9,29.88L235.37,28.35L235.85,27.65L236.32,28.2L236.79,29.91L237.74,29.32L238.21,28.08L239.16,26.39L239.64,28.39L240.58,28.42L241.06,28.43L242,27.23L242.48,28.14L242.95,29.08L243.42,27.39L244.85,27.42L245.32,28.75L245.79,29.28L246.27,31.23L247.21,31.44L247.69,31.48L248.16,32.78L248.63,32.39L249.11,32.88L250.05,31.95L250.53,32.24L252.42,31.46L252.9,30.58L254.79,24.83L255.26,23.06L255.74,23.37L256.21,22.36L256.68,23.04L257.16,21.89L257.63,23.37L258.11,22.6L258.58,22.52L260.47,21.59L260.95,22.99L261.89,21.67L262.37,22.48L263.32,22.02L263.79,22.86L264.26,23.72L264.74,23.11L265.21,23.22L266.16,23.05L266.63,24.07L269,28.64L269.47,27.48L269.95,27.43L270.42,26.16L271.37,25.03L271.84,26.73L272.79,27.85L273.26,27.23L275.15,27.27L275.63,25.14L276.1,24.67L276.58,26.07L277.05,26.01L277.52,27.56L279.42,24.74L279.89,25.23L280.36,26.13L280.84,25.81L281.31,23.49L282.73,26.53L283.21,26.15L283.68,24.28L284.15,24.77L284.63,24.41L285.57,21.93L286.05,22.2L286.52,22.01L286.99,21.91L287.47,20.84L288.89,19.67L289.36,19.28L289.84,17.88L290.31,18.52L290.78,19.45L291.26,18.73L291.73,19.47L293.15,23.76L293.62,22.98L294.1,21.79L294.57,23.6L295.05,23.69L295.52,25.18L296.94,25.88L297.41,25.03L297.89,24.16L298.36,24.63L298.83,24.85L299.31,24.81L299.78,23.06L301.2,23.26L301.68,22.33L302.15,22.94L302.62,21.97L303.57,20.92L304.04,22.59L304.99,22.54L305.46,24.81L305.94,23.52L306.41,24.97L306.89,28.07L307.36,27.59L307.83,29.14L309.25,29.78L309.73,29.85L310.2,29.81L310.67,30.87L311.15,30.25L311.62,31.64L312.09,33.07L312.57,31.42L313.04,32.15L313.52,30.33L313.99,28.84L314.46,29.89L314.94,29.56L315.41,30.48L316.36,29.6L316.83,28.74L317.3,29.49L317.78,27.43L319.67,23.78L320.15,21.05L321.09,20.9L321.57,18.82L324.41,14.32L324.88,16.05L325.83,17.39L326.3,16.99L326.78,16.22L327.25,19.88L327.72,19.04L328.2,19.81L329.62,22.43L330.09,23.29L331.04,26.76L331.51,26.48L332.46,27.93L332.93,26.94L333.88,30.23L334.35,28.76L334.83,29.36L335.3,28.12L337.19,29.92L337.67,28.72L338.62,30.17L339.09,30.03L339.56,29.04L340.04,30.15L342.4,35.84L342.88,36.5L343.35,35.77L343.83,33.51L344.3,34.97L344.77,34.21L345.25,32.43L347.14,29.52L347.61,29.35L348.09,29.53L348.56,26.58L349.51,27.18L349.98,24.57L350.93,26.55L351.4,24.33L352.35,24.9L352.82,25.71L353.3,26.35L353.77,25.96L354.24,25.6L355.19,23.24L355.66,24.17L358.51,28.9L358.98,30.24L360.4,32.96L360.87,32.59L364.19,39.17L364.66,37.8L365.61,37.38L366.08,37.06L366.56,36.51L367.03,37.21L368.45,34.55L368.93,34.41L369.4,34.07L369.87,34.91L371.29,34.28L371.77,34.18L373.19,35.14L373.66,35.45L374.13,35.93L374.61,37.57L375.56,40.47L376.03,39.05L378.4,35.08L378.87,37.72L380.29,39.3L380.77,38.47L381.71,39.4L382.19,37.07L384.08,41.29L384.55,40.59L385.03,40.46L385.5,41.58L386.45,39.37L386.92,42.42L387.4,42.03L387.87,42.71L388.34,42.3L388.82,42.94L389.76,45.34L390.24,44.38L390.71,44.54L391.18,45.99L392.13,45.3L392.6,45.63L393.08,46.45L393.55,45.14L394.5,42.7L394.97,44.71L395.92,45.04L396.39,44.24L397.34,43.64L397.81,44.32L399.23,46.75L399.71,46.1L400.18,45.74L400.66,48.03L401.13,48.23L401.6,47.4L402.55,46.17L403.02,46.43L403.5,47.68L403.97,46.96L404.44,46.62L405.87,44.94L406.34,45.31L406.81,45.39L408.23,46.58L408.71,48.72L409.65,49.41L410.13,46.97L410.6,46.51L411.07,47.93L413.44,53.79L413.92,55.08L414.39,55.49L414.86,54.51L419.13,59.36L419.6,59.57L420.07,59.73L420.55,57.39L421.49,56.36L421.97,57.87L423.86,57.86L424.34,58.92L425.76,56.23L426.23,56.99L427.18,59.53L427.65,62.19L428.6,64.21L429.07,63.41L429.54,63.75L430.02,62.62L431.44,64.09L431.91,66.09L432.86,65.56L433.33,63.79L434.28,61.38L434.75,62L435.23,62.9L436.17,64.03L436.65,63.53L438.07,68.25L438.54,69.36L439.49,69.94L439.96,71.85L441.38,75.46L441.86,74.93L442.33,74.1L442.81,72.87L443.28,73.26L443.75,74.71L445.65,71.73L446.12,71.94L446.59,71.81L447.07,70.79L447.54,71.38L448.01,69.93L448.96,69.41L449.44,69.33L451.8,72.79L452.28,73.25L456.54,81.88L457.01,81.61L458.91,78.98L459.38,79.86L460.33,82.97L460.8,82.65L461.28,80.82L462.22,80.21L462.7,78.26L463.64,76.61L464.12,77.29L465.54,77.75L466.01,76.75L466.96,72.98L467.43,70.66L469.8,69.79L470.27,70.19L470.75,71.85L471.22,71.37L471.69,70.2L472.17,70.81L472.64,70.12L475.96,78.44L476.43,77.89L478.8,81.27L479.27,82.69L479.74,83.42L480.22,82.62L480.69,82.63L481.17,81.4L482.11,79.13L482.59,79.47L483.06,78.13L483.53,79.56L484.48,80.23L484.95,78.97L485.9,79.07L486.38,78.23L487.8,75.98L488.27,76.06L488.74,77.01L489.22,76.29L489.69,75.91L490.16,76.2L490.64,75.53L491.58,74.81L492.06,76.75L493.01,77.93L493.48,77.23L494.43,79.75L494.9,78.69L495.85,78.75L496.32,78.07L497.27,76.93L497.74,77.2L498.21,78.54L498.69,78.27L499.16,77.68L500.11,77.07L500.58,77.74L501.53,78.66L502,81.22L502.95,83.53L503.42,86.04L504.85,92.25L505.32,92.71L508.16,90.8L508.63,89.44L509.58,91.56L510.05,89.13L510.53,90.54L511,88.69L511.48,88.66L511.95,87.49L512.9,86.18L513.37,86.78L515.74,90.75L516.21,90.02L517.16,88.91L517.63,88.91L520,88.91" style="vector-effect: non-scaling-stroke; fill: none; stroke: rgb(239, 85, 59); stroke-opacity: 1; stroke-width: 2px; opacity: 1;"/></g><g class="points"/><g class="text"/></g><g class="trace scatter tracee1e2c6" style="stroke-miterlimit: 2; opacity: 1;"><g class="fills"/><g class="errorbars"/><g class="lines"><path class="js-line" d="M0,100.45L3.79,100.49L4.26,102.41L4.74,101.03L5.21,101.25L5.68,101.12L6.16,100.77L6.63,98.39L7.1,98.9L7.58,97.07L8.52,98.83L9,101.91L11.84,96.29L12.31,97.19L14.21,102.09L14.68,102.92L16.1,98.92L16.58,101.33L17.05,102.54L17.52,101.94L18,101.08L19.42,102.29L19.89,99.44L20.36,100.67L20.84,99.26L22.26,100.74L22.73,101.19L23.21,100.66L23.68,98.21L24.15,98.22L24.63,99.19L25.1,101.19L25.57,100.69L26.05,101.05L26.52,100L26.99,100.89L28.89,97.86L29.36,97.04L29.84,96.88L30.31,98.91L30.78,100.79L31.26,100.67L31.73,99.7L32.2,97.07L32.68,98.3L33.15,98.72L34.1,99.44L34.57,98.96L35.05,100.2L35.52,99.18L35.99,99.86L36.47,98.33L38.36,90.57L38.83,91.1L39.78,91.05L40.26,89.42L42.15,82.92L42.62,83.58L43.1,81.89L43.57,83.5L44.04,83.63L44.52,85.93L45.94,84.07L46.41,86.03L47.36,85.07L47.83,86.5L48.31,86.57L48.78,88.83L49.25,90.49L49.73,89.65L50.2,90.65L50.67,89.52L51.15,90.54L52.09,88.13L52.57,87.93L53.04,88.28L53.52,87.27L54.46,87.9L54.94,86.34L55.41,86.59L55.88,85.19L57.3,83.2L57.78,83.3L59.2,82.61L59.67,80.24L60.62,80.12L61.09,80.35L61.57,81.07L62.04,80.46L62.51,79.81L63.46,82.68L63.93,81.98L64.88,82.35L65.36,83.89L65.83,83.88L66.3,86.92L66.78,88.6L67.25,88.33L67.72,87.71L69.62,89.77L70.09,87.37L70.56,87.01L71.04,89.6L71.51,88.69L71.99,89.77L72.93,86.56L73.41,87.72L73.88,87.04L74.35,88.09L74.83,88.99L75.3,88.52L75.77,88.94L76.25,89.68L76.72,89.1L77.19,89.14L77.67,89.64L78.14,88.8L79.09,88.67L79.56,89.57L80.04,91.92L80.51,90.15L81.93,90.88L82.4,89.02L83.83,89.79L84.3,91.23L84.77,91.86L85.25,90.87L86.67,92.34L87.14,90.68L88.09,89.16L88.56,86.86L89.03,85.73L89.51,86.08L89.98,87.22L92.35,81.89L92.82,81.89L94.24,78.98L94.72,78.83L95.66,80.13L96.14,80.62L96.61,80.3L97.09,78.12L98.03,80.27L98.51,79.69L98.98,79.11L99.93,77.47L100.4,76.52L101.35,76.59L101.82,74.85L102.77,74.79L103.24,74.1L104.19,73.07L104.66,71.83L105.14,71.06L105.61,71.37L106.08,71.06L107.98,74.45L108.45,73.88L109.4,75.54L109.87,75.11L110.35,74.66L110.82,75.73L111.29,74.8L111.77,76.09L115.08,72.48L115.56,73.55L117.92,75.13L118.4,77L119.82,77.6L120.29,79.24L121.24,79.35L121.71,79.01L122.19,79.36L122.66,78.37L123.13,78.22L123.61,78.98L127.4,71.83L127.87,72.17L128.34,73.16L128.82,72.74L129.29,72.63L129.76,73.42L130.24,71.39L131.18,72.49L131.66,70.86L132.6,72.07L133.08,72.91L134.5,75.05L134.97,74.48L135.45,73.26L135.92,73.54L136.39,73.27L137.34,76L137.81,75.42L138.29,75.5L139.23,79.67L139.71,78.98L140.18,80.7L140.66,80.35L141.13,79.6L141.6,79.45L142.08,81.59L143.5,80.84L143.97,78.15L144.44,77.82L144.92,78.62L145.87,76.86L146.34,75.6L146.81,77.42L147.29,75.69L147.76,74.79L148.23,76.52L148.71,76.66L149.18,75.11L150.13,76.92L150.6,76.03L151.55,78.42L152.02,76.67L153.44,79.25L153.92,78.12L154.39,78.22L154.86,79.9L155.34,80.97L155.81,79.82L156.28,78.73L156.76,79.74L157.23,78.55L157.7,79.55L158.18,80L158.65,78.97L159.6,79.54L160.07,77.77L161.02,77.98L161.49,78.5L162.44,76.11L162.91,77.72L163.39,78.65L163.86,76.81L164.34,75.64L164.81,76.58L167.65,79.46L168.12,78.97L169.07,77.11L169.54,77.14L170.97,75.33L171.44,76.06L172.39,72.71L172.86,70.71L173.81,69.26L174.28,69.34L174.75,65.53L175.23,66.2L175.7,68.03L176.17,69.22L176.65,68.85L177.12,66.78L178.07,69.13L178.54,68.43L179.02,67.54L179.49,68.45L180.44,69.84L180.91,69.3L181.38,69.02L181.86,71.14L182.33,70.33L182.81,69.7L183.75,68.23L184.23,70.96L185.65,69.01L186.12,70.62L187.54,72.1L188.01,70.66L188.49,69.8L188.96,70.87L189.44,69.95L189.91,70.26L190.38,70.75L191.33,72.45L191.8,72.09L192.28,71.78L192.75,72.96L193.22,73.45L193.7,72.45L194.64,71.98L195.12,72.84L195.59,73.62L196.07,72.29L196.54,73.11L197.01,71.47L197.49,72.19L197.96,70.51L198.91,67.16L199.38,67.67L199.85,67.22L200.33,65.33L200.8,66.44L201.28,66.96L202.22,67.25L202.7,66.35L205.06,63.09L205.54,63.07L206.01,66.12L206.48,64.55L206.96,65.28L209.33,63.02L209.8,64.11L210.27,64.49L210.75,66.06L211.69,66.18L212.17,67.65L212.64,69.01L213.11,67.84L213.59,68.86L214.06,67.14L216.43,69.81L216.9,69.99L217.38,71.37L217.85,70L218.8,70.06L219.27,68.82L220.69,70.18L221.17,72.59L223.06,69.44L223.53,70.84L224.48,69.39L224.95,70.19L225.43,70.59L225.9,69.61L226.38,70.01L226.85,67.87L228.27,63.72L228.74,64.02L229.22,63.09L229.69,62.61L230.16,64.89L230.64,62.99L231.11,63.48L231.58,63.08L232.53,62.44L233.01,62.93L233.95,65.05L234.43,64.46L236.79,68.9L237.27,67.68L238.21,68.76L238.69,70.73L239.16,70.16L239.64,71.64L240.11,72.03L240.58,69.77L241.06,68.64L241.53,69.57L242,70.82L242.48,69.85L243.42,70.45L243.9,70.39L245.32,69.35L245.79,67.83L246.27,68.57L246.74,67L248.16,69.54L248.63,67.28L249.11,64.75L249.58,65.9L250.05,64.93L250.53,64.76L251,63.15L252.9,61.56L253.37,61.46L253.84,62.01L254.32,60.78L255.26,62.66L255.74,65.6L256.21,66.53L256.68,65.67L257.16,62.68L257.63,62.77L258.11,64.55L259.53,66.89L260,66.89L260.95,65.4L261.42,66.21L263.32,61.17L263.79,61.66L264.74,64.59L265.21,63.6L266.16,60.78L266.63,61.37L267.1,61.41L267.58,62.67L268.05,62.13L268.52,62.65L269.95,66.32L270.42,66.75L271.37,67.81L271.84,66.7L272.79,68.57L273.26,69.44L273.73,69.23L274.21,68.16L275.15,67.4L275.63,65.09L277.05,60.19L277.52,60.88L278,60.2L278.47,58.1L278.94,59.57L279.42,58.9L279.89,57.54L280.84,56.41L281.31,57.72L281.79,56.92L282.26,57.48L282.73,57.1L283.68,58.7L284.15,58.59L285.1,58.27L285.57,58.84L286.05,57.77L286.52,58.81L286.99,58.31L287.47,60.42L290.31,59.06L290.78,59.69L291.73,60.38L292.2,58.21L293.15,59.81L293.62,58.81L294.1,59.06L294.57,56.68L296.94,61.46L297.41,60.89L298.83,57.12L299.31,58.34L299.78,58.62L300.26,57.61L300.73,58.14L301.2,56.96L302.62,59.49L303.1,58.74L303.57,58.64L304.04,59.76L305.94,63.17L306.41,64.55L307.83,67.54L308.31,66.36L309.25,67.74L309.73,67.61L311.15,68.44L311.62,68.3L312.09,69.06L312.57,68.01L313.99,65.58L314.46,66.61L315.88,61.97L316.36,62.82L320.62,53.92L321.09,54.72L321.57,53.31L322.04,54.69L322.99,56.3L323.46,54.06L324.41,51.55L324.88,52.76L325.36,52.32L325.83,54.82L326.78,57.64L327.25,55.39L327.72,56.22L328.2,55.64L328.67,55.18L329.14,54.11L329.62,54.97L330.56,56.95L331.04,59.86L332.93,58.35L333.41,58.51L333.88,59.25L334.35,62.32L336.72,65.73L337.19,65.64L337.67,65.87L338.14,63.84L339.09,67.9L339.56,67.7L340.04,67.93L340.51,66.31L342.4,61.74L342.88,62.6L343.83,61.35L344.3,62.33L346.19,57.91L346.67,58.15L347.14,57.48L347.61,60.17L348.56,61.59L349.03,63.05L350.46,62.52L350.93,63.69L352.82,64L353.3,63.11L355.66,58.53L356.14,59.26L357.09,61.55L357.56,61.19L358.51,62.41L358.98,64.76L360.4,69.1L360.87,71.36L363.24,78.66L363.72,77.66L364.66,77.9L365.14,77.97L365.61,77.06L366.08,77.35L366.56,78.31L367.03,76.58L367.5,76.75L367.98,76.71L369.87,75.77L370.35,76.2L371.77,77.7L372.24,77.15L372.71,77.42L373.19,76.35L373.66,76.2L374.13,77.32L374.61,77.85L375.08,77.02L375.56,79.42L376.03,78.63L376.5,79.58L378.4,74.93L378.87,75.14L379.34,75.46L380.29,75.58L380.77,74.2L382.19,76.61L382.66,73.78L383.13,74.54L383.61,73.78L385.5,80.44L385.97,81.06L386.92,83.31L387.4,84.1L387.87,85.36L388.34,84.17L389.29,82.98L389.76,84.79L390.71,85.8L391.18,84.64L391.66,84.61L392.13,82.98L393.08,84.29L393.55,85.78L394.5,83.7L394.97,84.11L395.45,85.55L395.92,85.8L396.39,87.06L396.87,88L397.34,86.18L398.76,89.57L399.23,92.29L399.71,91.91L400.18,90.06L401.13,89.27L401.6,91.5L402.08,93.2L402.55,92.23L403.02,93.45L404.92,92.66L405.39,92.74L405.87,93.47L406.34,91.62L408.23,94.9L408.71,94.29L409.18,92.27L409.65,92.54L410.13,92.04L411.55,93.36L412.02,93.91L413.44,90.89L413.92,89.83L414.39,91.25L414.86,90.53L415.34,87.9L417.23,88.68L417.7,89.18L420.55,94.36L421.02,96.21L421.97,97.56L422.44,99.09L423.86,98.06L424.34,98.91L426.23,95.47L426.7,95.96L428.6,93.44L429.07,93.68L430.49,96.47L430.97,97.07L431.44,97.06L431.91,98.36L432.39,96.59L432.86,98.52L434.28,99.5L434.75,101.53L436.65,103.18L437.12,104.99L438.07,105.36L438.54,106L439.02,106.52L439.49,109.34L439.96,109.23L440.44,109.97L440.91,112.13L441.38,111.82L441.86,111.4L442.81,109.79L443.28,109.74L444.23,109.15L444.7,109.44L446.59,110.76L447.07,110.48L447.54,111.8L448.01,110.59L449.91,116.03L450.38,116.65L451.8,114.37L452.28,114.91L453.22,114.88L453.7,116.08L454.17,116.63L454.64,115.44L455.12,116.55L455.59,115.01L456.54,115.75L457.01,116.75L457.49,115.35L457.96,118.16L458.91,121.8L459.38,121.05L459.85,120.94L460.8,122.68L461.28,121.78L461.75,122.12L462.22,120.06L464.59,116.65L465.06,115.06L466.01,113.76L466.48,114.9L467.43,113.02L467.91,111.45L468.85,111.31L469.33,114.15L469.8,115.22L470.27,114.97L470.75,114.78L471.22,113.84L471.69,115.42L472.64,115.96L473.11,115.69L473.59,114.72L474.06,115.96L474.54,115.42L475.01,116.61L475.96,118.1L476.43,118.36L477.85,120.13L478.32,121.33L478.8,120.86L479.27,121.41L479.74,121.59L480.69,123.04L481.17,122.29L484.01,116.39L484.48,116.72L487.32,113.17L487.8,113.29L489.22,114.07L489.69,114.54L490.64,114.97L491.11,114.08L491.58,114.74L492.06,113.83L493.01,113.2L493.48,113.51L495.37,111.59L495.85,112.55L496.79,113.94L497.27,114.33L497.74,113.44L498.21,114.46L502.48,119.45L502.95,118.75L504.37,122.22L504.85,123.33L507.21,126.98L507.69,126.33L508.16,127.83L508.63,127.11L509.11,127.83L510.53,129.26L511,128.93L511.48,129.04L511.95,128.36L513.37,127.79L513.84,129.04L515.26,130.43L515.74,131.83L517.16,132.44L517.63,132.44L520,132.44" style="vector-effect: non-scaling-stroke; fill: none; stroke: rgb(0, 204, 150); stroke-opacity: 1; stroke-width: 2px; opacity: 1;"/></g><g class="points"/><g class="text"/></g><g class="trace scatter tracee4ad6f" style="stroke-miterlimit: 2; opacity: 1;"><g class="fills"/><g class="errorbars"/><g class="lines"><path class="js-line" d="M0,133.21L3.79,133.49L4.26,134.05L5.21,133.63L5.68,133.53L7.1,134.4L7.58,133.24L8.05,134.17L8.52,133.62L9,134.32L9.47,134.9L9.95,136.76L11.84,134.75L12.31,134.43L18.47,142.52L18.94,142.55L19.42,143.31L19.89,142.63L21.79,138.58L22.26,140.44L23.21,138.54L23.68,136.12L24.15,134.99L24.63,135.37L25.1,134.85L26.05,133.93L26.52,133.81L26.99,134.25L27.47,133.59L28.89,137.47L29.36,135.31L31.26,134.4L31.73,133.32L33.15,136.25L33.62,136.67L34.1,135.61L34.57,136.66L35.99,135.24L36.47,134.8L38.83,133.42L39.31,130.75L41.2,124.52L41.68,123.7L42.15,123.32L42.62,121.73L44.99,120.79L45.46,121.11L45.94,121.11L46.41,123.16L47.83,124.31L48.31,124.08L49.25,123.59L49.73,121.62L50.2,120.32L50.67,121.34L53.04,123.7L53.52,121.96L54.46,120.94L54.94,119.97L55.88,118.95L56.36,119.47L57.3,121.48L57.78,120.95L60.15,119.47L60.62,119.73L62.99,121.98L63.46,120.84L64.41,120.16L64.88,120.68L65.83,120.61L66.3,122.83L68.2,121.26L68.67,121.83L70.09,125.2L70.56,125.45L72.93,128.26L73.41,125.93L74.35,125.02L74.83,126.1L75.77,126.34L76.25,125.81L77.19,123.69L77.67,124.96L80.04,121.28L80.51,122.38L81.46,123.96L81.93,124.99L83.35,123.82L83.83,124.91L84.3,125.26L84.77,123.98L85.25,125.54L85.72,123.77L86.67,123.23L87.14,124.29L87.61,123.52L88.09,124L88.56,123.93L89.98,121.39L90.46,121.42L90.93,121.97L91.4,121.27L92.35,119.26L92.82,120.57L93.3,121.59L93.77,120.86L94.24,118.97L95.19,120.59L95.66,118.22L97.56,117.22L98.03,115.23L98.98,113.92L99.45,115.38L99.93,115.13L100.4,113.71L101.82,112.42L102.3,110.95L102.77,112.79L103.24,112.14L103.72,111.59L105.14,109.83L105.61,112.09L106.08,113L106.56,111.28L107.5,112.02L107.98,111.8L109.87,109.39L110.35,109.82L110.82,109.26L111.29,110.2L113.19,109.43L113.66,107.99L114.13,107.94L114.61,109.02L116.03,108.86L116.5,109.95L117.45,108.81L117.92,108.86L121.71,113.9L122.19,115.02L122.66,113.78L123.13,115.1L124.55,114.17L125.03,115.7L125.97,116.4L126.45,115.37L128.34,112.43L128.82,112.17L129.29,111.26L129.76,112.33L130.24,112.71L130.71,114.39L131.66,116.87L132.13,115.78L132.6,114.89L133.08,115.53L133.55,118.29L135.45,121.9L135.92,122.43L136.87,124.57L137.34,123.34L138.29,122.31L138.76,122.94L140.18,124.83L140.66,123.27L141.13,123.68L141.6,122.21L142.08,122.21L142.55,120.31L143.5,120.41L143.97,119.57L145.87,119.12L146.34,117.26L147.29,117.63L147.76,117.14L148.23,115.89L148.71,116.96L149.65,119.33L150.13,117.78L151.55,119.74L152.02,118.54L152.5,117.46L152.97,117.75L153.44,120.58L154.86,118.29L155.34,118.52L155.81,119.08L156.28,116.9L158.65,113.29L159.13,115.03L160.07,115.34L160.55,113.13L161.49,112.12L161.97,112.52L162.91,112.58L163.39,114.64L164.34,113.72L164.81,114.49L166.23,114.58L166.7,115.68L167.18,114.83L167.65,115.52L168.12,116.21L168.6,117.51L169.07,117.14L169.54,114.87L170.02,114.49L170.49,112.63L171.44,114.02L171.91,112.69L173.81,109.81L174.28,109.85L174.75,108.96L175.23,109.59L175.7,108.99L176.17,108.93L176.65,110.3L178.07,107L178.54,106.93L179.49,108.6L179.96,107.33L180.44,106.67L180.91,107.61L183.28,104.89L183.75,104.71L184.7,107.14L185.17,106.93L186.12,107.81L186.59,106.32L187.54,107.69L188.01,105.48L188.49,105.15L188.96,106.62L189.91,106.9L190.38,105.92L190.86,106.31L191.33,105.63L192.75,103.33L193.22,103.41L193.7,104.01L194.17,102.48L195.12,104.79L195.59,106.05L197.01,102.04L197.49,102.65L198.43,99.9L198.91,101.04L199.38,99.57L199.85,100.64L200.8,99.73L201.28,101.69L203.17,98.65L203.64,98.84L204.12,99.08L204.59,98.16L205.54,98.91L206.01,96.6L207.43,98.33L207.91,98.13L208.38,98.34L208.85,100.42L209.33,100.34L209.8,99.48L210.27,99.75L210.75,101.13L213.59,108.88L214.06,108.02L215.48,105.45L215.96,104.18L217.38,106.74L217.85,106.3L219.27,103.35L219.74,103.19L221.17,102.64L221.64,103.19L222.11,102.95L222.59,105.08L223.06,105.93L223.53,103.84L224.48,103.69L224.95,103.62L226.38,106.15L226.85,105.72L227.8,106.68L228.27,106.69L229.22,106.43L229.69,106.48L230.16,104.82L230.64,105.23L231.11,104.47L232.53,105.11L233.01,104.59L233.48,105.06L233.95,103.72L235.37,101.23L235.85,100.97L236.79,101.23L237.27,102.4L238.21,104.61L238.69,103.8L239.64,103.02L240.11,101.23L240.58,100.21L241.06,101.98L243.9,105.46L244.37,104.69L245.79,104.34L246.27,105.37L247.21,107.85L247.69,109.54L248.16,109.8L248.63,111.23L250.05,109.61L250.53,107.47L251.95,104.39L252.42,104.38L253.84,101.46L254.32,101.7L256.68,97.47L257.16,97.56L258.58,100.12L259.05,99.5L259.53,98.76L260,100.71L261.42,98.67L261.89,99.18L262.37,99.03L263.79,100.85L264.26,98.9L265.21,96.95L265.68,95.81L267.1,97.74L267.58,97.74L269,97.46L269.47,99.28L270.42,97.67L270.89,96.17L274.68,101.47L275.15,99.65L275.63,100.42L276.1,99.68L276.58,96.64L277.05,97.04L277.52,98.1L279.89,98.59L280.36,97.85L281.79,94.23L282.26,95.73L283.68,96.74L284.15,95.58L284.63,96.1L285.1,95.29L286.52,96.66L286.99,95.78L288.42,98.75L288.89,98.38L289.36,98.37L290.31,96.86L290.78,97.24L291.26,97.58L293.62,93.46L294.1,92.63L295.52,88.07L295.99,89.53L296.47,88.09L296.94,88.87L297.41,88.19L298.36,88.2L298.83,89.03L301.68,93.88L302.15,95.29L302.62,95.79L303.1,94.85L304.52,98.36L304.99,98.1L307.36,103.23L307.83,103.8L309.25,102.67L309.73,102.27L311.15,102.73L311.62,103.71L312.09,105.22L312.57,103.89L314.46,100.12L314.94,100.3L315.41,99.7L315.88,100.7L317.3,98L317.78,97.64L319.2,96.43L319.67,94.77L320.15,95.27L320.62,94.56L321.57,93.23L322.04,91.45L322.51,91.42L322.99,90.03L323.46,91.55L323.93,90.78L324.41,89.65L325.83,85.84L326.3,84.29L327.72,87.65L328.2,87.84L330.09,94.53L330.56,95.23L331.99,102.31L332.46,102.2L332.93,102.48L334.35,103.82L334.83,103.87L335.3,104.22L335.77,102.85L336.72,104.99L337.19,103.37L338.62,101.01L339.09,101.77L340.04,102.78L340.51,102.47L342.4,99.06L342.88,99.9L343.83,96.23L344.3,96.38L345.25,96.55L345.72,96.66L347.14,95.51L347.61,95.14L349.03,94.92L349.51,96.07L349.98,95.39L350.46,96.09L351.4,98.06L351.88,97.68L352.35,96.9L355.19,99.76L355.66,101.4L357.09,105.33L357.56,104.68L358.51,104.36L358.98,105.46L359.45,106.88L359.93,106.26L360.4,106.33L360.87,106.34L361.35,109.08L362.77,109.09L363.24,108.05L363.72,108.42L364.19,107.47L364.66,109.57L365.14,108.78L365.61,110.14L366.56,109.45L367.03,110.58L368.45,108.34L368.93,108.76L369.87,109.85L370.35,109.07L370.82,109.03L371.29,111.38L371.77,110.95L372.24,111.9L373.66,109.54L374.13,109.71L375.56,111.69L376.03,112.03L376.5,110.71L376.98,111.23L377.45,112.75L377.92,112.51L378.4,110.87L380.77,115.32L381.24,113.71L382.66,115.85L383.13,117.08L383.61,119.03L384.08,118.78L384.55,118.7L385.5,121.98L385.97,121.05L386.92,121.32L387.4,122.34L388.34,121.67L388.82,120.95L389.76,120.85L390.24,118.73L390.71,118.31L391.18,119.97L394.03,112.96L394.5,113.76L394.97,114.15L395.45,115.55L397.34,118.09L397.81,117.14L398.76,116.35L399.23,116.77L401.13,121.09L401.6,120.41L402.08,120.62L402.55,122.71L403.97,122.13L404.44,122.79L405.39,120.93L405.87,123.96L406.34,125.83L406.81,124.29L407.76,124.17L408.23,124.59L409.18,126.91L409.65,125.91L411.55,127.01L412.02,129.14L412.5,131.05L412.97,128.4L413.44,126.31L413.92,128.82L414.86,129.14L415.34,128.85L415.81,127.25L416.28,128.65L417.23,128.04L417.7,128.71L419.6,127.12L420.07,128.55L420.55,129.63L421.02,129.17L421.49,128.39L422.44,130.41L422.91,130.03L423.39,130.5L424.81,134.76L425.28,134.64L426.7,136.42L427.18,136.6L430.49,138.68L430.97,138.46L431.44,137.95L431.91,139.43L432.39,141.65L432.86,141.15L433.33,142.19L435.23,141.01L435.7,142.49L436.17,141.44L436.65,143.4L438.07,144.81L438.54,145.15L439.96,144.24L440.44,144.96L441.38,144.74L441.86,146.3L443.28,148.38L443.75,147.7L444.7,147.42L445.17,147.39L446.12,146.26L446.59,147.13L447.54,146.59L448.01,147.85L448.49,150.29L448.96,149.53L449.44,149.28L450.38,147.78L450.86,148.98L453.22,150.29L453.7,151.31L455.12,154.32L455.59,153.34L456.07,153.3L456.54,154.82L457.49,158.19L457.96,157.57L458.43,157.91L459.85,159.78L460.33,160.03L462.7,154.97L463.17,155.28L466.01,148.06L466.48,148.49L466.96,149.34L467.91,148.38L468.38,148.6L469.33,147.47L469.8,148.22L470.27,147.8L470.75,146.28L471.22,147.6L471.69,146.76L472.17,148.03L472.64,147.68L473.11,148.41L474.06,147.89L474.54,149.44L475.01,149.1L475.48,149.73L475.96,151.77L476.43,151.49L476.9,151.75L477.38,152.23L477.85,154.07L478.32,154L478.8,154.92L479.27,154.57L479.74,155.99L480.22,156.22L480.69,154.78L483.06,156.57L483.53,155.39L484.95,156.16L485.43,155.66L486.38,154.26L486.85,152.29L487.32,152.09L487.8,152.91L488.74,152.97L489.22,152.38L489.69,152.42L490.16,151.3L490.64,152.38L491.11,152.04L491.58,151.04L492.53,151.72L493.01,151.54L493.48,151.94L493.95,154.41L497.27,158.99L497.74,160.29L498.21,160.44L498.69,159.57L499.16,159.04L499.64,160.11L500.58,161.82L501.06,161.72L501.53,162.33L502,161.41L502.48,161.03L502.95,162.32L503.42,162.3L503.9,161L504.85,160.65L505.32,161.83L505.79,163.28L506.27,162.69L506.74,162.24L507.21,161.07L507.69,163.15L508.63,162.87L509.11,164.52L509.58,164.57L510.05,163.28L511.48,163.68L511.95,162.78L512.9,160.64L513.37,161.79L515.26,166.3L515.74,166.74L518.58,166.05L519.05,166.05L520,166.05" style="vector-effect: non-scaling-stroke; fill: none; stroke: rgb(171, 99, 250); stroke-opacity: 1; stroke-width: 2px; opacity: 1;"/></g><g class="points"/><g class="text"/></g><g class="trace scatter trace06cc15" style="stroke-miterlimit: 2; opacity: 1;"><g class="fills"/><g class="errorbars"/><g class="lines"><path class="js-line" d="M0,180.65L4.26,180.8L4.74,181.9L5.21,182.42L5.68,181.06L6.16,181.41L6.63,180.69L8.05,179.35L8.52,179.1L9.47,178.12L9.95,177.61L10.89,178.56L11.37,177.34L12.31,174.35L12.79,175.2L13.26,175.66L13.73,175.05L14.21,175.42L14.68,175.85L15.63,176.23L16.1,176.97L16.58,177.77L17.05,177.41L17.52,176.23L18,175.66L18.47,176.46L19.89,178.58L20.36,177.63L21.79,179.39L22.26,180.31L23.68,181.28L24.15,180.63L26.05,181.03L26.52,180.24L26.99,179.77L27.47,180.4L29.36,177.38L29.84,178.19L30.78,176.74L31.26,178.95L32.68,177.13L33.15,177.8L33.62,178.11L34.1,176.98L34.57,175.4L35.05,176.37L35.52,177.05L39.31,163.29L39.78,161.57L41.2,158.58L41.68,158.75L42.62,157.08L43.1,157.32L44.04,157.02L44.52,158.3L47.83,163.18L48.31,162.85L48.78,163.39L49.25,161.85L50.2,162.04L50.67,160.97L52.09,161.77L52.57,161.46L53.04,161.48L53.52,160.18L55.88,154.34L56.36,155.15L57.3,154.53L57.78,154.94L58.25,154.48L58.72,155.04L59.2,153.05L60.15,152.78L60.62,153.58L62.51,159.21L62.99,158.95L63.93,161.52L64.41,161.13L64.88,163.32L65.36,163.7L65.83,162.84L66.78,165.84L67.25,164.17L68.67,163.06L69.14,163.8L70.09,161.59L70.56,161.98L71.04,161.83L71.51,162.69L71.99,160.79L72.46,161.25L72.93,162.81L73.88,161.97L74.35,163.22L75.3,162.29L75.77,160.7L76.25,160.57L76.72,161.3L77.67,161.23L78.14,160.17L78.62,158.96L79.09,159.61L79.56,159.32L81.46,156.67L81.93,157.55L82.88,160.4L83.35,159.83L83.83,159.95L84.3,161L84.77,160.64L85.25,161.01L88.09,160.16L88.56,160.25L89.03,160.37L89.51,159.25L90.46,159.97L90.93,158.16L92.35,154.7L92.82,155.7L93.77,155.09L94.24,152.7L94.72,151.79L95.19,152.5L95.66,152.36L96.61,150.79L97.09,150.23L97.56,149.9L98.03,151.44L98.98,150.75L99.45,152L100.87,150.97L101.35,152.78L101.82,153.19L102.3,151.95L103.72,152.48L104.19,149.32L105.14,146.83L105.61,147.66L106.08,148.18L106.56,146.53L107.03,145.37L107.5,145.74L107.98,145.99L108.45,145.1L108.93,146.36L109.87,146.87L110.35,146L110.82,146.61L111.29,149.51L112.71,153.45L113.19,152.66L114.13,152.61L114.61,151.19L115.56,152.63L116.03,151.68L116.5,150.14L116.98,150.68L117.45,151.41L119.82,147.58L120.29,147.4L120.77,146.54L121.24,147.59L121.71,148.11L122.19,147.53L122.66,146.23L123.13,145.98L123.61,147.08L124.55,144.96L125.03,144.82L125.97,146.67L126.45,145.66L126.92,145.48L127.4,144.32L127.87,146.26L128.34,144.25L129.29,143.42L129.76,144.16L132.6,150.67L133.08,148.37L134.03,149.72L134.5,152.15L134.97,151.23L135.45,152.53L136.87,155.29L137.34,155.22L137.81,156.21L138.29,155.72L138.76,154.3L139.23,152.84L139.71,154.01L141.13,155.47L141.6,153.93L142.08,155.92L142.55,155.77L143.02,154.32L145.87,148.38L146.34,149.24L146.81,148.91L147.29,150.31L148.71,152.14L149.18,149.9L152.02,152.4L152.5,152.04L152.97,154.55L153.44,154.05L153.92,153.46L155.81,151.44L156.28,152.21L156.76,152.17L157.23,154L159.13,156.18L159.6,156.03L160.07,155L160.55,155.59L161.02,157.22L161.49,155.22L161.97,155.43L162.44,156.06L163.86,157.18L164.34,155.78L165.28,156.13L165.76,155.96L166.23,155.41L166.7,155.83L167.18,155.51L168.12,152.51L168.6,154.15L170.97,146.78L171.44,147.41L171.91,147.01L172.39,144.94L173.33,144.84L173.81,143.09L175.7,138.69L176.17,138.47L177.6,138.97L178.07,138.47L179.02,136.48L179.49,136.51L180.44,137.18L180.91,139.78L183.28,145.22L183.75,146.49L184.7,146.22L185.17,147.59L186.59,149.68L187.07,148.87L187.54,148.75L188.01,147.74L189.44,144.93L189.91,145.43L190.38,145.13L191.33,142.18L191.8,143.37L192.75,142.43L193.22,141.94L193.7,140.48L194.17,140.88L194.64,140.42L195.12,139.13L195.59,139.78L196.07,139.87L196.54,139.69L197.01,138.26L197.49,136.85L197.96,138.29L198.43,139.2L198.91,138.56L199.38,136.99L200.33,135.67L200.8,136.09L201.75,137.58L202.22,137.4L203.17,138.68L203.64,137.91L204.12,138.51L204.59,140.6L205.06,138.26L205.54,138.96L206.01,138.4L207.43,139.51L207.91,138.31L208.38,137.08L208.85,137.41L209.33,137.51L210.27,136.51L210.75,136.91L211.69,135.9L212.17,136.75L212.64,135.93L213.11,137.51L213.59,137.6L214.06,139.86L214.54,139.75L215.01,141.85L215.48,142.61L215.96,141.47L216.9,142.08L217.38,141.05L219.27,143.69L219.74,145.1L221.17,142.41L221.64,143.61L222.59,142.23L223.06,143.16L223.53,144.31L224.01,142.67L224.95,141.32L225.43,141.9L228.74,138.6L229.22,138.72L229.69,138.72L230.16,137.85L230.64,137.49L231.11,138.16L232.06,139.81L232.53,138.42L233.48,136.39L233.95,137.3L234.9,138.88L235.37,138.27L235.85,137.65L236.32,138.4L238.21,137.7L238.69,138.73L240.58,142.1L241.06,141.46L242,141.23L242.48,142.13L242.95,141.76L243.42,139.42L245.32,141.18L245.79,140.53L247.21,139.61L247.69,139.67L249.11,143.53L249.58,143.9L251,145.39L251.48,143.92L252.42,143.74L252.9,142.45L253.84,141.95L254.32,140.98L257.16,131.5L257.63,132.21L258.58,133.96L259.05,133.26L259.53,132.48L260,132.86L260.47,132.69L260.95,131.07L261.42,132.61L262.37,132.94L262.84,132.29L264.26,136.18L264.74,135.6L265.21,134.2L265.68,134.88L266.16,134.89L267.1,136.09L267.58,135.58L269,137.39L269.47,138.04L269.95,139.27L270.42,138.09L271.84,136.02L272.31,136.46L273.73,135.18L274.21,137.25L275.63,138.04L276.1,136.01L277.05,132.83L277.52,133.32L278,133.99L278.47,133.13L278.94,134.13L279.42,132.97L280.84,131.3L281.31,128.96L281.79,127.96L282.26,129.51L282.73,129.18L283.21,129.9L284.15,130.8L284.63,130.13L286.52,126.92L286.99,127.04L287.47,128.13L287.94,127.84L288.42,128.34L289.84,126.72L290.31,127.77L290.78,126.6L291.26,126.85L291.73,127.43L293.15,129.43L293.62,128.78L294.1,129.43L294.57,128.48L295.05,130.24L295.52,128.39L295.99,129.09L296.47,128.02L297.41,127.42L297.89,128.29L299.31,128.49L299.78,127.77L300.26,127.17L300.73,129.1L301.2,128.66L301.68,129.79L302.15,128.22L302.62,129.63L304.04,133.31L304.52,132.37L305.46,131.93L305.94,131.18L307.36,133.99L307.83,133.55L308.31,134.23L308.78,133.8L309.25,135.27L309.73,136.3L310.2,135.93L310.67,136.04L311.15,135.26L311.62,136.54L313.04,141.17L313.52,141.58L314.94,141.4L315.41,139.53L317.78,134.03L318.25,134.54L319.67,131.24L320.15,128.78L321.57,125.34L322.04,125.19L323.46,125.49L323.93,125.71L324.88,125.69L325.36,124.42L326.3,124.04L326.78,122.33L327.25,123.47L327.72,123.27L328.2,123.61L329.14,125.26L329.62,125.62L330.09,127.3L330.56,126.58L331.04,127.6L331.51,128.18L331.99,130.58L332.93,134.06L333.41,135.86L335.3,141.26L335.77,140.2L336.25,140.81L336.72,142.9L338.14,144.77L338.62,144.87L340.04,141.58L340.51,140.26L340.98,140.98L341.46,140.03L341.93,138.38L342.4,138.71L342.88,139.38L344.3,137.96L344.77,138.81L345.72,138.88L346.19,140.03L346.67,139.08L347.14,140.22L347.61,140.71L348.09,140.12L349.03,138.94L349.51,139.81L349.98,139.05L350.46,140.07L352.82,134.54L353.3,133.96L353.77,135.01L354.24,133.88L354.72,133.78L355.19,135.58L355.66,136.17L356.14,137.98L356.61,137.74L357.09,138.75L357.56,139.06L358.03,140.87L358.98,141.69L359.45,142.59L361.82,148.99L362.3,147.63L363.24,146.83L363.72,147.83L365.14,145.36L365.61,145.47L366.56,147.86L367.03,147.02L368.93,146.1L369.4,147.08L369.87,147.56L370.35,149.48L370.82,148.53L371.29,149.72L371.77,151.39L372.24,151.03L372.71,150.9L374.61,145.16L375.08,144.62L376.98,143.28L377.45,143.35L378.87,142.62L379.34,143.73L379.82,144.34L380.29,146.34L380.77,146.7L381.24,148.4L381.71,149.29L382.19,147.76L383.13,150.87L383.61,149.29L384.55,148.98L385.03,150.44L385.5,151.88L385.97,150.52L386.92,150.85L387.4,150.02L389.29,155.63L389.76,155.9L390.24,155.3L390.71,156.33L391.18,156.96L391.66,156.16L392.13,155.93L392.6,154.37L395.45,159.97L395.92,159.26L397.81,159.04L398.29,160.23L399.71,162.99L400.18,162.72L401.13,162.43L401.6,163.56L403.02,161.74L403.5,162.68L403.97,163.33L404.44,165.26L404.92,165.42L405.39,163.83L406.34,161.26L406.81,162.9L407.29,164.86L407.76,164.68L408.23,164.52L408.71,164.42L409.18,165.51L409.65,165L410.13,165.72L412.02,163.62L412.5,165.7L413.44,168.44L413.92,168.16L414.39,166.76L415.81,163.68L416.28,163.86L416.76,163.81L418.65,165.49L419.13,165.64L420.07,163.22L420.55,165.08L421.02,165.06L421.49,166.57L422.91,170.42L423.39,169.71L424.81,170.91L425.28,171.04L425.76,171.19L426.23,172.89L427.18,174.85L427.65,172.63L428.12,172.64L428.6,171.07L430.49,173.87L430.97,173.51L431.44,173.63L431.91,175.1L432.86,175.33L433.33,174.31L433.81,174.35L434.28,175.46L435.7,179.57L436.17,179.19L436.65,179.24L437.12,180.07L439.49,183.2L439.96,183.5L441.38,186.43L441.86,186.84L443.28,186.71L443.75,187.25L444.7,185.29L445.17,185.48L445.65,185.49L446.12,187.41L447.54,184.64L448.01,185.41L449.91,186.56L450.38,188.08L450.86,188.22L451.33,190.67L452.75,191.46L453.22,190.28L454.64,195.98L455.12,195.52L457.01,198.03L457.49,197.61L457.96,197.26L458.43,195.84L460.33,194.65L460.8,193.19L461.75,191.19L462.22,190.16L464.12,185.83L464.59,186.28L466.01,184.95L466.48,186.05L469.8,183.96L470.27,183.07L473.11,185.35L473.59,184.62L474.54,185.12L475.01,186.93L476.43,191.36L476.9,193.05L477.38,193.33L477.85,191.89L478.32,192.83L478.8,192.11L479.27,194.14L479.74,193.98L480.22,194.21L481.64,194.78L482.11,193.95L483.53,194.56L484.01,192.69L485.43,195.22L485.9,195.28L486.38,195.21L486.85,194.16L488.27,190.35L488.74,190.94L491.11,186.22L491.58,186.38L492.06,186.27L492.53,185.14L493.01,186.91L493.48,186.46L493.95,186.82L495.37,188.91L495.85,188.07L496.32,187.99L496.79,190.11L497.74,190.36L498.21,191.5L498.69,190.51L499.16,190.81L499.64,191.21L500.58,188.88L501.06,191.33L504.37,201.3L504.85,200.97L505.32,201.14L505.79,203.29L507.69,205.66L508.16,204.85L508.63,204.29L509.11,204.9L509.58,205.13L510.05,204.35L511.48,203.16L511.95,204.47L513.37,202.61L513.84,203.68L515.74,207.1L516.21,206.66L516.68,206.53L520,206.53" style="vector-effect: non-scaling-stroke; fill: none; stroke: rgb(255, 161, 90); stroke-opacity: 1; stroke-width: 2px; opacity: 1;"/></g><g class="points"/><g class="text"/></g></g></g><g class="overplot"/><path class="xlines-above crisp" d="M0,0" style="fill: none;"/><path class="ylines-above crisp" d="M0,0" style="fill: none;"/><g class="overlines-above"/><g class="xaxislayer-above"><g class="xtick"><text text-anchor="middle" x="0" y="260" transform="translate(55,0)" style="font-family: 'Open Sans', verdana, arial, sans-serif; font-size: 12px; fill: rgb(42, 63, 95); fill-opacity: 1; white-space: pre;">2014</text></g><g class="xtick"><text text-anchor="middle" x="0" y="260" transform="translate(227.39,0)" style="font-family: 'Open Sans', verdana, arial, sans-serif; font-size: 12px; fill: rgb(42, 63, 95); fill-opacity: 1; white-space: pre;">2015</text></g><g class="xtick"><text text-anchor="middle" x="0" y="260" transform="translate(400.25,0)" style="font-family: 'Open Sans', verdana, arial, sans-serif; font-size: 12px; fill: rgb(42, 63, 95); fill-opacity: 1; white-space: pre;">2016</text></g><g class="xtick"><text text-anchor="middle" x="0" y="260" transform="translate(573.11,0)" style="font-family: 'Open Sans', verdana, arial, sans-serif; font-size: 12px; fill: rgb(42, 63, 95); fill-opacity: 1; white-space: pre;">2017</text></g></g><g class="yaxislayer-above"><g class="ytick"><text text-anchor="end" x="50" y="4.199999999999999" transform="translate(0,208.15)" style="font-family: 'Open Sans', verdana, arial, sans-serif; font-size: 12px; fill: rgb(42, 63, 95); fill-opacity: 1; white-space: pre;">45</text></g><g class="ytick"><text text-anchor="end" x="50" y="4.199999999999999" transform="translate(0,135.81)" style="font-family: 'Open Sans', verdana, arial, sans-serif; font-size: 12px; fill: rgb(42, 63, 95); fill-opacity: 1; white-space: pre;">50</text></g><g class="ytick"><text text-anchor="end" x="50" y="4.199999999999999" transform="translate(0,63.47)" style="font-family: 'Open Sans', verdana, arial, sans-serif; font-size: 12px; fill: rgb(42, 63, 95); fill-opacity: 1; white-space: pre;">55</text></g></g><g class="overaxes-above"/></g></g><g class="polarlayer"/><g class="ternarylayer"/><g class="geolayer"/><g class="funnelarealayer"/><g class="pielayer"/><g class="treemaplayer"/><g class="sunburstlayer"/><g class="glimages"/><defs id="topdefs-c503dd"><g class="clips"/><clipPath id="legendc503dd"><rect width="116" height="105" x="0" y="0"/></clipPath></defs><g class="layer-above"><g class="imagelayer"/><g class="shapelayer"/></g><g class="infolayer"><g class="legend" pointer-events="all" transform="translate(60.2, 27.180000000000003)"><rect class="bg" shape-rendering="crispEdges" width="116" height="105" x="0" y="0" style="stroke: rgb(68, 68, 68); stroke-opacity: 1; fill: rgb(255, 255, 255); fill-opacity: 1; stroke-width: 0px;"/><g class="scrollbox" transform="translate(0, 0)" clip-path="url('#legendc503dd')"><g class="groups"><g class="traces" transform="translate(0, 14.5)" style="opacity: 1;"><text class="legendtext user-select-none" text-anchor="start" x="40" y="4.680000000000001" style="font-family: 'Open Sans', verdana, arial, sans-serif; font-size: 12px; fill: rgb(42, 63, 95); fill-opacity: 1; white-space: pre;">Sem taxao</text><g class="layers" style="opacity: 1;"><g class="legendfill"/><g class="legendlines"><path class="js-line" d="M5,0h30" style="fill: none; stroke: rgb(99, 110, 250); stroke-opacity: 1; stroke-width: 2px;"/></g><g class="legendsymbols"><g class="legendpoints"/></g></g><rect class="legendtoggle" pointer-events="all" x="0" y="-9.5" width="110.359375" height="19" style="cursor: pointer; fill: rgb(0, 0, 0); fill-opacity: 0;"/></g><g class="traces" transform="translate(0, 33.5)" style="opacity: 1;"><text class="legendtext user-select-none" text-anchor="start" x="40" y="4.680000000000001" style="font-family: 'Open Sans', verdana, arial, sans-serif; font-size: 12px; fill: rgb(42, 63, 95); fill-opacity: 1; white-space: pre;">Taxa 1.05</text><g class="layers" style="opacity: 1;"><g class="legendfill"/><g class="legendlines"><path class="js-line" d="M5,0h30" style="fill: none; stroke: rgb(239, 85, 59); stroke-opacity: 1; stroke-width: 2px;"/></g><g class="legendsymbols"><g class="legendpoints"/></g></g><rect class="legendtoggle" pointer-events="all" x="0" y="-9.5" width="110.359375" height="19" style="cursor: pointer; fill: rgb(0, 0, 0); fill-opacity: 0;"/></g><g class="traces" transform="translate(0, 52.5)" style="opacity: 1;"><text class="legendtext user-select-none" text-anchor="start" x="40" y="4.680000000000001" style="font-family: 'Open Sans', verdana, arial, sans-serif; font-size: 12px; fill: rgb(42, 63, 95); fill-opacity: 1; white-space: pre;">Taxa 1.10</text><g class="layers" style="opacity: 1;"><g class="legendfill"/><g class="legendlines"><path class="js-line" d="M5,0h30" style="fill: none; stroke: rgb(0, 204, 150); stroke-opacity: 1; stroke-width: 2px;"/></g><g class="legendsymbols"><g class="legendpoints"/></g></g><rect class="legendtoggle" pointer-events="all" x="0" y="-9.5" width="110.359375" height="19" style="cursor: pointer; fill: rgb(0, 0, 0); fill-opacity: 0;"/></g><g class="traces" transform="translate(0, 71.5)" style="opacity: 1;"><text class="legendtext user-select-none" text-anchor="start" x="40" y="4.680000000000001" style="font-family: 'Open Sans', verdana, arial, sans-serif; font-size: 12px; fill: rgb(42, 63, 95); fill-opacity: 1; white-space: pre;">Taxa 1.15</text><g class="layers" style="opacity: 1;"><g class="legendfill"/><g class="legendlines"><path class="js-line" d="M5,0h30" style="fill: none; stroke: rgb(171, 99, 250); stroke-opacity: 1; stroke-width: 2px;"/></g><g class="legendsymbols"><g class="legendpoints"/></g></g><rect class="legendtoggle" pointer-events="all" x="0" y="-9.5" width="110.359375" height="19" style="cursor: pointer; fill: rgb(0, 0, 0); fill-opacity: 0;"/></g><g class="traces" transform="translate(0, 90.5)" style="opacity: 1;"><text class="legendtext user-select-none" text-anchor="start" x="40" y="4.680000000000001" style="font-family: 'Open Sans', verdana, arial, sans-serif; font-size: 12px; fill: rgb(42, 63, 95); fill-opacity: 1; white-space: pre;">Taxa 1.20</text><g class="layers" style="opacity: 1;"><g class="legendfill"/><g class="legendlines"><path class="js-line" d="M5,0h30" style="fill: none; stroke: rgb(255, 161, 90); stroke-opacity: 1; stroke-width: 2px;"/></g><g class="legendsymbols"><g class="legendpoints"/></g></g><rect class="legendtoggle" pointer-events="all" x="0" y="-9.5" width="110.359375" height="19" style="cursor: pointer; fill: rgb(0, 0, 0); fill-opacity: 0;"/></g></g></g><rect class="scrollbar" rx="20" ry="3" width="0" height="0" x="0" y="0" style="fill: rgb(128, 139, 164); fill-opacity: 1;"/></g><g class="g-gtitle"><text class="gtitle" x="30" y="12.5" text-anchor="start" dy="0em" style="font-family: 'Open Sans', verdana, arial, sans-serif; font-size: 17px; fill: rgb(42, 63, 95); opacity: 1; font-weight: normal; white-space: pre;">Quantidade media de carne consumida por agentes com idade entre 30 e 65 anos</text></g><g class="g-xtitle"><text class="xtitle" x="315" y="287.8" text-anchor="middle" style="font-family: 'Open Sans', verdana, arial, sans-serif; font-size: 14px; fill: rgb(42, 63, 95); opacity: 1; font-weight: normal; white-space: pre;">Tempo (dia)</text></g><g class="g-ytitle" transform="translate(1.1591796875,0)"><text class="ytitle" transform="rotate(-90,11.840625000000003,134)" x="11.840625000000003" y="134" text-anchor="middle" style="font-family: 'Open Sans', verdana, arial, sans-serif; font-size: 14px; fill: rgb(42, 63, 95); opacity: 1; font-weight: normal; white-space: pre;">Quantidade de carne(g)</text></g></g></svg>