<svg class="main-svg" xmlns="http://www.w3.org/2000/svg" xmlns:xlink="http://www.w3.org/1999/xlink" width="600" height="300" viewBox="0 0 600 300"><rect x="0" y="0" width="600" height="300" style="fill: rgb(255, 255, 255); fill-opacity: 1;"/><defs id="defs-63e12b"><g class="clips"><clipPath id="clip63e12bxyplot" class="plotclip"><rect width="520" height="218"/></clipPath><clipPath class="axesclip" id="clip63e12bx"><rect x="55" y="0" width="520" height="300"/></clipPath><clipPath class="axesclip" id="clip63e12by"><rect x="0" y="25" width="600" height="218"/></clipPath><clipPath class="axesclip" id="clip63e12bxy"><rect x="55" y="25" width="520" height="218"/></clipPath></g><g class="gradients"/></defs><g class="bglayer"><rect class="bg" x="51" y="21" width="528" height="226" style="fill: rgb(229, 236, 246); fill-opacity: 1; stroke-width: 0;"/></g><g class="layer-below"><g class="imagelayer"/><g class="shapelayer"/></g><g class="cartesianlayer"><g class="subplot xy"><g class="layer-subplot"><g class="shapelayer"/><g class="imagelayer"/></g><g class="gridlayer"><g class="x"><path class="xgrid crisp" transform="translate(227.39,0)" d="M0,25v218" style="stroke: rgb(255, 255, 255); stroke-opacity: 1; stroke-width: 1px;"/><path class="xgrid crisp" transform="translate(400.25,0)" d="M0,25v218" style="stroke: rgb(255, 255, 255); stroke-opacity: 1; stroke-width: 1px;"/><path class="xgrid crisp" transform="translate(573.11,0)" d="M0,25v218" style="stroke: rgb(255, 255, 255); stroke-opacity: 1; stroke-width: 1px;"/></g><g class="y"><path class="ygrid crisp" transform="translate(0,225.24)" d="M55,0h520" style="stroke: rgb(255, 255, 255); stroke-opacity: 1; stroke-width: 1px;"/><path class="ygrid crisp" transform="translate(0,141.17000000000002)" d="M55,0h520" style="stroke: rgb(255, 255, 255); stroke-opacity: 1; stroke-width: 1px;"/><path class="ygrid crisp" transform="translate(0,57.1)" d="M55,0h520" style="stroke: rgb(255, 255, 255); stroke-opacity: 1; stroke-width: 1px;"/></g></g><g class="zerolinelayer"/><path class="xlines-below"/><path class="ylines-below"/><g class="overlines-below"/><g class="xaxislayer-below"/><g class="yaxislayer-below"/><g class="overaxes-below"/><g class="plot" transform="translate(55, 25)" clip-path="url('#clip63e12bxyplot')"><g class="scatterlayer mlayer"><g class="trace scatter trace6ea028" style="stroke-miterlimit: 2; opacity: 1;"><g class="fills"/><g class="errorbars"/><g class="lines"><path class="js-line" d="M0,28.36L3.32,28.36L3.79,26.1L4.26,27.58L4.74,25.73L5.21,26.31L5.68,30.89L6.63,27.11L7.1,29.13L8.52,26.06L9,28.3L9.95,31.78L10.42,29.9L10.89,31.23L11.37,29.44L11.84,31.79L12.31,29.03L12.79,26.35L13.26,28.41L13.73,28.2L14.21,26.62L14.68,27.31L15.15,24.46L16.58,23.81L17.05,22.81L17.52,27.62L18,25.89L18.47,25.74L18.94,25.6L19.42,27.45L20.36,28.36L20.84,27.04L21.31,27.25L21.79,26.26L23.68,33.08L24.15,31.1L25.1,26.6L25.57,28.17L26.05,26.62L26.52,27.15L26.99,29.38L27.47,26.94L27.94,27.52L28.42,27.41L28.89,29.44L29.36,29.12L29.84,27.48L30.78,24.09L31.26,27.11L31.73,27.1L32.2,28.94L32.68,26.77L33.15,28.72L34.1,24.11L34.57,25.87L35.99,26.19L36.47,24.14L37.89,28.76L38.36,28L39.31,28.21L39.78,30.21L40.73,35.11L41.2,34.76L41.68,32.4L42.15,32.3L42.62,33.21L43.1,32.25L43.57,32.98L44.04,33.81L44.99,31.81L45.46,31.31L45.94,32.35L46.41,31.09L46.89,31.21L47.36,29.77L48.78,26.88L49.25,27.33L49.73,26.53L50.2,27.11L50.67,26.98L53.04,18.8L53.52,19.57L53.99,19.92L54.94,18.96L55.41,20.35L56.36,21.91L56.83,21.35L58.25,17.39L58.72,17.15L59.2,18.28L59.67,16.77L60.62,22.1L61.09,22.62L62.04,24.47L62.51,26.97L62.99,27.98L63.46,26.79L64.41,27.84L64.88,27.6L66.78,34.98L67.25,32.76L67.72,35.6L68.2,34.14L68.67,35.24L69.62,33.69L70.09,35.28L70.56,36.43L71.04,34.7L71.51,32.86L71.99,34.62L72.93,32.39L73.41,30.35L73.88,29.88L74.35,27.54L75.77,23.28L76.25,21.44L77.67,14.24L78.14,16.41L78.62,19.14L79.09,17.54L79.56,17.18L80.51,19.38L80.98,18.14L82.4,23.58L82.88,24.45L83.35,22.28L83.83,22.45L84.3,24.88L85.25,28.29L85.72,26.04L86.67,27.53L87.14,26.98L88.56,28.98L89.03,25.52L89.98,22.31L90.46,24.37L90.93,26.72L91.4,23.52L93.3,21.93L93.77,22.98L94.72,21.5L95.19,22.64L95.66,22.62L96.14,24.42L98.03,31.75L98.51,30.95L99.45,30.33L99.93,31.83L100.4,34.39L100.87,32.53L101.35,33.81L101.82,33.5L102.3,32.47L105.14,19.86L105.61,18.73L106.56,16.14L107.03,16.71L107.5,16.94L107.98,16.11L108.45,14.26L108.93,14.82L109.4,15.92L110.82,22.04L111.29,22.9L111.77,23.56L112.24,28.06L113.66,32.27L114.13,30.35L115.08,29.19L115.56,31.67L116.98,23.36L117.45,23.77L118.87,22.41L119.34,17.68L120.29,20.11L120.77,18.88L122.19,19.39L122.66,17.33L124.55,25.22L125.03,21.8L125.5,22.7L125.97,22.31L126.45,25.58L127.4,24.36L127.87,26.15L129.29,29.68L129.76,29.22L130.71,33.03L131.18,30.75L131.66,31.17L132.13,34.08L133.55,29.73L134.03,30.53L135.45,27.33L135.92,26.34L136.39,24.23L136.87,25.22L137.34,24.91L138.76,20.42L139.23,19.84L139.71,19.74L140.18,22.73L141.13,19.39L141.6,22.94L143.5,26.52L143.97,24.68L144.92,25.82L145.39,27.14L145.87,28.87L146.34,27.41L146.81,30.37L147.29,27.16L148.23,30.83L148.71,29.95L150.13,30.84L150.6,30.01L151.07,29.3L151.55,30.38L152.02,31.36L152.5,30.78L152.97,28.12L153.44,28.01L153.92,26.56L154.39,27.8L154.86,27L155.34,25.75L156.76,24.09L157.23,25.04L157.7,23.07L158.18,25.97L158.65,21.73L159.13,22.01L159.6,22.16L160.07,21.88L160.55,25.26L161.49,28.98L161.97,27.67L162.44,28.19L162.91,26.12L164.34,21.07L164.81,24.32L165.28,23.38L165.76,27.26L166.23,26.62L166.7,26.99L167.18,28.48L168.6,23.39L169.07,23.9L171.44,31.78L171.91,30.39L172.39,30.81L172.86,28.87L175.23,22.48L175.7,20.71L178.54,12.95L179.02,13.11L179.49,12.2L179.96,14.41L180.44,15.25L180.91,14.04L182.81,24.31L183.28,24.95L183.75,24.44L184.23,25.58L184.7,28.76L185.17,25.31L186.12,25.67L186.59,27.02L187.54,23.78L188.01,24.49L188.49,23.56L188.96,25.43L189.91,23.36L190.38,24.03L190.86,24.75L191.33,23.14L191.8,21.76L192.28,25.83L194.17,23.95L194.64,25.36L195.12,26.04L195.59,24.37L196.07,22.32L196.54,22.65L197.01,22.84L197.96,22.7L198.43,22.05L198.91,23.58L199.38,21.11L200.33,22.16L200.8,23.35L201.75,20.26L202.22,21.65L203.17,22.05L203.64,22.1L205.54,25L206.01,25.11L206.48,26.83L206.96,26.28L207.43,24.21L207.91,21.85L208.38,23.48L208.85,23.56L209.33,22.03L210.27,20.83L210.75,19.86L211.69,19.04L212.17,16.8L213.11,19.64L213.59,17.95L214.06,18.25L214.54,20.68L215.01,21.98L215.48,19.49L215.96,18.29L216.43,21.07L217.85,27.7L218.32,28.09L218.8,26.61L219.27,27.98L220.22,26.02L220.69,27.51L221.17,28.19L221.64,26.99L222.11,27.35L222.59,29.44L223.06,30.79L223.53,26.35L226.85,17.37L227.32,17.92L227.8,18.32L228.27,16.89L228.74,18.22L229.22,20.38L229.69,20.13L230.16,19.92L231.58,19.98L232.06,22.17L232.53,19.18L233.01,20.64L233.48,21.35L233.95,22.93L234.43,22.02L234.9,19.34L235.37,21.14L235.85,19.09L237.27,14.83L237.74,17.16L238.21,16.72L238.69,17.61L239.16,17.15L239.64,18.91L240.58,20.68L241.06,19.72L242.95,25.93L243.42,26.99L244.37,30.05L244.85,29.33L245.32,28.8L246.74,29.17L247.21,26.4L248.63,30.38L249.11,26.2L249.58,26.29L250.05,24.84L251,23.41L251.48,23.03L252.42,24.6L252.9,24.32L253.84,23.6L254.32,25.95L254.79,25.51L255.26,26.24L255.74,24.93L256.21,27.04L256.68,25.59L257.16,28.89L258.58,30.64L259.05,29.27L259.53,26.64L260,28.42L261.89,21.81L262.37,22.02L262.84,21.14L263.79,21.85L264.26,20.25L265.21,17.71L265.68,18.09L266.16,19.95L266.63,22.07L267.1,19.14L269.47,26.74L269.95,25.28L270.89,24.39L271.37,23.08L273.26,27.43L273.73,26.49L274.21,26.73L274.68,25.31L275.63,23.73L276.1,19.55L276.58,19.04L277.05,19.94L278.47,15.13L278.94,14.26L279.42,14.55L279.89,11.85L280.36,10.9L280.84,11.83L281.31,12.76L281.79,15.97L282.26,17.11L282.73,16.69L283.21,20.41L283.68,19.42L284.15,19.66L284.63,22.59L285.1,21.79L285.57,23.31L286.52,23.01L286.99,21.98L288.89,17.73L289.36,17.29L289.84,18.66L290.31,16.47L290.78,15.98L291.26,17.35L291.73,16.28L292.2,20.26L293.62,23.55L294.1,22.3L295.05,22.95L295.52,24.29L295.99,23.13L296.47,24.2L297.41,20.01L297.89,20.73L298.36,20.65L298.83,18.41L299.31,17.71L299.78,15.2L300.26,13.12L300.73,13.35L301.2,15.87L301.68,15.18L302.15,15.7L302.62,17.54L303.1,17.72L303.57,14.78L304.52,21.26L304.99,20.85L305.46,20.16L306.89,27.63L307.36,29.31L307.83,27.5L308.31,28.8L308.78,31.56L309.25,30.12L309.73,27.62L310.2,27.93L310.67,26.55L311.15,25.94L311.62,24.03L312.57,24.8L313.04,23.45L313.52,23.95L313.99,23.46L314.46,23.84L314.94,26.39L315.41,25.43L315.88,25.84L319.67,36.3L320.15,36.72L320.62,38.07L321.09,36.38L323.46,26.17L323.93,26.19L325.83,18.82L326.3,19.3L327.25,12.89L327.72,13.23L328.2,12.22L328.67,12.69L329.14,11.92L330.09,14.01L330.56,13.6L331.04,14.09L331.99,13.85L332.46,15.36L333.41,13.38L333.88,14.24L334.35,16.42L334.83,14.68L335.3,14.17L335.77,16.51L336.25,16.74L336.72,18.64L337.19,15.49L337.67,17.72L338.14,14.03L338.62,14.64L339.09,13.93L339.56,13.29L340.04,16.03L340.98,17.36L341.46,21.29L342.4,23.5L342.88,22.85L343.35,22.95L343.83,22L344.3,24.62L344.77,22.65L346.19,24.97L346.67,24.79L347.14,23.45L347.61,24.46L348.09,24.1L348.56,19.04L349.03,18.97L349.51,17.31L350.46,15.67L350.93,17.11L351.88,15.36L352.35,16.7L353.3,16.52L353.77,17.78L354.72,17.99L355.19,16.36L355.66,18.28L356.14,14.98L357.56,19.61L358.03,19.26L358.51,17.64L358.98,18.35L359.45,19.73L360.4,20.13L360.87,18.83L361.35,18.91L361.82,17.11L362.3,19.1L362.77,17.44L363.24,20.61L363.72,18.17L364.19,17.56L364.66,15.66L365.14,15.09L365.61,17.46L366.56,19.29L367.03,19.87L367.5,19.12L367.98,20.93L370.35,16.45L370.82,17.05L371.29,17.53L371.77,19.2L373.19,15.66L373.66,15.21L374.61,17.49L375.08,17.04L376.03,20.05L376.5,20.02L377.92,26.34L378.4,26.48L378.87,26.41L379.34,27.72L380.29,25.89L380.77,27.08L382.66,21.99L383.13,23.27L384.08,23.97L384.55,20.7L385.03,18.55L385.5,19.3L385.97,20.96L387.4,23.54L387.87,22.27L388.34,20.8L388.82,20.99L389.29,21.7L389.76,22.03L390.24,20.52L391.18,18.4L391.66,20.39L392.13,21.76L392.6,20.92L393.08,19.26L394.97,14.8L395.45,15.63L399.71,28.16L400.18,27.56L401.13,31.41L401.6,29.34L402.08,33.15L402.55,32.94L403.02,29.54L403.5,29.55L403.97,27.25L404.92,28.05L405.39,23.59L406.34,25.16L406.81,22.28L408.23,21.29L408.71,22.65L409.18,18.05L409.65,18.58L410.13,20.94L410.6,20.39L411.07,21.25L412.02,18.03L412.5,20.6L413.44,17.55L413.92,19.81L414.86,22.04L415.34,20.62L417.23,28.71L417.7,31.59L419.13,40.14L419.6,38.74L420.07,39.52L421.02,39.09L421.49,40.62L422.91,36.38L423.39,36.57L426.23,21.98L426.7,22.85L427.18,22.33L427.65,20.19L428.12,19.86L428.6,17.63L429.07,17.8L429.54,19.3L430.97,23.01L431.44,21.69L432.39,22.39L432.86,24.55L433.33,23.28L433.81,23.82L434.28,26.56L434.75,29.73L435.23,27.43L436.17,29.08L436.65,28.17L437.12,28.53L437.6,27.16L438.07,26.03L438.54,30.39L439.02,31.36L439.49,29.08L440.44,27.41L440.91,28.84L441.86,24.23L442.33,26.88L442.81,25.96L443.28,31.03L443.75,30.68L444.23,29.34L446.12,23.16L446.59,25.28L447.54,25.67L448.01,26.36L448.96,29.4L449.44,27.77L449.91,26.5L450.38,22.2L450.86,23.79L451.33,22.61L451.8,25.67L452.28,24.41L452.75,25.41L453.7,27.95L454.17,28.01L454.64,28.57L455.12,26.58L455.59,27L456.07,25.17L456.54,24.4L457.01,27.95L457.49,26.2L457.96,27.58L459.38,32.16L459.85,30.83L460.33,30.57L460.8,29.19L461.28,27.88L461.75,28.78L463.17,25.21L463.64,25.67L464.12,23.08L464.59,24.16L465.06,22.24L466.01,24.11L466.48,22.9L466.96,24.32L467.43,21.32L467.91,21.81L468.38,24.28L469.33,23.14L469.8,23.84L470.75,24.13L471.22,24.28L471.69,25.45L472.17,24.49L473.59,19.03L474.06,19.66L475.48,26.2L475.96,26.94L476.43,27.14L476.9,25.52L477.38,25.36L477.85,27.76L478.32,28.92L478.8,28.35L479.27,28.26L480.69,33.61L481.17,31.59L481.64,31.27L482.11,28.82L483.06,25.36L483.53,25.41L484.48,29.51L484.95,26.46L485.43,26.03L485.9,28.44L486.85,31.28L487.32,28.62L489.69,34.56L490.16,33.62L491.58,32.51L492.06,35.4L493.95,29.22L494.43,31.09L496.32,23.77L496.79,25.17L497.74,27.73L498.21,25.49L498.69,25.58L499.16,24.79L500.11,29.33L500.58,29.21L501.06,30.99L501.53,30.29L502,32L503.42,34.04L503.9,32.51L504.37,31.85L504.85,27.48L505.32,28.61L505.79,27.58L506.74,24.52L507.21,23.08L507.69,23.62L508.16,22.92L508.63,23.11L509.11,21.95L512.42,28.79L512.9,30.97L513.37,31.35L513.84,33.31L515.74,32.66L516.21,33.68L517.63,33.21L518.11,33.21L520,33.21" style="vector-effect: non-scaling-stroke; fill: none; stroke: rgb(99, 110, 250); stroke-opacity: 1; stroke-width: 2px; opacity: 1;"/></g><g class="points"/><g class="text"/></g><g class="trace scatter trace6b0279" style="stroke-miterlimit: 2; opacity: 1;"><g class="fills"/><g class="errorbars"/><g class="lines"><path class="js-line" d="M0,65.21L3.79,65.37L4.26,63.77L5.68,61.49L6.16,62.45L7.58,59.75L8.05,58.78L8.52,59.01L9,61L9.47,60.49L9.95,62.23L11.84,55.47L12.31,56.45L14.21,62.27L14.68,61.07L15.63,63.09L16.1,60.83L16.58,62.3L17.05,61.05L18.47,66.31L18.94,65.99L20.36,62.2L20.84,62.59L21.31,61.96L21.79,63.47L22.73,64L23.21,64.42L23.68,63.78L24.15,65.51L24.63,62.48L25.1,63.99L25.57,62.69L26.99,65.88L27.47,64.42L28.42,61.97L28.89,61.54L29.84,57.67L30.31,58.07L30.78,59.59L31.26,59.84L31.73,61.04L33.15,58.69L33.62,59.49L34.1,59.04L34.57,61.27L35.52,62.67L35.99,64.92L36.94,65.75L37.41,64.07L37.89,63.49L38.36,61.45L39.31,59.2L39.78,61.18L41.2,59.26L41.68,56.56L43.1,52.62L43.57,53.06L44.04,54.13L45.94,59.83L46.41,60.56L47.36,57.7L47.83,59.26L49.25,61.13L49.73,58.2L50.67,55.99L51.15,54.76L53.52,45.81L53.99,46.29L54.46,46.98L54.94,44.55L55.88,44.74L56.36,44.81L57.78,51.44L58.25,51.27L58.72,50.33L59.2,49.98L59.67,52.6L60.15,50.71L60.62,51.63L61.09,50.49L62.04,50.29L62.51,49.31L63.46,51.51L63.93,50.5L65.36,42.31L65.83,43.44L66.3,45.69L66.78,42.51L67.72,41.55L68.2,43.87L68.67,44.11L69.14,45.97L70.09,44.04L70.56,41.7L71.04,41.06L71.51,42.75L72.46,43.54L72.93,43.68L73.41,42.01L73.88,44.24L74.83,48.68L75.3,45.42L75.77,46.85L76.25,44.26L76.72,43.14L77.19,43.99L78.62,45.69L79.09,46.94L79.56,46.55L80.04,45.16L80.98,44.38L81.46,42.03L81.93,42.33L82.4,46.01L83.83,42.98L84.3,44.73L85.72,42.75L86.19,42.45L86.67,43.19L87.14,45.39L88.56,49.52L89.03,47.57L89.51,44.86L89.98,45.63L90.46,48.17L91.4,49.58L91.88,52.92L92.82,52.76L93.3,51.83L93.77,51.56L94.24,49.64L95.19,44.29L95.66,46.14L96.14,46.57L96.61,48.24L97.56,45.58L98.03,46.89L99.45,41.33L99.93,43.38L100.4,43.32L100.87,41.59L101.35,41.46L101.82,42.12L102.3,44.85L102.77,42.34L103.72,42.16L104.19,41.66L105.61,43.99L106.08,44.26L106.56,44.13L107.03,43.22L107.98,43.52L108.45,44.95L109.4,42.5L109.87,43.97L111.77,42.2L112.24,40.16L112.71,42.08L113.19,41.13L113.66,39.69L115.56,43.63L116.03,47.59L116.5,50.04L116.98,48.82L117.45,48.2L118.4,51.77L118.87,50.7L119.34,52.92L119.82,52.71L120.29,52.51L120.77,55.74L121.24,54.79L121.71,54.36L122.19,53.97L122.66,51.81L123.61,46.6L124.08,47.91L125.03,50.97L125.5,48.83L126.45,45.55L126.92,46.1L127.4,46.23L127.87,45.33L128.82,42.12L129.29,42.48L129.76,43.8L130.24,44.57L130.71,42.72L131.18,43.68L131.66,41.6L132.13,40.04L132.6,41.02L133.08,43.8L134.03,38.95L134.5,40.59L134.97,39.04L135.45,41.87L136.39,44.15L136.87,44.38L137.81,45.61L138.29,43.74L139.23,43.61L139.71,43.58L140.18,42.07L140.66,43.88L141.13,44.48L141.6,42.47L142.08,43.86L142.55,41.52L143.97,39.48L144.44,39.3L144.92,40.66L145.39,38.38L146.34,39.94L146.81,38.57L147.29,39.59L147.76,38.99L148.23,39.52L149.18,40.11L149.65,38.76L150.13,39.37L150.6,38.09L151.07,38.27L151.55,39.87L152.02,39.38L152.5,41.02L152.97,41.72L153.44,39.69L154.39,38.54L154.86,38.12L155.34,41.25L155.81,40.62L156.28,38.87L157.23,44.14L157.7,43.66L158.18,44.32L158.65,43.57L160.07,43.39L160.55,44.19L161.97,45.87L162.44,43.68L163.39,46.57L163.86,44.94L164.34,44.14L164.81,47.66L165.76,48.31L166.23,47.32L167.18,46.49L167.65,48.12L168.6,50.15L169.07,48.57L169.54,45.75L170.02,46.7L170.49,46.14L172.86,37.57L173.33,37.73L173.81,37.73L174.28,36.03L175.23,33.05L175.7,33.82L176.17,36.3L176.65,39.34L177.12,38.46L177.6,38.33L178.07,36.18L178.54,36.79L179.02,37.15L180.91,37.75L181.38,36.46L182.33,35.56L182.81,34.31L183.75,33.01L184.23,34.33L184.7,34.78L185.17,40.52L185.65,41.86L186.12,41.61L186.59,41.59L188.01,39.03L188.49,40.9L189.44,44.49L189.91,43.94L190.38,44.34L191.8,43.65L192.28,39.57L193.7,41.16L194.17,40.55L194.64,41.25L195.12,39.88L198.91,29.28L199.38,29.64L199.85,26.98L200.33,28.18L200.8,27.95L201.28,30.14L201.75,29.9L202.22,29.98L202.7,30.78L203.17,29.65L203.64,31.44L204.12,31.06L204.59,28.05L205.54,29.53L206.01,28.29L206.48,27.93L206.96,29.48L207.43,30.34L207.91,27.71L208.38,26.34L208.85,27.29L210.27,31.01L210.75,31.61L211.69,35.62L212.17,33.7L212.64,32.7L213.11,33.85L213.59,32.81L214.06,34.59L214.54,31.94L215.01,32.61L215.48,33.66L215.96,34.04L216.43,31.63L216.9,30.44L217.38,33.07L218.32,27.78L218.8,28.15L219.74,32.84L220.22,31.39L221.17,31.65L221.64,32.99L223.06,35.13L223.53,38.98L224.01,38.57L224.48,34.48L224.95,37.96L225.43,37.17L225.9,36.4L226.38,37.28L226.85,34.87L227.8,37.37L228.27,35.4L229.69,36.28L230.16,33.28L231.11,29.29L231.58,31.29L232.06,29.46L232.53,30.13L233.01,31.09L233.95,29.39L234.43,31.46L235.85,31.27L236.32,30.74L237.74,24.42L238.21,25.14L238.69,23.49L240.11,28.7L240.58,28.07L241.06,29.94L241.53,29.05L242,30.06L242.95,29.86L243.42,31.94L243.9,32.57L244.37,35.37L244.85,36.89L245.32,36.59L245.79,35.79L246.27,34.12L246.74,34.42L247.21,33.99L248.16,36.95L248.63,34.48L249.11,34.66L249.58,33.41L250.53,31.53L251,31.97L252.42,33.97L252.9,32.69L254.32,31.12L254.79,27.24L255.26,25.22L255.74,26.13L256.21,26.88L257.16,27.3L257.63,26.2L258.11,25.95L258.58,26.88L259.53,25.93L260,29.59L260.95,27.43L261.42,28.19L262.37,32.26L262.84,30.87L264.26,29.99L264.74,32.72L265.21,34.2L265.68,32.42L266.63,35.84L267.1,36.63L267.58,36.38L268.05,37.08L269.47,34.77L269.95,35.71L271.84,31.65L272.31,31.26L272.79,31.55L273.26,27.94L275.15,22.88L275.63,23.41L277.05,26.52L277.52,25.48L278,27.6L278.47,25.82L279.89,21.09L280.36,23.86L280.84,24.48L281.31,23.48L282.26,24.82L282.73,22.96L283.68,22.86L284.15,23.43L286.05,27L286.52,27.25L286.99,27.45L287.47,26.31L287.94,27.25L288.42,24.54L288.89,26.48L289.36,25.82L289.84,27.04L290.78,24.58L291.26,25.21L292.2,23.94L292.68,25.15L293.15,24.63L293.62,25.32L295.05,21.08L295.52,22.84L296.94,20.7L297.41,22.6L298.36,23.26L298.83,25.83L299.31,26.33L299.78,25.4L301.2,26.73L301.68,26.85L302.62,29.54L303.1,29.13L303.57,29.11L304.04,30.51L304.52,29.59L304.99,29.84L305.94,27.7L306.41,29.53L306.89,29.69L307.36,32.53L307.83,31.8L308.31,34.46L308.78,36.28L309.25,33.62L311.15,39.76L311.62,38.96L313.99,32.83L314.46,28.92L315.41,24.41L315.88,24.87L316.36,24.78L318.72,12.83L319.2,14.36L320.15,15.29L320.62,16.08L321.57,17.17L322.04,16.55L322.51,16.65L322.99,14.9L324.41,18.21L324.88,19.13L325.36,20.18L325.83,23.24L327.72,16.75L328.2,18.94L328.67,17.76L329.14,20.05L332.93,29.33L333.41,29.18L333.88,29.24L334.35,31.14L335.3,32.1L335.77,33.96L336.25,32.64L336.72,34.3L337.67,32.17L338.14,33.27L338.62,32.64L339.09,35.35L339.56,35.11L340.04,33.37L340.98,38.88L341.46,38.77L341.93,40.57L342.4,37.9L342.88,39.21L343.35,40.9L344.3,38.64L344.77,38.61L346.67,33.16L347.14,33.56L348.56,28.22L349.03,27.79L349.98,24.82L350.46,25.94L351.88,30.63L352.35,28.2L352.82,28.37L353.3,27.03L353.77,26.28L354.24,27.94L354.72,26.8L355.19,29.62L356.14,29.16L356.61,32.15L357.09,32.39L357.56,29.74L358.51,27.44L358.98,28.66L360.87,34.9L361.35,35.22L361.82,38.49L362.3,38.35L362.77,38.99L363.24,40.2L363.72,38.15L365.61,40.7L366.08,39.3L367.5,39.94L367.98,40.79L369.87,32.69L370.35,33.12L372.71,38.77L373.19,38.51L374.13,38.19L374.61,38.02L375.08,37.83L375.56,39.22L376.98,44.12L377.45,42.33L377.92,42.8L378.4,41.59L378.87,43.21L379.34,42.66L379.82,42.37L380.29,41.95L380.77,43.37L381.24,43.21L381.71,45.53L382.19,44.03L382.66,44.47L383.13,44.55L385.03,46.24L385.5,47.36L386.45,48.58L386.92,47.5L387.4,47.48L387.87,48.53L388.34,48.52L388.82,45.42L389.76,45.44L390.24,46.56L391.66,48.48L392.13,47.32L392.6,49.26L393.08,47.24L393.55,47.49L394.03,49.16L394.97,50.37L395.45,49.59L396.87,55.69L397.34,54.01L398.76,53.59L399.23,57.49L399.71,56.87L400.18,57.94L400.66,58L401.13,59.21L402.08,55.72L402.55,56.21L403.02,55.3L403.97,54.35L404.44,53.39L404.92,53.16L405.39,54.88L408.23,40.99L408.71,42.86L409.18,45.58L409.65,44.8L410.13,42.92L411.55,43.74L412.02,43.65L413.44,47.14L413.92,49.32L414.39,53.02L414.86,51.58L415.34,51.3L417.23,53.77L417.7,55.93L418.18,55.28L418.65,55.83L419.13,57.75L420.07,56.92L420.55,57.61L421.49,54.97L421.97,58.27L422.44,61.47L422.91,59.27L423.86,58.97L424.34,60.26L424.81,58.76L425.28,61.02L425.76,62.19L426.23,60.58L427.18,62.09L427.65,61.47L428.12,58.99L428.6,59.3L429.07,58.18L429.54,57.02L430.02,58.38L430.97,61.03L431.44,59.34L432.39,56.09L432.86,57.54L433.81,59.88L434.28,60.49L434.75,61.05L435.23,66.08L435.7,65.59L436.17,66.16L436.65,68.5L437.6,67.12L438.07,69.06L438.54,70.28L439.02,74.91L439.49,77.55L439.96,76.46L440.44,75.6L440.91,74.12L441.38,74.27L441.86,74.89L443.28,78.29L443.75,74.7L444.7,76.36L445.17,74.64L445.65,75.14L446.12,71.08L446.59,71.08L447.07,73.29L447.54,72.79L448.01,77.26L448.96,79.73L449.44,77.54L450.38,77.66L450.86,82.58L451.33,82.49L451.8,83.2L452.75,84.1L453.22,86.98L454.17,85.83L454.64,86.6L455.12,81.11L455.59,83.6L456.07,84L456.54,83.7L457.01,84.9L457.49,84.16L457.96,81.52L458.91,80.98L459.38,81.76L460.33,80.27L460.8,81.43L461.28,80.2L461.75,80.51L462.22,80.58L463.17,76.92L463.64,77.27L464.12,77.91L464.59,77.1L465.06,77.74L465.54,76.83L466.48,73.91L466.96,77.04L467.43,77.26L467.91,76.12L468.85,73.36L469.33,75.98L470.75,77.36L471.22,74.99L472.17,77.36L472.64,78.35L473.11,78.19L473.59,77.1L475.96,82.24L476.43,83.83L476.9,83.61L477.38,84.74L477.85,84.18L478.32,84.69L478.8,87.87L479.27,85.78L479.74,87.33L480.69,90.1L481.17,85.73L481.64,84.37L482.11,85.65L484.95,80.13L485.43,80.11L485.9,77.66L486.38,79.03L486.85,80.28L487.8,80.39L488.27,81.58L488.74,81.66L489.22,78.59L489.69,77.99L490.16,79.28L491.11,81.2L491.58,79.79L493.01,82.79L493.48,81.86L493.95,79.39L494.43,79.74L494.9,79.05L495.37,78.11L495.85,78.53L496.32,78.31L497.27,80.28L497.74,78.57L498.21,78.23L498.69,76.55L499.64,78.4L500.11,77.06L500.58,76.44L501.06,78.37L501.53,80.71L502,80.45L502.48,81.06L502.95,80.81L503.42,83.17L504.37,82.31L504.85,83.12L506.27,87.32L506.74,86.15L507.21,86.05L507.69,87.89L508.16,87.36L508.63,85.67L510.05,91.54L510.53,91.07L511,91.77L511.95,93.6L512.42,92.88L513.37,90.04L513.84,91.34L514.32,91.22L514.79,90.27L515.26,90L515.74,91.33L516.21,92.44L516.68,89.36L520,89.36" style="vector-effect: non-scaling-stroke; fill: none; stroke: rgb(239, 85, 59); stroke-opacity: 1; stroke-width: 2px; opacity: 1;"/></g><g class="points"/><g class="text"/></g><g class="trace scatter trace1740d2" style="stroke-miterlimit: 2; opacity: 1;"><g class="fills"/><g class="errorbars"/><g class="lines"><path class="js-line" d="M0,100.67L3.32,100.67L3.79,99.69L5.21,97.49L5.68,99.34L6.63,99.78L7.1,99.46L9,101.53L9.47,100.72L11.37,102.03L11.84,101.58L12.31,103.46L12.79,103.08L13.26,103.55L13.73,104.48L14.21,104.01L14.68,102.51L16.58,98.63L17.05,103.09L17.52,101.98L18,103.26L18.47,103.8L18.94,103.36L19.42,102.68L20.36,103.04L20.84,101.17L21.31,102.93L21.79,102.5L22.26,102.47L22.73,103.45L23.21,102.47L23.68,101.84L24.15,99.48L24.63,102.49L25.1,101.36L25.57,101.32L26.05,101.81L26.52,100.41L27.94,102.88L28.42,102.4L28.89,103.05L29.36,105.3L29.84,106.88L30.31,106.53L30.78,107.14L31.26,107.23L31.73,103.38L32.2,104.84L32.68,104.21L33.15,104.5L34.1,104.52L34.57,102.38L35.05,102.1L35.52,100.89L35.99,102.15L36.47,100.02L36.94,97.72L37.41,98.65L37.89,98.56L38.36,96.49L38.83,97.75L39.31,96.97L39.78,96.22L40.26,96.58L40.73,97.16L42.15,92.65L42.62,91.93L43.1,90.52L43.57,91.6L44.52,91.91L44.99,93.78L45.46,94.8L45.94,93.28L47.36,92.84L47.83,95.6L48.31,97.26L48.78,96.04L49.25,94.06L49.73,95.69L50.2,93.99L50.67,94.38L51.15,94.58L52.09,91.01L52.57,91.55L53.04,92.9L54.46,89.07L54.94,86.78L55.41,85.72L55.88,87.46L56.83,84.49L57.3,85.56L58.25,81.37L58.72,83.23L60.62,79.94L61.09,81.35L61.57,82.96L62.04,82.58L62.51,81.31L62.99,79.45L63.46,82.99L64.41,83.15L64.88,84.76L65.36,84.55L65.83,83.49L66.3,84.01L66.78,82.64L67.25,82.4L67.72,83.07L69.14,83.04L69.62,85.14L70.56,84.3L71.04,85.38L71.51,85.58L71.99,87.41L72.93,88.53L73.41,88.51L74.35,90.67L74.83,89.55L76.25,88.68L76.72,87.42L77.19,88.74L77.67,87.08L79.09,87.7L79.56,86.18L80.51,88.14L80.98,86.73L81.93,90.09L82.4,89.76L82.88,88.57L83.35,89.38L83.83,90.38L84.77,92.07L85.25,92.28L85.72,91.46L86.19,92.55L87.61,90.11L88.09,91.84L89.03,88.58L89.51,89.68L89.98,89.47L90.46,86.99L92.35,81.32L92.82,82.05L93.77,80.54L94.24,80.56L94.72,82.38L95.19,79.84L95.66,79.32L96.14,80.36L97.09,79.07L97.56,82.12L98.03,81.49L98.51,83.38L99.45,84.02L99.93,82.4L100.4,79.5L100.87,80.21L101.35,78.69L101.82,78.31L102.3,82.06L103.72,79.9L104.19,79.39L104.66,79.48L105.14,81.74L106.56,82.08L107.03,81.69L108.45,87.11L108.93,86.01L109.4,82.79L109.87,84.44L110.35,85.67L111.29,86.48L111.77,85.15L113.19,80.65L113.66,78.77L114.13,81.45L114.61,79.4L115.56,74.67L116.03,75.96L116.5,76.56L116.98,73.81L118.4,70.13L118.87,70.82L119.34,72.65L119.82,71.92L120.29,72.81L120.77,73.8L121.24,71.59L122.66,75.89L123.13,75.69L123.61,75.42L124.08,77.47L125.5,76.11L125.97,75.04L126.45,72.68L126.92,74.62L127.4,73.71L127.87,74.08L128.34,76.17L128.82,74.66L129.29,78.11L130.71,76.37L131.18,77.65L131.66,78.61L132.13,77.62L133.55,82.33L134.03,81.77L135.45,83.41L135.92,80.69L136.39,77.78L136.87,79.66L138.29,77.34L138.76,79.27L140.18,83.09L140.66,81.97L141.6,79.19L142.08,80.39L142.55,78.08L143.02,82.63L144.92,84.78L145.39,85.33L146.81,78.02L147.29,77.94L148.71,84.12L149.18,81.65L149.65,82.9L150.13,81.16L150.6,81.82L151.07,80.31L151.55,81.54L152.02,81.27L152.5,80.41L152.97,81.16L153.44,80.72L153.92,83.02L154.39,84.42L154.86,83.1L155.34,81.45L155.81,82.2L156.28,81.48L158.18,81.63L158.65,80.33L159.13,78.73L159.6,79.18L160.07,80.67L160.55,81.58L161.02,81.31L161.49,80.67L162.44,82.33L162.91,80.23L163.39,82.42L163.86,81.89L164.34,82.32L165.28,80.97L165.76,81.38L166.23,84.98L166.7,84.25L167.18,83.79L167.65,84.14L168.12,81.5L168.6,81.74L169.07,80.2L169.54,80.58L170.02,82.75L174.28,72.63L174.75,69.23L175.23,68.23L175.7,64.29L177.6,59.99L178.07,59.93L179.02,60.08L179.49,59.28L180.44,56.54L180.91,57.64L181.38,57.18L181.86,59.44L183.75,64.66L184.23,62.51L188.01,74.41L188.49,75.14L188.96,73.32L189.44,74.14L189.91,75.11L190.86,77.64L191.33,76.03L194.17,68.7L194.64,70.97L195.12,70.9L195.59,69.81L196.07,73.1L196.54,70.62L197.96,64.64L198.43,66.43L199.38,66.4L199.85,63.05L200.8,66.26L201.28,66.03L201.75,62.86L202.7,65.01L203.17,62.42L204.59,64.38L205.06,64.36L206.96,70.87L207.43,69.17L208.38,64.67L208.85,66.09L209.33,66.21L209.8,67.51L210.27,69.39L210.75,68.39L211.22,69.32L211.69,71.39L212.17,69.55L212.64,66.53L213.11,66.65L213.59,65.38L214.06,64.83L214.54,66.52L215.96,74.48L216.43,73.73L216.9,74.53L217.38,73.65L218.8,75.86L219.27,79.6L220.69,83.37L221.17,82.81L224.95,68.92L225.43,68.27L226.38,65.25L226.85,65.72L227.8,62.03L228.27,62.59L228.74,62.94L229.22,61.13L229.69,65.03L230.16,63.8L230.64,64.41L231.11,65.53L232.06,64.08L232.53,62.37L233.01,63.44L233.48,62.34L234.9,63.97L235.37,64.26L236.32,66.61L236.79,63.9L237.27,61.74L237.74,64.24L238.21,62.87L238.69,65.63L239.64,70.53L240.11,70.08L240.58,69.39L241.06,68.03L241.53,68.45L242,69.92L242.48,70.62L242.95,70.18L243.42,69.2L243.9,68.72L244.37,69.68L244.85,67.3L245.32,69.87L246.27,69.08L246.74,69.76L247.21,69.39L247.69,71.44L248.16,72.5L248.63,70.9L249.58,69.8L250.05,72.37L250.53,73.35L251,70.29L251.48,70.26L251.95,68.76L253.37,66.06L253.84,66.15L254.79,68.63L255.26,68.18L255.74,66.66L256.21,69.4L256.68,67.77L257.16,65.65L257.63,64.73L258.11,68.3L258.58,69.12L259.05,72.55L259.53,71.39L260,73.8L260.47,73.14L260.95,74.88L261.42,75.24L261.89,71.96L262.37,71.13L262.84,71.96L264.26,67.13L264.74,66.51L265.21,67.51L265.68,66.52L267.1,64.25L267.58,65.54L268.52,61.21L269,62.18L269.47,62.31L269.95,63.32L270.42,63.89L270.89,67.03L271.37,68.23L271.84,67.41L272.31,64.99L273.73,69.65L274.21,69.55L274.68,69.29L275.15,66.5L275.63,67.22L276.1,65.36L276.58,64.91L277.05,62.95L277.52,64.58L278,61.99L278.47,59.9L278.94,63.19L279.42,64.07L279.89,60.55L281.31,55.55L281.79,54.56L282.26,56.31L282.73,55.16L283.68,57.38L284.15,56.51L284.63,55.08L285.1,55.7L285.57,57.52L286.52,56.49L286.99,57.36L289.36,63.75L289.84,61.52L290.78,60.41L291.26,62.05L292.2,60.61L292.68,61.46L293.15,59.39L293.62,59.84L294.1,61.14L294.57,60.78L295.05,58.42L295.52,57.32L295.99,53.4L296.47,53.23L296.94,55.94L297.41,56.34L297.89,54.79L298.36,53.72L298.83,55.96L299.31,56.16L299.78,54.64L300.26,56.63L300.73,55.2L301.2,53.59L301.68,54.76L302.15,55.3L302.62,58.55L303.1,59.05L303.57,58.39L305.46,65.42L305.94,63.39L306.89,61.61L307.36,61.3L308.31,65.64L308.78,63.21L309.73,62.11L310.2,65.48L310.67,65.16L311.15,63.62L312.09,61.64L312.57,61.73L314.46,65.76L314.94,64.88L315.41,63.3L315.88,64.16L316.36,65.14L318.25,59.76L318.72,58.96L319.67,55.31L320.15,56.55L320.62,56.41L321.09,57.78L322.04,56.01L322.51,56.74L322.99,57.75L323.46,56.77L323.93,60.06L324.41,59.87L324.88,59.75L325.36,60.04L325.83,61.49L326.78,64.97L327.25,60.65L328.2,59.21L328.67,61.87L329.14,60.48L329.62,60.65L330.09,61.64L330.56,62L331.04,60.91L332.46,64.74L332.93,61.48L333.41,60.35L333.88,61.88L334.83,66.36L335.3,66.15L335.77,63.15L336.72,65.48L337.19,63.34L337.67,66.16L338.14,63.53L339.09,63.43L339.56,64.96L340.98,70.33L341.46,70.58L341.93,70.02L342.4,71.75L343.83,72.56L344.3,75.35L344.77,73.89L345.25,77.24L348.09,65.97L348.56,64.53L350.46,60.67L350.93,59.94L351.88,57.74L352.35,57.09L354.24,62.8L354.72,61.32L355.66,64.95L356.14,66.27L356.61,65.78L357.09,67.63L358.51,70.92L358.98,69.91L360.4,71.99L360.87,72.16L361.82,75.48L362.3,72.93L363.72,77.24L364.19,76.78L365.61,74.67L366.08,75.71L366.56,74.35L367.03,76.58L368.45,80.42L368.93,79.35L369.4,80.63L369.87,79.99L370.35,80.45L371.77,78.24L372.24,80.24L373.66,81.1L374.13,78.2L376.5,71.18L376.98,72.32L377.45,72.09L377.92,73.18L378.87,75.72L379.34,74.23L379.82,73.4L380.29,75.18L381.71,77.79L382.19,76.87L383.13,82.88L383.61,82.11L384.08,82.12L385.03,79.49L385.5,80.37L386.45,79.81L386.92,83.22L387.87,81.62L388.34,81.77L389.29,84.72L389.76,83.19L390.24,80.78L390.71,83.23L392.13,85.01L392.6,82.54L393.08,82.81L393.55,85.51L394.03,83.53L394.5,83.73L394.97,86.37L395.92,84.1L396.39,85.3L396.87,84.75L397.34,86.49L398.29,85.57L398.76,87.69L399.23,87.12L399.71,90.28L400.66,88.75L401.13,89.29L401.6,89.57L402.08,86.45L402.55,88.7L403.97,89.87L404.44,89.16L404.92,87.86L405.39,89.01L406.81,91.84L407.29,91.54L407.76,91.56L409.18,94.94L409.65,93.2L410.6,92.99L411.07,96.57L412.02,100.75L412.5,99.77L413.92,94.87L414.39,96.73L414.86,95.7L415.34,96.78L415.81,96.9L416.28,98.42L417.23,98.14L417.7,98.11L418.65,93.18L419.13,93.8L419.6,93.96L420.07,95.4L420.55,93.81L421.02,95.41L422.44,95.52L422.91,95.51L423.86,93.2L424.34,93.33L424.81,93.14L425.28,95.25L426.23,92.45L426.7,94.78L428.12,94.54L428.6,96.77L429.54,96.83L430.02,95.66L431.91,104.43L432.39,104.05L433.33,110.55L433.81,109.04L434.28,110.34L435.23,113.54L435.7,111.62L437.6,108.87L438.07,109.57L439.02,106.14L439.49,106.99L440.44,104.81L440.91,105.7L441.86,104.71L442.33,105.21L442.81,105.27L443.28,107.45L443.75,106.18L444.23,107.64L445.17,106.85L445.65,107.76L446.59,110.86L447.07,110.63L447.54,107.92L450.38,112.69L450.86,115.08L452.28,116.81L452.75,118.96L453.7,116.98L454.17,118.2L454.64,120.46L455.12,119.24L455.59,118.47L456.07,117.86L456.54,119.18L457.96,119.73L458.43,122.9L459.85,116.93L460.33,117.95L460.8,116.83L461.28,117.67L461.75,116.9L462.22,119.7L462.7,121.59L463.17,119.4L464.12,119.51L464.59,118.38L465.06,117.96L465.54,116.45L466.01,116.18L466.48,114.38L466.96,116.95L467.43,116.43L467.91,116.95L469.8,111.33L470.27,112.81L471.69,112.57L472.17,110.76L473.11,108.62L473.59,111.25L474.06,109.91L474.54,111.45L475.01,111.16L475.48,112.37L475.96,116.08L476.43,115.83L476.9,115.5L477.38,115.07L477.85,112.54L478.32,113.13L478.8,111.64L479.27,113.73L479.74,112.9L480.22,113.25L481.17,114.66L481.64,113.37L482.59,116.04L483.06,115.88L484.01,115.92L484.48,117.21L487.32,125.95L487.8,125.5L488.74,124.12L489.22,120.78L491.11,114.04L491.58,114.56L492.06,114.53L492.53,113L493.48,110.41L493.95,111.71L495.37,110.38L495.85,110.87L496.32,109.94L496.79,112.53L497.27,111.42L497.74,113.31L498.21,114L498.69,111.79L499.64,108.42L500.11,109.09L503.42,121.93L503.9,120.26L504.37,122.13L504.85,121.56L505.32,121.94L506.27,124.31L506.74,123.77L507.21,123.89L508.16,124.84L508.63,124.56L509.58,121.99L510.05,122.2L511.48,122.34L511.95,121.59L512.42,122.22L512.9,121.46L513.84,127.11L514.32,126.78L514.79,126.03L515.26,126.62L515.74,124.98L516.68,126.12L517.16,126.12L520,126.12" style="vector-effect: non-scaling-stroke; fill: none; stroke: rgb(0, 204, 150); stroke-opacity: 1; stroke-width: 2px; opacity: 1;"/></g><g class="points"/><g class="text"/></g><g class="trace scatter trace6cbc3b" style="stroke-miterlimit: 2; opacity: 1;"><g class="fills"/><g class="errorbars"/><g class="lines"><path class="js-line" d="M0,146.13L3.32,146.13L3.79,143.49L4.74,139.7L5.21,141.84L6.16,141.93L6.63,141.47L8.52,142.07L9,141.38L10.42,139.63L10.89,141.1L12.31,144.84L12.79,144.43L13.73,144.99L14.21,143.44L14.68,145.05L15.15,143.81L16.1,143.46L16.58,143.25L17.52,142.91L18,144.14L18.47,144.08L18.94,142.38L19.89,140.25L20.36,138.61L20.84,137.12L21.31,137.36L21.79,137.11L22.26,137.12L22.73,135.68L24.15,136.46L24.63,138.05L25.1,135.48L25.57,135.98L26.05,137.43L26.52,137.32L26.99,139L28.42,141.59L28.89,141.27L29.36,139.43L29.84,143.44L30.31,143.82L30.78,143.03L31.73,139.5L32.2,140.87L32.68,141.55L33.15,140.38L33.62,140.45L34.1,139.12L35.52,136.26L35.99,136.15L36.47,137.63L36.94,135.9L37.89,133.06L38.36,133.37L38.83,134.28L39.31,131.92L40.73,128.63L41.2,128.89L41.68,128.9L42.15,129.84L42.62,129.96L43.1,129.18L43.57,129.98L44.04,127.36L44.52,128.37L44.99,128.05L45.46,127.24L46.41,126.35L46.89,124.07L47.36,122.83L47.83,125.17L48.78,126.52L49.25,125L49.73,124.75L50.2,123.33L51.15,121.73L51.62,121.91L52.09,120.9L52.57,121.95L53.52,123.13L53.99,124.53L55.88,119.23L56.36,121.07L58.25,121.85L58.72,120.59L59.2,122.68L59.67,120.69L61.09,115.38L61.57,116.85L62.04,116.34L62.51,117.63L62.99,118.41L63.46,117.57L65.36,119.77L65.83,122.5L66.3,119.33L66.78,122.64L67.25,122.6L67.72,121.04L68.67,130.17L69.14,129.59L69.62,129.31L70.09,127.15L70.56,127.62L71.04,126.64L72.46,129.31L72.93,127.78L73.41,129.83L73.88,126.36L74.83,130.86L75.3,127.41L75.77,125.44L76.25,126.49L76.72,126.32L77.19,128.76L77.67,127.18L79.09,128.3L79.56,126.34L80.04,126.24L80.51,125.22L80.98,127.1L81.46,126.09L81.93,123.64L82.4,124.91L82.88,124.23L83.35,125.17L84.3,125.38L84.77,126.47L86.19,124.48L86.67,126.7L87.14,126.38L87.61,129.09L88.56,129.75L89.03,129.47L91.4,122.76L91.88,124.21L92.35,125.16L92.82,123.84L93.3,124.16L93.77,121.01L94.24,120.89L94.72,118.63L95.19,116.91L95.66,117.32L96.14,117.85L97.09,117.63L97.56,119.1L98.51,120.37L98.98,117.64L99.45,119.43L99.93,118.74L100.4,117.71L101.35,121.28L101.82,120.54L102.3,122.39L102.77,121.83L103.24,124.52L104.19,127.07L104.66,126.28L106.08,125.16L106.56,121.34L107.03,122.43L107.5,121.49L107.98,121.52L108.45,117.84L109.87,116.05L110.35,113.99L111.29,110.21L111.77,110.7L112.71,110.43L113.19,109.32L113.66,109.96L114.13,108.86L115.08,105.8L115.56,108.62L116.03,108.31L116.5,106.01L117.45,105.24L117.92,107.08L118.87,106.33L119.34,105.46L122.19,109.12L122.66,107.28L124.08,108.61L124.55,107.22L125.03,106.48L125.5,107.69L125.97,106.01L126.45,107.45L126.92,105.82L127.4,106.78L127.87,107.67L128.34,105.36L128.82,106.56L129.29,106.78L129.76,108.49L130.24,107.68L130.71,107.89L133.08,115.58L133.55,114.84L134.97,114.71L135.45,116.45L136.39,117.79L136.87,116.5L137.81,121.13L138.29,117.56L138.76,118.53L139.23,117L139.71,116.61L140.18,114.83L141.13,115.37L141.6,116.53L143.5,113.94L143.97,115.47L144.44,113.31L144.92,114.93L145.39,119.86L145.87,118.8L146.34,120.37L147.29,119.78L147.76,120.81L148.23,121.2L148.71,119.31L151.55,125.53L152.02,123.88L152.97,118.57L153.44,118.02L154.39,117.62L154.86,115.29L155.81,118.89L156.28,117.39L156.76,117.8L157.23,117.03L158.65,113.77L159.13,114.02L159.6,116.48L160.07,116.28L160.55,114.43L161.02,113.97L161.49,115.2L161.97,117.55L162.44,115.19L163.86,111.86L164.34,112.6L164.81,113.3L165.28,111.91L165.76,112.93L166.23,111.56L166.7,111.43L167.18,112.82L168.6,115.61L169.07,112.35L170.49,115.25L170.97,115.9L174.75,104.95L175.23,102.86L175.7,100.41L176.17,102.31L176.65,100.52L177.12,101.12L177.6,101.07L178.07,98.61L178.54,98.73L179.02,100.48L180.44,104.15L180.91,104.03L181.86,102.76L182.33,105.01L182.81,106.36L183.28,105.79L183.75,104.56L184.23,104.87L184.7,103.23L185.17,104.59L185.65,103.63L186.12,102.58L186.59,98.98L187.54,99.47L188.01,100.96L188.96,104.14L189.44,102.46L189.91,103.29L190.38,102.4L191.8,105.42L192.28,105.92L192.75,105.86L193.22,104.56L193.7,105.57L194.17,105.33L194.64,104.32L195.59,102.47L196.07,104.51L197.96,105.03L198.43,104.47L198.91,105.1L199.38,103.35L199.85,103.98L200.33,106.67L201.28,107.56L201.75,107.06L202.22,105.73L202.7,107.28L204.12,105.36L204.59,106.4L205.54,107.34L206.01,105.1L206.96,108.19L207.43,106.56L208.38,105L208.85,105.35L209.33,106.45L209.8,105.79L210.27,103.97L210.75,103.2L211.22,104.84L213.11,106.41L213.59,105.85L215.01,103.21L215.48,103.62L215.96,105.34L216.43,104.72L216.9,105.41L217.38,107.34L217.85,107.13L218.32,106.57L220.22,103.62L220.69,103.08L221.64,102.81L222.11,104.57L222.59,105.38L223.06,104.51L223.53,105.22L224.01,104.85L224.48,104.03L224.95,105.53L225.43,104.43L226.85,103.52L227.32,103.82L229.22,106.81L229.69,104.19L232.06,96.38L232.53,98.21L233.01,97.26L233.48,98.23L233.95,99.9L234.43,98.75L235.37,96.85L235.85,98.21L236.79,101.38L237.27,103.22L238.21,102.93L238.69,102.68L239.16,105.38L239.64,103.35L240.11,104.15L240.58,101.77L241.06,99.89L241.53,102.87L242.95,105.38L243.42,103.84L244.37,106.24L244.85,105.64L245.79,106.97L246.27,105.92L247.69,109.18L248.16,108.32L251,98.68L251.48,98.86L252.9,99.5L253.37,100.99L253.84,100.7L254.32,101.85L254.79,100.82L255.26,101.82L255.74,102.16L256.21,101.44L257.16,96.65L257.63,98.32L259.05,94.33L259.53,93.87L260.47,95.98L260.95,95.19L261.42,93.2L261.89,96.11L262.37,96.85L262.84,94.61L264.26,99.79L264.74,99.23L266.63,103.37L267.1,101.74L267.58,100L268.05,103.29L268.52,104.25L269,102.02L269.47,98.22L269.95,102.02L270.42,101.6L270.89,103.77L271.37,104.51L271.84,103.71L272.79,102.01L273.26,101.61L273.73,99.55L274.21,102.97L274.68,104.12L275.15,102.78L275.63,103.41L276.1,102.89L276.58,106.51L278.47,98.87L278.94,99.39L279.42,99.68L279.89,97.62L280.84,96.95L281.31,93.38L282.73,88.46L283.21,88.33L283.68,86.86L284.15,87.68L284.63,89.21L285.57,88.77L286.05,90.64L288.89,100.4L289.36,98.7L290.31,96.2L290.78,97.78L291.26,99.29L291.73,98.46L292.2,98.3L293.62,97.61L294.1,94.57L294.57,96.14L295.05,95.24L295.52,95.23L295.99,95.32L296.47,97.68L297.41,98.89L297.89,98.14L298.36,96.55L298.83,98.41L300.26,98.57L300.73,96.91L301.2,97.75L301.68,96.42L302.15,97.34L302.62,96.4L303.57,95.04L304.04,95.69L304.52,98.88L304.99,98.14L305.46,99.14L306.89,100.1L307.36,99.37L308.78,105.93L309.25,105.16L310.2,107.05L310.67,107.31L311.15,108.93L311.62,107.98L312.09,108.9L312.57,110.25L313.04,107.34L314.46,110.62L314.94,109.09L315.41,107.63L315.88,108.6L316.36,107.99L318.25,102.18L318.72,101.75L319.2,101.39L319.67,98.65L320.15,100.16L320.62,98.58L321.09,99.84L321.57,99.01L322.04,99.43L323.46,96.75L323.93,98.75L324.41,99.65L324.88,98.66L325.36,98.61L325.83,97.48L327.25,97.9L327.72,95.75L328.2,92.74L328.67,93.7L329.14,91.95L329.62,93.47L330.09,92.12L330.56,93.39L331.04,92.05L331.51,91.27L331.99,93.46L333.88,98.62L334.35,98.84L335.3,103.58L335.77,102.13L337.19,104.79L337.67,104.87L338.62,106.71L339.09,105.96L340.98,100.87L341.46,102.16L341.93,102.09L342.4,100.41L344.77,105.39L345.25,104.78L345.72,103.03L346.19,103.84L346.67,102.8L347.61,101.61L348.09,102.24L348.56,101.54L349.03,102.59L349.51,103.45L349.98,101.17L350.46,101.06L350.93,102L351.88,100.27L352.35,98.61L352.82,98.7L353.3,97.16L354.72,99.8L355.19,102L355.66,102.21L356.14,103.79L356.61,104.56L357.09,107.07L358.51,105.33L358.98,106.97L360.87,114.03L361.35,113.08L362.3,111.24L362.77,113.01L363.72,110.58L364.19,109.76L364.66,109.34L365.14,110.53L365.61,110.71L366.08,109.4L367.03,112.07L367.5,114.45L368.45,115.12L368.93,116.44L369.4,117.56L369.87,116.53L371.29,120.32L371.77,122.07L372.24,121.75L372.71,124L373.19,124.84L373.66,124.05L375.08,120.52L375.56,122.56L377.45,124.42L377.92,121.34L379.34,118.29L379.82,115.87L380.29,116.01L380.77,114.04L382.19,117.55L382.66,116.97L383.13,117.51L383.61,117.63L384.08,116.16L384.55,113.94L385.03,116.02L385.97,116.15L386.45,116.62L386.92,115.83L387.4,113.02L387.87,115.52L388.34,114.07L388.82,112.41L389.29,109.7L389.76,110L390.24,109.92L390.71,109.04L391.18,109.47L391.66,111.17L393.55,116.65L394.03,116.4L395.92,119.6L396.39,119.95L397.34,121.7L397.81,123.64L398.76,124.59L399.23,123.95L400.66,121.98L401.13,124.69L402.55,124.69L403.02,127.54L404.44,128.39L404.92,126.8L406.34,127.79L406.81,128.26L407.29,127.36L407.76,128.61L408.23,127.45L408.71,129.04L409.65,132.96L410.13,130.7L410.6,131.54L411.07,130.1L412.5,131.44L412.97,131.38L413.92,130.23L414.39,132.24L414.86,131.68L415.34,133.63L415.81,134.65L416.28,133.61L416.76,132.89L417.23,134.48L418.18,137.68L418.65,135.67L419.13,138.06L419.6,137.22L420.07,137.88L421.97,140.27L422.44,140.18L422.91,140.41L423.39,139.79L424.34,140.66L424.81,140.47L425.28,139.7L425.76,140.54L427.18,139.17L427.65,139.38L428.12,140.81L428.6,140.43L429.07,141.18L430.49,138.82L430.97,138.25L431.44,139.31L431.91,137.99L432.86,138.66L433.33,137.99L434.28,141.53L434.75,142.15L435.7,139.74L436.17,140.71L438.54,147.05L439.02,145.77L439.96,147.11L440.44,146.68L440.91,144.14L441.38,144.39L441.86,145.63L443.28,148.82L443.75,149.53L444.7,146.9L445.17,148.3L445.65,146.67L446.12,148.52L447.07,149.35L447.54,151.77L448.01,153.63L448.49,152.97L448.96,152.93L449.44,152.74L449.91,155.86L450.86,154.42L451.33,154.85L451.8,157.23L452.28,155.28L452.75,157.7L453.22,158.79L453.7,158.58L454.17,158.4L454.64,159.8L455.12,156.98L455.59,158.38L456.07,157.63L456.54,157.35L457.01,154.62L457.49,155.27L457.96,153.77L459.85,150.36L460.33,150.26L460.8,149.58L461.28,150.16L461.75,146.97L462.22,147.69L462.7,147.1L463.17,146.97L464.12,147.22L464.59,144.33L466.48,151.15L466.96,150.52L467.43,149.56L467.91,148.82L468.38,149.6L470.27,155.78L470.75,153.53L471.22,153.74L471.69,155.24L472.64,153.85L473.11,151.57L474.06,150.95L474.54,152.22L475.48,154.5L475.96,152.24L477.38,149.89L477.85,153.3L479.74,158.38L480.22,158.15L480.69,157.51L481.17,158.84L481.64,158.61L482.11,155.68L482.59,153.78L483.06,157.81L483.53,156.93L484.01,159.6L484.48,158.85L484.95,159.47L485.43,159.2L485.9,160.01L486.38,158.95L487.8,160.26L488.27,159.42L490.16,155.33L490.64,157.12L491.11,155.13L491.58,155.57L492.06,154.66L493.95,146.77L494.43,147.22L494.9,146.44L495.85,146.04L496.32,147.65L496.79,150.26L497.27,150.14L497.74,148.58L498.21,148.99L498.69,150.58L499.16,149.44L499.64,150.5L502.95,163.05L503.42,162.49L504.37,162.58L504.85,161.8L505.79,161.2L506.27,162.44L507.21,161.97L507.69,160.24L508.16,162.1L508.63,161.57L509.11,161.26L510.53,165.78L511,164.89L515.74,173.66L516.21,172.05L517.16,172.86L517.63,172.86L520,172.86" style="vector-effect: non-scaling-stroke; fill: none; stroke: rgb(171, 99, 250); stroke-opacity: 1; stroke-width: 2px; opacity: 1;"/></g><g class="points"/><g class="text"/></g><g class="trace scatter trace80cbf7" style="stroke-miterlimit: 2; opacity: 1;"><g class="fills"/><g class="errorbars"/><g class="lines"><path class="js-line" d="M0,172.89L4.74,172.49L5.21,171.57L6.16,174.93L6.63,174.11L7.58,173.29L8.05,171.17L8.52,171.8L9,170.3L9.47,169.57L9.95,169.93L10.42,170.19L11.84,171.1L12.31,171.43L13.73,174L14.21,174.93L15.15,174.95L15.63,173.57L16.1,171.69L16.58,173.69L17.05,173.21L17.52,170.69L19.42,176.75L19.89,176.42L20.36,176.88L20.84,176.33L21.31,174.33L22.73,174.1L23.21,176.56L24.15,176.22L24.63,176.45L25.1,177.89L25.57,176.58L26.05,177.9L26.52,177.33L26.99,178.18L27.47,176.81L27.94,177.08L28.42,177.67L28.89,179.48L29.36,179.23L29.84,179.02L30.31,179.96L30.78,178.08L31.73,180.37L32.2,179.39L33.62,174.21L34.1,173.82L34.57,172.78L35.05,174.13L35.52,175.11L35.99,172.24L36.47,171.62L36.94,173.2L37.41,171.78L37.89,172.16L38.36,172.33L39.31,168.78L39.78,170.54L40.26,172.17L40.73,171.58L41.2,170.81L41.68,171.8L42.15,170.57L42.62,167.5L43.1,169.65L43.57,172.03L44.04,171.38L44.52,171.35L45.94,171.4L46.41,169.44L48.31,162.11L48.78,162.11L49.25,160.51L49.73,162.06L51.15,156.96L51.62,156.49L52.57,150.97L53.04,151.1L53.52,154.27L53.99,155.16L54.46,154.26L54.94,155.36L55.41,154.4L56.36,159.03L56.83,157.28L57.78,159.04L58.25,158.11L60.15,160.79L60.62,158.63L61.09,157.76L61.57,161.35L62.04,161.24L62.51,162.09L64.41,156.17L64.88,155.82L65.83,154.72L66.3,156.89L66.78,157.32L67.25,155.97L68.2,155.3L68.67,153.48L69.14,153.39L69.62,154.28L70.09,153.66L70.56,154.27L71.04,156L72.93,162.48L73.41,161.94L75.77,167.53L76.25,165.86L76.72,163.47L77.19,165.21L77.67,166.07L78.14,165.5L78.62,164.37L79.09,161.99L79.56,163.09L80.04,162.16L80.51,161.36L80.98,162.67L82.4,164.82L82.88,163.78L83.83,165.92L84.3,164.27L85.25,162.33L85.72,162.65L86.19,163.45L86.67,162.39L87.14,161.75L87.61,163L89.03,159.31L89.51,158.42L90.46,158.82L90.93,158.65L92.35,156.71L92.82,154.6L93.77,152.44L94.24,153.79L94.72,152.86L95.19,153.31L95.66,153.44L96.61,150.84L97.09,151.17L97.56,151.83L98.98,149.95L99.45,150.49L99.93,152.33L100.87,153.93L101.35,153.32L101.82,153.19L102.3,152.23L102.77,150.04L103.24,150.96L103.72,152.7L104.19,152.6L104.66,151.21L105.61,149.88L106.08,152.77L107.98,150.41L108.45,147.86L108.93,146.19L109.4,147.24L109.87,148.23L111.29,147.22L111.77,147.68L112.24,148.5L112.71,147.65L113.66,144.01L114.13,146.02L114.61,148.02L115.08,146.64L116.03,149.74L116.5,148.59L117.45,148.27L117.92,147.94L118.4,147.45L118.87,148.16L120.77,153.89L121.24,151.53L121.71,150.64L122.19,151.38L123.13,151.45L123.61,151.5L124.55,155.43L125.03,154.65L125.5,155.48L127.4,148.78L127.87,150.63L128.34,151.33L128.82,150.93L129.29,150.34L129.76,151.83L130.24,150.02L130.71,149.5L131.18,147.68L132.13,150.47L132.6,149.55L133.08,153.4L133.55,153.32L134.03,152.54L134.5,153.68L134.97,150.53L135.92,150.43L136.39,150.22L136.87,149.96L137.34,152.37L138.29,155.16L138.76,152.68L140.18,149.63L140.66,151.67L142.08,151.87L142.55,150.71L143.97,150.5L144.44,148.77L145.87,143.81L146.34,144.79L148.71,146.37L149.18,147.99L150.13,150.14L150.6,150.02L151.55,151.37L152.02,153.18L152.97,154.14L153.44,153.41L154.86,152.95L155.34,153.53L156.28,149.88L156.76,150.19L157.23,150.19L158.18,149.92L158.65,147.95L160.55,152.24L161.02,151.54L162.44,149.68L162.91,151.27L163.39,152.46L163.86,151.29L164.81,152L165.28,153.58L165.76,155.11L166.23,154.22L166.7,155.39L167.65,155.02L168.12,154.42L170.02,153.37L170.49,153.95L170.97,154.84L171.44,153.89L172.39,150.23L172.86,148.92L173.33,148.21L173.81,144.07L174.75,144.94L175.23,144.48L175.7,144.93L176.17,143.55L176.65,144.03L177.12,141.81L177.6,141.45L178.07,139.99L178.54,139.89L179.02,138.67L179.49,140.41L179.96,138.6L180.44,137.46L180.91,139.64L181.38,139.94L181.86,139.28L183.28,141.83L183.75,140.46L184.23,141.11L184.7,138.03L185.65,134.53L186.12,135.6L186.59,134.27L187.07,135.66L187.54,135.95L188.01,135L188.96,134.75L189.44,133.87L190.38,132.45L190.86,133.02L191.33,133.6L191.8,136.37L192.75,141.23L193.22,139.67L193.7,138.42L194.17,141.53L194.64,141.69L195.12,139.38L195.59,137.96L196.07,138.87L196.54,138.92L197.49,139.91L197.96,138.53L199.38,136.29L199.85,137.34L200.8,141.41L201.28,140.11L202.7,142.89L203.17,142.42L203.64,143.01L204.12,141.74L204.59,142.26L205.06,144.25L205.54,146.28L206.01,145.09L206.48,145.92L208.38,138.97L208.85,137.85L209.33,138.91L209.8,136.43L211.69,138.72L212.17,138.76L212.64,137.52L213.11,139.19L214.54,138.8L215.01,139.86L215.48,138L215.96,139.2L217.38,141.08L217.85,138.91L219.27,134.65L219.74,135.6L220.22,133.96L220.69,134.16L221.17,134.53L221.64,135.64L222.11,134.91L222.59,135.35L223.53,132.95L224.01,133.45L224.48,133.47L224.95,135.03L225.43,135.82L225.9,133.37L226.38,135.58L226.85,134.56L227.32,135.55L228.74,139.41L229.22,140.69L229.69,143.34L230.16,143.08L230.64,140.97L231.58,137.18L232.06,139.01L232.53,139.28L233.01,140.74L233.95,139.27L234.43,140.04L236.32,137.04L236.79,134.23L238.69,139.63L239.16,138.71L240.58,140L241.06,139.95L241.53,137.45L242,138.16L242.48,137.26L242.95,135.47L243.42,137.09L244.37,138.84L244.85,138.01L245.32,139.03L245.79,136.22L246.27,136.23L246.74,137.14L248.63,136.81L249.11,134.71L250.05,136.59L250.53,135.55L251,137.27L251.48,137.04L251.95,137.33L253.37,134.13L253.84,134.13L256.21,140.16L256.68,138.68L257.16,139.76L257.63,139.42L258.11,139.16L258.58,137.25L259.05,137.73L259.53,139.01L260.47,138.26L260.95,135.26L261.89,130.93L262.37,132.29L264.26,129.25L264.74,129.08L266.63,126.04L267.1,127.61L267.58,126.8L268.05,129.3L269.47,132.52L269.95,132.76L270.89,134.82L271.37,134.68L272.31,134.63L272.79,136.27L274.21,140.89L274.68,140.86L275.63,139.82L276.1,140.42L277.05,138.34L277.52,137.51L278,138.25L278.47,135.79L279.42,135.5L279.89,134.85L280.36,130.65L280.84,130.77L281.31,129.95L282.73,129.74L283.21,127.55L283.68,126.27L284.15,127.63L284.63,128.11L285.1,127.25L285.57,128.04L286.05,127.11L286.99,127.43L287.47,131.05L288.42,128.21L288.89,130.07L291.26,133.73L291.73,132.43L293.15,136.67L293.62,134.32L294.1,133.65L294.57,131.67L295.05,130.46L295.52,131.05L295.99,130.18L296.47,132.32L296.94,130.73L297.41,130.64L297.89,129.35L298.83,130.83L299.31,128.95L299.78,129.32L300.26,126.74L301.68,127.66L302.15,130.47L302.62,132.19L303.1,131.79L303.57,129.49L304.99,134.25L305.46,132.55L308.78,141.71L309.25,140.78L310.67,137.93L311.15,135.75L311.62,136.6L312.09,134.68L313.04,133.77L313.52,133.12L313.99,133.6L314.46,136.05L315.88,133.04L316.36,134.29L317.3,134.86L317.78,136.47L320.15,139.37L320.62,140.62L322.51,134.09L322.99,134.48L327.72,120.61L328.2,121.28L328.67,124.12L329.14,125.7L329.62,125.14L330.09,125.82L331.04,125.19L331.51,127.55L332.46,128.89L332.93,132.09L333.41,132.18L333.88,134.98L335.3,140.28L335.77,139.6L336.25,138.14L336.72,140.95L337.67,141.77L338.14,143.85L338.62,145.53L339.09,144.13L339.56,145.9L340.04,143.49L340.51,144.21L340.98,142.44L342.4,136.38L342.88,136.28L343.35,135.85L343.83,132.95L344.77,133.15L345.25,130.79L345.72,128.56L346.19,130.32L346.67,129.14L347.14,130.55L347.61,130.87L348.09,132.54L348.56,134.86L349.03,133.1L350.46,135.97L350.93,135.73L351.88,133.48L352.35,134.07L352.82,136.05L353.3,132.72L353.77,132.86L354.24,130.81L355.66,133.51L356.14,133.31L356.61,131.06L357.09,132.23L357.56,131.55L359.45,135.84L359.93,136.07L360.87,140.65L361.35,141.5L361.82,142.5L362.3,141.3L362.77,142.05L363.24,144.5L364.66,149.69L365.14,150.11L365.61,148.88L366.08,149.74L366.56,151.68L367.98,148.24L368.45,151.36L369.4,149.51L369.87,149.43L370.35,148L370.82,148.6L371.29,150.42L371.77,149.61L372.24,151.45L373.19,152.76L373.66,150.5L375.08,153.22L375.56,152.25L376.03,152.68L376.5,154.22L377.45,157.64L377.92,156.53L378.4,156.31L378.87,158.46L380.29,156.64L380.77,157.55L381.24,158.79L381.71,157.6L383.13,160.17L383.61,158.42L385.97,153.74L386.45,153.99L387.87,154.39L388.34,153.32L388.82,152.08L389.29,153.31L390.24,151.86L390.71,153.43L392.13,156.09L392.6,155.05L394.97,158.43L395.45,158.05L397.34,163.84L397.81,162.25L398.76,160.66L399.23,160.33L399.71,162.58L400.18,162.38L400.66,161.14L401.13,160.52L401.6,162.45L402.08,163.54L402.55,163L403.02,162.93L403.97,159.36L404.44,159.97L404.92,162.8L405.39,165.43L405.87,165.13L406.34,165.71L407.29,164.86L407.76,167.7L409.65,172.27L410.13,171.38L411.55,172.17L412.02,170.99L412.5,169.65L412.97,170.41L413.44,171.55L413.92,171.72L414.39,172.75L416.76,168.05L417.23,169.08L417.7,168.62L418.18,169.71L418.65,169.3L419.13,170.06L420.07,169.14L420.55,166.92L421.02,168.95L421.49,167L422.44,169.51L422.91,169.02L423.39,168.26L423.86,170.46L424.34,168.25L424.81,170.67L425.28,169.93L425.76,170.93L427.65,175.82L428.12,172.64L428.6,174.54L429.07,173.84L429.54,173.65L430.02,173.57L430.49,175.59L431.44,177.9L431.91,176.58L432.86,174.66L433.33,172.09L434.28,173.22L434.75,175.61L436.17,176.59L436.65,177.74L441.38,190.64L441.86,189.86L443.28,192.81L443.75,191.69L444.7,189L445.17,189.51L445.65,190.48L446.12,192.56L446.59,191.73L447.07,193.36L447.54,190.9L448.01,191.64L448.49,191.9L448.96,192.04L449.44,193.57L449.91,192.43L450.38,194.14L451.8,198.49L452.28,197.22L453.22,196.96L453.7,196.01L454.17,194.78L454.64,196.88L456.54,197.47L457.01,198.66L458.43,195.19L458.91,196.15L459.85,195.87L460.33,195.48L460.8,196.02L461.28,198.1L463.17,190.72L463.64,190.24L465.06,187.27L465.54,187.61L467.43,183.85L467.91,185.21L468.38,183.62L468.85,185.04L469.33,184.41L469.8,185.23L470.27,186.94L470.75,185.56L472.17,190.33L472.64,189.04L473.11,189.09L473.59,187.95L474.54,188.84L475.01,187.82L475.48,190.3L475.96,189.44L476.43,190.36L477.85,192.49L478.32,191.48L480.69,192.02L481.17,194.12L482.11,198.19L482.59,194.69L484.01,198.74L484.48,198.14L485.9,195.14L486.38,194.48L486.85,195.03L487.32,194.31L487.8,194.64L488.27,193.54L489.22,188.97L489.69,190.41L491.58,185.76L492.06,187.27L493.01,188.59L493.48,187.17L493.95,186.47L494.43,187.98L495.37,189.18L495.85,191.2L496.32,190.98L496.79,189.62L498.69,184.49L499.16,186.75L500.11,184.99L500.58,188.03L501.06,189L501.53,188.16L503.42,187.87L503.9,189.41L505.79,203.49L506.27,201.71L506.74,202.16L507.21,205.31L507.69,204.14L508.16,204.66L508.63,206.13L509.11,206.18L509.58,204.95L510.53,207.01L511,206.62L511.48,207.1L511.95,206.16L512.9,201.77L513.37,202.68L513.84,204.09L514.32,204.08L514.79,205.04L517.16,207.01L517.63,207.01L520,207.01" style="vector-effect: non-scaling-stroke; fill: none; stroke: rgb(255, 161, 90); stroke-opacity: 1; stroke-width: 2px; opacity: 1;"/></g><g class="points"/><g class="text"/></g></g></g><g class="overplot"/><path class="xlines-above crisp" d="M0,0" style="fill: none;"/><path class="ylines-above crisp" d="M0,0" style="fill: none;"/><g class="overlines-above"/><g class="xaxislayer-above"><g class="xtick"><text text-anchor="middle" x="0" y="260" transform="translate(55,0)" style="font-family: 'Open Sans', verdana, arial, sans-serif; font-size: 12px; fill: rgb(42, 63, 95); fill-opacity: 1; white-space: pre;">2014</text></g><g class="xtick"><text text-anchor="middle" x="0" y="260" transform="translate(227.39,0)" style="font-family: 'Open Sans', verdana, arial, sans-serif; font-size: 12px; fill: rgb(42, 63, 95); fill-opacity: 1; white-space: pre;">2015</text></g><g class="xtick"><text text-anchor="middle" x="0" y="260" transform="translate(400.25,0)" style="font-family: 'Open Sans', verdana, arial, sans-serif; font-size: 12px; fill: rgb(42, 63, 95); fill-opacity: 1; white-space: pre;">2016</text></g><g class="xtick"><text text-anchor="middle" x="0" y="260" transform="translate(573.11,0)" style="font-family: 'Open Sans', verdana, arial, sans-serif; font-size: 12px; fill: rgb(42, 63, 95); fill-opacity: 1; white-space: pre;">2017</text></g></g><g class="yaxislayer-above"><g class="ytick"><text text-anchor="end" x="50" y="4.199999999999999" transform="translate(0,225.24)" style="font-family: 'Open Sans', verdana, arial, sans-serif; font-size: 12px; fill: rgb(42, 63, 95); fill-opacity: 1; white-space: pre;">35</text></g><g class="ytick"><text text-anchor="end" x="50" y="4.199999999999999" transform="translate(0,141.17000000000002)" style="font-family: 'Open Sans', verdana, arial, sans-serif; font-size: 12px; fill: rgb(42, 63, 95); fill-opacity: 1; white-space: pre;">40</text></g><g class="ytick"><text text-anchor="end" x="50" y="4.199999999999999" transform="translate(0,57.1)" style="font-family: 'Open Sans', verdana, arial, sans-serif; font-size: 12px; fill: rgb(42, 63, 95); fill-opacity: 1; white-space: pre;">45</text></g></g><g class="overaxes-above"/></g></g><g class="polarlayer"/><g class="ternarylayer"/><g class="geolayer"/><g class="funnelarealayer"/><g class="pielayer"/><g class="treemaplayer"/><g class="sunburstlayer"/><g class="glimages"/><defs id="topdefs-63e12b"><g class="clips"/><clipPath id="legend63e12b"><rect width="116" height="105" x="0" y="0"/></clipPath></defs><g class="layer-above"><g class="imagelayer"/><g class="shapelayer"/></g><g class="infolayer"><g class="legend" pointer-events="all" transform="translate(60.2, 27.180000000000003)"><rect class="bg" shape-rendering="crispEdges" width="116" height="105" x="0" y="0" style="stroke: rgb(68, 68, 68); stroke-opacity: 1; fill: rgb(255, 255, 255); fill-opacity: 1; stroke-width: 0px;"/><g class="scrollbox" transform="translate(0, 0)" clip-path="url('#legend63e12b')"><g class="groups"><g class="traces" transform="translate(0, 14.5)" style="opacity: 1;"><text class="legendtext user-select-none" text-anchor="start" x="40" y="4.680000000000001" style="font-family: 'Open Sans', verdana, arial, sans-serif; font-size: 12px; fill: rgb(42, 63, 95); fill-opacity: 1; white-space: pre;">Sem taxao</text><g class="layers" style="opacity: 1;"><g class="legendfill"/><g class="legendlines"><path class="js-line" d="M5,0h30" style="fill: none; stroke: rgb(99, 110, 250); stroke-opacity: 1; stroke-width: 2px;"/></g><g class="legendsymbols"><g class="legendpoints"/></g></g><rect class="legendtoggle" pointer-events="all" x="0" y="-9.5" width="110.359375" height="19" style="cursor: pointer; fill: rgb(0, 0, 0); fill-opacity: 0;"/></g><g class="traces" transform="translate(0, 33.5)" style="opacity: 1;"><text class="legendtext user-select-none" text-anchor="start" x="40" y="4.680000000000001" style="font-family: 'Open Sans', verdana, arial, sans-serif; font-size: 12px; fill: rgb(42, 63, 95); fill-opacity: 1; white-space: pre;">Taxa 1.05</text><g class="layers" style="opacity: 1;"><g class="legendfill"/><g class="legendlines"><path class="js-line" d="M5,0h30" style="fill: none; stroke: rgb(239, 85, 59); stroke-opacity: 1; stroke-width: 2px;"/></g><g class="legendsymbols"><g class="legendpoints"/></g></g><rect class="legendtoggle" pointer-events="all" x="0" y="-9.5" width="110.359375" height="19" style="cursor: pointer; fill: rgb(0, 0, 0); fill-opacity: 0;"/></g><g class="traces" transform="translate(0, 52.5)" style="opacity: 1;"><text class="legendtext user-select-none" text-anchor="start" x="40" y="4.680000000000001" style="font-family: 'Open Sans', verdana, arial, sans-serif; font-size: 12px; fill: rgb(42, 63, 95); fill-opacity: 1; white-space: pre;">Taxa 1.10</text><g class="layers" style="opacity: 1;"><g class="legendfill"/><g class="legendlines"><path class="js-line" d="M5,0h30" style="fill: none; stroke: rgb(0, 204, 150); stroke-opacity: 1; stroke-width: 2px;"/></g><g class="legendsymbols"><g class="legendpoints"/></g></g><rect class="legendtoggle" pointer-events="all" x="0" y="-9.5" width="110.359375" height="19" style="cursor: pointer; fill: rgb(0, 0, 0); fill-opacity: 0;"/></g><g class="traces" transform="translate(0, 71.5)" style="opacity: 1;"><text class="legendtext user-select-none" text-anchor="start" x="40" y="4.680000000000001" style="font-family: 'Open Sans', verdana, arial, sans-serif; font-size: 12px; fill: rgb(42, 63, 95); fill-opacity: 1; white-space: pre;">Taxa 1.15</text><g class="layers" style="opacity: 1;"><g class="legendfill"/><g class="legendlines"><path class="js-line" d="M5,0h30" style="fill: none; stroke: rgb(171, 99, 250); stroke-opacity: 1; stroke-width: 2px;"/></g><g class="legendsymbols"><g class="legendpoints"/></g></g><rect class="legendtoggle" pointer-events="all" x="0" y="-9.5" width="110.359375" height="19" style="cursor: pointer; fill: rgb(0, 0, 0); fill-opacity: 0;"/></g><g class="traces" transform="translate(0, 90.5)" style="opacity: 1;"><text class="legendtext user-select-none" text-anchor="start" x="40" y="4.680000000000001" style="font-family: 'Open Sans', verdana, arial, sans-serif; font-size: 12px; fill: rgb(42, 63, 95); fill-opacity: 1; white-space: pre;">Taxa 1.20</text><g class="layers" style="opacity: 1;"><g class="legendfill"/><g class="legendlines"><path class="js-line" d="M5,0h30" style="fill: none; stroke: rgb(255, 161, 90); stroke-opacity: 1; stroke-width: 2px;"/></g><g class="legendsymbols"><g class="legendpoints"/></g></g><rect class="legendtoggle" pointer-events="all" x="0" y="-9.5" width="110.359375" height="19" style="cursor: pointer; fill: rgb(0, 0, 0); fill-opacity: 0;"/></g></g></g><rect class="scrollbar" rx="20" ry="3" width="0" height="0" x="0" y="0" style="fill: rgb(128, 139, 164); fill-opacity: 1;"/></g><g class="g-gtitle"><text class="gtitle" x="30" y="12.5" text-anchor="start" dy="0em" style="font-family: 'Open Sans', verdana, arial, sans-serif; font-size: 17px; fill: rgb(42, 63, 95); opacity: 1; font-weight: normal; white-space: pre;">Quantidade media de carne consumida por agentes com idade entre 65 e 99 anos</text></g><g class="g-xtitle"><text class="xtitle" x="315" y="287.8" text-anchor="middle" style="font-family: 'Open Sans', verdana, arial, sans-serif; font-size: 14px; fill: rgb(42, 63, 95); opacity: 1; font-weight: normal; white-space: pre;">Tempo (dia)</text></g><g class="g-ytitle" transform="translate(1.1591796875,0)"><text class="ytitle" transform="rotate(-90,11.840625000000003,134)" x="11.840625000000003" y="134" text-anchor="middle" style="font-family: 'Open Sans', verdana, arial, sans-serif; font-size: 14px; fill: rgb(42, 63, 95); opacity: 1; font-weight: normal; white-space: pre;">Quantidade de carne(g)</text></g></g></svg>