<svg class="main-svg" xmlns="http://www.w3.org/2000/svg" xmlns:xlink="http://www.w3.org/1999/xlink" width="600" height="300" viewBox="0 0 600 300"><rect x="0" y="0" width="600" height="300" style="fill: rgb(255, 255, 255); fill-opacity: 1;"/><defs id="defs-66dc41"><g class="clips"><clipPath id="clip66dc41xyplot" class="plotclip"><rect width="517" height="218"/></clipPath><clipPath class="axesclip" id="clip66dc41x"><rect x="58" y="0" width="517" height="300"/></clipPath><clipPath class="axesclip" id="clip66dc41y"><rect x="0" y="25" width="600" height="218"/></clipPath><clipPath class="axesclip" id="clip66dc41xy"><rect x="58" y="25" width="517" height="218"/></clipPath></g><g class="gradients"/></defs><g class="bglayer"><rect class="bg" x="54" y="21" width="525" height="226" style="fill: rgb(229, 236, 246); fill-opacity: 1; stroke-width: 0;"/></g><g class="layer-below"><g class="imagelayer"/><g class="shapelayer"/></g><g class="cartesianlayer"><g class="subplot xy"><g class="layer-subplot"><g class="shapelayer"/><g class="imagelayer"/></g><g class="gridlayer"><g class="x"><path class="xgrid crisp" transform="translate(229.39,0)" d="M0,25v218" style="stroke: rgb(255, 255, 255); stroke-opacity: 1; stroke-width: 1px;"/><path class="xgrid crisp" transform="translate(401.25,0)" d="M0,25v218" style="stroke: rgb(255, 255, 255); stroke-opacity: 1; stroke-width: 1px;"/><path class="xgrid crisp" transform="translate(573.12,0)" d="M0,25v218" style="stroke: rgb(255, 255, 255); stroke-opacity: 1; stroke-width: 1px;"/></g><g class="y"><path class="ygrid crisp" transform="translate(0,200.56)" d="M58,0h517" style="stroke: rgb(255, 255, 255); stroke-opacity: 1; stroke-width: 1px;"/><path class="ygrid crisp" transform="translate(0,152.86)" d="M58,0h517" style="stroke: rgb(255, 255, 255); stroke-opacity: 1; stroke-width: 1px;"/><path class="ygrid crisp" transform="translate(0,105.16)" d="M58,0h517" style="stroke: rgb(255, 255, 255); stroke-opacity: 1; stroke-width: 1px;"/><path class="ygrid crisp" transform="translate(0,57.47)" d="M58,0h517" style="stroke: rgb(255, 255, 255); stroke-opacity: 1; stroke-width: 1px;"/></g></g><g class="zerolinelayer"/><path class="xlines-below"/><path class="ylines-below"/><g class="overlines-below"/><g class="xaxislayer-below"/><g class="yaxislayer-below"/><g class="overaxes-below"/><g class="plot" transform="translate(58, 25)" clip-path="url('#clip66dc41xyplot')"><g class="scatterlayer mlayer"><g class="trace scatter trace3471fb" style="stroke-miterlimit: 2; opacity: 1;"><g class="fills"/><g class="errorbars"/><g class="lines"><path class="js-line" d="M0,71.16L3.3,71.16L3.77,72.89L4.24,73.76L4.71,69.69L5.18,74.61L5.65,70.07L6.59,60.52L7.06,62.18L7.53,61.02L8,59.89L8.48,56.58L8.95,59.06L9.42,58.95L9.89,56.14L12.24,72.04L12.71,67.13L13.18,69.8L13.65,67.76L16.01,49.68L16.48,50.42L16.95,49.02L17.89,53.06L18.36,48.32L19.31,31.86L19.78,37.4L21.19,30.38L21.66,27.22L22.6,31.97L23.07,28.19L24.01,30.04L24.48,27.89L25.9,35.96L26.37,32.66L27.78,37.91L28.25,37.86L28.72,38.4L29.19,43.11L29.66,43.1L30.13,46.4L30.61,44.92L31.08,53.69L31.55,51.75L32.02,52.17L32.49,44.53L33.43,57.07L33.9,54.8L34.37,53.86L35.79,59.92L36.26,49.57L37.2,60.15L37.67,57.2L39.08,40.78L39.55,52.18L40.02,54.21L40.49,49.36L40.96,48.38L41.44,43.17L42.38,41.04L42.85,43.1L43.32,50.94L43.79,43.57L44.73,40.96L45.2,49.9L45.67,58.89L46.14,56.84L46.61,59.64L47.56,54.19L48.03,53.06L48.5,65.74L48.97,63.86L49.44,69.25L50.38,59.15L50.85,63.86L51.32,61.33L51.79,64.03L52.27,63.48L52.74,56.34L53.21,56.07L53.68,51.53L54.15,51.78L54.62,50.15L56.03,45.15L56.5,34.32L57.92,29.3L58.39,32.6L58.86,35.99L59.33,30.78L60.74,36.42L61.21,34.89L62.62,46.66L63.09,40.92L64.98,60.71L65.45,57.27L66.39,62.29L66.86,58.29L67.33,65.67L67.8,65.26L68.27,64.54L69.22,63.61L69.69,56.57L70.16,64.19L70.63,63.57L71.1,63.99L72.04,65.05L72.51,61.86L73.45,56.61L73.92,59.37L74.4,46.49L74.87,48.28L75.34,44.27L75.81,43.37L76.28,43.95L76.75,45.56L77.22,46.38L77.69,44.54L78.16,45.38L78.63,40.37L79.1,41.01L79.57,45.49L80.05,46.18L80.52,51.62L80.99,51.42L81.46,56.94L81.93,54.5L82.4,61.82L82.87,66.81L83.34,61.12L83.81,61.1L84.28,55.85L84.75,56.34L85.22,61.48L86.64,69.72L87.11,68.49L87.58,65L88.99,71.35L89.46,66.93L89.93,57.92L90.4,65.83L90.88,64.22L91.35,69.83L91.82,69.78L92.29,63.62L92.76,63.72L93.23,56.12L93.7,54.86L94.17,51.08L96.05,38.85L96.53,51.39L97,59.83L97.47,57.82L97.94,60.09L98.41,60.28L98.88,61.97L99.35,61.73L99.82,60.23L101.23,65.47L101.7,65L102.65,69.97L103.12,66.43L104.06,55.3L104.53,59.28L105,64.31L105.47,60.17L106.88,57.55L107.36,57.01L108.3,53.8L108.77,57.54L109.71,54.13L110.18,61.58L112.06,48.06L112.53,48.34L113.01,48.1L113.48,51.17L114.42,64.97L114.89,56.12L115.36,54.57L115.83,57.36L116.3,62.68L116.77,62.58L117.24,57.13L117.71,63.18L118.18,61L118.66,63.48L119.13,61.81L119.6,64.36L120.07,62L120.54,62.58L121.01,56.37L121.48,42.78L121.95,46.34L122.42,49.53L122.89,50.26L123.36,44.51L123.84,45.26L124.31,50.74L124.78,48.96L125.25,50.36L125.72,48.61L126.19,51.47L126.66,50.2L127.13,50.53L127.6,41.69L129.01,60.89L129.49,60.11L129.96,52.69L130.43,55.98L130.9,56.07L132.31,39.76L132.78,38.88L133.25,38.77L133.72,41.15L134.66,48.3L135.14,41.58L135.61,31.66L136.08,37.83L136.55,38.55L137.02,40.94L137.96,40.6L138.43,44.89L139.84,49.49L140.32,45.21L141.26,34.72L141.73,42.39L142.67,43.06L143.14,39.44L143.61,38.83L144.08,35.21L145.02,36.43L145.49,33.66L145.97,34.64L146.44,38.72L147.38,45.47L147.85,53.08L148.32,53.26L148.79,48.29L149.73,56.75L150.2,55.07L151.14,58.17L151.62,53.34L152.09,46.53L152.56,48.63L153.03,50.16L154.91,28.42L155.38,30.63L155.85,32.5L156.32,30.85L156.8,27.18L157.27,31.68L158.21,35.74L158.68,42.07L159.62,49.51L160.09,46.76L161.03,59.37L161.5,58.54L161.97,58.82L162.45,61.37L162.92,62.94L163.39,58.85L164.33,66.33L164.8,60.13L165.27,60.02L165.74,54.8L166.21,57.15L166.68,52.45L167.15,55.93L167.62,53.11L169.51,66.7L169.98,57.97L170.92,60.9L171.39,54.44L171.86,54.93L172.33,60.76L172.8,60.75L173.28,55.82L173.75,56.4L174.22,54.46L175.16,52.22L175.63,54.09L176.57,47.56L177.04,51.91L177.51,53.16L177.98,49.3L178.45,48.7L178.93,55.94L179.87,48.45L180.34,57.25L180.81,62.46L181.28,59.72L181.75,49.85L182.22,50.48L182.69,47.29L183.63,40.97L184.1,42.78L184.58,40.85L185.05,46.78L186.46,42.33L186.93,44.3L187.87,38.34L188.34,37.24L189.28,43.75L189.76,42.01L190.23,45.79L190.7,44.08L191.17,40.04L191.64,38.54L192.11,33.2L192.58,34.34L193.05,29.2L193.52,31.33L193.99,28.93L194.46,30.88L194.93,23.38L195.88,32.29L196.35,28.89L198.7,40.64L199.17,40.72L199.64,41.64L200.11,40.87L201.06,53.52L201.53,46.89L202,54.81L202.47,48.6L203.41,51.83L203.88,50.09L204.82,45.54L205.29,50.28L206.23,55.09L206.71,62.61L207.18,69.18L207.65,62.05L209.06,50.72L209.53,58.53L210,57.74L210.47,61.21L210.94,63.4L211.41,59.63L213.77,39.67L214.24,39.98L214.71,44.27L215.18,42.38L215.65,46.93L216.12,49.77L216.59,43.13L218.01,33.94L218.48,43.8L219.89,60.9L220.36,57.03L220.83,59.99L221.3,57.56L222.24,53.96L222.71,55.71L224.13,64.21L224.6,61.62L225.07,60.42L225.54,51.69L226.01,50.14L226.48,53.87L226.95,48.87L227.42,52.61L227.89,49.86L228.37,42.29L229.31,46.17L229.78,39L231.19,32.22L231.66,40.74L233.07,40.71L233.54,28.46L234.96,25.45L235.43,33.47L236.37,37.87L236.84,46.22L237.31,46.1L237.78,51.58L238.72,42.89L239.19,45.75L240.14,47.28L240.61,61.64L242.02,71.6L242.49,59.76L243.9,49.21L244.37,54L244.85,53.63L245.32,57.92L245.79,52.53L246.26,54.41L246.73,57.46L247.2,61.17L247.67,56.52L249.08,49.41L249.55,58.31L250.02,58.49L250.5,57.87L251.91,45.98L252.38,46.27L252.85,53.46L253.32,53.78L253.79,56.73L254.73,45.65L255.2,46.72L255.67,43.06L256.62,41.86L257.09,46.21L257.56,47.6L258.03,45.44L258.5,44.74L258.97,48.8L259.91,43.99L260.38,49.1L261.33,44.98L261.8,52.3L262.74,39.84L263.21,40.7L263.68,40.91L264.15,39.86L264.62,43.56L265.09,50.84L265.56,49.88L266.03,42.93L266.5,41.03L266.98,42.86L267.92,27.99L268.39,30.07L268.86,24.22L269.33,30.39L269.8,38.89L270.27,35.77L270.74,34.07L272.15,29.4L272.63,32.52L273.57,30.2L274.04,31.16L275.92,39.77L276.39,41.94L276.86,39.51L277.33,42.93L277.81,42.74L278.28,43.73L278.75,41.11L279.22,43.15L279.69,44.14L280.16,48.81L281.57,57.08L282.04,52L282.51,49.86L282.98,56.19L283.46,51.05L283.93,52.74L284.4,53.87L285.81,62.68L286.28,57.12L287.22,60.49L287.69,58.6L288.16,55.63L288.63,56.37L289.11,57.81L289.58,57.1L290.05,48.11L291.46,53.78L291.93,53.24L292.87,42.24L293.34,51.47L293.81,48.43L294.29,53.08L294.76,59.13L295.23,57.89L295.7,52.74L297.11,59.46L297.58,52.58L298.05,47.19L298.52,47.4L298.99,48.16L299.46,48.67L299.94,48.14L300.41,45.24L300.88,43.83L301.35,39.83L301.82,39.22L302.29,36.21L303.23,48.77L303.7,45.09L305.59,65.43L306.06,63.63L307.47,58.17L307.94,59.37L309.35,50.77L309.82,51.07L310.77,49.36L311.24,39.37L312.65,32.21L313.12,32.19L314.53,44.21L315,39.45L316.42,49.95L316.89,42.94L317.83,50.92L318.3,63.01L318.77,66.3L319.24,63.75L319.71,64.53L320.18,67.19L320.65,68.28L321.12,66.64L322.07,66.81L322.54,66.09L323.48,57.87L323.95,56.33L324.42,58.39L324.89,56.72L325.36,45.77L325.83,46.56L326.3,48.06L327.24,45.97L327.72,46.9L329.13,58.75L329.6,54.84L330.54,66L331.01,61.71L331.48,60.29L331.95,63.59L332.42,68.73L332.9,65.99L333.37,63.35L333.84,62.81L334.31,65.5L334.78,65.77L335.25,62.98L336.66,53.93L337.13,53.35L338.07,59.49L338.55,55.45L339.49,49.86L339.96,56.91L340.9,64.76L341.37,59.34L341.84,61.82L342.31,58.05L343.25,50.13L343.72,52.51L344.67,47.12L345.14,52.32L345.61,52.5L346.08,50.72L346.55,50.23L347.02,42.31L347.96,34.64L348.43,34.17L348.9,34.05L349.38,35.93L350.32,49.02L350.79,40.19L351.26,48.59L351.73,46.16L352.2,43.31L352.67,43.21L353.14,50.9L355.97,64.25L356.44,57.11L356.91,57.26L357.38,47.58L357.85,57.06L358.32,53.31L358.79,57.17L359.26,59.39L359.73,56.86L360.2,59.84L360.68,55.76L361.15,57.29L361.62,56.09L362.09,51.89L362.56,39.25L363.03,29.72L363.5,33.22L363.97,28.45L364.44,39.98L364.91,38.28L365.38,34.18L365.86,35.07L366.33,31.81L366.8,29.36L367.27,20.57L368.21,14.88L368.68,18.08L371.51,48.55L371.98,47.98L372.45,49.36L372.92,46.79L373.39,47.97L373.86,56.67L374.8,70.51L375.27,69.27L375.74,69.18L377.16,83.32L377.63,75.78L378.1,69.47L378.57,71.31L379.04,71.03L379.98,74.92L380.45,70.84L381.39,61.86L381.86,65.86L382.34,67.01L382.81,64.06L383.75,63.32L384.22,58.57L385.16,68.04L385.63,58.47L387.04,55.33L387.51,59.09L390.81,38.29L391.28,46.1L392.22,31.98L392.69,37.74L393.16,40.33L393.64,35.28L394.11,38.81L394.58,36.09L395.05,38.15L395.52,45.95L396.93,54.85L397.4,54.61L397.87,50.8L398.34,45.82L398.82,47.7L399.29,47.42L400.7,37.62L401.17,36.37L401.64,37.77L402.11,36.58L403.52,21.24L403.99,25.61L405.41,19.55L405.88,26.07L406.35,33.02L406.82,31.51L407.29,32.92L408.7,44.05L409.17,43.31L410.12,50.72L410.59,50.44L411.06,49.94L411.53,46.45L412,47.02L412.47,46.49L412.94,42.13L413.41,36.13L413.88,43.18L414.35,41.91L414.82,42.79L415.3,41.84L416.24,48.29L416.71,43.65L417.18,40.5L417.65,45.58L418.12,44.29L418.59,46.52L419.06,45.23L419.53,50.02L420.95,43.47L421.42,43.5L422.83,36.56L423.3,36.88L423.77,35.97L424.24,38.61L424.71,37.84L425.18,39.29L426.12,42.31L426.6,39.81L427.07,40.07L427.54,45.3L428.95,54.46L429.42,48.18L429.89,47.38L430.36,47.89L430.83,47.97L431.3,49.55L431.78,46.85L432.25,46.44L432.72,47.03L433.19,43.9L433.66,47.29L434.13,50.24L434.6,44.83L435.54,31.88L436.01,37.55L436.95,41.16L437.43,37.48L437.9,41.84L438.37,34.76L438.84,34.65L439.31,32.71L439.78,31.73L440.25,34.48L440.72,31.9L441.19,35.3L442.6,44.42L443.08,44.45L444.49,65.17L444.96,59.41L446.84,73.41L447.31,67.88L448.73,80.73L449.2,80.58L449.67,80.59L450.14,77.18L451.55,55.06L452.02,59.1L452.49,58.95L452.96,60.03L453.91,53.35L454.38,62.33L456.26,51.69L456.73,56.51L458.14,61.25L458.61,69.09L459.08,71.1L459.56,68.88L460.5,72.35L460.97,69.06L461.44,69.42L461.91,64.04L462.38,64.34L462.85,69.73L464.73,62.38L465.21,56.53L466.15,52.2L466.62,52.71L467.09,47.82L467.56,49.19L468.03,46.07L468.5,38.13L468.97,40.07L469.44,42.19L470.39,37.17L470.86,38.55L471.33,39.62L471.8,34.03L472.27,44.81L473.21,41.56L473.68,43.19L474.15,46.89L474.62,42.95L475.56,49.42L476.04,48.74L476.51,51.46L476.98,46.65L477.92,49.94L478.39,44.93L478.86,50.69L479.33,49.12L479.8,51.41L480.27,50.1L480.74,41.08L481.21,40.68L481.69,41.6L482.16,38.17L482.63,41.28L483.57,34.25L484.04,42.18L485.45,47.21L485.92,46.67L486.39,43.94L486.87,36.38L487.34,38.08L487.81,45.58L488.28,45.55L488.75,49.01L489.69,47.1L490.16,53.97L490.63,58.02L491.1,52.12L492.04,48.66L492.52,53.01L492.99,55.6L493.46,53.44L494.4,57.61L494.87,55.62L495.81,51.23L496.28,53.94L496.75,54.48L497.22,50.32L497.69,44.09L498.17,46.63L498.64,51.06L499.11,54.42L499.58,49.76L500.52,52.37L500.99,57.56L501.46,57.4L501.93,59.24L504.76,76.26L505.23,70.47L505.7,71.41L506.17,62.71L507.11,65.68L507.58,65.11L508.05,58.22L508.52,58.36L509,65.44L509.47,65.64L509.94,67.05L510.41,62.62L510.88,48.14L511.35,55.63L511.82,51.12L512.29,57.74L512.76,53.04L513.23,56.78L513.7,54.32L517,54.32" style="vector-effect: non-scaling-stroke; fill: none; stroke: rgb(99, 110, 250); stroke-opacity: 1; stroke-width: 2px; opacity: 1;"/></g><g class="points"/><g class="text"/></g><g class="trace scatter trace324ecb" style="stroke-miterlimit: 2; opacity: 1;"><g class="fills"/><g class="errorbars"/><g class="lines"><path class="js-line" d="M0,75.31L3.3,75.31L3.77,81.92L4.24,79.21L4.71,79.58L5.18,80.38L5.65,78.4L6.12,79.77L6.59,80.56L7.06,78.71L8,75.17L8.48,81.94L9.89,81.01L10.36,77.36L11.77,68.47L12.24,70.85L13.18,73.64L13.65,70.19L15.07,80.61L15.54,82.22L16.01,80.46L16.48,82.95L16.95,82.68L17.42,84.2L17.89,84.39L18.36,88.89L19.31,91.99L19.78,89.43L20.25,88.49L20.72,89.49L22.13,80.99L22.6,81.94L23.07,85.21L23.54,82.44L24.48,82.86L24.96,80.21L25.43,76.64L25.9,78.61L26.37,67.38L27.31,70.6L27.78,65.17L29.66,80.04L30.13,78.19L30.61,79.64L31.08,78.13L31.55,73.98L32.02,78.02L32.49,76.51L32.96,69.42L34.84,82.39L35.31,78.97L37.2,66.24L37.67,57.97L38.14,58.55L38.61,61.58L39.08,57.82L39.55,62.31L40.49,70.7L40.96,69.14L41.44,63.86L41.91,64.01L42.38,67.79L43.79,56.06L44.26,60.46L45.2,75.95L45.67,78.55L46.14,80.12L46.61,79.3L47.09,79L47.56,75.7L48.03,83.27L48.5,80.56L48.97,83.75L49.44,82.29L49.91,93.36L50.38,99.77L50.85,97.85L51.32,99.94L52.74,83.17L53.21,85.76L54.62,76.41L55.09,66.54L55.56,73.93L56.03,73.47L56.5,76.31L57.92,63.89L58.39,63.01L58.86,63.34L59.33,69.1L60.27,63.01L60.74,66.49L61.68,67.7L62.15,72.53L63.57,54.62L64.04,51.44L64.51,49.33L64.98,51.93L65.45,46.16L65.92,50.22L67.33,49.15L67.8,44.34L69.69,67.08L70.16,65.2L70.63,60.23L71.1,66.55L72.51,82.99L72.98,73.08L73.45,69.7L73.92,74.92L74.4,77.41L74.87,75.5L75.81,69.43L76.28,73.46L77.69,76.23L78.16,75.33L79.1,65.54L79.57,66.32L80.05,76.05L80.52,82.13L80.99,81.73L81.46,77.36L81.93,83.4L82.4,75.89L82.87,75.38L83.34,67.51L84.28,62.47L84.75,67.18L85.22,69.11L85.7,68.24L86.17,69.28L86.64,70.07L87.11,67.87L88.52,53.24L88.99,52.1L89.46,58.6L89.93,55.38L90.4,53.42L90.88,51.39L91.35,53.66L91.82,53.57L92.29,44.26L93.23,50.81L93.7,42.81L94.17,41.12L94.64,44.66L95.58,55.28L96.05,48L96.53,47.55L97,48.98L97.94,62.1L98.41,59.65L98.88,60.34L99.35,67.49L100.29,57.83L100.76,62.86L101.23,61.4L101.7,62.9L102.65,54.09L103.12,64.58L104.06,66.5L104.53,65.26L105,57.54L105.47,62.18L105.94,56.29L106.41,59.09L106.88,56.98L107.36,61.46L107.83,58.9L108.3,57.7L109.24,55.87L109.71,61.91L111.12,53.64L111.59,54.09L112.06,57.48L112.53,52.49L113.01,56.96L114.89,45.09L115.36,48.49L115.83,49.98L116.3,48.47L117.71,38.39L118.18,45.39L118.66,41.6L119.13,42.25L119.6,48.54L120.54,48.93L121.01,56.95L121.48,62.15L121.95,61.37L122.42,60.98L123.36,58.04L123.84,65.63L124.31,70.34L124.78,67.11L125.72,61.52L126.19,63.94L127.13,55.04L127.6,58.57L128.07,53L128.54,58.76L129.49,68.83L129.96,66.65L130.43,73.08L130.9,69.03L131.37,62.28L131.84,66.42L132.31,66.31L132.78,71.68L133.25,70.06L133.72,75.45L135.14,84.96L135.61,78L137.49,63.44L137.96,65.85L138.9,74.73L139.37,69.46L139.84,70.69L140.32,67.64L140.79,64.94L141.26,69.51L141.73,71.83L142.2,65.62L143.61,71.54L144.08,79.33L145.97,70.47L146.44,76.66L146.91,70.82L147.38,71.79L147.85,74.71L148.79,66.85L149.26,71.21L149.73,71L150.2,72.86L152.09,62.73L152.56,64.12L153.5,68.85L153.97,69.66L154.44,77.28L154.91,71.54L157.27,56.44L157.74,59.4L159.15,71.36L159.62,71.93L161.97,57.76L162.45,57.7L163.86,66.48L164.33,68.95L165.74,51.54L166.21,42.99L167.15,46.06L167.62,53.76L168.1,56.6L168.57,50.03L169.51,45.34L169.98,45.14L171.39,48.95L171.86,54.03L173.75,75.29L174.22,74.65L174.69,67.88L176.57,77.29L177.04,76.29L177.98,78.24L178.45,72.34L179.4,64.29L179.87,70.04L180.81,57.56L181.28,57.69L181.75,61.81L184.1,81.54L184.58,80.58L185.05,77.83L185.52,83.63L185.99,83.1L186.46,85.52L186.93,78.78L187.4,86.2L188.34,89.82L188.81,86.36L189.28,78.45L189.76,80.92L190.23,75.3L190.7,79.36L191.17,73.56L193.05,55.48L193.52,46.33L194.46,37.36L194.93,33.06L195.41,28.97L195.88,32.93L196.35,36.64L196.82,33.14L197.29,42.54L197.76,39.27L198.23,35.46L200.58,54.58L201.06,63.13L202,69.3L202.47,68.84L202.94,67.63L203.41,63.57L203.88,64.49L204.35,59.15L204.82,57.92L205.29,59.66L206.23,61.35L206.71,55.65L207.18,57.08L207.65,55.72L208.59,50.13L209.06,55.22L209.53,54.32L210,61.57L210.47,60.08L210.94,61.38L211.41,58.87L211.89,62.96L212.83,59.07L213.3,49.6L214.71,62.39L215.18,60.98L215.65,63.12L216.12,55.25L216.59,52.53L217.06,43.66L217.54,48.82L218.01,46.36L218.48,46.46L218.95,39.57L219.42,41.48L219.89,43.85L220.83,51.42L221.3,51.3L224.13,64.48L224.6,64.22L225.07,61.39L226.01,61.58L226.48,57.17L227.42,50.53L227.89,50.75L228.37,51.57L229.31,54.25L229.78,49.55L230.25,50.31L230.72,52.7L231.19,45.42L231.66,47.17L232.13,48.95L232.6,44.93L233.07,56.97L233.54,68.59L234.02,66.42L234.49,72.74L234.96,73.93L235.43,71.57L236.37,64.87L236.84,65.46L237.31,65.24L237.78,61.76L238.25,68.7L238.72,64.26L239.67,73.78L240.14,66.57L240.61,57.6L241.08,61.98L241.55,58.67L242.02,45.74L242.49,47.3L242.96,53.08L243.43,52.71L243.9,56.84L244.37,50.63L244.85,53.81L245.32,56.27L245.79,56.39L246.26,54.59L247.2,49.09L247.67,54.48L248.61,48.18L249.08,58.41L249.55,56.54L250.02,51.05L251.91,61.98L252.38,53.98L252.85,56.14L253.32,53.65L253.79,57.64L254.26,54.77L256.62,45.26L257.09,49.23L258.5,42.51L258.97,39.85L259.44,44.52L259.91,41L260.85,50.85L261.33,45.14L262.27,34.6L262.74,35.47L263.68,41.33L264.15,36.74L264.62,38.34L265.09,35.89L266.03,37.72L266.5,34.75L266.98,36.32L267.45,27.75L267.92,28.7L268.39,36.02L269.33,40.46L269.8,39.3L270.27,38.86L270.74,36.18L271.21,35.62L271.68,28.34L272.15,28.69L272.63,34.5L273.1,30.58L273.57,39.68L274.98,29.45L275.45,37.19L276.86,43.56L277.33,44.01L277.81,47.58L278.28,45.01L279.22,53.14L279.69,47.98L281.1,59.8L281.57,57.39L282.04,65.02L282.51,63.45L282.98,58.67L283.46,60.28L283.93,58.48L284.87,64.39L285.34,69.74L285.81,73L286.28,72.31L286.75,69.1L288.16,59.6L288.63,65.03L289.58,57.94L290.05,58.89L290.52,61.94L290.99,65.53L291.46,61.22L293.34,46.4L293.81,50.7L294.29,53.88L294.76,47.53L295.23,48.78L295.7,44.09L296.64,40.27L297.11,44.49L297.58,47.94L298.05,41.98L298.99,34.2L299.46,37.51L300.88,32.36L301.35,31.44L301.82,30.04L302.29,30.66L302.76,31.11L303.23,29.91L303.7,36.34L304.64,32.53L305.11,36.85L306.53,55.63L307,57.28L308.88,69.45L309.35,71.09L310.29,82.66L310.77,78.42L311.71,80.58L312.18,78.69L313.12,69.23L313.59,69.24L314.53,61.94L315,62.87L315.47,60.53L315.94,51.46L318.77,10.9L319.24,12.47L320.18,18.26L320.65,12.35L321.12,20.61L321.59,19.39L322.07,17.77L323.48,33.28L323.95,42.44L324.42,42.79L324.89,36.31L326.3,45.16L326.77,39.85L327.24,37.63L327.72,40.07L328.19,35.96L328.66,38.53L329.13,39.93L329.6,35.15L330.07,37.38L330.54,32L331.48,16.99L331.95,23.49L332.42,26.41L332.9,23.73L333.37,30.21L333.84,29.87L334.31,32.69L335.25,29.63L335.72,23.63L336.19,26.84L336.66,38.45L337.13,43.09L337.6,40.27L338.55,55.09L339.02,50.42L339.49,46.52L339.96,49.58L340.43,45.69L340.9,49.29L341.84,40.99L342.31,50.82L342.78,56.07L343.25,52.45L344.2,39.42L344.67,40.73L345.14,45.67L345.61,36.11L346.08,45.62L346.55,42.21L347.02,45.3L347.96,49.22L348.43,48.09L348.9,53.79L349.38,45.3L350.32,36.74L350.79,42L352.67,45.26L353.14,38.52L353.61,48.35L354.08,45.82L354.55,45.03L355.03,41.79L355.5,48.64L356.44,41.76L356.91,47.23L357.38,52.32L357.85,48.98L358.32,44.29L358.79,46.32L359.26,46.37L360.2,58.78L360.68,53.53L361.15,56.96L361.62,52.26L362.09,56.6L362.56,53.59L363.97,62.71L364.44,56.33L364.91,55.84L365.38,60.5L366.33,61.7L366.8,58.16L367.27,50.64L367.74,52.82L368.21,50.03L368.68,49.72L369.15,43.53L371.51,54.55L371.98,54.02L372.45,51.73L372.92,52.27L373.39,52.71L374.33,58.63L374.8,53.8L375.27,54.26L375.74,58.68L376.68,65.28L377.16,64.44L377.63,62.03L378.1,58.57L378.57,61.84L379.51,72.31L379.98,70.54L380.45,65.85L380.92,62.87L381.39,64.38L381.86,71.55L384.22,59.79L384.69,65.81L386.57,56.3L387.04,59.87L388.46,68.51L388.93,69.93L389.4,74.1L389.87,69.97L390.81,72.04L391.28,68.87L391.75,67.55L392.22,74.64L392.69,73.38L393.16,74.06L393.64,76.33L395.05,70.2L395.52,73.13L395.99,68.44L396.46,69.84L396.93,73.89L397.4,69.13L397.87,74.13L398.34,82.1L398.82,81.91L399.29,77.31L399.76,77.75L400.23,72.81L401.17,63.01L401.64,67.65L402.11,71.02L402.58,67.59L403.05,70.84L403.52,61.66L404.47,72.61L404.94,70.85L405.41,69.42L405.88,64.82L406.35,69.56L406.82,70.04L407.29,66.8L408.23,77.83L408.7,73.52L409.64,79.05L410.12,73.9L410.59,76.82L411.06,75.85L411.53,67.33L412,66.46L412.47,57.12L412.94,59.08L413.41,56.22L413.88,55.34L414.35,60.94L415.77,55.46L416.24,56.68L416.71,54.16L417.18,62.41L418.12,55.49L418.59,64.89L419.06,64.54L419.53,74.27L420,78.11L420.47,71.99L421.42,72.34L421.89,73L423.77,85.9L424.24,84.87L425.18,101.61L425.65,96.09L426.12,100.16L426.6,93.18L427.07,87.55L427.54,94.91L428.48,104.26L428.95,102.38L429.42,105.64L429.89,104.96L430.36,95.06L430.83,93.79L431.3,85.07L432.25,74.19L432.72,81.05L433.66,72.14L434.13,75.79L435.07,68.75L435.54,71.81L436.01,74.14L436.48,73.18L436.95,73.2L437.9,74.87L438.37,79.42L438.84,85.94L439.31,81.9L439.78,77.51L440.25,86.23L440.72,91.7L441.19,89.77L441.66,93.53L442.13,98.69L442.6,98.36L443.08,99.31L444.02,94.56L444.49,97.47L446.84,114.76L447.31,105.22L447.78,106.69L448.26,111.41L449.2,106.77L449.67,96L450.14,91.56L450.61,92.99L451.08,91.29L451.55,92.6L452.02,89.46L452.49,82.79L452.96,84.3L453.43,84.88L453.91,80.54L454.38,83.91L454.85,83.22L455.32,80.41L455.79,84.86L456.26,80.13L457.2,84.99L457.67,84.81L458.14,83.5L458.61,82.97L459.08,79.79L459.56,82.05L460.03,77.66L460.5,77.14L460.97,83.15L461.44,82.92L461.91,86.1L462.38,88.66L462.85,86.1L463.32,86.55L463.79,83.31L464.26,81.47L464.73,84.21L466.15,97.28L466.62,95.65L467.09,98.27L467.56,97.62L468.03,96.54L468.97,88.7L469.44,88.83L469.91,87.99L471.8,113.55L472.27,111.83L473.68,105.85L474.15,108.94L474.62,110.67L475.09,109.48L476.04,122.56L476.51,123.71L476.98,124.33L477.45,118.43L478.39,109.84L478.86,104.09L479.33,100.78L479.8,103.39L480.27,109.06L480.74,108.79L481.21,109.06L481.69,106.35L482.16,110L483.57,95.89L484.04,101.92L484.98,102.55L485.45,106.47L486.39,106.71L486.87,105.66L488.28,87.66L488.75,88.68L489.22,84L489.69,85.18L490.16,85.19L490.63,87.17L491.1,83.4L491.57,86.28L492.04,83.25L492.52,83.14L492.99,79.74L493.93,75.29L494.4,79.48L496.28,92.62L496.75,87.12L497.69,90.95L498.17,89.85L498.64,94.86L499.11,94.81L499.58,94.98L500.52,101.21L500.99,95.34L501.46,95.19L501.93,92.3L502.4,99.24L502.87,90.84L503.35,86.45L503.82,96.05L504.29,95.02L504.76,98.31L505.23,101.71L505.7,91.92L506.64,98.35L507.11,94.3L508.05,103.99L508.52,102.47L509,99.88L509.47,94.44L509.94,96.81L510.41,93.74L510.88,90.52L511.35,92.61L512.29,84.42L512.76,89.4L513.23,90.14L513.7,81.23L517,81.23" style="vector-effect: non-scaling-stroke; fill: none; stroke: rgb(239, 85, 59); stroke-opacity: 1; stroke-width: 2px; opacity: 1;"/></g><g class="points"/><g class="text"/></g><g class="trace scatter tracee8598a" style="stroke-miterlimit: 2; opacity: 1;"><g class="fills"/><g class="errorbars"/><g class="lines"><path class="js-line" d="M0,87.91L3.3,87.91L3.77,82.21L4.71,90.23L5.18,95.67L6.12,94.35L6.59,102.89L7.06,105.52L7.53,103.2L8,105.09L8.48,102.13L9.42,114.55L9.89,111.53L10.83,116.13L11.3,113.06L11.77,108.05L12.24,110.38L12.71,109.06L13.18,111.96L13.65,108.41L15.07,103.17L15.54,105.41L16.48,99.5L16.95,107.96L17.89,105.24L18.36,103.21L19.31,99.34L19.78,106.08L21.19,93.9L21.66,91.41L22.13,98.36L22.6,97.19L23.07,90.61L23.54,91.23L24.01,83.43L24.48,83.17L24.96,84.28L25.43,85.82L25.9,91.09L26.37,90.35L26.84,84.51L28.72,97.01L29.19,93.87L31.08,110.23L31.55,106.56L32.49,109.65L32.96,105.4L33.43,103.02L33.9,108.06L34.84,112.63L35.31,103.22L35.79,102.08L36.26,98.19L36.73,91.62L37.2,92.52L37.67,92.07L38.14,93.37L38.61,99.52L40.02,109.09L40.49,102.76L41.91,90.3L42.38,95.59L42.85,93.39L43.32,93.99L43.79,96.39L44.26,95.05L44.73,88.74L45.2,91.98L45.67,84.93L46.14,82.39L46.61,74.25L47.09,72.72L47.56,78.74L48.97,89.31L49.44,87.64L51.79,107.36L52.27,97.16L52.74,107.04L53.21,103.63L53.68,110.98L55.09,114.15L55.56,109.09L56.5,113.83L56.97,112.68L57.44,109.51L58.39,105.68L58.86,101.46L59.33,105.87L59.8,99.72L60.27,102.44L60.74,101.97L61.21,101.51L62.15,90.26L62.62,95.17L63.09,92.04L63.57,94.29L64.51,92.28L64.98,93.64L65.45,94.99L65.92,93.08L66.39,97.16L66.86,96.5L67.33,92.91L67.8,89.82L68.27,91.77L69.22,104.34L69.69,100.22L70.16,103.37L70.63,95.79L71.57,96.28L72.04,95L72.98,100.25L73.45,95.65L73.92,93.21L74.4,93.89L74.87,94.68L75.34,97.56L75.81,97.3L76.28,86.68L76.75,89.87L77.22,82.26L78.16,89.72L78.63,89.01L79.1,89.28L79.57,87.14L80.52,87.99L80.99,91.36L81.93,99.6L82.4,92.14L82.87,94.36L83.34,102.76L83.81,99.92L84.28,108.1L84.75,100.09L85.22,101.32L85.7,104.53L86.17,106.49L86.64,104.38L87.11,112.08L87.58,109.92L88.05,111.88L88.99,94.98L89.46,98.45L89.93,92.58L90.4,87.78L90.88,92.5L91.35,88.12L91.82,95.42L92.76,97.65L93.23,92.84L93.7,98.03L94.17,88.7L94.64,88.04L95.11,85.78L95.58,87.27L96.05,94.22L96.53,90.72L97,99.89L98.88,87.04L99.35,84.03L99.82,83.91L100.29,75.8L100.76,67.45L101.23,72.82L103.12,64.83L103.59,69.54L104.06,60.26L104.53,66.07L105,64.19L105.47,71.27L105.94,73.37L106.41,72.17L106.88,71.65L107.83,86.12L108.3,81.25L108.77,85.6L109.24,85.18L109.71,85.52L110.18,87.76L110.65,84.23L111.12,91.27L111.59,88.11L112.06,87.26L112.53,78.72L113.01,81.54L113.48,81.8L113.95,81.74L114.42,80.69L114.89,82.09L115.36,75.92L115.83,70.67L116.3,72.46L116.77,70.42L117.71,76.86L118.18,72.41L119.6,83.24L120.07,80.38L121.01,77.33L121.48,80.97L121.95,78.15L122.42,85.89L122.89,94.1L123.36,90.81L123.84,94.46L124.78,86.28L125.25,88.59L125.72,87.59L126.19,92.24L126.66,91.12L127.13,96.78L127.6,103.62L128.07,102.39L128.54,93.52L129.01,95.34L129.49,93.76L129.96,90.78L130.43,93.26L130.9,89.15L131.37,92.76L131.84,93.01L132.31,94.66L132.78,92.63L133.25,85.71L135.14,73.61L135.61,79.29L137.49,71.87L137.96,74.89L138.43,73.85L138.9,76.84L139.37,72.48L139.84,72.86L140.32,71.43L140.79,69.72L141.26,71.9L141.73,73.63L142.2,80.07L142.67,70.9L143.14,73.17L143.61,78.94L144.55,84.14L145.02,80.28L146.44,85.64L146.91,87.2L147.38,89.81L147.85,96.73L148.32,98.44L148.79,91.41L149.26,92.58L149.73,101.6L151.62,88.04L152.09,89.64L153.5,77.64L153.97,78.6L154.91,83.78L155.38,82.01L155.85,81.75L156.32,78.26L156.8,79.5L157.27,85.15L157.74,84.79L158.21,87.48L161.03,111.45L161.5,108.08L161.97,105.63L162.45,108.37L162.92,113.63L163.39,112.69L163.86,113.16L165.27,115.86L165.74,110.76L166.68,117.2L167.15,113.63L169.04,101.48L169.51,96.91L169.98,93.5L170.45,95.69L170.92,91.52L171.39,93.86L171.86,97.04L172.33,91.91L172.8,96.55L173.75,83.31L174.22,85.65L174.69,85.88L175.16,85.06L175.63,89.97L176.1,88.62L176.57,89.72L177.04,90.9L177.51,84.79L177.98,87.24L178.45,86.72L178.93,82.42L179.4,80.68L179.87,82.28L180.34,85.79L180.81,82.09L181.75,77.6L182.22,80.56L182.69,79.19L183.16,82.4L185.05,87.56L185.52,84.23L186.46,86.95L186.93,85L187.4,84.01L187.87,90.99L188.34,90.88L188.81,92.58L189.28,86.21L189.76,87.12L190.23,86.15L191.64,77.22L192.11,75.18L192.58,78.2L193.05,75.38L193.52,75.85L193.99,68.81L194.46,70.21L194.93,66.47L195.41,65.37L195.88,60.05L198.7,68.17L199.17,63.8L199.64,63.36L200.11,67.19L200.58,63.81L201.06,70.87L201.53,66.99L202,73.33L202.94,77.88L203.41,78.22L204.35,68.27L204.82,75.97L205.76,76.6L206.23,78.71L207.18,68.52L207.65,72.54L208.59,78.82L209.06,69.32L209.53,64.64L210,74.9L211.41,86.2L211.89,82.56L213.3,80.34L213.77,84.24L214.71,81.65L215.18,76L215.65,75.88L216.12,86.89L216.59,91.52L217.06,88.26L217.54,90.13L218.01,89.62L218.48,89.26L220.36,103.77L220.83,102.06L221.77,105.47L222.24,103.78L222.71,102.69L223.19,99.26L224.13,100.45L224.6,90.85L225.54,93.73L226.01,87.72L226.95,78.7L227.42,77.99L228.84,81.84L229.31,88.29L230.25,89.24L230.72,82.58L231.19,81.59L231.66,89.79L232.13,88.44L232.6,81.48L233.07,81.59L233.54,78.38L234.49,84.14L234.96,81.42L235.9,81.92L236.37,81.55L236.84,85.16L237.31,81.8L237.78,94.76L238.25,89.66L238.72,88.95L239.19,86.7L239.67,90.36L240.14,93.72L240.61,102.79L241.08,101.47L241.55,103.86L242.49,115.42L242.96,112.12L244.85,88.87L245.32,93.38L246.73,86.4L247.2,88.02L248.61,75.65L249.08,65.14L249.55,61.57L250.02,65.71L250.5,67.67L250.97,73.55L251.44,79.29L251.91,75.62L252.38,73.9L252.85,74.93L253.32,81.57L253.79,84.72L254.26,83.53L254.73,82.45L256.15,88.94L256.62,84.55L257.09,84.03L257.56,90.75L258.03,90.76L258.5,84.97L258.97,84.43L259.44,90.38L260.38,90.14L260.85,82.71L262.74,66.25L263.21,70.81L264.62,61.31L265.09,62.99L266.03,67.28L266.5,65.04L267.45,60.84L267.92,65.4L268.86,66.2L269.33,70.43L270.27,66.42L270.74,68.83L271.21,69.68L271.68,68.61L272.15,61.94L272.63,64.23L273.1,68.74L273.57,66.5L274.04,69.59L274.51,69.57L274.98,71.47L275.92,77.16L276.39,68.05L277.81,80L278.28,79.53L278.75,80.19L279.22,83.06L279.69,81.37L280.16,76.51L280.63,77.43L281.1,73.41L282.98,65.5L283.46,74.68L283.93,74.96L284.4,70.89L284.87,75.53L285.34,71.46L285.81,78.75L286.28,78.48L286.75,81.28L289.11,99.19L289.58,96.92L290.05,97.31L290.52,98.69L290.99,99.62L291.46,103.16L292.87,83.73L293.34,85.04L294.29,79.24L294.76,75.55L295.23,78.76L295.7,69.85L296.17,69.7L296.64,76.11L297.11,79.74L297.58,78.37L298.05,74.01L298.52,72.45L298.99,76.21L299.46,80.67L299.94,78.77L300.41,77.67L300.88,82.42L301.35,82.03L301.82,79.91L303.7,67.51L304.17,70.33L304.64,71.91L305.11,67.67L306.53,62.77L307,63.58L307.47,70.51L307.94,62.47L308.88,60.53L309.35,63.61L310.29,72.92L310.77,70.13L311.24,65.76L311.71,67.15L312.18,68.92L313.12,77.44L313.59,73.87L314.06,75.19L314.53,69.83L315.94,79.02L316.42,72.93L316.89,73.48L317.36,70.12L318.77,58.03L319.24,63.88L320.65,60.1L321.12,62.62L322.07,55.99L322.54,59.65L323.01,58.36L323.48,59.61L323.95,59.16L324.42,65.91L324.89,70.87L325.36,66.64L325.83,66.63L326.3,60.33L327.24,61.44L327.72,70.97L329.6,85.79L330.07,84.04L331.01,89.21L331.48,86.42L334.31,102.52L334.78,99.54L335.25,95.04L335.72,99.29L336.66,79.56L337.13,80.29L337.6,76.82L338.55,70.25L339.02,73.67L339.49,69.51L339.96,70.2L340.43,68.17L340.9,67.73L341.37,70.79L342.31,70.74L342.78,66.63L345.14,83.62L345.61,82.9L346.08,81.75L346.55,84.08L347.02,79.13L347.49,81.27L347.96,85.91L348.43,86.04L348.9,84.03L349.38,87.84L349.85,85.03L350.79,88.58L351.26,90.89L352.67,101.92L353.14,100.13L354.55,110.63L355.03,103.94L355.5,103.09L355.97,107.75L356.44,105.74L356.91,111.36L358.32,101.83L358.79,95.84L360.68,76.75L361.15,79.43L361.62,75.18L362.09,80.84L363.5,74.76L363.97,76.72L364.44,76.89L364.91,80.36L365.86,93.25L366.33,92.94L366.8,90.23L367.27,91.04L367.74,97.16L368.68,102.67L369.15,101.75L369.62,103.56L370.09,98.92L370.56,105.74L371.03,103.39L371.51,104L371.98,97.03L372.92,85.8L373.39,88.16L373.86,86.57L374.33,88.16L374.8,87.82L375.27,79.03L375.74,83.03L376.21,80.93L376.68,78.55L377.16,83.54L377.63,74.48L378.57,69.37L379.04,75.09L379.51,75.94L379.98,79.29L380.45,77.02L380.92,80.45L382.34,97.81L382.81,93.03L383.28,89.78L383.75,95.17L384.22,87.69L384.69,91.23L385.16,92.23L386.57,104.27L387.04,100.73L387.99,109.07L388.46,104.73L389.4,93.98L389.87,98.01L390.34,99.25L390.81,95.66L391.28,105.04L391.75,102.55L392.22,103.1L392.69,101.49L393.16,102.71L394.58,91.36L395.05,90.96L395.99,96.17L396.46,103.08L396.93,101.97L397.4,105.23L397.87,107.18L398.34,98.06L399.29,105.36L399.76,101.09L400.23,100.01L400.7,103.51L401.17,107.5L401.64,105.18L402.11,104.81L402.58,107.82L403.05,101.17L403.52,101.34L403.99,96.47L404.47,91.62L404.94,92.36L405.41,95.36L405.88,89.93L406.35,96.59L407.29,101.03L407.76,97.43L408.23,96.14L408.7,97.68L409.17,97.75L409.64,96.88L410.12,101.01L410.59,95.55L411.53,101.4L412,100.91L412.47,98.49L414.35,86.37L414.82,91.61L415.77,96.23L416.24,95.29L417.18,89.09L417.65,94.75L418.12,93.64L418.59,99.99L419.06,100.79L419.53,103.28L420.95,100.37L421.42,103.22L421.89,106.05L422.36,101.38L423.3,101.76L423.77,100.85L424.24,106.93L424.71,102.2L425.18,106.45L425.65,100.51L426.12,96.09L426.6,96.69L427.07,101.72L428.48,106.17L428.95,103.43L429.89,102.58L430.36,105.46L432.72,116.59L433.19,115.12L433.66,115.15L434.13,116.62L434.6,114.61L435.07,117L436.01,123.09L436.48,126.62L437.43,127.49L437.9,131.01L438.37,132.92L438.84,128.3L439.31,121.47L439.78,121.75L440.25,123.01L441.66,136.19L442.13,132.37L442.6,136.75L443.08,128.94L443.55,129.22L444.02,127.58L444.49,129.56L444.96,128.44L445.43,125.6L447.31,135.82L447.78,135.82L448.26,138.44L448.73,130.43L449.2,133.91L449.67,126.82L450.14,128.76L450.61,126.59L451.08,127.8L451.55,124.73L452.96,117.76L453.43,119.39L453.91,122.41L454.38,120.91L454.85,114.46L455.79,107.71L456.26,111.09L457.2,118.11L457.67,113.62L458.14,115.82L458.61,111.34L459.08,107.97L459.56,110.19L460.03,113L460.5,101.97L461.44,101.05L461.91,108.89L462.38,108.61L462.85,110.2L463.79,101.07L464.26,100.81L464.73,106.52L465.21,103.64L465.68,107.33L467.09,113.09L467.56,121.88L468.03,120.68L468.5,116.36L468.97,115.23L469.44,119.34L470.86,128.05L471.33,129.44L471.8,127.84L472.27,130.97L472.74,128.38L473.21,131.96L473.68,131.72L474.15,128.75L474.62,129.42L475.09,125.68L475.56,130.21L476.04,128.39L476.51,124.28L477.92,113.44L478.39,115.07L478.86,113.77L479.33,106.1L479.8,107.74L480.27,106.19L481.21,108.09L481.69,104.53L483.1,111.68L483.57,107.86L484.04,109.34L484.51,107.63L484.98,113.35L485.45,109.07L486.87,127.82L487.34,124.44L487.81,122.51L488.28,123.45L488.75,127.85L490.16,118.44L490.63,123.58L491.57,126.04L492.04,121.73L492.52,125.04L492.99,119.37L493.93,110.67L494.4,112.84L494.87,113.22L495.34,111.59L495.81,103.25L496.28,105.95L496.75,104.4L497.69,111.65L498.17,110.96L498.64,113.7L499.11,114.3L499.58,116.52L500.52,115L500.99,109.19L501.46,109.15L501.93,110.6L504.29,128.19L504.76,125.93L505.23,129.13L505.7,127.62L506.17,129.3L506.64,124.16L507.11,124.75L507.58,126.6L508.52,128.75L509,120.46L509.47,117.22L509.94,117.29L510.41,118.18L511.35,110.79L511.82,113.06L512.29,113.79L512.76,112.75L513.23,107.08L513.7,111.46L517,111.46" style="vector-effect: non-scaling-stroke; fill: none; stroke: rgb(0, 204, 150); stroke-opacity: 1; stroke-width: 2px; opacity: 1;"/></g><g class="points"/><g class="text"/></g><g class="trace scatter trace3bca81" style="stroke-miterlimit: 2; opacity: 1;"><g class="fills"/><g class="errorbars"/><g class="lines"><path class="js-line" d="M0,134.6L3.77,134.88L4.24,132.35L5.18,131.32L5.65,127.26L6.59,135.26L7.06,129.52L7.53,126.93L8,129.57L8.95,128.35L9.42,130.3L9.89,125.25L10.36,126.04L10.83,124.45L11.3,124.54L11.77,126.27L12.71,133.63L13.18,132.32L13.65,124.72L14.13,132.12L14.6,134.58L15.07,130.56L15.54,131.82L16.01,137.71L17.42,140.42L17.89,147.06L18.36,147.05L18.83,142.36L20.25,135.52L20.72,138.44L21.19,135.44L21.66,135.57L22.13,138L22.6,141.51L23.07,139.7L23.54,135.5L24.48,142.81L24.96,139.9L25.43,139.35L25.9,143.89L26.84,141.13L27.31,144.51L27.78,148.06L28.25,146.39L28.72,144.86L29.66,142.31L30.13,133.41L31.08,139.53L31.55,136.59L32.02,132.95L32.49,135.52L32.96,132.17L33.43,140.25L33.9,140.2L34.37,136.44L34.84,136.9L35.31,134.28L35.79,136.14L36.26,134.21L37.2,144.53L37.67,143.1L38.14,132.71L38.61,132.11L39.08,135.53L39.55,135.89L40.02,139.89L40.96,131.59L41.44,132.37L42.38,122.72L42.85,126.64L43.32,129.72L43.79,122.85L44.26,119.56L44.73,124.84L45.2,129.67L45.67,127.6L46.14,123.92L47.09,118.46L47.56,119.01L48.03,111.41L48.5,112.02L48.97,117.07L50.38,121.15L50.85,119.38L51.79,108.88L52.27,110.56L53.68,117.86L54.15,116.83L54.62,114.07L55.09,116.94L55.56,115.45L56.03,111.33L56.97,103.93L57.44,96.38L58.39,106.91L58.86,111.7L59.8,104.21L60.27,106.02L60.74,108.16L61.21,101.76L61.68,100.65L62.15,103.77L63.09,100.45L63.57,100.35L64.51,105.75L64.98,102L65.45,109.47L65.92,105.48L66.39,108.44L67.33,101.96L67.8,104.02L70.63,118.76L71.1,120.12L72.04,129.26L72.51,122.09L72.98,117.65L73.45,123.16L75.34,138.18L75.81,135.22L76.28,135.54L76.75,139.73L77.69,144.53L78.16,136.17L79.57,129.79L80.05,132.04L80.52,131.12L80.99,121.61L81.93,105.89L82.4,102.07L82.87,107.92L83.34,106.54L83.81,103.44L84.28,98.53L84.75,101.26L85.22,104.7L86.17,97.47L86.64,101.62L87.11,101.14L87.58,101.83L88.99,117.92L89.46,115.57L90.4,110.29L90.88,108.82L91.35,113.69L91.82,106.09L92.29,108.9L92.76,116.44L93.23,118.17L93.7,123.26L94.17,122.81L94.64,124.14L95.58,120.14L96.05,120.42L96.53,129.69L97,128.06L97.47,131.78L97.94,133.79L98.41,129.57L98.88,133.67L99.35,129.31L100.76,116.7L101.23,115.31L101.7,113.95L102.18,114.13L102.65,119.76L103.12,121.1L103.59,117.09L104.06,116.89L104.53,114.64L105,112.64L105.47,118.59L105.94,118.7L106.41,122.69L106.88,120.49L107.36,127.25L108.77,115.34L109.24,119.72L109.71,117.98L110.18,111.73L110.65,110.22L111.12,114.29L113.01,102.1L113.48,101.28L113.95,103.08L114.42,94.64L115.36,90.72L115.83,91.32L116.3,85.98L116.77,84.24L117.24,87.7L118.18,91.3L118.66,97.91L120.07,101.92L120.54,106.15L121.95,119.59L122.42,119.94L124.31,128.74L124.78,124.97L125.25,120.71L125.72,123.96L126.66,115L127.13,119.35L128.07,121.2L128.54,119.56L129.96,128L130.43,125.45L130.9,126.08L131.37,121.41L133.25,135.84L133.72,133.82L135.61,115.19L136.08,114.9L137.02,124.07L137.49,122.39L138.9,131L139.37,123.39L140.32,119.94L140.79,120.45L141.73,124.55L142.2,120.65L142.67,121.89L143.14,115.91L144.55,106.63L145.02,103.82L147.38,93.67L147.85,94.18L148.79,97.95L149.26,97.36L149.73,102.11L150.67,107.93L151.14,101.88L152.09,103.2L152.56,110.23L153.03,110.01L153.5,116.07L153.97,114.55L154.44,116.89L155.38,123.71L155.85,122.78L156.32,123.58L157.74,127.95L158.21,135.6L158.68,136.27L159.15,134.85L160.56,121.7L161.03,122.13L161.97,118.69L162.45,121.83L163.39,126.59L163.86,120.37L164.33,123.36L164.8,119.2L166.21,126.66L166.68,132.57L167.15,137.2L167.62,135.55L168.1,134.54L168.57,135.53L169.04,134.62L169.51,131.06L169.98,132.41L170.45,132.22L170.92,132.67L171.39,131.64L171.86,129.09L172.33,120.38L172.8,120.62L173.28,118.68L174.22,114.05L174.69,122.47L175.63,122.69L176.1,120.75L176.57,121.21L177.04,115.08L177.51,113.35L177.98,118.01L178.45,116.54L178.93,124.14L179.4,128.58L179.87,124.61L180.34,125.72L180.81,121.79L181.28,120.29L181.75,113.18L182.22,113.5L182.69,111.83L183.16,115.76L183.63,107.83L184.1,110.46L184.58,109.18L185.05,107.03L185.52,105.24L185.99,99.27L186.93,96.08L187.4,100.94L187.87,103.2L188.34,102.36L188.81,98.05L189.28,96.71L189.76,98.37L190.23,93.91L190.7,100.8L191.17,103.52L191.64,102.78L192.11,100.22L193.05,99.27L193.52,103.23L193.99,103.31L194.46,101.39L195.41,103.63L195.88,108.31L196.82,110.46L197.29,109.28L197.76,108.73L198.23,101.83L199.64,112.16L200.11,109.05L201.06,106.57L201.53,99.7L202,99.46L202.47,100.71L203.41,91.47L203.88,95.27L205.29,104.41L205.76,101.53L206.71,90.78L207.18,99.04L207.65,99.23L208.12,98.26L208.59,103.43L209.06,99.26L209.53,99.22L210,106.73L210.47,113.8L210.94,111.02L211.41,114.06L211.89,116.59L212.36,109.58L213.77,121.16L214.24,108.88L215.18,103.87L215.65,105.71L216.12,111.67L216.59,109.81L217.06,108.77L217.54,104.53L218.01,106.96L218.48,104.37L218.95,97.62L219.42,101.84L220.36,94.3L220.83,99.78L222.24,109.85L222.71,108.1L223.19,103.27L223.66,106.26L225.54,96.4L226.01,102.62L226.48,99.1L226.95,105.29L227.42,112L227.89,102.83L228.37,109.51L228.84,104L229.31,103.59L229.78,98.48L230.25,100.77L230.72,100.06L231.19,106.56L232.13,114.33L232.6,112.36L233.07,111.13L233.54,112.9L234.49,102.86L234.96,109.51L235.43,105.41L235.9,108.66L237.31,115.46L237.78,113.5L238.72,102.07L239.19,101.95L239.67,102.74L240.14,105.41L240.61,102.36L241.08,103.76L241.55,108.36L242.96,118.68L243.43,116.01L243.9,111.17L244.37,111.61L244.85,115.22L245.32,118.61L245.79,117.24L246.26,112.54L246.73,114.86L247.2,111.67L247.67,114.58L248.14,108.9L248.61,110.58L249.08,103.43L250.02,99.7L250.5,104.98L251.44,114.57L251.91,114.43L252.38,115.57L252.85,113.37L253.79,116.45L254.26,116.04L254.73,111.78L255.2,113.22L255.67,112.49L257.56,103.59L258.03,99.31L258.97,98.16L259.44,96.61L259.91,100.04L260.38,99.65L260.85,96.72L261.33,96.19L261.8,101.88L262.27,106.45L262.74,101.95L264.15,107.96L264.62,109.93L265.09,109.3L265.56,113.12L266.03,110.07L266.5,114.83L266.98,113.25L267.45,117.23L268.39,118.44L268.86,115.8L269.33,109.87L269.8,115.58L270.27,106.9L270.74,107.3L271.21,105.43L271.68,104.25L272.15,107.11L274.04,98.98L274.51,95.63L274.98,99.1L275.45,98.3L275.92,95.37L276.39,98.13L276.86,90.51L277.33,99.68L277.81,96.95L278.28,94.17L278.75,93.03L279.22,88.68L279.69,89.51L280.16,88.52L282.04,93.38L282.51,90.66L282.98,100.93L283.46,95.57L283.93,98.57L284.4,100.02L284.87,103.93L285.34,105.49L285.81,112.1L287.22,116.7L287.69,114.24L289.11,107.15L289.58,106.62L290.05,99.12L290.52,103.25L290.99,106.56L291.93,103.98L292.4,106.15L293.34,96.13L293.81,96.56L295.23,109.88L295.7,107.17L296.17,105.73L296.64,107.43L297.58,113.27L298.05,114.24L298.52,118.16L298.99,117.11L299.46,115.95L300.41,126.18L300.88,115L302.29,98.68L302.76,106.36L304.64,96.09L305.11,96.67L305.59,86.48L306.06,89.22L306.53,92.92L307,91.46L307.47,87.1L308.41,94.85L308.88,99.84L309.35,105.09L309.82,100.2L310.29,105.92L310.77,105.15L311.24,102.52L312.65,114.82L313.12,114.41L313.59,110.85L314.53,114.55L315,120.04L315.94,117.06L316.42,113.89L316.89,112.78L317.36,107.97L318.77,118.56L319.24,115.7L319.71,116.65L320.18,115.68L321.12,117.67L321.59,117.06L323.01,106.41L323.48,106.04L323.95,107.9L324.42,106.3L324.89,105.35L325.36,100.23L326.3,96.86L326.77,99.45L327.72,96.97L328.19,96.82L328.66,100.83L329.13,113.95L329.6,113.21L330.07,122.58L331.48,133.88L331.95,136.23L332.42,136.02L332.9,139.88L333.37,139.33L333.84,135.94L334.31,135.87L334.78,137.64L335.72,134.52L336.19,121.75L336.66,120.86L337.13,116.75L339.02,100.65L339.49,107.86L340.9,93.68L341.37,99.42L342.78,89.7L343.25,93.26L344.2,92.95L344.67,89.29L345.14,87.44L345.61,94.17L347.02,112.39L347.49,112.36L347.96,115.31L348.43,110.47L348.9,110.46L349.38,113.57L350.32,110.33L350.79,112.58L351.73,111.22L352.2,115.79L353.61,103.67L354.08,107.75L354.55,111.09L355.03,106.6L355.5,107.72L355.97,106.64L356.44,102.23L356.91,104.63L357.38,105.2L358.79,112.53L359.26,110.76L359.73,107.48L360.2,110.09L360.68,108.64L361.15,103.73L361.62,100.26L362.09,108.33L364.44,124.06L364.91,117.24L367.27,115.27L367.74,116.48L369.15,123.34L369.62,118.12L371.03,104.31L371.51,108.01L371.98,110.93L372.45,110.19L372.92,108.09L373.86,106.86L374.33,102.37L375.74,94.9L376.21,94.91L378.57,116.14L379.04,118.39L381.86,147.14L382.34,146.33L382.81,144.84L383.28,140.52L384.69,129.99L385.16,130.12L385.63,131.68L386.1,130.88L386.57,124.5L387.51,115.37L387.99,116.55L388.46,119.31L388.93,116.62L389.4,115.07L389.87,123.64L390.34,126.07L390.81,124.54L391.28,129.78L391.75,120.73L392.22,120.78L392.69,115.89L393.16,112.88L393.64,113.66L394.11,117.9L394.58,121.5L395.05,118.23L395.52,112.84L395.99,117.1L396.46,118.02L396.93,111.9L397.4,114.06L397.87,120.34L398.34,118.3L398.82,123.66L399.76,124.64L400.23,128.23L400.7,129.29L401.17,127.4L401.64,125.93L402.11,133.73L402.58,137.27L403.05,129.97L403.99,131.77L404.47,131.34L404.94,131.67L405.41,136.11L406.35,134.04L406.82,130.4L407.29,131.67L407.76,135.14L408.23,136.18L408.7,129.92L409.64,125.58L410.12,126.42L411.06,123.8L411.53,124.37L412.94,119.6L413.41,117.48L413.88,120L414.35,118.27L414.82,118.22L415.3,121.53L418.12,134.04L418.59,126.52L419.06,129.92L419.53,126.48L420,135.02L420.47,133.71L420.95,135.38L421.42,126.81L421.89,127.75L422.36,125.24L422.83,125.08L423.3,119.6L423.77,114.8L424.24,114.93L424.71,118.8L426.12,114.09L426.6,116.28L427.07,112.73L427.54,117.22L428.01,115.49L428.48,128.21L428.95,127.66L429.42,131.39L431.3,146.42L431.78,141.93L432.25,142.22L432.72,148.18L433.19,150.83L433.66,147.82L434.6,150.01L435.07,154.66L435.54,153.42L436.01,155.37L436.48,156.89L436.95,155.54L437.43,162.19L437.9,160.97L438.37,156.48L438.84,156.8L439.31,159.4L440.25,157.28L440.72,158.6L441.19,159.62L441.66,158.36L442.6,152.7L443.08,153.45L444.49,142.6L444.96,145.83L445.43,146.19L445.9,149.57L446.37,150.72L446.84,155.23L447.78,151.59L448.26,154.39L448.73,153.61L449.2,155.39L449.67,158.15L450.14,147.66L451.08,155.43L451.55,153.67L452.02,148.91L452.96,144.3L453.43,138.4L454.38,134.63L454.85,136.37L455.32,134.84L455.79,139.18L456.73,132.18L457.2,139.74L458.61,131.75L459.08,137.98L459.56,138.69L460.03,143.56L461.44,153.19L461.91,152.78L462.85,147.15L463.32,152.18L463.79,145.98L464.26,148.09L464.73,149.45L465.21,152.97L465.68,152.79L466.15,150.99L466.62,150.84L467.09,147.05L468.03,144.26L468.5,144.51L469.91,136.17L470.39,140.01L471.8,153.26L472.27,149.97L472.74,148.88L473.21,143.12L473.68,148.8L474.15,147.7L474.62,146.59L475.56,146.97L476.04,149.52L476.98,154.91L477.45,151.89L477.92,152.67L478.39,151.21L479.33,143.31L479.8,146.03L480.27,151.3L480.74,145.26L481.69,150.4L482.16,149.23L482.63,150.68L483.1,157.26L484.04,160.76L484.51,160.42L484.98,160.12L485.45,154.89L485.92,154.94L486.39,162.92L486.87,164.66L487.34,163L487.81,163.91L488.28,159.97L488.75,158.5L489.22,159.59L489.69,162.27L490.16,157.46L490.63,154.25L491.1,145.47L491.57,144.84L492.04,145.83L492.99,142.14L493.46,137.36L493.93,135.95L494.4,140.01L495.81,148.71L496.28,146.59L496.75,142.22L497.22,144.03L497.69,145.54L498.17,152.84L498.64,146.77L499.11,144.79L499.58,149.84L500.99,161.65L501.46,156.59L501.93,154.01L502.4,146.01L502.87,143.71L503.35,146.98L505.23,137.58L505.7,142.43L506.64,140.09L507.11,136.53L508.05,127.37L508.52,133.85L509,136.7L509.47,145.41L510.41,144.94L510.88,149.98L513.23,164.19L513.7,163.03L517,163.03" style="vector-effect: non-scaling-stroke; fill: none; stroke: rgb(171, 99, 250); stroke-opacity: 1; stroke-width: 2px; opacity: 1;"/></g><g class="points"/><g class="text"/></g><g class="trace scatter trace3c82a7" style="stroke-miterlimit: 2; opacity: 1;"><g class="fills"/><g class="errorbars"/><g class="lines"><path class="js-line" d="M0,160.38L3.3,160.38L3.77,157.18L4.71,160.66L5.18,159.41L5.65,151.8L6.12,154.39L6.59,154.23L7.06,153.18L7.53,154.53L8,154.22L8.48,151.79L9.42,161.88L9.89,158.72L10.83,154.56L11.3,158.63L11.77,157.66L12.24,161.74L12.71,167.21L13.18,164.53L13.65,163.58L14.13,161.29L14.6,163.62L15.07,160.3L15.54,161.58L16.01,159.51L16.95,154.06L17.42,156.21L17.89,158.78L18.36,157.29L18.83,156.56L19.78,159.49L20.25,159.19L21.66,167.74L22.13,171.54L23.07,167.13L23.54,170.55L24.01,170.73L24.48,175.8L25.9,183.57L26.37,174.58L27.78,168.02L28.25,170.19L28.72,172.59L29.19,167.62L30.13,175.51L30.61,169.19L31.08,181.69L31.55,177.03L32.02,170.72L32.49,170.65L32.96,174.33L34.84,188.19L35.31,186.76L36.73,179.4L37.2,179.62L37.67,179.95L38.14,169.27L38.61,172.71L39.08,171.48L39.55,171.37L40.02,163.38L40.49,163.88L40.96,160.64L41.44,159.02L41.91,153.23L42.38,152.68L42.85,154.27L43.32,161.25L43.79,156.9L45.2,162.7L45.67,158.09L46.14,162.46L46.61,159.06L47.09,163.82L47.56,161.28L48.03,160.91L49.44,164.96L49.91,166.11L50.85,160.51L51.32,163.53L51.79,158.95L52.27,164.07L52.74,163.81L53.21,165.95L53.68,171.01L54.15,165.87L54.62,165.99L55.09,164.11L55.56,164.57L56.03,167.32L56.5,167.95L56.97,164.22L57.44,158.7L57.92,162.26L58.39,154.58L58.86,155.32L59.33,151.81L59.8,153.33L60.27,149.22L63.57,119.95L64.04,120.33L65.92,130.66L66.39,126.44L66.86,131.16L67.33,129.12L67.8,131.96L68.27,128.74L68.74,130.73L70.16,140.76L70.63,138.85L72.04,142.37L72.51,142.23L72.98,142.25L73.45,146.88L74.4,141.17L74.87,144.37L75.34,148.91L75.81,148.1L76.28,149.33L77.22,159.78L77.69,156.58L78.16,158.26L78.63,157.28L79.1,152.1L79.57,151.41L80.05,147.38L80.99,143.96L81.46,146.41L82.4,139.26L82.87,140.69L83.34,140.55L83.81,134.81L84.28,132.37L84.75,141.48L85.22,137.17L85.7,138.97L86.17,144.6L86.64,144.17L87.11,147.11L87.58,152.31L88.05,150.2L88.52,147.67L89.93,160.93L90.4,159.35L91.35,157.84L91.82,153.28L92.76,157.47L93.23,155.85L93.7,148.68L94.17,154.64L94.64,153.79L95.11,155.34L95.58,160.51L96.05,155.25L97.47,148.14L97.94,145.71L98.41,146.22L98.88,145.11L99.35,146.03L99.82,142.83L100.29,144.23L100.76,143.54L101.23,139.13L101.7,139.58L102.18,138.07L104.06,135.31L104.53,138.77L105.47,142.97L105.94,139.64L106.41,139.93L106.88,143.38L108.77,135.3L109.24,137.74L110.18,141.54L110.65,139.27L111.59,140.65L112.06,139.54L112.53,133.02L113.01,133.5L113.48,134.19L113.95,128.06L114.42,133.69L115.36,136.78L115.83,135.94L116.77,132.72L117.24,129.91L118.18,129.71L118.66,131.03L119.13,131.14L119.6,132.6L120.07,138.11L120.54,135.46L121.01,137.16L121.95,132.72L122.42,135.16L123.36,137.99L123.84,135.22L125.25,140.73L125.72,136.24L126.66,137.78L127.13,135.84L128.54,130.36L129.01,134.28L129.96,127.87L130.43,127.15L130.9,134.74L131.37,134.56L131.84,133.52L132.31,129.95L132.78,133.74L133.72,140.55L134.19,138.44L134.66,144.71L135.14,139.96L136.08,139.26L136.55,146.99L137.49,151.85L137.96,146.21L138.43,145.6L138.9,147.1L139.37,149.13L139.84,147.5L140.79,135.13L141.26,139.64L141.73,134.6L142.2,141.5L142.67,151.41L143.14,148.67L143.61,148.03L144.55,144.63L145.02,146.5L148.79,156.91L149.26,154.33L149.73,143.71L150.2,145.04L150.67,146.95L151.14,148.42L151.62,140.7L152.56,138.61L153.03,142.02L154.44,150.46L154.91,150.23L155.38,150.12L155.85,148.99L156.32,151.87L156.8,153.86L157.27,152.87L157.74,144.05L158.21,140.75L158.68,149.28L159.62,157.11L160.09,153.89L161.5,136.24L161.97,143.3L162.45,138.91L162.92,142.86L163.39,142.52L163.86,139.98L165.74,154.07L166.21,148.62L166.68,143.24L167.15,146.25L167.62,149.88L168.57,155.26L169.04,150.13L169.98,147.68L170.45,153.15L170.92,152.43L171.39,149.12L172.8,136.69L173.28,138.73L173.75,141.77L174.22,143.79L174.69,151.62L175.63,140.12L176.1,142.2L177.04,148.41L177.51,142.41L179.87,157.5L180.34,152.98L181.28,142.87L181.75,134.3L183.63,149.57L184.1,141.52L185.05,142.32L185.52,138.71L185.99,141.7L186.46,134.66L186.93,131.85L187.4,133.78L187.87,130.88L188.34,132.32L188.81,135.12L190.23,127.45L190.7,128.61L191.17,135.66L191.64,134.11L192.11,134.92L192.58,138.76L193.05,137.37L193.52,142.22L194.46,135.15L194.93,139.17L196.35,141.95L196.82,140.47L197.29,140.32L197.76,132.93L198.23,129.16L198.7,130.06L199.17,131.05L199.64,127.77L200.11,131.55L200.58,131.5L201.06,138.13L202.47,143.95L202.94,141.47L203.88,146.05L204.35,143.66L205.29,151.69L205.76,146.58L206.23,146.04L206.71,146.63L207.18,139.67L207.65,141.68L208.12,139.61L209.06,140.83L209.53,138L210,137.73L210.47,136.42L210.94,129.3L211.41,135.29L211.89,135.22L212.36,134.1L214.24,151.18L214.71,152.58L215.18,153.48L215.65,156.72L217.54,148.39L218.01,154.27L218.48,153.47L218.95,151.11L220.83,134.36L221.3,134.41L221.77,126.65L222.24,128.26L222.71,124.07L223.19,124.83L223.66,127.28L224.13,127.64L224.6,131.79L225.07,131.98L225.54,129.43L226.01,128.05L226.48,135.33L227.42,126.87L227.89,122.15L228.37,117.84L228.84,120.85L229.31,114.71L229.78,116.88L230.25,115.61L231.19,121.22L231.66,114.85L232.13,108.35L232.6,111.37L233.07,117.31L233.54,110.01L234.02,113.73L234.49,115.73L235.43,121.33L235.9,120.02L236.37,120.55L236.84,119.2L237.31,123.59L237.78,122.73L238.25,121.61L239.19,133.48L239.67,133.29L240.14,125.36L241.55,144.06L242.02,137.12L243.43,153.42L243.9,151.97L245.79,144.88L246.26,145.45L246.73,143.84L247.2,146.8L248.61,129.48L249.08,140.54L251.91,123.87L252.38,122.99L253.32,126.93L253.79,125.49L254.73,130.99L255.2,133.62L255.67,134.91L256.15,127.75L257.09,128.1L257.56,133L258.97,143.66L259.44,138.42L260.38,133.53L260.85,138.21L261.33,136.99L261.8,139.14L262.74,136.58L263.21,140.82L263.68,139.27L264.15,139.58L264.62,132.87L265.56,119.93L266.03,120.59L266.5,128.69L266.98,125.68L267.45,128.18L270.74,132.27L271.21,127.95L273.1,145.05L273.57,143.83L274.04,144.84L274.51,136.18L274.98,129.47L275.45,129.9L275.92,127.83L276.86,123.68L277.33,123.17L278.28,131.55L278.75,131.19L279.22,132.17L279.69,129.09L280.16,135.39L280.63,133.28L281.1,138.79L282.04,148.45L282.51,146.04L283.46,151.65L283.93,146.45L284.87,137.01L285.34,139.89L285.81,140.29L286.28,135.35L287.22,130.02L287.69,131.37L288.16,128.75L288.63,130.95L290.05,120.46L290.52,121.47L291.46,134.37L291.93,134.2L292.4,128.96L292.87,127.92L293.34,133.03L293.81,138.23L294.29,132.61L295.7,127.07L296.17,125.77L296.64,125.81L297.11,129.16L297.58,129.38L298.05,125.86L298.52,124.5L298.99,125.15L299.46,125.96L299.94,126.93L300.41,119.29L300.88,118.48L301.35,124.8L302.29,132.16L302.76,130.68L303.23,133.69L303.7,141.66L304.64,152.21L305.11,150.79L305.59,148.7L306.06,144.45L306.53,146.51L307,148.95L307.47,151.27L307.94,150.39L308.41,142.13L309.35,136.54L309.82,144.5L310.29,146.21L310.77,137.73L311.71,130.08L312.18,131.03L312.65,137.47L313.12,136.15L313.59,131.57L314.06,128.36L314.53,129L315,128.56L315.94,136.23L316.42,135.83L316.89,131.06L317.36,129.92L317.83,136.37L318.3,134.69L318.77,135.32L319.24,134.65L319.71,127.72L320.18,128.84L320.65,126.23L321.59,123.05L322.07,118.79L322.54,119.25L323.01,116.26L323.95,112.73L324.42,115.07L325.36,106.46L325.83,105.74L326.3,107.78L326.77,115.63L327.24,116.59L327.72,122.64L331.01,154.22L331.48,151.64L332.9,147.35L333.37,146.82L335.25,127.68L335.72,126.95L338.07,118.68L338.55,119.74L339.02,120.48L339.49,118.89L339.96,119.31L340.43,122.67L342.78,131.65L343.25,138.45L343.72,135.33L344.2,137.51L344.67,139.62L345.14,138.99L345.61,133.38L347.02,147.61L347.49,142.63L347.96,141.93L348.43,144.01L349.85,136.03L350.32,128.47L350.79,129.25L351.26,125.48L351.73,129.39L352.2,125.94L352.67,131.22L353.14,127.7L354.08,123.86L354.55,128.56L356.44,150.54L356.91,150.46L357.38,151.02L357.85,149.26L358.32,151.53L358.79,144.84L359.26,141.42L359.73,143.01L360.2,144L361.62,152.81L362.09,150.82L363.5,141.34L363.97,139.52L364.44,140.92L364.91,139.41L365.38,136.09L365.86,140.41L366.33,143.76L366.8,138.67L368.21,131.57L368.68,123.94L371.03,138.39L371.51,136.14L373.86,153.63L374.33,152.51L375.27,151.09L375.74,156.48L376.21,146.63L376.68,148.08L377.16,143.49L377.63,144.43L378.1,141.92L379.04,146.1L379.51,141.44L379.98,146.44L380.45,139.23L381.39,142.33L381.86,146.06L382.81,136.7L383.28,139.43L383.75,137.21L386.57,153.65L387.04,150.6L388.46,160.71L388.93,156.57L390.34,167.81L390.81,169.39L393.16,152.4L393.64,153.69L394.11,151.48L394.58,154.26L395.05,156.33L395.52,154.75L395.99,160.96L396.46,158.92L396.93,158.22L397.4,158.51L397.87,154.51L399.76,173.5L400.23,172.69L401.17,171.09L401.64,164.69L402.11,163.52L402.58,160.05L403.99,152.17L404.47,149.84L404.94,154.09L405.41,153.85L405.88,153.85L406.82,155.59L407.29,159.02L408.7,162.62L409.17,160.11L409.64,160.23L410.12,157.76L411.06,169.38L411.53,167.02L414.35,143.48L414.82,143.66L415.3,142.42L415.77,143.38L416.24,144.64L416.71,148.14L417.18,152.95L417.65,152.18L418.12,145.91L419.06,156.71L419.53,163.07L420,161.63L420.47,162.98L421.42,168.44L421.89,166.45L422.36,171.17L422.83,168.49L423.3,170.83L423.77,174.33L424.24,170.64L424.71,169.21L425.18,170.4L426.12,169.82L426.6,167.47L427.54,167.9L428.01,164.38L429.42,169.78L429.89,169.09L430.36,171.09L430.83,163.53L432.25,175.4L432.72,174.53L433.66,167.33L434.13,169.6L434.6,169.06L435.07,172.37L435.54,170.46L436.01,163.92L436.48,157.04L436.95,160.81L437.43,162.3L437.9,167.63L438.37,166.3L438.84,160.26L439.31,158.02L439.78,158.91L440.25,161.56L440.72,161.56L441.19,160.07L442.13,158.43L442.6,158.96L443.55,171.58L444.02,171.27L444.49,167.9L445.43,170.06L445.9,175.24L446.84,181.02L447.31,177.1L448.73,183.96L449.2,179.68L450.14,179.47L450.61,180.6L452.02,182.7L452.49,181.83L452.96,182.13L453.43,185.22L454.38,189.73L454.85,185.14L455.32,182.37L455.79,186.09L456.26,188.23L456.73,187.13L457.2,186.08L459.08,176.8L459.56,178.08L460.03,179.37L460.5,172.04L460.97,168L461.44,174.27L463.32,166.16L463.79,170.3L464.73,161.13L465.21,164.93L466.62,155.08L467.09,155.38L468.03,171.8L468.5,166.53L469.91,178.64L470.39,182.12L470.86,181.97L471.33,185.46L472.74,201.8L473.21,199.56L473.68,201.29L475.09,186.21L475.56,187.39L476.04,185.66L477.92,169.39L478.39,170.22L478.86,168.87L479.33,161.8L479.8,160.67L480.27,162.74L481.21,171.48L481.69,170.79L482.16,165.73L484.04,181.07L484.51,180.11L484.98,184.83L485.45,183.81L485.92,183.04L486.39,185.83L486.87,182.13L487.34,182.4L487.81,175.59L488.75,168.11L489.22,173.93L490.63,164.91L491.1,162.09L491.57,164.64L492.04,161.65L492.99,163.18L493.46,161.21L493.93,160.98L494.4,166.02L495.34,173.4L495.81,170.87L497.22,176.71L497.69,179.56L499.58,187.36L500.05,188.14L500.52,187.28L500.99,191.12L502.4,192.9L502.87,201.73L503.82,199.89L504.29,201.71L506.64,196.47L507.11,201.92L507.58,207.1L508.05,202.51L508.52,199.15L509,189.08L509.47,191.74L509.94,188.71L510.41,183.96L510.88,186.32L511.35,185.53L511.82,185.62L512.29,182.82L514.17,174.78L514.65,174.78L517,174.78" style="vector-effect: non-scaling-stroke; fill: none; stroke: rgb(255, 161, 90); stroke-opacity: 1; stroke-width: 2px; opacity: 1;"/></g><g class="points"/><g class="text"/></g></g></g><g class="overplot"/><path class="xlines-above crisp" d="M0,0" style="fill: none;"/><path class="ylines-above crisp" d="M0,0" style="fill: none;"/><g class="overlines-above"/><g class="xaxislayer-above"><g class="xtick"><text text-anchor="middle" x="0" y="260" transform="translate(58,0)" style="font-family: 'Open Sans', verdana, arial, sans-serif; font-size: 12px; fill: rgb(42, 63, 95); fill-opacity: 1; white-space: pre;">2014</text></g><g class="xtick"><text text-anchor="middle" x="0" y="260" transform="translate(229.39,0)" style="font-family: 'Open Sans', verdana, arial, sans-serif; font-size: 12px; fill: rgb(42, 63, 95); fill-opacity: 1; white-space: pre;">2015</text></g><g class="xtick"><text text-anchor="middle" x="0" y="260" transform="translate(401.25,0)" style="font-family: 'Open Sans', verdana, arial, sans-serif; font-size: 12px; fill: rgb(42, 63, 95); fill-opacity: 1; white-space: pre;">2016</text></g><g class="xtick"><text text-anchor="middle" x="0" y="260" transform="translate(573.12,0)" style="font-family: 'Open Sans', verdana, arial, sans-serif; font-size: 12px; fill: rgb(42, 63, 95); fill-opacity: 1; white-space: pre;">2017</text></g></g><g class="yaxislayer-above"><g class="ytick"><text text-anchor="end" x="53" y="4.199999999999999" transform="translate(0,200.56)" style="font-family: 'Open Sans', verdana, arial, sans-serif; font-size: 12px; fill: rgb(42, 63, 95); fill-opacity: 1; white-space: pre;">1.1</text></g><g class="ytick"><text text-anchor="end" x="53" y="4.199999999999999" transform="translate(0,152.86)" style="font-family: 'Open Sans', verdana, arial, sans-serif; font-size: 12px; fill: rgb(42, 63, 95); fill-opacity: 1; white-space: pre;">1.2</text></g><g class="ytick"><text text-anchor="end" x="53" y="4.199999999999999" transform="translate(0,105.16)" style="font-family: 'Open Sans', verdana, arial, sans-serif; font-size: 12px; fill: rgb(42, 63, 95); fill-opacity: 1; white-space: pre;">1.3</text></g><g class="ytick"><text text-anchor="end" x="53" y="4.199999999999999" transform="translate(0,57.47)" style="font-family: 'Open Sans', verdana, arial, sans-serif; font-size: 12px; fill: rgb(42, 63, 95); fill-opacity: 1; white-space: pre;">1.4</text></g></g><g class="overaxes-above"/></g></g><g class="polarlayer"/><g class="ternarylayer"/><g class="geolayer"/><g class="funnelarealayer"/><g class="pielayer"/><g class="treemaplayer"/><g class="sunburstlayer"/><g class="glimages"/><defs id="topdefs-66dc41"><g class="clips"/><clipPath id="legend66dc41"><rect width="116" height="105" x="0" y="0"/></clipPath></defs><g class="layer-above"><g class="imagelayer"/><g class="shapelayer"/></g><g class="infolayer"><g class="legend" pointer-events="all" transform="translate(63.17, 27.180000000000003)"><rect class="bg" shape-rendering="crispEdges" width="116" height="105" x="0" y="0" style="stroke: rgb(68, 68, 68); stroke-opacity: 1; fill: rgb(255, 255, 255); fill-opacity: 1; stroke-width: 0px;"/><g class="scrollbox" transform="translate(0, 0)" clip-path="url('#legend66dc41')"><g class="groups"><g class="traces" transform="translate(0, 14.5)" style="opacity: 1;"><text class="legendtext user-select-none" text-anchor="start" x="40" y="4.680000000000001" style="font-family: 'Open Sans', verdana, arial, sans-serif; font-size: 12px; fill: rgb(42, 63, 95); fill-opacity: 1; white-space: pre;">Sem taxao</text><g class="layers" style="opacity: 1;"><g class="legendfill"/><g class="legendlines"><path class="js-line" d="M5,0h30" style="fill: none; stroke: rgb(99, 110, 250); stroke-opacity: 1; stroke-width: 2px;"/></g><g class="legendsymbols"><g class="legendpoints"/></g></g><rect class="legendtoggle" pointer-events="all" x="0" y="-9.5" width="110.359375" height="19" style="cursor: pointer; fill: rgb(0, 0, 0); fill-opacity: 0;"/></g><g class="traces" transform="translate(0, 33.5)" style="opacity: 1;"><text class="legendtext user-select-none" text-anchor="start" x="40" y="4.680000000000001" style="font-family: 'Open Sans', verdana, arial, sans-serif; font-size: 12px; fill: rgb(42, 63, 95); fill-opacity: 1; white-space: pre;">Taxa 1.05</text><g class="layers" style="opacity: 1;"><g class="legendfill"/><g class="legendlines"><path class="js-line" d="M5,0h30" style="fill: none; stroke: rgb(239, 85, 59); stroke-opacity: 1; stroke-width: 2px;"/></g><g class="legendsymbols"><g class="legendpoints"/></g></g><rect class="legendtoggle" pointer-events="all" x="0" y="-9.5" width="110.359375" height="19" style="cursor: pointer; fill: rgb(0, 0, 0); fill-opacity: 0;"/></g><g class="traces" transform="translate(0, 52.5)" style="opacity: 1;"><text class="legendtext user-select-none" text-anchor="start" x="40" y="4.680000000000001" style="font-family: 'Open Sans', verdana, arial, sans-serif; font-size: 12px; fill: rgb(42, 63, 95); fill-opacity: 1; white-space: pre;">Taxa 1.10</text><g class="layers" style="opacity: 1;"><g class="legendfill"/><g class="legendlines"><path class="js-line" d="M5,0h30" style="fill: none; stroke: rgb(0, 204, 150); stroke-opacity: 1; stroke-width: 2px;"/></g><g class="legendsymbols"><g class="legendpoints"/></g></g><rect class="legendtoggle" pointer-events="all" x="0" y="-9.5" width="110.359375" height="19" style="cursor: pointer; fill: rgb(0, 0, 0); fill-opacity: 0;"/></g><g class="traces" transform="translate(0, 71.5)" style="opacity: 1;"><text class="legendtext user-select-none" text-anchor="start" x="40" y="4.680000000000001" style="font-family: 'Open Sans', verdana, arial, sans-serif; font-size: 12px; fill: rgb(42, 63, 95); fill-opacity: 1; white-space: pre;">Taxa 1.15</text><g class="layers" style="opacity: 1;"><g class="legendfill"/><g class="legendlines"><path class="js-line" d="M5,0h30" style="fill: none; stroke: rgb(171, 99, 250); stroke-opacity: 1; stroke-width: 2px;"/></g><g class="legendsymbols"><g class="legendpoints"/></g></g><rect class="legendtoggle" pointer-events="all" x="0" y="-9.5" width="110.359375" height="19" style="cursor: pointer; fill: rgb(0, 0, 0); fill-opacity: 0;"/></g><g class="traces" transform="translate(0, 90.5)" style="opacity: 1;"><text class="legendtext user-select-none" text-anchor="start" x="40" y="4.680000000000001" style="font-family: 'Open Sans', verdana, arial, sans-serif; font-size: 12px; fill: rgb(42, 63, 95); fill-opacity: 1; white-space: pre;">Taxa 1.20</text><g class="layers" style="opacity: 1;"><g class="legendfill"/><g class="legendlines"><path class="js-line" d="M5,0h30" style="fill: none; stroke: rgb(255, 161, 90); stroke-opacity: 1; stroke-width: 2px;"/></g><g class="legendsymbols"><g class="legendpoints"/></g></g><rect class="legendtoggle" pointer-events="all" x="0" y="-9.5" width="110.359375" height="19" style="cursor: pointer; fill: rgb(0, 0, 0); fill-opacity: 0;"/></g></g></g><rect class="scrollbar" rx="20" ry="3" width="0" height="0" x="0" y="0" style="fill: rgb(128, 139, 164); fill-opacity: 1;"/></g><g class="g-gtitle"><text class="gtitle" x="30" y="12.5" text-anchor="start" dy="0em" style="font-family: 'Open Sans', verdana, arial, sans-serif; font-size: 17px; fill: rgb(42, 63, 95); opacity: 1; font-weight: normal; white-space: pre;">Quantidade media de carne consumida por agentes com Renda Baixa</text></g><g class="g-xtitle"><text class="xtitle" x="316.5" y="287.8" text-anchor="middle" style="font-family: 'Open Sans', verdana, arial, sans-serif; font-size: 14px; fill: rgb(42, 63, 95); opacity: 1; font-weight: normal; white-space: pre;">Tempo (dia)</text></g><g class="g-ytitle" transform="translate(1.4873046875,0)"><text class="ytitle" transform="rotate(-90,11.512500000000003,134)" x="11.512500000000003" y="134" text-anchor="middle" style="font-family: 'Open Sans', verdana, arial, sans-serif; font-size: 14px; fill: rgb(42, 63, 95); opacity: 1; font-weight: normal; white-space: pre;">Quantidade de carne(g)</text></g></g></svg>