<svg class="main-svg" xmlns="http://www.w3.org/2000/svg" xmlns:xlink="http://www.w3.org/1999/xlink" width="600" height="300" viewBox="0 0 600 300"><rect x="0" y="0" width="600" height="300" style="fill: rgb(255, 255, 255); fill-opacity: 1;"/><defs id="defs-f13884"><g class="clips"><clipPath id="clipf13884xyplot" class="plotclip"><rect width="520" height="218"/></clipPath><clipPath class="axesclip" id="clipf13884x"><rect x="55" y="0" width="520" height="300"/></clipPath><clipPath class="axesclip" id="clipf13884y"><rect x="0" y="25" width="600" height="218"/></clipPath><clipPath class="axesclip" id="clipf13884xy"><rect x="55" y="25" width="520" height="218"/></clipPath></g><g class="gradients"/></defs><g class="bglayer"><rect class="bg" x="51" y="21" width="528" height="226" style="fill: rgb(229, 236, 246); fill-opacity: 1; stroke-width: 0;"/></g><g class="layer-below"><g class="imagelayer"/><g class="shapelayer"/></g><g class="cartesianlayer"><g class="subplot xy"><g class="layer-subplot"><g class="shapelayer"/><g class="imagelayer"/></g><g class="gridlayer"><g class="x"><path class="xgrid crisp" transform="translate(227.39,0)" d="M0,25v218" style="stroke: rgb(255, 255, 255); stroke-opacity: 1; stroke-width: 1px;"/><path class="xgrid crisp" transform="translate(400.25,0)" d="M0,25v218" style="stroke: rgb(255, 255, 255); stroke-opacity: 1; stroke-width: 1px;"/><path class="xgrid crisp" transform="translate(573.11,0)" d="M0,25v218" style="stroke: rgb(255, 255, 255); stroke-opacity: 1; stroke-width: 1px;"/></g><g class="y"><path class="ygrid crisp" transform="translate(0,206.56)" d="M55,0h520" style="stroke: rgb(255, 255, 255); stroke-opacity: 1; stroke-width: 1px;"/><path class="ygrid crisp" transform="translate(0,134.68)" d="M55,0h520" style="stroke: rgb(255, 255, 255); stroke-opacity: 1; stroke-width: 1px;"/><path class="ygrid crisp" transform="translate(0,62.81)" d="M55,0h520" style="stroke: rgb(255, 255, 255); stroke-opacity: 1; stroke-width: 1px;"/></g></g><g class="zerolinelayer"/><path class="xlines-below"/><path class="ylines-below"/><g class="overlines-below"/><g class="xaxislayer-below"/><g class="yaxislayer-below"/><g class="overaxes-below"/><g class="plot" transform="translate(55, 25)" clip-path="url('#clipf13884xyplot')"><g class="scatterlayer mlayer"><g class="trace scatter trace2f682f" style="stroke-miterlimit: 2; opacity: 1;"><g class="fills"/><g class="errorbars"/><g class="lines"><path class="js-line" d="M0,21.35L3.79,20.71L4.26,20.5L4.74,18.63L5.21,19.67L5.68,20L6.63,19.96L7.1,19.52L8.52,18.79L9,21.15L9.95,20.57L10.42,19.86L11.37,19.61L11.84,21.18L12.31,20.49L12.79,20.95L13.26,22.24L15.15,21.15L15.63,20.19L16.1,19.23L16.58,19.87L17.05,20.13L18.47,21.5L18.94,21.89L19.42,22.77L19.89,21.93L20.84,19.91L21.31,20.61L22.26,21.49L22.73,22.13L23.68,22.04L24.15,20.72L24.63,19.81L25.1,20.35L25.57,20.41L26.52,18.73L26.99,19.92L27.94,19.34L28.42,19.65L29.84,20.8L30.31,20.7L30.78,19.84L31.26,21.01L31.73,22.08L32.2,21.29L32.68,19.8L33.15,21.72L33.62,20.83L34.1,20.4L35.05,22.24L35.52,20.26L35.99,20.79L36.47,19.31L36.94,19.78L37.41,21.9L38.83,21.26L39.31,22.36L40.73,26.02L41.2,25.64L41.68,24.35L42.15,24.57L42.62,25.9L43.57,26L44.04,26.09L45.46,23.57L45.94,23.84L46.41,23.24L46.89,23.8L47.36,23.36L48.78,21.81L49.25,21.88L49.73,22.15L50.2,21.33L50.67,21.26L51.15,20.09L52.09,18.45L52.57,18.76L53.04,17.69L53.52,17.91L53.99,17.55L54.94,15.62L55.41,16.2L55.88,16.93L56.36,15.54L58.25,15.95L58.72,16.56L59.2,17.82L59.67,17.35L60.15,17.97L60.62,17.64L61.09,18.33L62.04,20.32L62.51,20.56L64.41,20.07L64.88,20.39L66.78,22.68L67.25,22.6L67.72,23.32L68.2,22.7L68.67,22.09L69.62,21.04L70.09,22.41L70.56,23.55L71.04,22.94L71.51,23.01L71.99,23.36L72.46,22.08L73.88,21.79L74.35,20.56L75.3,19.95L75.77,20.05L77.19,17.67L77.67,16.45L78.14,17.24L78.62,16.37L79.09,15.65L79.56,16.4L81.46,17.67L81.93,18.17L84.3,16.64L84.77,17.74L85.72,18.77L86.19,18.16L87.61,18.31L88.09,17.63L89.03,15.95L89.51,16.33L89.98,17.23L90.93,18.69L91.4,18.01L92.82,16.7L93.3,18.66L94.72,17.88L95.19,18.46L96.61,20.52L97.09,19.61L97.56,19.2L98.03,20.44L99.45,20.56L99.93,20.76L101.35,20.31L101.82,20.71L102.3,20.87L102.77,19.4L104.66,18.24L105.14,16.21L105.61,16.55L106.08,15.15L107.03,15.31L107.5,15.52L108.93,15.12L109.4,14.48L110.35,16.34L110.82,16.07L111.77,16.14L112.24,18.48L112.71,18.4L113.19,20.16L113.66,21.12L114.13,20.1L116.03,16.78L116.5,16.5L116.98,15.34L117.45,15.81L117.92,15.64L118.87,16.03L119.34,13.58L119.82,14.97L120.29,14.49L120.77,12.39L121.24,12.05L121.71,13.48L122.66,13.34L123.13,15.08L123.61,14.63L124.08,15.37L124.55,15.03L125.03,13.34L126.45,14.04L126.92,13.66L127.4,13.17L127.87,15.47L129.29,18.36L129.76,17.58L131.18,19.38L131.66,19.05L132.13,20.4L132.6,19.14L133.08,19.11L133.55,20.52L134.5,20.28L134.97,19.41L135.45,19.35L135.92,18.34L136.87,17.63L137.34,16.35L138.29,15.07L138.76,15.62L139.23,15.6L140.18,17.33L140.66,16.51L141.13,16.47L141.6,17.56L143.02,18.45L143.5,18.08L146.34,19.19L146.81,20.6L147.76,18.95L148.23,18.68L149.18,19.79L149.65,19.06L151.07,18.19L151.55,19.2L152.97,21.82L153.44,20.97L153.92,19.6L154.39,21.61L154.86,21.76L155.34,21.12L156.28,19.47L156.76,21.32L157.7,20.79L158.18,21.62L159.6,17.46L160.07,16.82L161.02,18.91L161.49,18.45L161.97,17.4L162.44,18.09L162.91,17.98L163.86,15.4L164.34,15.77L164.81,16.56L165.28,15.71L165.76,17.13L167.18,19.23L167.65,18.55L169.07,19.54L169.54,20.27L170.97,19.83L171.44,19.78L172.39,20.06L172.86,19.64L176.65,12.49L177.12,13.56L177.6,12.44L178.07,13.9L178.54,13.7L179.02,12.3L179.96,12.93L180.44,12.03L180.91,11.86L181.38,13.17L181.86,12.81L182.33,13.82L182.81,16.34L183.28,15.95L183.75,16.04L184.23,15.23L184.7,16.48L185.65,13.71L186.12,14.43L188.96,17L189.44,17.15L191.33,16.4L191.8,16.48L192.75,17.72L193.22,17.7L194.64,17.45L195.12,16.47L196.07,14.5L196.54,15.26L197.01,14.83L197.49,15.56L198.91,13.84L199.38,14.16L200.8,14.31L201.28,14.41L202.22,14.52L202.7,13.68L203.64,14.64L204.12,13.52L205.06,13.77L205.54,15.62L206.48,15.73L206.96,14.54L207.43,15.27L207.91,14.15L208.85,14.99L209.33,16.14L210.27,17.49L210.75,15.69L211.69,17.52L212.17,16.91L212.64,16.22L213.59,16.02L214.06,17.32L215.48,16.24L215.96,16.16L216.9,15.75L217.38,16.62L218.32,18.36L218.8,17.64L220.69,20.06L221.17,18.82L221.64,18.96L222.11,20.14L222.59,20.9L223.06,19.07L223.53,17.89L224.01,18.69L224.48,18.36L226.38,15.89L226.85,16.6L227.8,14.97L228.27,15.8L229.22,16.42L229.69,15.98L230.64,17.14L231.11,16.8L231.58,16.3L232.06,17.26L232.53,15.65L233.48,15.47L233.95,15.45L234.43,15.63L234.9,14.62L235.85,14.58L236.32,13.74L237.27,13.28L237.74,14.43L240.11,16.15L240.58,16.74L241.06,15.85L241.53,17.04L242.48,18.73L242.95,18.13L243.42,18.38L243.9,19.67L244.37,21.36L244.85,20.47L245.32,19.82L246.27,19.08L246.74,20.04L247.69,19.32L248.16,19.21L248.63,20.36L249.11,19.3L250.05,18.94L250.53,18.07L251.95,14.67L252.42,14.86L253.37,15.29L253.84,15.18L254.32,16.74L254.79,16.28L255.26,16.32L256.68,14.67L257.16,15.94L257.63,16.38L258.11,18.19L259.53,17.43L260,18.74L262.84,16.16L263.32,17.23L263.79,17.92L264.26,17.56L264.74,17.73L265.21,16.97L265.68,18.03L266.63,19.34L267.1,17.34L269.47,21.37L269.95,21.46L270.42,21.04L270.89,22.03L271.84,20.87L272.31,21.3L274.68,19.55L275.15,20.42L276.1,16.88L276.58,17.03L277.05,16.73L278.94,13.82L279.42,13.45L280.36,14.05L280.84,14.92L281.79,16.29L282.26,15.32L284.63,15.18L285.1,15.02L286.52,15.52L286.99,14.1L288.42,12.02L288.89,12.94L289.84,13.99L290.31,14.37L293.15,17.68L293.62,17.92L295.05,15.87L295.52,16.83L297.41,13.08L297.89,13.07L298.83,11.59L299.31,12.33L300.73,11.74L301.2,13.95L302.62,14.97L303.1,16.22L303.57,14.5L304.04,16.41L304.52,17.98L304.99,17.52L305.46,16.67L305.94,18.26L306.41,17.21L308.31,17.91L308.78,18.23L309.73,17.53L310.2,16.76L311.15,15.98L311.62,15.33L312.09,15.02L312.57,17.35L313.52,15.49L313.99,15.94L314.94,16.89L315.41,15.37L316.36,15.61L316.83,14.57L317.3,14.54L317.78,16.13L318.25,16.19L318.72,17.04L319.2,17.65L319.67,16.58L321.09,16.95L321.57,16.53L322.99,16.86L323.46,15.85L324.41,16.61L324.88,15.96L327.25,13.02L327.72,14.1L329.14,13.03L329.62,13.11L331.04,14L331.51,13.15L331.99,12.81L332.46,14.05L333.41,14.17L333.88,13.37L335.77,15.16L336.25,14.32L336.72,14.87L337.19,11.84L337.67,12.83L338.14,11.6L339.09,13.03L339.56,11.89L340.51,12L340.98,13.64L343.35,15.6L343.83,14.82L344.3,17.65L344.77,17.53L345.25,18.13L346.19,18.63L346.67,18.85L347.61,20.56L348.09,19.94L348.56,19.02L350.46,14.99L350.93,15.64L351.88,14.54L352.35,15.11L352.82,13.74L353.3,14.15L353.77,14.74L355.19,14.15L355.66,15.58L356.14,15.28L356.61,16.98L357.56,17.06L358.03,15.88L358.98,15.23L359.45,15.9L361.35,17.58L361.82,15.9L362.3,15.97L362.77,15.06L363.24,16.15L363.72,15.57L364.19,15.23L366.08,17.5L366.56,16.92L367.5,15.53L367.98,14.45L369.4,12.36L369.87,12.13L371.77,11.63L372.24,11.34L373.19,11.32L373.66,12.45L375.08,13.65L375.56,14.52L376.5,15.57L376.98,16.47L378.4,18.24L378.87,17.67L380.29,16.05L380.77,15.4L381.71,16.11L382.19,15.25L383.13,15.81L383.61,16.85L384.08,16.69L384.55,15.11L385.03,13.82L385.5,14.5L385.97,16.25L387.4,18.99L387.87,18.49L388.82,17.11L389.29,17.93L390.24,17.92L390.71,17.25L391.66,16.88L392.13,18.12L392.6,18.55L393.08,17.21L394.5,16.4L394.97,16.26L395.92,18.23L396.39,17.56L398.76,22.14L399.23,21.75L399.71,21.89L401.6,21.18L402.08,22.31L402.55,22.95L403.02,21.6L403.5,21.45L403.97,19.94L404.92,19.51L405.39,18.21L406.34,18.82L406.81,17.4L408.23,17.99L408.71,19.59L409.65,17.24L410.13,18.19L412.02,20L412.5,20.33L413.44,19.52L413.92,21.14L414.86,21.15L415.34,21.18L416.76,23.19L417.23,25.08L418.65,26.41L419.13,26.41L421.02,23.4L421.49,25.12L423.86,19.56L424.34,16.84L425.76,15.29L426.23,14.73L426.7,16.13L427.18,15.66L427.65,15.79L428.12,16.39L428.6,14.96L429.07,14.43L429.54,14.86L430.02,15.65L432.39,18.01L432.86,18.05L433.81,17.76L434.28,18.71L434.75,19.96L435.23,19.38L435.7,19.32L437.6,21.39L438.07,20.56L439.02,22.14L439.49,21.28L440.91,21.19L441.38,20.44L441.86,19.81L442.33,21.09L443.75,23.95L444.23,23.39L445.17,23.09L445.65,20.7L447.07,18.24L447.54,18.44L448.49,19.09L448.96,18.87L449.44,18.12L449.91,15.65L451.33,13.22L451.8,14.15L452.28,13.53L452.75,15.39L453.7,17.07L454.17,19.63L456.07,19.67L456.54,19.43L458.43,23.31L458.91,23.87L459.38,25.63L459.85,25.06L460.33,24.98L461.28,22.92L461.75,23.56L463.64,21.35L464.12,21.41L465.06,20.07L465.54,20.73L466.01,21L466.48,20.21L467.43,21.28L467.91,21.3L469.33,22.95L469.8,23.71L470.75,25.12L471.22,24.57L471.69,26.21L472.17,25.94L472.64,23.43L474.06,21.78L474.54,22.12L475.96,22.94L476.43,22.44L477.38,21.11L477.85,22.33L478.8,22.57L479.27,22.71L480.69,26.64L481.17,26.22L481.64,26.56L482.11,25.84L483.06,23.33L483.53,23.6L484.01,23.91L484.48,24L484.95,22.42L485.9,23.07L486.38,24.44L487.8,21.85L488.27,22.66L489.22,21.94L489.69,23.07L491.58,21.78L492.06,22.96L493.48,18.79L493.95,19.23L494.9,20.46L495.37,19.54L496.79,18.44L497.27,18.94L498.21,20.17L498.69,19.96L499.16,20.22L499.64,21.97L501.06,25.38L501.53,26.28L502,25.85L502.48,26.78L503.9,28.75L504.37,29.09L505.32,26L505.79,26.4L506.27,26.58L506.74,25.49L507.69,24.07L508.16,23.68L509.58,21.43L510.05,20.34L511.48,20.17L511.95,21.24L513.84,24.31L514.32,24.63L515.26,24.27L515.74,25.56L516.68,25.52L517.16,25.52L520,25.52" style="vector-effect: non-scaling-stroke; fill: none; stroke: rgb(99, 110, 250); stroke-opacity: 1; stroke-width: 2px; opacity: 1;"/></g><g class="points"/><g class="text"/></g><g class="trace scatter trace191d43" style="stroke-miterlimit: 2; opacity: 1;"><g class="fills"/><g class="errorbars"/><g class="lines"><path class="js-line" d="M0,60.23L3.32,60.23L3.79,61.13L4.74,59.91L5.21,61.05L5.68,60.38L6.16,61.24L8.05,58.06L8.52,58.38L9,60.27L9.47,59.33L9.95,59.36L12.31,57.97L12.79,59.02L13.26,58.59L13.73,60.35L14.21,60.38L14.68,61.75L15.63,62.46L16.1,61.16L17.05,59.85L17.52,60.53L19.42,61.94L19.89,60.65L20.36,61.07L20.84,59.91L23.21,57.22L23.68,57.54L24.63,58.44L25.1,58.58L26.52,55.71L26.99,57.02L27.94,57.2L28.42,58.5L28.89,58.54L29.36,59.5L31.73,60.5L32.2,58.6L33.62,59.75L34.1,58.51L35.52,58.36L35.99,58.93L36.94,58.21L37.41,55.96L37.89,55.94L38.36,54.42L38.83,53.07L39.31,54.28L40.73,54.03L41.2,53.85L43.57,49.25L44.04,49.42L45.46,51.96L45.94,52.32L47.83,51.83L48.31,52L49.25,53.77L49.73,52.33L52.09,49.38L52.57,47.26L53.04,46.81L53.52,45.1L54.46,45.86L54.94,44.45L55.88,45.14L56.36,43.38L58.72,46.69L59.2,46.78L60.62,48.38L61.09,47.55L62.51,45.6L62.99,45.74L63.93,45.93L64.41,43.96L65.83,39.95L66.3,41.79L67.25,41.38L67.72,40.02L69.62,42.02L70.09,41.28L71.04,41.09L71.51,42.07L71.99,41.25L72.46,41.54L72.93,43.32L73.88,41.98L74.35,41.89L74.83,44.68L75.3,43.84L75.77,44.98L76.72,43.19L77.19,43.93L78.14,45.83L78.62,45.44L79.56,47.98L80.04,45.62L80.51,44.64L80.98,45.81L81.93,44.97L82.4,45.4L83.83,44.16L84.3,44.98L85.25,43.65L85.72,44.29L86.19,43.36L86.67,44.38L87.61,48.1L88.09,47.26L88.56,48.07L89.98,46.43L90.46,47.79L90.93,47.62L91.4,46.64L92.35,47.64L92.82,47.71L93.77,46.21L94.24,45.34L95.19,43.59L95.66,43.82L96.14,43.16L96.61,43.54L97.09,43.43L98.03,43.7L98.51,42.04L99.93,40.29L100.4,40.79L100.87,39.75L101.35,40.51L102.3,40.92L102.77,38.65L104.66,37.46L105.14,37.54L105.61,38.03L106.08,36.87L106.56,36.87L107.03,35.04L109.4,32.45L109.87,33.9L111.29,34.55L111.77,34.2L112.24,34.38L112.71,35.51L114.61,37.65L115.08,39.32L116.98,40.94L117.45,40.01L117.92,39.25L118.4,40.92L119.34,39.93L119.82,38.65L120.29,37.97L120.77,38.55L121.24,38.76L122.19,38.88L122.66,37.24L123.13,36.58L123.61,37.07L124.08,38.07L125.03,39.64L125.5,37.77L125.97,37.03L126.45,37.69L127.4,37.82L127.87,36.51L129.29,33.53L129.76,34.96L130.24,35.3L130.71,34.45L132.6,33.54L133.08,35.33L133.55,34.41L134.03,35.53L136.87,39.96L137.34,40.53L138.76,41.24L139.23,40.51L139.71,41.52L140.18,39.8L140.66,40.25L141.13,39.18L141.6,39.44L142.08,38.69L143.97,37.23L144.44,36.57L145.39,36.84L145.87,36.94L146.34,37.14L146.81,36.27L149.18,39.67L149.65,38.53L153.44,38.28L153.92,39.08L154.39,38.71L154.86,36.91L156.28,36.75L156.76,40.44L158.18,41.23L158.65,40.78L159.13,41.16L159.6,39.99L160.55,40.35L161.02,39.84L161.97,42.62L162.44,41.4L163.39,40.86L163.86,38.32L164.34,37.77L164.81,38.2L165.28,38.5L165.76,39.53L166.23,38.09L168.12,39.96L168.6,39.09L169.54,37.46L170.02,38.4L170.97,38.24L171.44,36.18L173.33,32.29L173.81,32.07L175.23,28.94L175.7,29.22L177.12,30.02L177.6,29.35L178.07,28.66L178.54,30.3L179.96,29.54L180.44,30.15L182.33,28.83L182.81,27.36L183.75,29.31L184.23,29.35L186.12,32.63L186.59,32.34L188.01,32.1L188.49,32.66L189.91,33.94L190.38,32.37L191.33,32.12L191.8,31.16L193.22,29.76L193.7,29.7L194.64,29.65L195.12,28.37L196.54,24.48L197.01,24.37L197.49,24.76L197.96,22.62L199.38,22.32L199.85,22.52L201.75,23.3L202.22,24L203.64,27.55L204.12,27.44L204.59,25.59L205.06,26.7L205.54,27.49L206.48,25.51L206.96,25.78L207.91,25.05L208.38,26.25L209.33,27.54L209.8,27.23L210.75,28.53L211.22,30.16L211.69,32.35L212.17,31.91L212.64,31.07L213.11,32.64L213.59,32.28L214.06,32.4L215.01,33.44L215.48,34.37L216.43,33.18L216.9,32.51L217.85,30.12L218.32,28.55L218.8,27.64L219.27,28.5L219.74,29.16L220.22,27.92L221.64,28.36L222.11,26.96L223.06,25.84L223.53,27.8L224.48,26.98L224.95,28.65L226.38,30.58L226.85,29.76L227.8,29.19L228.27,28.28L228.74,28.05L229.22,29.01L230.64,26.08L231.11,27.06L231.58,27.86L232.06,26.67L233.95,24.37L234.43,25.93L234.9,26.69L235.37,26.05L235.85,25.5L237.27,24.88L237.74,23.86L239.16,22.51L239.64,23.52L241.06,24.53L241.53,24.15L243.9,25.86L244.37,26.75L246.27,29.96L246.74,29.56L247.21,29.25L247.69,30.17L248.16,30.91L248.63,29.56L249.11,29.59L249.58,28.48L252.9,26.43L253.37,24.6L254.79,21.35L255.26,19.64L256.68,21.48L257.16,20.51L258.58,20.96L259.05,20.46L259.53,19.59L260,20.61L260.47,20.63L260.95,21.5L263.79,23.49L264.26,24.2L265.21,24.98L265.68,24.53L267.58,27.44L268.05,27.55L269,29.5L269.47,28.42L269.95,28.41L270.42,27.09L271.37,25.33L271.84,25.95L272.79,26.74L273.26,25.72L275.15,23.74L275.63,22.4L276.1,22.61L276.58,24.07L278,24.47L278.47,23.53L279.89,20.62L280.36,22.31L281.31,20.04L281.79,20.94L282.73,20.89L283.21,20.41L283.68,18.71L284.15,19.15L284.63,19.5L285.57,19.42L286.05,19.7L286.99,20.42L287.47,18.86L288.89,19.71L289.36,19.09L290.31,18.25L290.78,18.88L291.73,18.56L292.2,19.86L293.15,21.1L293.62,20.36L294.1,19L294.57,19.52L295.05,19.13L295.52,19.64L295.99,18.82L296.94,19.57L297.41,20L297.89,19.39L298.36,20.05L298.83,21.2L299.31,20.96L299.78,19.84L301.2,20.36L301.68,19.86L302.62,21.41L303.1,21.59L303.57,21.11L304.04,22.35L304.52,22.14L304.99,22.88L305.46,23.12L305.94,22.52L306.89,26.03L307.36,25.9L307.83,27.03L308.78,28.71L309.25,27.2L310.2,27.73L310.67,28.91L312.09,28.8L312.57,28.14L313.04,28.64L313.52,26.01L314.94,24.51L315.41,24.42L316.36,24.86L316.83,23.6L317.3,23.7L317.78,22.13L319.2,19.62L319.67,19.41L320.15,17.08L320.62,17.56L321.09,17.79L323.46,12.34L323.93,12.62L324.88,14.31L325.36,14.94L325.83,15.39L326.3,14.71L326.78,13.64L327.25,15.45L327.72,14.43L328.2,15.71L330.09,19.44L330.56,21.64L332.46,24.43L332.93,24.64L333.88,27.61L334.35,27.12L334.83,27.85L335.3,26.93L335.77,27.63L336.25,27.36L337.19,28.57L337.67,27.91L339.09,29.3L339.56,28.78L340.04,28.39L340.51,29.72L343.35,33.51L343.83,31.77L344.3,32.35L344.77,31.25L346.19,26.51L346.67,26.79L347.61,26.19L348.09,25.25L348.56,23.69L349.03,23.89L349.51,23.61L349.98,21.13L350.46,22.29L350.93,22.41L352.35,22.96L352.82,23.87L355.66,21.66L356.14,22.42L358.03,25.8L358.51,25.24L362.3,32.38L362.77,33.65L364.19,33.94L364.66,33.84L365.61,33.6L366.08,33.86L367.03,34.04L367.5,33.01L367.98,33.51L368.45,32.7L369.87,31.53L370.35,31.32L371.29,32.8L371.77,32.51L373.19,33.45L373.66,33.21L374.13,33.43L374.61,34.58L376.03,36.67L376.5,36.59L378.4,33.78L378.87,35.88L381.71,38.11L382.19,36.2L383.61,39.26L384.08,38.85L384.55,39.08L385.97,39.76L386.45,39.48L387.87,41.7L388.34,41.7L388.82,41.07L389.29,42.26L390.71,41.43L391.18,42.4L392.13,41.56L392.6,42.26L393.55,41.81L394.03,40.76L394.5,40.48L394.97,41.8L395.45,41.26L395.92,42.62L397.34,42.22L397.81,42.61L399.23,45.94L399.71,45.38L400.18,45.18L401.13,46.58L401.6,45.96L402.08,44.52L402.55,45.5L403.02,45.49L403.5,46.27L405.87,44.36L406.34,43.2L408.23,42.49L408.71,44.13L409.18,45.23L409.65,44.78L410.13,42.96L410.6,42.55L411.07,43.85L414.39,51.68L414.86,51.33L416.28,52.2L416.76,53.53L417.23,53.92L417.7,55.57L418.65,56.1L419.13,56.7L420.55,55.3L421.02,54.4L421.49,53.89L421.97,55.39L422.91,56.58L423.39,56.07L423.86,56.11L424.34,57.01L426.23,54.85L426.7,55.78L428.6,58.86L429.07,58.4L429.54,58.41L430.02,57.29L431.91,58.71L432.39,57.86L433.33,59.17L433.81,58.82L434.75,58.88L435.23,60.65L436.65,61.64L437.12,63.83L439.02,68.47L439.49,70.15L442.33,72.59L442.81,72.05L443.75,72.82L444.23,72.12L444.7,72.18L445.17,71.37L446.59,69.12L447.07,69.46L448.49,69.51L448.96,69.79L449.44,68.74L449.91,69.45L450.38,69.92L454.64,77.4L455.12,77.47L456.54,79.56L457.01,79.4L458.91,76.59L459.38,77.26L460.8,78.92L461.28,77.48L462.22,76.74L462.7,74.82L463.64,73.41L464.12,74.41L465.54,74.8L466.01,73.89L468.85,67.7L469.33,68.04L470.75,70.98L471.22,69.69L472.17,69.88L472.64,69.66L474.06,71.68L474.54,72.99L475.01,73.33L475.48,75.02L477.85,77.48L478.32,77.7L479.74,79.87L480.22,79.67L480.69,80.17L481.17,78.34L481.64,76.37L482.11,77.09L482.59,76.7L483.53,75.56L484.01,75.71L484.48,75.74L484.95,74.42L485.43,74.83L485.9,74.16L486.85,74.21L487.32,73.76L488.27,74.24L488.74,75.25L489.69,73.75L490.16,74.13L491.58,73.65L492.06,74.95L492.53,74.62L493.01,75.99L493.95,75.18L494.43,76.52L495.85,74.93L496.32,74.36L497.74,74.03L498.21,74.93L499.16,74.16L499.64,74.51L500.11,73.96L500.58,74.42L501.06,75.39L503.42,81.38L503.9,83.71L506.27,87.37L506.74,87.36L507.69,87.48L508.16,86.61L508.63,85.78L509.11,86.21L509.58,87.96L510.05,87.88L510.53,89.05L511,87.8L511.48,88.25L511.95,87.59L512.9,86.32L513.37,86.25L515.74,89.71L516.21,89.87L517.16,88.58L517.63,88.58L520,88.58" style="vector-effect: non-scaling-stroke; fill: none; stroke: rgb(239, 85, 59); stroke-opacity: 1; stroke-width: 2px; opacity: 1;"/></g><g class="points"/><g class="text"/></g><g class="trace scatter trace3e4f45" style="stroke-miterlimit: 2; opacity: 1;"><g class="fills"/><g class="errorbars"/><g class="lines"><path class="js-line" d="M0,98.4L4.74,97.7L5.21,97.3L6.16,97.39L6.63,96.19L8.05,96.22L8.52,97.18L9,99.1L9.47,98.06L9.95,97.77L11.84,96.15L12.31,97.45L13.73,101.05L14.21,100.73L14.68,100.77L16.1,97.48L16.58,98.82L17.05,100.36L17.52,99.97L18,99.58L19.42,100.66L19.89,99L20.36,100.17L20.84,98.75L21.31,99.71L21.79,99.43L22.26,99.86L22.73,100.5L23.21,100.09L23.68,98.36L24.15,98.24L24.63,99.35L25.57,100.07L26.05,100.14L26.52,98.84L26.99,99.87L28.42,98.36L28.89,98.26L29.36,97.78L29.84,98.39L30.78,100.09L31.26,99.77L32.2,96.57L32.68,96.77L33.15,97.28L34.1,97.9L34.57,96.68L35.05,97.29L35.52,96.58L35.99,97.41L36.47,96.04L38.36,89.57L38.83,90.25L39.78,89.6L40.26,88.45L42.15,84.29L42.62,83.87L43.1,82.27L43.57,83.84L44.04,83.76L44.52,85.65L45.46,86.63L45.94,85.54L46.89,86.73L47.36,86.19L48.31,87.89L48.78,88.17L50.2,88.47L50.67,87.56L51.15,88.36L51.62,86.19L52.57,85.63L53.04,85.97L55.41,83.17L55.88,82.97L57.78,80.84L58.25,80.14L58.72,81.11L59.2,80.29L60.62,77.78L61.09,78.49L61.57,79.32L62.04,78.66L62.51,77.75L63.46,79.65L63.93,79.05L64.88,80.04L65.36,81.24L65.83,80.59L66.3,82.6L67.25,82.78L67.72,82.86L68.67,82.6L69.14,83.3L69.62,84.39L70.09,82.9L70.56,82.92L71.04,84.97L71.51,84.5L71.99,85.86L72.93,84.53L73.41,85.23L73.88,85.17L74.35,86.4L77.19,86.46L77.67,86.33L78.62,85.56L79.09,86.08L79.56,86.14L80.04,87.86L80.98,86.8L81.46,87.52L81.93,87.43L82.4,86.25L83.83,86.4L84.3,88.11L87.14,87.6L87.61,86.61L88.09,86.55L88.56,83.91L89.51,83.97L89.98,84.39L90.93,82.12L91.4,79.73L91.88,79.64L92.35,78.56L92.82,78.55L93.3,77.5L94.24,75.88L94.72,76.58L95.19,75.9L95.66,77.01L96.14,77.32L96.61,76.29L97.09,75.43L97.56,76.03L98.03,76.93L98.51,77.54L98.98,77.15L99.45,77.21L100.4,74.16L100.87,75.19L101.82,73.75L102.3,74.52L105.14,72.02L105.61,72.58L106.56,72.58L107.03,73.17L107.5,74.54L107.98,74.37L108.45,74.39L108.93,74.95L109.4,74.1L110.35,73.9L110.82,75.29L112.24,73.84L112.71,72.68L113.19,72.76L113.66,71.71L114.13,73.14L114.61,72.24L115.08,71.18L116.5,73.19L116.98,72.32L118.4,72.96L118.87,73.39L119.82,73.48L120.29,74.57L120.77,75.28L121.24,74.08L122.19,74.77L122.66,74.35L123.61,73.66L124.08,74.01L125.03,73.7L125.5,72.59L127.4,68.84L127.87,68.61L129.29,70.97L129.76,71.01L130.71,70.6L131.18,71.35L132.13,70.48L132.6,71.69L133.08,72.29L133.55,74.27L134.03,74.12L134.5,74.77L134.97,75.26L135.45,74.76L135.92,73.79L136.39,72.48L136.87,74.26L137.34,75.01L137.81,74.44L138.29,74.11L139.71,78.53L140.18,79.67L141.6,76.99L142.08,78.55L142.55,77.47L143.02,78.84L143.5,79.12L143.97,76.98L144.44,76.22L144.92,76.7L145.39,76.68L146.81,73.6L147.29,72.56L147.76,72.77L148.23,74.82L148.71,75.35L149.18,73.98L150.13,75.37L150.6,74.66L151.55,76.65L152.02,75.76L154.39,78.22L154.86,79.3L155.34,79.44L155.81,78.68L157.23,77.69L157.7,78.61L159.13,78.17L159.6,78L161.02,77.17L161.49,77.13L162.44,76.21L162.91,76.89L163.39,77.68L163.86,76.57L164.81,75.86L165.28,75.92L167.65,78.04L168.12,77.38L170.97,74.81L171.44,75.05L171.91,74.28L172.39,71.95L175.7,63.01L176.17,63.31L177.12,61.31L177.6,62.07L178.54,61.86L179.02,61.29L180.44,62.17L180.91,62.23L181.38,62.34L181.86,64.63L182.81,65.55L183.28,64.79L183.75,64.61L184.23,65.54L185.65,65.9L186.12,67.07L187.54,69.61L188.01,69.16L189.44,67.41L189.91,67.83L191.33,69.85L191.8,69.14L192.28,68.64L192.75,69.4L193.7,68.54L194.17,67.94L196.07,69.48L196.54,69.54L198.91,65.17L199.38,64.63L200.33,61.93L200.8,62.93L201.28,63.34L201.75,62.65L202.7,63.16L203.17,61.2L205.06,60.03L205.54,60.82L206.96,63.72L207.43,62.61L209.33,60.52L209.8,61.39L211.69,64.38L212.17,64.66L213.59,64.72L214.06,63.66L215.48,67.57L215.96,67.16L216.43,67.64L217.38,68.84L217.85,68.38L218.32,68.7L218.8,68.41L219.27,69.43L220.69,70.03L221.17,71.53L223.06,68.45L223.53,69.22L224.48,66.83L224.95,67.19L225.43,66.83L227.32,63.17L227.8,63.02L229.22,61.11L229.69,61.48L230.16,62.16L230.64,60.65L231.11,61.26L231.58,60.5L232.53,59.42L233.01,60.17L233.95,61.31L234.43,60.76L234.9,60.92L236.79,63.9L237.27,62.67L238.21,63.12L238.69,65.43L240.11,67.83L240.58,66.29L241.06,65.68L241.53,66.4L242,67.71L242.48,67.24L242.95,67.68L244.37,65.58L244.85,65.88L245.32,66.38L245.79,65.14L246.27,65.41L246.74,64.36L247.21,64.72L247.69,66.43L248.16,67.51L248.63,65.51L249.11,63.37L249.58,64.17L250.05,64.21L250.53,64.54L251,63.06L251.48,63.18L251.95,62.1L252.9,60.94L253.37,60.81L253.84,61.06L254.32,60.44L255.74,62.42L256.21,63.49L257.16,59.55L257.63,59.71L258.11,61.74L258.58,62.15L259.05,64.26L259.53,63.93L260,64.84L260.95,64.06L261.42,65.01L262.84,61.54L263.32,60.93L264.26,63.26L264.74,62.81L265.21,62.59L265.68,61.93L266.16,59.66L267.58,60.95L268.05,59.76L268.52,59.53L269,60.95L271.37,64.33L271.84,63.66L272.31,63.27L272.79,65.41L273.73,67.43L274.21,66.76L275.15,65.11L275.63,63.78L277.05,58.57L277.52,59.56L278,59.11L278.47,56.79L278.94,58.34L279.42,57.76L279.89,55.91L281.79,52.63L282.26,53.73L282.73,53.15L283.21,54.81L284.15,55.2L284.63,54.29L286.99,54.42L287.47,55.53L288.89,56.22L289.36,55.92L290.78,54.89L291.26,55.5L291.73,55.96L292.2,54.41L293.15,54.92L293.62,54.75L294.1,55.41L294.57,54.37L295.52,53.35L295.99,54.27L297.41,56.19L297.89,55.82L298.83,54.2L299.31,54.78L300.73,55.1L301.2,53.32L302.15,54.87L302.62,56.73L303.57,56.71L304.04,58.01L308.31,64.53L308.78,64.78L309.73,64.67L310.2,65.45L311.62,64.74L312.09,64.41L312.57,63.51L313.04,64L313.52,64.5L314.94,62.55L315.41,62.28L315.88,60.15L316.36,61.06L316.83,59.44L319.67,52.62L320.15,52.98L321.57,51.15L322.04,51.92L322.99,53.67L323.46,52.04L324.41,51.81L324.88,53.07L325.36,53.07L325.83,54.7L326.78,57.14L327.25,54.37L328.67,55.33L329.14,54.25L330.56,56.49L331.04,57.95L331.99,58.18L332.46,58.4L333.41,57.02L333.88,58.02L334.83,61.75L335.3,61.38L335.77,60.62L336.25,62.32L336.72,62.01L337.19,62.19L337.67,62.97L338.14,61.02L339.56,64.16L340.04,65.23L342.4,62.44L342.88,62.82L343.83,62.1L344.3,63.12L344.77,61.83L345.25,62.9L346.67,58.87L347.14,57.76L348.09,59.01L348.56,59.08L349.98,59.81L350.46,59.08L350.93,59.9L351.4,59.17L352.35,58.51L352.82,59.15L354.72,57.18L355.19,58.47L355.66,57.62L356.14,58.49L357.56,61.14L358.03,60.9L358.51,61.35L363.24,75.77L363.72,75.78L365.61,75.38L366.08,75.99L367.5,74.92L367.98,74.41L368.93,74.59L369.4,73.93L370.35,74.27L370.82,74.36L372.24,74.97L372.71,75.74L373.19,74.66L373.66,75L374.13,75.42L375.56,75.97L376.03,75.15L376.98,74.76L377.45,74.06L378.4,72.43L378.87,72.92L379.34,72.64L379.82,72.11L380.29,73.2L380.77,72.53L381.24,73.65L381.71,74.45L382.19,74.06L382.66,73.01L384.08,75.56L384.55,74.79L386.92,80.38L387.4,79.55L387.87,80.22L388.34,79.85L388.82,79.64L390.71,81.29L391.18,80.56L391.66,81.11L392.13,80.51L392.6,80.08L393.08,80.3L393.55,82.32L394.5,81.6L394.97,82.28L398.76,86.41L399.23,88.45L399.71,89.27L400.18,88.29L401.13,87.2L401.6,88.26L403.02,89.22L403.5,88.75L404.44,88.76L404.92,87.79L405.87,89.25L406.34,88.43L408.71,90.55L409.18,89.75L410.13,89.66L410.6,90.31L412.02,92.71L412.5,91.25L413.92,89.08L414.39,90.35L415.34,88.78L415.81,89.3L416.28,90.15L417.7,90.54L418.18,89.38L420.07,91.63L420.55,92.46L422.44,95.11L422.91,94.58L423.39,93.5L424.81,92.71L425.28,93.17L426.23,91.65L426.7,92.43L428.12,91.75L428.6,92.53L430.02,93.26L430.49,94.37L433.33,100.78L433.81,100.2L434.28,100.67L434.75,102.33L435.23,102.9L435.7,101.98L438.54,104.04L439.02,103.87L439.49,105.84L439.96,104.99L440.44,105.39L441.38,106.77L441.86,106.98L442.81,106.18L443.28,106.45L443.75,105.81L444.23,106.61L445.17,107.17L445.65,108.22L446.59,109.27L447.07,109L448.01,109.08L448.49,110.72L448.96,110.61L449.44,112.04L450.38,114.94L450.86,114.67L451.33,114.4L452.28,115.13L452.75,115.65L453.7,116.05L454.17,116.85L455.12,116.95L455.59,115.81L457.01,116.7L457.49,115.97L458.91,119.52L459.38,118.16L459.85,116.78L460.33,118.25L462.7,117.37L463.17,116.07L463.64,116.09L464.12,114.72L466.01,111.34L466.48,111.73L466.96,112.2L467.43,110.47L468.85,108.72L469.33,110.02L471.22,110.1L471.69,111.52L473.59,110.44L474.06,110.78L476.9,114.76L477.38,114.87L478.8,115.37L479.27,116.15L479.74,115.45L480.22,116.36L481.17,116.76L481.64,115.15L482.59,114.72L483.06,113.98L484.01,113.65L484.48,114.33L484.95,114.11L485.43,114.75L488.27,114.63L488.74,114.74L490.16,113.18L490.64,113.01L491.11,111.85L491.58,112.43L492.06,112.16L493.01,111.2L493.48,111.3L494.43,110.81L494.9,110.52L495.37,109.46L495.85,110.14L496.32,110.36L498.21,113.03L498.69,112.78L499.64,111.46L500.11,112.08L502,114.79L502.48,116.37L502.95,116.63L503.42,119.02L503.9,118.58L504.37,119.33L505.79,120.03L506.27,121.57L507.21,123.15L507.69,123.02L508.16,123.98L508.63,123.55L509.11,123.57L511.48,124.66L511.95,124.03L513.37,124.81L513.84,126.32L515.26,126.87L515.74,127.78L517.16,129L517.63,129L520,129" style="vector-effect: non-scaling-stroke; fill: none; stroke: rgb(0, 204, 150); stroke-opacity: 1; stroke-width: 2px; opacity: 1;"/></g><g class="points"/><g class="text"/></g><g class="trace scatter tracefbaf47" style="stroke-miterlimit: 2; opacity: 1;"><g class="fills"/><g class="errorbars"/><g class="lines"><path class="js-line" d="M0,136.91L3.79,136.27L4.26,135.52L4.74,134.97L5.21,135.8L7.1,136.23L7.58,135.16L8.52,135.82L9,135.96L9.95,137.04L10.42,135.97L11.37,136.27L11.84,136.65L12.79,136.45L13.26,137.28L14.21,137.37L14.68,138.59L15.63,138.09L16.1,138.2L18.47,140.76L18.94,140.36L19.42,141.18L19.89,140.11L21.79,136.68L22.26,137.74L25.1,133.14L25.57,132.86L27.47,134.09L27.94,135.31L28.89,136.48L29.36,134.62L30.31,135.42L30.78,134.84L31.73,132.78L32.2,134.47L33.62,135.54L34.1,134.33L34.57,134.79L35.05,133.93L36.94,132.74L37.41,132.24L38.83,132.48L39.31,130.06L41.2,124.58L41.68,123.65L42.15,123.98L42.62,122.68L44.04,120.9L44.52,121.22L45.94,119.85L46.41,120.76L47.36,120.56L47.83,120.91L48.78,120.92L49.25,120.62L50.67,118.35L51.15,118.67L51.62,118.52L52.09,119.21L53.04,120.54L53.52,120.03L53.99,120.13L54.46,119.13L55.88,117.11L56.36,118.01L57.3,118.87L57.78,118.68L58.72,117.97L59.2,117.5L60.62,116.54L61.09,116L62.04,117.32L62.51,117.39L62.99,117.92L63.46,117.06L65.36,117.9L65.83,118.76L66.78,119.6L67.25,118.86L67.72,118.26L68.2,120.92L70.09,123.51L70.56,123.62L72.93,126.6L73.41,126.09L73.88,124.29L74.35,124.67L74.83,125.93L76.72,123.21L77.19,122.75L78.14,122.59L78.62,122.62L80.04,120.62L80.51,121.05L80.98,122.04L81.93,122.33L82.4,122.29L83.35,121.63L83.83,122.5L85.25,122.74L85.72,121.51L86.67,121.22L87.14,122.04L88.56,122.78L89.03,122.07L90.46,120.81L90.93,120.77L92.82,119.73L93.3,120.48L95.66,115.83L96.14,115.63L96.61,115.77L97.09,114.97L97.56,115.67L98.03,114.89L98.98,112.81L99.45,114.17L99.93,113.93L100.4,112.74L101.35,113.59L101.82,112.91L102.3,112.97L102.77,114.11L104.19,114.52L104.66,112.93L105.14,112.9L105.61,114.95L106.08,115.24L106.56,113.09L107.5,113.76L107.98,113.5L110.82,108.66L111.29,108.44L112.24,108.84L112.71,108L114.61,106.58L115.08,106.22L115.56,107.14L116.03,106.86L116.5,107.24L117.45,106.92L117.92,107.42L118.87,107.73L119.34,107.34L122.19,111.4L122.66,109.94L123.13,110.86L123.61,110.11L125.03,110.08L125.5,111.24L126.45,111.08L126.92,110.02L129.29,107.62L129.76,108.56L130.24,108.54L130.71,109.55L131.66,112.04L132.13,111.57L132.6,110.74L133.08,111.99L134.5,114.44L134.97,115.11L136.87,118.91L137.34,119.12L138.29,118.08L138.76,118.91L139.71,119.23L140.18,118.5L141.6,117.61L142.08,117.46L143.02,115.63L143.5,115.13L144.44,114.88L144.92,116.07L145.39,117.49L145.87,116.89L146.34,116.29L147.76,116.78L148.23,116.24L151.55,119.17L152.02,117.9L152.97,115.85L153.44,117.1L154.86,114.61L155.34,115.2L155.81,115.83L156.28,114.16L157.23,113.49L157.7,112.22L158.65,110.79L159.13,111.55L160.07,112.09L160.55,110.48L161.49,110.2L161.97,110.75L162.91,109.75L163.39,111.02L164.34,110.72L164.81,111.57L167.65,112.59L168.12,113.4L168.6,114.3L169.07,113.14L170.49,110.52L170.97,110.74L171.44,110.95L171.91,109.41L175.7,102.54L176.17,103.16L176.65,103.44L177.12,102.33L178.54,100.65L179.02,101.59L179.49,102.4L179.96,101.41L180.44,101.42L180.91,103.05L181.86,102.08L182.33,102.57L183.75,102.54L184.23,103.59L185.65,104.97L186.12,104.97L186.59,103.26L187.07,104.66L187.54,104.74L188.01,103.12L188.49,102.88L188.96,103.93L189.44,103.39L189.91,104.06L190.38,103.39L190.86,103.82L191.33,103.38L193.22,101.7L193.7,102.72L194.17,101.02L194.64,101.38L195.12,102.17L195.59,102.95L196.07,102.56L196.54,101.35L198.43,99.15L198.91,99.55L199.38,98.38L199.85,98.88L200.33,99.86L200.8,99.84L201.28,101.55L202.7,99.81L203.17,99.89L204.12,99.98L204.59,99.25L205.54,99.45L206.01,97.71L207.43,99.05L207.91,98.45L208.38,98.05L208.85,99.55L209.33,99.88L209.8,99.1L210.27,98.61L210.75,99.35L213.59,105.59L214.06,104.3L215.48,102.1L215.96,101.83L217.38,103.93L217.85,103.55L219.27,101.69L219.74,101.8L221.17,100.85L221.64,101.54L222.11,101.69L222.59,103.45L223.06,103.35L223.53,101.79L224.95,102.09L225.43,102.51L226.38,102.57L226.85,102.12L228.27,103.8L228.74,103.29L229.22,103.82L229.69,102.64L231.11,100.44L231.58,100.18L232.06,99.32L232.53,99.73L233.01,99.22L233.95,99.34L234.43,98.13L235.37,96.63L235.85,97.33L236.32,97.09L236.79,98.51L238.21,101.51L238.69,101.37L239.64,101.72L240.11,100.82L240.58,99.63L241.06,100.1L241.53,101.14L243.42,102.93L243.9,103.05L245.79,102.05L246.27,102.21L247.21,103.79L247.69,105.25L248.63,105.77L249.11,104.87L251.48,100.55L251.95,99.54L252.42,99.37L252.9,98.05L253.37,98.42L253.84,97.75L254.79,97.47L255.26,97.25L256.68,95.62L257.16,94.88L258.11,96.3L258.58,95.66L259.53,95.72L260,97.5L261.42,95.51L261.89,96.17L263.32,96.53L263.79,97.22L265.68,95.31L266.16,96.07L266.63,96.56L267.1,95.91L268.05,96.05L268.52,96.43L269,95.79L269.47,96.4L269.95,96.56L270.89,96.16L271.37,97.09L272.31,96.7L272.79,97.99L273.73,98.42L274.21,99.52L274.68,100.01L275.15,98.75L276.1,98.91L276.58,97.29L277.52,97.44L278,96.65L278.47,95.53L278.94,95.87L279.42,95.77L281.79,90.11L282.26,90.45L282.73,90.52L285.1,90.16L285.57,91.16L287.94,94.33L288.42,95.13L288.89,95.97L289.36,95.56L289.84,94.58L290.31,94.06L290.78,94.74L291.26,95.34L291.73,94.67L292.2,95.17L292.68,93.88L295.05,89.37L295.52,88.43L296.94,89.28L297.41,89.4L298.36,89.05L298.83,90.13L299.78,90.63L300.26,91.35L300.73,90.84L301.2,92L301.68,91.84L302.15,92.74L307.36,100.62L307.83,102.12L308.78,103.13L309.25,102.63L311.62,103.26L312.09,104.25L315.41,99.51L315.88,100.38L317.3,97.29L317.78,96.95L322.99,89.8L323.46,91.03L323.93,91.23L324.41,90.29L326.3,85.79L326.78,87.18L327.72,87.5L328.2,87.15L329.62,90.54L330.09,91.67L332.93,97.26L333.41,97.67L335.3,100.78L335.77,99.66L336.72,101.28L337.19,100.92L338.62,99.17L339.09,99.78L340.51,100.12L340.98,98.81L341.93,98.42L342.4,97L342.88,97.68L343.35,96.76L343.83,95.99L344.3,96.68L344.77,97.67L345.25,97.33L345.72,97.16L346.67,96.73L347.14,95.95L349.03,94.9L349.51,96.24L350.46,94.78L350.93,95.54L351.4,96.01L351.88,95.52L352.35,94.54L355.66,99.15L356.14,101.68L356.61,101.82L357.09,103.62L358.51,103.35L358.98,104.5L359.93,106.06L360.4,106.51L360.87,106.45L361.35,108.16L361.82,107.6L362.3,108.28L362.77,108.14L363.24,106.64L363.72,106.97L364.19,105.81L365.61,107.07L366.08,106.25L366.56,106.53L367.03,108.12L367.98,108.73L368.45,107.81L371.29,112.84L371.77,113.25L373.19,114.43L373.66,113.67L375.08,112.99L375.56,113.83L376.03,113.96L376.5,112.91L377.45,114.26L377.92,112.83L378.87,111.21L379.34,111.44L379.82,111.79L380.29,111.2L380.77,111.04L381.24,109.85L383.13,113.09L383.61,114.23L384.55,113.06L385.03,115.08L386.45,116.78L386.92,116.36L388.34,117.2L388.82,116.15L390.71,113.89L391.18,115.05L394.03,111.88L394.5,112.61L397.81,117.15L398.29,116.71L399.71,117.96L400.18,119.24L400.66,119.33L401.13,120.67L402.08,119.54L402.55,120.76L403.02,121.75L403.5,121.44L403.97,121.35L404.44,121.47L404.92,120.72L405.39,119.9L405.87,121.47L406.34,122.82L406.81,122.04L407.29,121.72L408.23,121.96L408.71,123.99L409.18,125.48L409.65,125.2L410.13,124.9L412.5,128.92L412.97,128.25L413.44,126.95L413.92,128.39L414.39,129.62L414.86,129.01L415.34,129.39L416.76,128.96L417.23,128.85L418.18,129.63L418.65,128.82L421.02,131.17L421.49,130.68L422.44,131.97L422.91,131.46L423.39,131.38L423.86,133.16L424.81,134.48L425.28,134.29L425.76,135.5L426.23,135.25L426.7,135.48L429.07,136.95L429.54,136.33L431.91,137.17L432.39,138.65L433.33,138.36L433.81,139.09L436.17,139.4L436.65,140.97L438.54,143.22L439.02,142.82L439.96,143.01L440.44,143.55L441.38,142.29L441.86,143.51L443.28,146.14L443.75,146.08L444.23,146.42L444.7,145.65L445.17,145.84L445.65,145.03L447.07,145.97L447.54,145.86L448.49,148.34L448.96,147.83L449.44,147.22L452.28,148.07L452.75,149.23L454.17,150.83L454.64,152.33L456.07,151.86L456.54,153.02L457.49,155.15L457.96,154.6L458.43,154.2L459.85,154.98L460.33,155.57L461.28,154.04L461.75,152.75L462.7,152.23L463.17,152.14L466.01,147.34L466.48,148.24L466.96,148.13L467.43,146.55L467.91,146.16L468.38,146.88L469.33,147.28L469.8,147.74L470.27,147.69L470.75,146.19L472.17,148.35L472.64,148.18L474.06,147.04L474.54,148.71L475.96,150.76L476.43,150.08L477.38,150.6L477.85,152.88L480.22,154.61L480.69,153.54L481.64,154.78L482.11,154.15L482.59,154.33L483.06,155.54L483.53,154.55L484.01,155.33L487.32,153.1L487.8,153.54L489.69,151.16L490.16,149.83L490.64,151.1L491.11,150.32L491.58,149.98L492.53,149.56L493.01,149.36L493.48,148.46L493.95,149.39L495.85,150.27L496.32,151.73L497.74,153.85L498.21,153.98L499.16,153.6L499.64,154.71L501.53,158.1L502,158.24L503.42,159.39L503.9,158.96L504.85,158.91L505.32,159.71L506.27,160.86L506.74,161L507.21,160.82L507.69,161.9L509.11,163.58L509.58,164.33L510.05,163.77L510.53,164.36L511,164.12L513.37,163.94L513.84,165.12L514.32,166.86L514.79,165.84L515.26,167.19L515.74,167.67L516.21,166.89L518.11,166.66L518.58,166.66L520,166.66" style="vector-effect: non-scaling-stroke; fill: none; stroke: rgb(171, 99, 250); stroke-opacity: 1; stroke-width: 2px; opacity: 1;"/></g><g class="points"/><g class="text"/></g><g class="trace scatter trace06966c" style="stroke-miterlimit: 2; opacity: 1;"><g class="fills"/><g class="errorbars"/><g class="lines"><path class="js-line" d="M0,176.84L4.74,177.39L5.21,177.69L6.16,177.81L6.63,177.03L8.05,175.63L8.52,175.93L9.95,173.9L10.42,174.5L10.89,174.69L11.37,174.04L12.31,172.24L12.79,172.98L14.21,174.43L14.68,174.39L16.1,173.57L16.58,174.95L17.05,174.73L17.52,172.86L18,173.14L18.47,174.55L20.36,175.92L20.84,176.14L21.79,175.55L22.26,175.82L23.68,177.06L24.15,176.46L26.05,176.87L26.52,176.35L27.47,176.24L27.94,175.69L28.42,174.82L28.89,175.44L29.36,175.45L29.84,176.08L30.31,175.24L30.78,174.92L31.26,176.24L32.2,176.52L32.68,174.87L34.1,173.43L34.57,172.13L35.52,174.16L35.99,172.03L40.73,161.96L41.2,161.62L41.68,162.03L42.15,160.85L42.62,159.49L43.1,159.91L43.57,160.47L44.52,160.26L44.99,160.76L45.94,161.2L46.41,161.73L47.36,160.4L47.83,160.72L48.31,160.56L48.78,160.64L49.25,158.84L49.73,159.77L50.2,159.03L50.67,157.8L51.15,158.17L51.62,157.9L52.09,157.75L52.57,156.52L53.99,155.77L54.46,154.63L55.88,152.6L56.36,153.81L56.83,152.51L57.3,153.61L57.78,154.14L58.25,153.03L58.72,153.93L59.2,152.82L61.09,154.51L61.57,156.18L62.51,158.56L62.99,157.94L63.46,158.26L64.88,160.08L65.36,160.71L65.83,159.77L66.3,161.82L66.78,162.3L67.25,160.4L68.67,158.71L69.14,159.63L71.04,158L71.51,158.75L72.46,159.25L72.93,160.38L73.88,160.01L74.35,161.56L75.3,161.53L75.77,160.81L76.72,159.22L77.19,159.94L77.67,160.52L78.14,159.86L79.09,158.09L79.56,158.32L80.51,156.81L80.98,157.45L81.46,157.34L81.93,158.02L83.35,160.22L83.83,160.5L84.3,160.7L84.77,159.88L86.19,159.96L86.67,159.09L87.61,158.95L88.09,157.85L89.03,157.78L89.51,156.19L90.46,156.7L90.93,155.55L92.35,152.95L92.82,152.98L94.72,149.82L95.19,150.27L95.66,150.36L96.61,148.94L97.09,149L97.56,149L98.03,150.21L98.98,149.71L99.45,150.37L101.82,152.08L102.3,151.44L103.24,151.04L103.72,151.65L105.14,146.52L105.61,147.27L106.08,148.06L106.56,146.92L107.5,145.33L107.98,145.88L108.45,144.66L108.93,145.29L109.4,145.46L110.82,145.32L111.29,147L112.71,149.83L113.19,148.99L113.66,148.81L114.13,149.58L115.08,148.35L115.56,148.92L116.03,148.85L116.5,147.84L117.45,148.68L117.92,148.39L118.87,147.05L119.34,147L120.77,147.22L121.24,147.14L122.19,147.49L122.66,146.82L124.55,147.3L125.03,146.51L125.97,146.92L126.45,146.2L127.4,144.75L127.87,146.52L129.29,144.34L129.76,145.16L131.18,145.43L131.66,146.33L132.6,148.32L133.08,147.94L134.03,147.84L134.5,149.9L134.97,148.78L135.45,149.24L135.92,150.28L138.29,153.8L138.76,152.52L139.23,150.59L139.71,151.24L140.18,151.49L141.13,152.99L141.6,152.15L142.08,153.1L142.55,152.58L143.02,151.7L145.87,146.24L146.34,147.51L147.29,148.14L147.76,148.42L148.71,148.96L149.18,148.07L150.6,150.27L151.07,150.23L152.5,151.78L152.97,153.57L154.86,151.51L155.34,151.35L156.76,151.01L157.23,151.48L159.13,152.67L159.6,152.38L160.07,151.62L160.55,152.39L161.02,153.15L161.49,151.58L162.91,151.68L163.39,152.06L164.81,151.66L165.28,152.07L165.76,152.25L166.23,151.54L167.18,152.27L167.65,151.12L168.12,150.17L168.6,150.92L170.49,146.8L170.97,146.82L171.91,145.76L172.39,143.75L174.75,139.87L175.23,139L176.17,137.83L176.65,138.42L179.02,136.16L179.49,136.56L180.44,136.12L180.91,138.49L183.75,142.95L184.23,143.37L184.7,142.06L185.17,142.97L185.65,142.55L186.12,142.41L186.59,143.15L187.54,143.49L188.01,142.82L189.91,140.19L190.38,139.9L191.33,138.86L191.8,140.2L193.22,140.51L193.7,138.92L194.17,139.88L194.64,139.19L195.12,137.6L196.07,137.62L196.54,137.29L197.49,135.45L197.96,135.93L198.43,136.49L199.85,134.69L200.33,135.01L201.75,136.65L202.22,136.68L203.17,137.76L203.64,137.64L204.12,137.16L204.59,139.02L205.06,138L205.54,138.71L206.01,138.11L206.48,138.38L206.96,137.43L208.85,134.92L209.33,135.2L210.27,133.86L210.75,134.11L211.22,134.92L211.69,134.19L212.17,135.15L212.64,133.9L214.06,136.54L214.54,136.51L215.01,137.85L215.48,137.56L215.96,137.24L217.38,137.79L217.85,137.77L219.27,137.15L219.74,138.96L220.69,136.87L221.17,137.03L221.64,138.04L222.11,137.32L222.59,137.03L223.53,137.83L224.01,136.77L224.95,136.09L225.43,136.54L225.9,135.57L226.38,136.5L226.85,135.17L227.32,135.83L227.8,135.86L228.27,135.67L228.74,136.76L229.69,138.96L230.16,138L231.11,137.66L231.58,138.04L232.06,138.58L232.53,137.89L233.95,137.28L234.43,138.04L235.37,137.59L235.85,136.86L236.79,135.29L237.27,136.05L238.21,136.08L238.69,137.04L240.58,138.47L241.06,138.52L242,137.94L242.48,138.12L243.42,136.24L243.9,136.79L244.37,137.1L245.32,137.53L245.79,136.32L247.69,134.97L248.16,136.1L248.63,136.04L249.11,136.83L251,138.95L251.48,138.35L255.74,137.44L256.21,135.84L257.16,133.47L257.63,134.26L258.58,134.45L259.05,134.02L260.47,133.37L260.95,131.51L261.42,131.79L261.89,130.95L262.37,130.94L262.84,129.83L264.26,131.85L264.74,131.42L265.21,130.42L265.68,130.69L266.16,130.35L269.95,135.35L270.42,135.31L271.37,134.26L271.84,133.4L273.73,134.79L274.21,136.4L275.15,136.06L275.63,136.87L277.52,133.28L278,133.73L278.47,133.06L278.94,133.95L281.79,127.13L282.26,128.05L283.68,127.14L284.15,127.94L284.63,127.6L285.1,126.34L285.57,126.27L286.05,125.34L286.99,125.18L287.47,126.59L288.42,126.14L288.89,126.49L289.84,126.62L290.31,127.47L291.26,127.28L291.73,127.37L293.15,129.32L293.62,128.04L294.1,128.35L294.57,127.25L295.05,127.71L295.52,126.52L296.47,126L296.94,125.21L298.83,126.21L299.31,125.4L300.26,124.05L300.73,125.63L301.2,125.3L301.68,126.58L304.04,130.86L304.52,130.05L304.99,131.08L305.46,130.33L305.94,130.2L308.31,134.36L308.78,133.55L310.67,133.72L311.15,133.05L313.04,136.7L313.52,136.72L314.94,136.65L315.41,135.36L317.78,132.95L318.25,133.06L320.15,129.16L320.62,127.79L323.46,125.39L323.93,126.07L327.25,122.04L327.72,122.13L328.2,122.38L328.67,123.64L330.56,124.73L331.04,124.88L333.41,133.22L333.88,135.37L335.3,138.73L335.77,137.53L336.25,137.42L336.72,139.79L338.62,142.12L339.09,140.26L339.56,141.06L340.04,139.3L342.4,135.6L342.88,136.16L344.3,134.39L344.77,135.33L345.72,134L346.19,135.12L346.67,134.26L347.14,135.43L348.09,136.02L348.56,135.85L349.03,134.85L349.51,135.83L351.4,134.46L351.88,132.74L353.3,131.41L353.77,132.06L354.24,130.77L354.72,131.11L355.19,132.47L356.14,134.65L356.61,133.45L358.03,135.69L358.51,136.24L359.93,138.7L360.4,141.44L361.82,143.8L362.3,142.78L363.24,142.53L363.72,144.23L364.19,143.68L364.66,144.37L365.61,143.86L366.08,145.45L366.56,146.52L367.03,145.89L367.5,145.56L368.93,144.96L369.4,145.85L371.29,148.9L371.77,149.63L372.71,149.78L373.19,148.58L374.61,145.9L375.08,145.61L376.03,145.07L376.5,145.5L379.82,146.76L380.29,147.63L380.77,147.7L381.24,148.95L381.71,149.47L382.19,148.61L383.13,150.96L383.61,149.34L385.03,148.97L385.5,149.55L386.45,149.07L386.92,148.78L387.4,148.22L387.87,149.54L388.82,149.09L389.29,151.13L390.24,150.64L390.71,151.71L392.13,152.67L392.6,151.22L393.55,152.31L394.03,154.23L395.45,156.64L395.92,156.91L398.29,157.34L398.76,158.57L399.23,158.57L399.71,159.53L400.18,159.92L400.66,158.86L401.13,158.58L401.6,159.63L402.55,159.45L403.02,158.51L405.39,161.32L405.87,160.84L406.34,160.12L406.81,161.38L408.23,163.92L408.71,164.06L410.13,165.93L410.6,165.14L412.02,164.62L412.5,165.79L413.44,167.94L413.92,167.48L414.39,166.54L416.28,163.51L416.76,163.2L418.65,165.25L419.13,165.1L420.07,163.39L420.55,163.81L421.02,164.35L421.49,164.79L421.97,166.8L422.44,167.23L422.91,169.02L423.39,168.58L423.86,169.57L425.76,169.55L426.23,171.15L427.18,173.06L427.65,172.35L429.07,170.94L429.54,171.42L430.02,171.04L430.49,172.25L431.44,172.79L431.91,173.44L432.86,173.42L433.33,172.21L433.81,172.03L434.28,173.28L436.17,177.35L436.65,177.74L439.96,183.31L440.44,185.65L441.86,187.72L442.33,187.91L443.28,187.83L443.75,188.05L444.7,186.51L445.17,186.52L445.65,186.69L446.12,188.07L447.54,185.84L448.01,186.23L448.49,186.5L450.86,189.24L451.33,191.41L452.28,192.02L452.75,191.79L453.22,191.38L453.7,192.77L455.12,194.77L455.59,194.75L456.07,194.19L456.54,195.06L457.01,196.27L457.49,195.98L457.96,195.12L458.43,193.83L458.91,194.08L459.38,193.75L460.33,193.43L460.8,192.59L461.28,192.49L461.75,190.72L465.06,185.34L465.54,185.37L466.96,184.56L467.43,184.26L468.38,183.75L468.85,184.61L470.75,183.88L471.22,184.71L472.64,185.39L473.11,185.42L473.59,184.52L474.06,184.88L474.54,184.79L476.43,188.69L476.9,190.35L478.32,190.9L478.8,190.2L480.22,192.26L480.69,192.84L482.11,194.46L482.59,193.56L483.53,194.19L484.01,193.19L484.95,193.52L485.43,193.69L486.85,191.85L487.32,190.51L487.8,190.73L488.27,189.98L488.74,189.69L489.22,188.31L492.53,186.35L493.01,187.67L493.95,188.14L494.43,188.79L495.85,188.86L496.32,189.15L496.79,189.46L497.27,188.09L498.69,186.95L499.16,187.73L499.64,188.17L500.11,186.28L500.58,186.81L501.06,188.63L503.9,194.77L504.37,196.89L504.85,197.1L505.32,198.83L506.27,201.59L506.74,201.74L507.21,203.75L507.69,203.33L508.16,203.13L509.11,203.72L509.58,204.09L510.53,203.63L511,202.89L511.95,204.45L512.42,203.31L512.9,201.97L513.37,202.55L513.84,203.6L516.68,206.97L517.16,206.97L520,206.97" style="vector-effect: non-scaling-stroke; fill: none; stroke: rgb(255, 161, 90); stroke-opacity: 1; stroke-width: 2px; opacity: 1;"/></g><g class="points"/><g class="text"/></g></g></g><g class="overplot"/><path class="xlines-above crisp" d="M0,0" style="fill: none;"/><path class="ylines-above crisp" d="M0,0" style="fill: none;"/><g class="overlines-above"/><g class="xaxislayer-above"><g class="xtick"><text text-anchor="middle" x="0" y="260" transform="translate(55,0)" style="font-family: 'Open Sans', verdana, arial, sans-serif; font-size: 12px; fill: rgb(42, 63, 95); fill-opacity: 1; white-space: pre;">2014</text></g><g class="xtick"><text text-anchor="middle" x="0" y="260" transform="translate(227.39,0)" style="font-family: 'Open Sans', verdana, arial, sans-serif; font-size: 12px; fill: rgb(42, 63, 95); fill-opacity: 1; white-space: pre;">2015</text></g><g class="xtick"><text text-anchor="middle" x="0" y="260" transform="translate(400.25,0)" style="font-family: 'Open Sans', verdana, arial, sans-serif; font-size: 12px; fill: rgb(42, 63, 95); fill-opacity: 1; white-space: pre;">2016</text></g><g class="xtick"><text text-anchor="middle" x="0" y="260" transform="translate(573.11,0)" style="font-family: 'Open Sans', verdana, arial, sans-serif; font-size: 12px; fill: rgb(42, 63, 95); fill-opacity: 1; white-space: pre;">2017</text></g></g><g class="yaxislayer-above"><g class="ytick"><text text-anchor="end" x="50" y="4.199999999999999" transform="translate(0,206.56)" style="font-family: 'Open Sans', verdana, arial, sans-serif; font-size: 12px; fill: rgb(42, 63, 95); fill-opacity: 1; white-space: pre;">45</text></g><g class="ytick"><text text-anchor="end" x="50" y="4.199999999999999" transform="translate(0,134.68)" style="font-family: 'Open Sans', verdana, arial, sans-serif; font-size: 12px; fill: rgb(42, 63, 95); fill-opacity: 1; white-space: pre;">50</text></g><g class="ytick"><text text-anchor="end" x="50" y="4.199999999999999" transform="translate(0,62.81)" style="font-family: 'Open Sans', verdana, arial, sans-serif; font-size: 12px; fill: rgb(42, 63, 95); fill-opacity: 1; white-space: pre;">55</text></g></g><g class="overaxes-above"/></g></g><g class="polarlayer"/><g class="ternarylayer"/><g class="geolayer"/><g class="funnelarealayer"/><g class="pielayer"/><g class="treemaplayer"/><g class="sunburstlayer"/><g class="glimages"/><defs id="topdefs-f13884"><g class="clips"/><clipPath id="legendf13884"><rect width="116" height="105" x="0" y="0"/></clipPath></defs><g class="layer-above"><g class="imagelayer"/><g class="shapelayer"/></g><g class="infolayer"><g class="legend" pointer-events="all" transform="translate(60.2, 27.180000000000003)"><rect class="bg" shape-rendering="crispEdges" width="116" height="105" x="0" y="0" style="stroke: rgb(68, 68, 68); stroke-opacity: 1; fill: rgb(255, 255, 255); fill-opacity: 1; stroke-width: 0px;"/><g class="scrollbox" transform="translate(0, 0)" clip-path="url('#legendf13884')"><g class="groups"><g class="traces" transform="translate(0, 14.5)" style="opacity: 1;"><text class="legendtext user-select-none" text-anchor="start" x="40" y="4.680000000000001" style="font-family: 'Open Sans', verdana, arial, sans-serif; font-size: 12px; fill: rgb(42, 63, 95); fill-opacity: 1; white-space: pre;">Sem taxação</text><g class="layers" style="opacity: 1;"><g class="legendfill"/><g class="legendlines"><path class="js-line" d="M5,0h30" style="fill: none; stroke: rgb(99, 110, 250); stroke-opacity: 1; stroke-width: 2px;"/></g><g class="legendsymbols"><g class="legendpoints"/></g></g><rect class="legendtoggle" pointer-events="all" x="0" y="-9.5" width="110.359375" height="19" style="cursor: pointer; fill: rgb(0, 0, 0); fill-opacity: 0;"/></g><g class="traces" transform="translate(0, 33.5)" style="opacity: 1;"><text class="legendtext user-select-none" text-anchor="start" x="40" y="4.680000000000001" style="font-family: 'Open Sans', verdana, arial, sans-serif; font-size: 12px; fill: rgb(42, 63, 95); fill-opacity: 1; white-space: pre;">Taxa 1.05</text><g class="layers" style="opacity: 1;"><g class="legendfill"/><g class="legendlines"><path class="js-line" d="M5,0h30" style="fill: none; stroke: rgb(239, 85, 59); stroke-opacity: 1; stroke-width: 2px;"/></g><g class="legendsymbols"><g class="legendpoints"/></g></g><rect class="legendtoggle" pointer-events="all" x="0" y="-9.5" width="110.359375" height="19" style="cursor: pointer; fill: rgb(0, 0, 0); fill-opacity: 0;"/></g><g class="traces" transform="translate(0, 52.5)" style="opacity: 1;"><text class="legendtext user-select-none" text-anchor="start" x="40" y="4.680000000000001" style="font-family: 'Open Sans', verdana, arial, sans-serif; font-size: 12px; fill: rgb(42, 63, 95); fill-opacity: 1; white-space: pre;">Taxa 1.10</text><g class="layers" style="opacity: 1;"><g class="legendfill"/><g class="legendlines"><path class="js-line" d="M5,0h30" style="fill: none; stroke: rgb(0, 204, 150); stroke-opacity: 1; stroke-width: 2px;"/></g><g class="legendsymbols"><g class="legendpoints"/></g></g><rect class="legendtoggle" pointer-events="all" x="0" y="-9.5" width="110.359375" height="19" style="cursor: pointer; fill: rgb(0, 0, 0); fill-opacity: 0;"/></g><g class="traces" transform="translate(0, 71.5)" style="opacity: 1;"><text class="legendtext user-select-none" text-anchor="start" x="40" y="4.680000000000001" style="font-family: 'Open Sans', verdana, arial, sans-serif; font-size: 12px; fill: rgb(42, 63, 95); fill-opacity: 1; white-space: pre;">Taxa 1.15</text><g class="layers" style="opacity: 1;"><g class="legendfill"/><g class="legendlines"><path class="js-line" d="M5,0h30" style="fill: none; stroke: rgb(171, 99, 250); stroke-opacity: 1; stroke-width: 2px;"/></g><g class="legendsymbols"><g class="legendpoints"/></g></g><rect class="legendtoggle" pointer-events="all" x="0" y="-9.5" width="110.359375" height="19" style="cursor: pointer; fill: rgb(0, 0, 0); fill-opacity: 0;"/></g><g class="traces" transform="translate(0, 90.5)" style="opacity: 1;"><text class="legendtext user-select-none" text-anchor="start" x="40" y="4.680000000000001" style="font-family: 'Open Sans', verdana, arial, sans-serif; font-size: 12px; fill: rgb(42, 63, 95); fill-opacity: 1; white-space: pre;">Taxa 1.20</text><g class="layers" style="opacity: 1;"><g class="legendfill"/><g class="legendlines"><path class="js-line" d="M5,0h30" style="fill: none; stroke: rgb(255, 161, 90); stroke-opacity: 1; stroke-width: 2px;"/></g><g class="legendsymbols"><g class="legendpoints"/></g></g><rect class="legendtoggle" pointer-events="all" x="0" y="-9.5" width="110.359375" height="19" style="cursor: pointer; fill: rgb(0, 0, 0); fill-opacity: 0;"/></g></g></g><rect class="scrollbar" rx="20" ry="3" width="0" height="0" x="0" y="0" style="fill: rgb(128, 139, 164); fill-opacity: 1;"/></g><g class="g-gtitle"><text class="gtitle" x="30" y="12.5" text-anchor="start" dy="0em" style="font-family: 'Open Sans', verdana, arial, sans-serif; font-size: 17px; fill: rgb(42, 63, 95); opacity: 1; font-weight: normal; white-space: pre;">Quantidade media de carne consumida por agentes com Renda Alta</text></g><g class="g-xtitle"><text class="xtitle" x="315" y="287.8" text-anchor="middle" style="font-family: 'Open Sans', verdana, arial, sans-serif; font-size: 14px; fill: rgb(42, 63, 95); opacity: 1; font-weight: normal; white-space: pre;">Tempo (dia)</text></g><g class="g-ytitle" transform="translate(1.1591796875,0)"><text class="ytitle" transform="rotate(-90,11.840625000000003,134)" x="11.840625000000003" y="134" text-anchor="middle" style="font-family: 'Open Sans', verdana, arial, sans-serif; font-size: 14px; fill: rgb(42, 63, 95); opacity: 1; font-weight: normal; white-space: pre;">Quantidade de carne(g)</text></g></g></svg>